<?xml version="1.0" encoding="utf-8"?>
<!-- Generator: Adobe Illustrator 26.0.2, SVG Export Plug-In . SVG Version: 6.00 Build 0)  -->
<svg version="1.1" id="Layer_1" xmlns="http://www.w3.org/2000/svg" xmlns:xlink="http://www.w3.org/1999/xlink" x="0px" y="0px"
	 viewBox="0 0 574.9 825.7" style="enable-background:new 0 0 574.9 825.7;" xml:space="preserve">
<style type="text/css">
	.st0{fill:none;stroke:#E0007A;stroke-width:10;stroke-miterlimit:10;}
	.st1{enable-background:new    ;}
	.st2{fill:#FFFFFF;}
</style>
<path id="Path_1" class="st0" d="M149.8,15.1l150,53.2l51-26.6l61,90.1l22,124.5l18.2,35l-9.1,67.2l62.2,105.8l49,117.5l-71.1,25.9
	l24.6,137.5l-11.7,36.3h-188c0,0-144,16.9-158.2,19.5S36.3,811.4,36.3,811.4"/>
<path id="Path_2" class="st0" d="M245.9,4.6l177.7,73.9l-18.2,90.8l70,197.1L548,537.1l21.9,38.3v15.4c0,0-24.4,16.9-28.3,13
	s-44.1-41.5-44.1-41.5l1.3,54.4l14.3,59.7l-20.7,58.4l5.1,13.4l-1.2,55.4l-180.7,16.9l-13.9-57.1L21.6,752.9"/>
<g class="st1">
	<path class="st2" d="M61.8,227c-11.8,0-21.2-3.9-28.3-11.8c-7.1-7.9-10.6-19.3-10.6-34.2c0-10,1.2-19.3,3.6-28
		c2.4-8.7,6.2-19.2,11.3-31.5c5.5-12.9,9.7-24.4,12.7-34.2c3-9.9,4.6-16.5,5-19.8l0.5-5h49.3l61,161.6h-39.1l-19.7-52.8l-2.7,0.7
		c-1.3,6.3-2.4,11-3.1,13.9c-0.7,3-2.3,7.6-4.6,13.8c-2.3,6.2-4.8,11-7.5,14.2c-2.7,3.2-6.4,6.2-11.3,9C73.5,225.6,68,227,61.8,227z
		 M83,95.5c-0.7,1.7-2.2,5.6-4.6,11.8c-2.4,6.2-4,10.5-4.9,12.7c-0.8,2.2-2.2,6-4.1,11.2c-1.9,5.2-3.2,9.3-4,12.1
		c-0.7,2.8-1.7,6.3-2.7,10.5c-1.1,4.2-1.8,7.8-2.2,11.1c-0.4,3.2-0.6,6.4-0.6,9.6c0,7.5,1.6,13.1,4.9,16.9c3.2,3.8,7.6,5.7,13.1,5.7
		c9.1,0,15.7-5.3,19.8-15.8c4.1-10.5,4.2-22.7,0.4-36.5L83,95.5z"/>
</g>
<g class="st1">
	<path class="st2" d="M171.5,271V159.3c0-15.7-0.6-29.4-1.7-41c-1.1-11.7-2.2-19.4-3.4-23.1l-1.4-5.9h47v143.6h83.7V271H171.5z"/>
</g>
<g class="st1">
	<path class="st2" d="M230.8,190.8c0-10,4.1-18.1,12.3-24.3c8.2-6.2,19.4-9.2,33.8-9.2h22.8c0-14.5-5.4-21.7-16.1-21.7
		c-9,0-15.6,4-19.6,12L236,136.2c3.6-7.3,9.4-14,17.5-20.1c8.1-6.1,18.5-9.1,31.1-9.1c30.8,0,46.2,17.1,46.2,51.4v20.4
		c0,3.3,0.6,5.7,1.8,7.2c1.2,1.5,3.5,2.3,7,2.3l10.1-1.5l-2.6,30.3c-6.6,1.7-13.7,2.6-21.3,2.6c-17.5,0-26.2-8.8-26.2-26.4v-12.9
		L297,180c-0.7,3.4-1.5,6.5-2.3,9.1c-0.8,2.7-2.2,6-4.1,10.1s-4.1,7.5-6.6,10.2c-2.4,2.7-5.8,5.1-10,7.1c-4.2,2-8.9,3-14.1,3
		c-9.2,0-16.3-2.7-21.5-8.2C233.4,206,230.8,199.1,230.8,190.8z M299.2,162.2h-8.8c-18.9,0-28.4,5.7-28.4,17c0,3.6,1.1,6.4,3.2,8.4
		c2.2,2,5,3,8.6,3c7.5,0,13.2-2.9,17.2-8.6C295,176.2,297.8,169.6,299.2,162.2z"/>
</g>
<g class="st1">
	<path class="st2" d="M237.9,330.7c-6.7,0-12.1,2.4-16.1,7.3c-4,4.9-6,11.6-6,20.2s2,15.3,6,20.1c4,4.8,9.4,7.2,16.1,7.2
		c3.6,0,6.8-0.6,9.6-1.7c2.8-1.1,4.9-2.6,6.3-4.3c1.4-1.7,2.4-3.2,3-4.3c0.6-1.1,1-2.1,1.3-2.8l28.2,12.7
		c-3.6,7.9-9.2,14.8-16.9,20.6c-7.7,5.9-18.1,8.8-31.3,8.8c-15.9,0-28.8-5.2-38.8-15.6c-10-10.4-14.9-24-14.9-40.7s5-30.3,14.9-40.6
		c10-10.3,22.9-15.5,38.8-15.5c13.2,0,23.6,2.9,31.3,8.7c7.7,5.8,13.3,12.6,16.9,20.3l-28.2,12.9c-0.3-0.7-0.7-1.6-1.3-2.8
		c-0.6-1.1-1.6-2.6-3-4.4c-1.4-1.8-3.5-3.3-6.3-4.4C244.7,331.3,241.5,330.7,237.9,330.7z"/>
</g>
<g class="st1">
	<path class="st2" d="M326.8,493.2h3.9v24.3h28.7v3.9h-28.7v45.3c0,5.1,1,8.5,3,10.1c2,1.7,5.3,2.5,9.8,2.5c2.6,0,5.4-0.3,8.4-1
		c3-0.7,5.3-1.4,7-2l2.4-0.8l-3.9,24.5c-6,2.7-13.3,4.1-22,4.1c-19.5,0-29.2-9.9-29.2-29.6v-53.1h-9.6v-3.9L326.8,493.2z"/>
</g>
<g class="st1">
	<path class="st2" d="M285.8,339.8c0-10,4.1-18.1,12.3-24.3c8.2-6.2,19.4-9.2,33.8-9.2h22.8c0-14.5-5.4-21.7-16.1-21.7
		c-9,0-15.6,4-19.6,12l-28-11.4c3.6-7.3,9.4-14,17.5-20.1c8.1-6.1,18.5-9.1,31.1-9.1c30.8,0,46.2,17.1,46.2,51.4v20.4
		c0,3.3,0.6,5.7,1.8,7.2c1.2,1.5,3.5,2.3,7,2.3l10.1-1.5l-2.6,30.3c-6.6,1.7-13.7,2.6-21.3,2.6c-17.5,0-26.2-8.8-26.2-26.4v-12.9
		L352,329c-0.7,3.4-1.5,6.5-2.3,9.1c-0.8,2.7-2.2,6-4.1,10.1c-1.9,4.1-4.1,7.5-6.6,10.2c-2.4,2.7-5.8,5.1-10,7.1
		c-4.2,2-8.9,3-14.1,3c-9.2,0-16.3-2.7-21.5-8.2C288.4,355,285.8,348.1,285.8,339.8z M354.2,311.2h-8.8c-18.9,0-28.4,5.7-28.4,17
		c0,3.6,1.1,6.4,3.2,8.4c2.2,2,5,3,8.6,3c7.5,0,13.2-2.9,17.2-8.6C350,325.2,352.8,318.6,354.2,311.2z"/>
</g>
<g class="st1">
	<path class="st2" d="M192.1,537c0-8,3.3-14.5,9.8-19.4c6.5-4.9,15.5-7.4,27-7.4h18.2c0-11.6-4.3-17.4-12.9-17.4
		c-7.2,0-12.4,3.2-15.7,9.6l-22.4-9.1c2.9-5.8,7.5-11.2,14-16.1c6.5-4.9,14.8-7.3,24.9-7.3c24.7,0,37,13.7,37,41.1v16.3
		c0,2.6,0.5,4.6,1.5,5.8c1,1.2,2.8,1.8,5.6,1.8l8.1-1.2l-2.1,24.3c-5.3,1.4-11,2.1-17,2.1c-14,0-21-7.1-21-21.2v-10.3l-2.1-0.2
		c-0.6,2.8-1.2,5.2-1.8,7.3c-0.6,2.1-1.7,4.8-3.3,8.1c-1.5,3.3-3.3,6-5.2,8.2c-2,2.2-4.6,4.1-8,5.7c-3.4,1.6-7.1,2.4-11.3,2.4
		c-7.3,0-13.1-2.2-17.2-6.5C194.1,549.2,192.1,543.7,192.1,537z M246.7,514.1h-7.1c-15.1,0-22.7,4.5-22.7,13.6
		c0,2.9,0.9,5.1,2.6,6.7c1.7,1.6,4,2.4,6.9,2.4c6,0,10.5-2.3,13.8-6.9C243.4,525.4,245.6,520.1,246.7,514.1z"/>
</g>
<g class="st1">
	<path class="st2" d="M359.6,593.3c0-6.4,2.6-11.6,7.8-15.5c5.2-3.9,12.4-5.9,21.5-5.9h14.5c0-9.2-3.4-13.8-10.3-13.8
		c-5.8,0-9.9,2.6-12.5,7.7l-17.8-7.3c2.3-4.7,6-8.9,11.2-12.8c5.2-3.9,11.8-5.8,19.8-5.8c19.6,0,29.5,10.9,29.5,32.7v13
		c0,2.1,0.4,3.6,1.2,4.6c0.8,1,2.3,1.4,4.5,1.4l6.4-1l-1.6,19.3c-4.2,1.1-8.7,1.6-13.6,1.6c-11.1,0-16.7-5.6-16.7-16.9v-8.2
		l-1.6-0.1c-0.5,2.2-0.9,4.1-1.4,5.8c-0.5,1.7-1.4,3.8-2.6,6.4c-1.2,2.6-2.6,4.8-4.2,6.5c-1.6,1.7-3.7,3.2-6.4,4.5
		c-2.7,1.3-5.7,1.9-9,1.9c-5.8,0-10.4-1.7-13.7-5.2C361.3,603,359.6,598.6,359.6,593.3z M403.2,575.1h-5.6
		c-12.1,0-18.1,3.6-18.1,10.8c0,2.3,0.7,4.1,2.1,5.3c1.4,1.3,3.2,1.9,5.5,1.9c4.7,0,8.4-1.8,11-5.5
		C400.5,584,402.3,579.8,403.2,575.1z"/>
</g>
<g class="st1">
	<path class="st2" d="M262.6,660.9c-4.1,0-7.1,0.7-8.9,2.1c-1.9,1.4-2.8,3-2.8,4.8c0,3.9,4.5,6.8,13.4,8.6
		c10.7,1.9,17.8,3.7,21.3,5.4c6.7,3.1,10,8.2,10,15.2c0,6.2-2.9,11-8.6,14.5c-5.7,3.5-13.2,5.2-22.5,5.2c-9.2,0-16.6-1.6-22.1-4.9
		c-5.5-3.3-8.2-8-8.2-14.1c0-5.1,1.8-9.2,5.4-12.6c3.6-3.3,7.9-5.6,12.9-6.7v-1.6c-4.9-0.9-8.9-2.6-12.2-5.2
		c-3.3-2.6-4.9-6.1-4.9-10.4c0-5.6,2.6-10.2,7.9-13.9c5.2-3.6,11.6-5.4,19.2-5.4c9.2,0,16.6,2,22.1,5.9c5.5,3.9,9.2,8.3,11.1,13.2
		l-18.9,8.3C274.4,663.7,269.7,660.9,262.6,660.9z M274.9,688.5c0-3.1-1.5-5.4-4.4-6.7c-2.9-1.3-6.2-2-9.8-2c-3.8,0-7,0.7-9.6,2.2
		c-2.6,1.5-3.9,3.6-3.9,6.5c0,2.7,1.2,4.8,3.5,6.4c2.3,1.6,5.7,2.4,10.1,2.4c3.9,0,7.2-0.7,9.9-2.1
		C273.5,693.8,274.9,691.6,274.9,688.5z"/>
</g>
<g class="st1">
	<path class="st2" d="M396.6,666.5c-6.1,0-10.5,1-13.3,3.1c-2.8,2.1-4.2,4.4-4.2,7.1c0,5.8,6.7,10.1,20,12.8
		c15.9,2.8,26.5,5.5,31.7,8.1c9.9,4.7,14.9,12.2,14.9,22.6c0,9.2-4.3,16.4-12.8,21.6c-8.5,5.2-19.7,7.8-33.4,7.8
		c-13.8,0-24.7-2.4-32.9-7.3c-8.2-4.9-12.2-11.9-12.2-21c0-7.5,2.7-13.8,8.1-18.7c5.4-5,11.8-8.3,19.2-10v-2.3
		c-7.2-1.3-13.3-3.9-18.2-7.8c-4.9-3.9-7.3-9.1-7.3-15.4c0-8.4,3.9-15.3,11.7-20.7c7.8-5.4,17.3-8.1,28.5-8.1
		c13.8,0,24.7,2.9,32.9,8.7c8.2,5.8,13.7,12.4,16.5,19.6l-28.1,12.4C414.1,670.6,407.1,666.5,396.6,666.5z M414.9,707.6
		c0-4.7-2.2-8-6.5-10c-4.3-2-9.2-3-14.6-3c-5.7,0-10.4,1.1-14.3,3.3c-3.8,2.2-5.8,5.4-5.8,9.7c0,4,1.7,7.2,5.2,9.6
		c3.5,2.4,8.5,3.6,15,3.6c5.8,0,10.8-1.1,14.8-3.2C412.9,715.5,414.9,712.1,414.9,707.6z"/>
</g>
<g class="st1">
	<path class="st2" d="M337.4,651v45.7c0,2.2,0.4,3.8,1.2,4.8c0.8,1,2.3,1.5,4.6,1.5l6.5-1l-1.6,20c-4.4,1.1-9,1.7-14.1,1.7
		c-11.6,0-17.3-5.8-17.3-17.5v-15.5c0-13.1-0.3-21-0.9-23.9c-1-5.1-3.6-8-7.7-8.5c-1.7-0.3-3.8-0.2-6.4,0.1l-0.3-2.7L337.4,651z
		 M337.1,630l0.3,3.1l-22.3,1.6l-0.1-3.3L337.1,630z"/>
</g>
<g class="st1">
	<path class="st2" d="M433.4,572v-29.9c0-1,0-2.5,0-4.5c0-8.1-0.2-13.7-0.5-16.8c-0.3-3.1-1.5-5.7-3.5-7.7c-2-2-5.2-2.6-9.7-1.9
		l-0.1-2.6l33.5-4.6v28.8l1.6,0.5c0.8-4.4,1.8-8.4,2.9-11.8c1.1-3.4,2.5-6.7,4.4-9.7c1.8-3,4.1-5.4,6.9-7c2.8-1.6,6-2.4,9.7-2.4
		c5.8,0,10.5,2.7,14.1,8c3.6,5.3,5,13.4,4.3,24.1l-20,3.7c1.1-12.3-1.3-18.5-7.2-18.5c-2.8,0-5.3,1.6-7.4,4.8
		c-2.1,3.2-3.8,6.9-4.9,11.3c-1.1,4.4-2,9.2-2.7,14.6c-0.7,5.4-1.1,9.8-1.3,13.1c-0.2,3.4-0.3,6.2-0.3,8.6H433.4z"/>
</g>
<g class="st1">
	<path class="st2" d="M22.8,669V531c0-19.1-0.7-35.8-2.1-50.2c-1.4-14.4-2.8-23.9-4.1-28.5l-1.7-7.2h58V541h14.1l69-95.9h61.4
		l-76.2,100l32.1,55.5c3,4.4,5.6,7.9,7.8,10.5c2.2,2.6,5.6,5.1,10.2,7.4c4.6,2.3,9.9,3.5,15.9,3.5l22.4-2.4l-4.1,49.3
		c-11.3,2.8-22,4.1-32.1,4.1c-12.4,0-22.9-2.9-31.4-8.6c-8.5-5.7-16.7-15.4-24.5-29l-50.4-86.6H72.8V669H22.8z"/>
</g>
</svg>
