<?xml version="1.0" encoding="utf-8"?>
<!-- Generator: Adobe Illustrator 26.0.2, SVG Export Plug-In . SVG Version: 6.00 Build 0)  -->
<svg version="1.1" id="Layer_1" xmlns="http://www.w3.org/2000/svg" xmlns:xlink="http://www.w3.org/1999/xlink" x="0px" y="0px"
	 viewBox="0 0 604.9 868.7" style="enable-background:new 0 0 604.9 868.7;" xml:space="preserve">
<style type="text/css">
	.st0{fill:none;stroke:#E0007A;stroke-width:10;stroke-miterlimit:10;}
	.st1{enable-background:new    ;}
	.st2{fill:#FFFFFF;}
</style>
<path id="Path_1" class="st0" d="M179.8,58.1l150,53.2l51-26.6l61,90.1l22,124.5l18.2,35l-9.1,67.2l62.2,105.8l49,117.5l-71.1,25.9
	l24.6,137.5l-11.7,36.3h-188c0,0-144,16.9-158.2,19.5S66.3,854.4,66.3,854.4"/>
<path id="Path_2" class="st0" d="M275.9,47.6l177.7,73.9l-18.2,90.8l70,197.1L578,580.1l21.9,38.3v15.4c0,0-24.4,16.9-28.3,13
	s-44.1-41.5-44.1-41.5l1.3,54.4l14.3,59.7l-20.8,58.4l5.1,13.4l-1.2,55.4l-180.7,16.9l-13.9-57.1L51.6,795.9"/>
<g class="st1">
	<path class="st2" d="M83.5,298.1c-16.3,0-29.4-5.5-39.2-16.4c-9.8-10.9-14.7-26.7-14.7-47.4c0-13.8,1.7-26.7,5-38.8
		c3.3-12.1,8.6-26.6,15.7-43.6c7.6-17.9,13.5-33.8,17.6-47.4c4.1-13.7,6.4-22.8,6.9-27.4l0.7-6.9h68.3L228.4,294h-54.2L147,220.9
		l-3.8,1c-1.8,8.7-3.3,15.2-4.3,19.3c-1,4.1-3.2,10.5-6.4,19.1c-3.2,8.6-6.7,15.2-10.4,19.7c-3.7,4.5-8.9,8.6-15.7,12.4
		C99.6,296.2,92,298.1,83.5,298.1z M112.8,116c-0.9,2.3-3.1,7.8-6.4,16.4c-3.3,8.6-5.6,14.5-6.7,17.6c-1.2,3.1-3.1,8.3-5.7,15.5
		c-2.6,7.2-4.5,12.8-5.5,16.7c-1,3.9-2.3,8.7-3.8,14.5c-1.5,5.8-2.5,10.9-3.1,15.4c-0.6,4.5-0.9,8.9-0.9,13.3
		c0,10.4,2.2,18.2,6.7,23.5c4.5,5.3,10.5,7.9,18.1,7.9c12.6,0,21.8-7.3,27.4-21.9c5.6-14.6,5.8-31.4,0.5-50.5L112.8,116z"/>
</g>
<g class="st1">
	<path class="st2" d="M268.5,123.9v137c0,4,0.8,6.9,2.3,8.7c1.6,1.8,4.3,2.7,8.3,2.7l12.2-1.8l-3.1,36.5c-7.8,2.1-16.2,3.1-25.4,3.1
		c-21.2,0-31.9-10.6-31.9-31.9v-81.6c0-1.7,0-4.1,0-7.3c0-5.2,0-8.9,0-11.3s0-5.5-0.1-9.5c-0.1-4-0.3-6.9-0.5-8.7
		c-0.3-1.8-0.6-4.1-1.2-6.9c-0.5-2.8-1.2-4.7-1.9-6c-0.8-1.2-1.7-2.6-2.8-4.3c-1.1-1.6-2.5-2.7-4-3.2c-1.6-0.5-3.3-1.1-5.3-1.7
		c-2-0.6-4.2-0.9-6.7-0.9c-2.5,0-5.3,0.3-8.4,0.8l-0.3-4.9L268.5,123.9z"/>
</g>
<g class="st1">
	<path class="st2" d="M49,496H21v-82.4c0-17.8-0.4-28.6-1.2-32.4c-1.4-6.9-4.9-10.8-10.4-11.6c-2.3-0.4-5.2-0.3-8.7,0.2l-0.2-3.7
		l48.4-6.6v26.2l2.3,0.6c2.3-7.6,6.6-14.3,12.7-20.2c6.2-5.9,14-8.8,23.5-8.8c12.5,0,22.3,4.6,29.3,13.7
		c7.1,9.1,10.6,21.4,10.6,36.7c0,15.4-4.3,27.7-12.9,36.9c-8.6,9.1-19.9,13.7-34,13.7c-10.3,0-20.8-3.1-31.7-9.3V496z M73.7,432.5
		c7.8,0,13.9-2.3,18.1-6.9s6.4-10.5,6.4-17.8c0-7.5-2-13.4-6-17.9c-4-4.5-10.2-6.8-18.5-6.8c-7.1,0-13,2.4-17.7,7.1
		c-4.7,4.8-7,10.6-7,17.6s2.3,12.8,7,17.6C60.7,430.1,66.6,432.5,73.7,432.5z"/>
</g>
<g class="st1">
	<path class="st2" d="M178.3,307.6v114.8l2.8,0.8c1.9-8.8,4.3-16.8,7.1-24.1c2.8-7.3,6.4-14.2,10.7-20.6c4.3-6.5,9.6-11.5,15.9-15.1
		c6.3-3.6,13.3-5.4,21-5.4c22.2,0,33.3,13.6,33.3,40.8c0,4-0.5,10.9-1.4,20.8c-0.9,9.9-1.4,17.2-1.4,21.8c0,4.8,0.7,8.4,2.2,10.7
		c1.5,2.3,4.2,3.5,8.1,3.5l12.1-1.8l-3.1,36.4c-7.7,2.1-16.7,3.1-26.8,3.1c-9.8,0-17.2-3-22.3-8.9c-5.1-5.9-7.6-14.2-7.6-24.9
		c0-6,0.5-14,1.4-24c0.9-10,1.4-17.5,1.4-22.7c0-13.4-4.6-20.1-13.7-20.1c-8.1,0-15,4.3-20.8,12.8c-5.8,8.5-9.9,18.9-12.4,31.2
		c-2.5,12.3-4.2,22.9-5.2,31.7c-0.9,8.9-1.4,16.1-1.4,21.8h-37.4V380.1c0-1.7,0-4.1,0-7.2c0-5.2,0-8.9,0-11.2c0-2.3,0-5.5-0.1-9.4
		c-0.1-4-0.3-6.8-0.5-8.6c-0.3-1.8-0.6-4.1-1.2-6.8c-0.5-2.7-1.2-4.7-1.9-5.9c-0.8-1.2-1.7-2.6-2.8-4.3c-1.1-1.6-2.5-2.7-4-3.2
		s-3.3-1.1-5.3-1.7c-2-0.6-4.2-0.9-6.7-0.9c-2.5,0-5.3,0.3-8.4,0.8l-0.5-4.9L178.3,307.6z"/>
</g>
<g class="st1">
	<path class="st2" d="M132.1,629v-42.9c0-1.4,0-3.6,0-6.4c0-11.6-0.2-19.6-0.7-24.1c-0.5-4.5-2.1-8.2-5-11
		c-2.9-2.9-7.5-3.8-13.8-2.7l-0.2-3.7l48-6.6v41.3l2.3,0.8c1.2-6.4,2.5-12,4.1-17c1.6-4.9,3.6-9.6,6.2-13.9c2.6-4.4,5.9-7.7,9.9-10
		c4-2.3,8.6-3.5,13.8-3.5c8.3,0,15,3.8,20.2,11.4c5.1,7.6,7.2,19.1,6.1,34.6l-28.7,5.3c1.6-17.7-1.9-26.5-10.3-26.5
		c-4,0-7.6,2.3-10.6,6.8c-3.1,4.6-5.4,9.9-7,16.2c-1.6,6.2-2.9,13.2-3.9,21c-1,7.7-1.6,14-1.9,18.8c-0.3,4.8-0.4,8.9-0.4,12.3H132.1
		z"/>
</g>
<g class="st1">
	<path class="st2" d="M285.4,543.5v62.8c0,3,0.6,5.2,1.7,6.5c1.1,1.4,3.2,2,6.3,2l9-1.4l-2.1,27.5c-6,1.6-12.4,2.3-19.3,2.3
		c-15.9,0-23.8-8-23.8-24v-21.3c0-17.9-0.4-28.9-1.2-32.8c-1.4-7-4.9-10.9-10.5-11.7c-2.3-0.4-5.3-0.3-8.8,0.2l-0.4-3.7L285.4,543.5
		z M285,514.6l0.4,4.3l-30.6,2.1l-0.2-4.5L285,514.6z"/>
</g>
<g class="st1">
	<path class="st2" d="M374.2,539.7c-9.6,0-16.5,1.6-20.9,4.8c-4.3,3.2-6.5,7-6.5,11.2c0,9.1,10.5,15.8,31.4,20
		c24.9,4.5,41.5,8.7,49.8,12.7c15.6,7.3,23.4,19.2,23.4,35.4c0,14.5-6.7,25.8-20,33.9c-13.4,8.1-30.8,12.2-52.4,12.2
		c-21.6,0-38.8-3.8-51.6-11.5c-12.8-7.7-19.2-18.6-19.2-32.9c0-11.8,4.2-21.6,12.7-29.4c8.5-7.8,18.5-13,30.1-15.7v-3.7
		c-11.4-2-20.9-6.1-28.6-12.2c-7.7-6.1-11.5-14.2-11.5-24.2c0-13.1,6.1-23.9,18.4-32.4c12.2-8.5,27.2-12.7,44.8-12.7
		c21.6,0,38.8,4.6,51.6,13.7c12.8,9.1,21.4,19.4,25.9,30.7l-44.1,19.4C401.6,546.2,390.6,539.7,374.2,539.7z M402.9,604.2
		c0-7.3-3.4-12.6-10.2-15.7c-6.8-3.1-14.4-4.7-22.9-4.7c-8.9,0-16.4,1.7-22.4,5.2c-6,3.5-9,8.5-9,15.2c0,6.2,2.7,11.2,8.2,15
		c5.5,3.8,13.3,5.7,23.5,5.7c9.1,0,16.9-1.7,23.2-5S402.9,611.3,402.9,604.2z"/>
</g>
<g class="st1">
	<path class="st2" d="M315,793c-13,0-23.7-4.7-32-14c-8.4-9.3-12.5-22.5-12.5-39.6c0-16.9,4.8-30.7,14.4-41.4
		c9.6-10.7,22.6-16,39.1-16c7.6,0,14.5,1.2,20.7,3.5c6.2,2.4,11.2,5.4,14.9,9.2c3.7,3.7,6.6,7.4,8.7,11c2.1,3.6,3.7,7.1,4.7,10.6
		l-20.3,7.1c-4.5-12.5-14.1-18.8-28.7-18.8c-10,0-17.7,3.1-23,9.4c-5.3,6.3-8,14.7-8,25.4c0,9.5,2,17,6.1,22.6
		c4.1,5.6,9.6,8.4,16.5,8.4c4.4,0,7.9-1,10.4-3.1c2.5-2.1,3.8-5,3.8-8.7c0-5.5-2.6-9.8-7.7-13c-5.1-3.2-11.2-4.8-18.2-4.8v-3.8h65.8
		l6.8,54.1h-24.3l-6.3-50.3h-21.1l-0.7,2c13.6,4.7,20.5,13.4,20.5,26.1c0,7.8-2.9,13.8-8.7,18C330.1,790.9,323.1,793,315,793z"/>
</g>
<g class="st1">
	<path class="st2" d="M419.6,708.5l-0.2,39.3l2,0.5c1.5-7.6,3.6-14.3,6.3-20.2c2.6-5.9,6.4-10.9,11.4-15.2c5-4.2,10.7-6.4,17.2-6.4
		c14.3,0,21.5,8.7,21.5,26.1c0,2.5-0.3,7-1,13.3c-0.7,6.3-1,11-1,13.9c0,3.1,0.5,5.4,1.4,6.8c0.9,1.5,2.7,2.2,5.4,2.2l7.8-1.2
		l-2,23.3c-4.9,1.3-10.7,2-17.3,2c-6.3,0-11-1.9-14.3-5.8c-3.2-3.8-4.9-9.1-4.9-15.8c0-3.8,0.3-9,1-15.3c0.7-6.4,1-11.2,1-14.5
		c0-4.5-0.7-7.8-2.1-9.8c-1.4-2-3.7-3.1-6.8-3.1c-4.2,0-7.9,1.9-11.1,5.7c-3.2,3.8-5.7,8.3-7.4,13.5c-1.7,5.2-3.1,11-4.2,17.4
		c-1.1,6.4-1.8,11.6-2.1,15.7c-0.3,4.1-0.4,7.4-0.4,10.1h-24.1v-36.3c0-1.1,0-2.6,0-4.6c0-7.7-0.1-13.2-0.3-16.4
		c-0.2-3.2-0.9-6.6-2.1-10c-1.2-3.4-3.1-5.5-5.9-6.3c-2.8-0.8-6.6-0.8-11.5-0.2l-0.2-3.1L419.6,708.5z"/>
</g>
<g class="st1">
	<path class="st2" d="M486.2,560.5v56.3c0,2.7,0.5,4.6,1.5,5.9c1,1.2,2.9,1.8,5.7,1.8l8-1.2l-1.9,24.7c-5.4,1.4-11.1,2.1-17.3,2.1
		c-14.2,0-21.4-7.2-21.4-21.5v-19.1c0-16.1-0.3-25.9-1-29.4c-1.3-6.3-4.4-9.8-9.5-10.5c-2.1-0.3-4.7-0.3-7.9,0.2l-0.3-3.3
		L486.2,560.5z M485.9,534.6l0.3,3.9l-27.5,1.9l-0.2-4L485.9,534.6z"/>
</g>
<g class="st1">
	<path class="st2" d="M282.6,438.6c0-13.2,5.4-23.8,16.1-31.9c10.7-8.1,25.5-12.1,44.3-12.1h29.9c0-19-7-28.5-21.1-28.5
		c-11.8,0-20.4,5.3-25.7,15.8L289.3,367c4.7-9.6,12.4-18.4,23-26.4c10.6-8,24.2-12,40.8-12c40.4,0,60.6,22.5,60.6,67.4v26.8
		c0,4.3,0.8,7.5,2.4,9.4c1.6,2,4.7,3,9.2,3l13.3-2l-3.4,39.8c-8.6,2.3-18,3.4-27.9,3.4c-22.9,0-34.4-11.6-34.4-34.7v-16.9l-3.4-0.3
		c-0.9,4.5-1.9,8.5-3,12c-1,3.5-2.8,7.9-5.4,13.3c-2.5,5.4-5.4,9.8-8.6,13.4c-3.2,3.6-7.6,6.7-13.1,9.3c-5.5,2.6-11.7,3.9-18.5,3.9
		c-12,0-21.4-3.6-28.2-10.7C285.9,458.5,282.6,449.5,282.6,438.6z M372.2,401.1h-11.6c-24.8,0-37.2,7.4-37.2,22.3
		c0,4.7,1.4,8.4,4.2,11c2.8,2.6,6.6,3.9,11.3,3.9c9.8,0,17.3-3.8,22.6-11.3C366.8,419.5,370.4,410.9,372.2,401.1z"/>
</g>
</svg>
