<?xml version="1.0" encoding="utf-8"?>
<!-- Generator: Adobe Illustrator 26.0.2, SVG Export Plug-In . SVG Version: 6.00 Build 0)  -->
<svg version="1.1" id="Layer_1" xmlns="http://www.w3.org/2000/svg" xmlns:xlink="http://www.w3.org/1999/xlink" x="0px" y="0px"
	 viewBox="0 0 575.9 825.7" style="enable-background:new 0 0 575.9 825.7;" xml:space="preserve">
<style type="text/css">
	.st0{fill:none;stroke:#E0007A;stroke-width:10;stroke-miterlimit:10;}
	.st1{enable-background:new    ;}
	.st2{fill:#FFFFFF;}
</style>
<path id="Path_1" class="st0" d="M150.8,15.1l150,53.2l51-26.6l61,90.1l22,124.5l18.2,35l-9.1,67.2l62.2,105.8l49,117.5l-71.1,25.9
	l24.6,137.5l-11.7,36.3h-188c0,0-144,16.9-158.2,19.5c-14.3,2.6-113.6,10.4-113.6,10.4"/>
<path id="Path_2" class="st0" d="M246.9,4.6l177.7,73.9l-18.2,90.8l70,197.1L549,537.1l21.9,38.3v15.4c0,0-24.4,16.9-28.3,13
	s-44.1-41.5-44.1-41.5l1.3,54.4l14.3,59.7l-20.8,58.4l5.1,13.4l-1.2,55.4l-180.7,16.9l-13.9-57.1L22.6,752.9"/>
<g class="st1">
	<path class="st2" d="M56.5,276.7c-14.5,0-26.1-4.9-34.8-14.6c-8.7-9.7-13-23.8-13-42.2c0-12.3,1.5-23.8,4.5-34.5
		c3-10.7,7.6-23.7,14-38.8c6.8-16,12-30,15.7-42.2c3.7-12.2,5.7-20.3,6.1-24.4l0.6-6.1h60.8L185.4,273h-48.2L113,207.9l-3.4,0.9
		c-1.6,7.8-2.9,13.5-3.8,17.2c-0.9,3.7-2.8,9.4-5.7,17c-2.9,7.7-5.9,13.5-9.2,17.5c-3.3,4-7.9,7.7-14,11.1
		C70.9,275,64.1,276.7,56.5,276.7z M82.6,114.6c-0.8,2-2.7,6.9-5.7,14.6c-3,7.7-5,12.9-6,15.7c-1,2.8-2.7,7.4-5.1,13.8
		c-2.4,6.4-4,11.4-4.9,14.9c-0.9,3.5-2,7.8-3.4,12.9c-1.3,5.1-2.3,9.7-2.8,13.7c-0.5,4-0.8,7.9-0.8,11.8c0,9.2,2,16.2,6,20.9
		c4,4.7,9.4,7.1,16.1,7.1c11.3,0,19.4-6.5,24.4-19.5c5-13,5.2-28,0.5-45L82.6,114.6z"/>
</g>
<g class="st1">
	<path class="st2" d="M238.7,81v148.1c0,4.3,0.8,7.4,2.5,9.4c1.7,2,4.7,2.9,9,2.9l13.2-2L260,279c-8.4,2.2-17.5,3.4-27.4,3.4
		c-23,0-34.4-11.5-34.4-34.4v-88.2c0-1.9,0-4.5,0-7.8c0-5.6,0-9.7,0-12.2c0-2.5,0-5.9-0.1-10.2c-0.1-4.3-0.3-7.4-0.6-9.4
		c-0.3-2-0.7-4.4-1.3-7.4c-0.6-3-1.3-5.1-2.1-6.4c-0.8-1.3-1.9-2.8-3.1-4.6c-1.2-1.8-2.7-2.9-4.3-3.5c-1.7-0.6-3.6-1.2-5.7-1.8
		c-2.1-0.7-4.6-1-7.3-1c-2.7,0-5.7,0.3-9.1,0.8l-0.3-5.3L238.7,81z"/>
</g>
<g class="st1">
	<path class="st2" d="M344.7,485v148.1c0,4.3,0.8,7.4,2.5,9.4s4.7,2.9,9,2.9l13.2-2L366,683c-8.4,2.2-17.5,3.4-27.4,3.4
		c-23,0-34.4-11.5-34.4-34.4v-88.2c0-1.9,0-4.5,0-7.8c0-5.6,0-9.7,0-12.2c0-2.5,0-5.9-0.1-10.2c-0.1-4.3-0.3-7.4-0.6-9.4
		c-0.3-2-0.7-4.4-1.3-7.4c-0.6-3-1.3-5.1-2.1-6.4c-0.8-1.3-1.9-2.8-3.1-4.6c-1.2-1.8-2.7-2.9-4.3-3.5c-1.7-0.6-3.6-1.2-5.7-1.8
		c-2.1-0.7-4.6-1-7.3-1c-2.7,0-5.7,0.3-9.1,0.8l-0.3-5.3L344.7,485z"/>
</g>
<g class="st1">
	<path class="st2" d="M98.1,286.5h4.9v31h36.5v4.9h-36.5v57.6c0,6.4,1.3,10.8,3.9,12.9c2.6,2.2,6.7,3.2,12.5,3.2
		c3.3,0,6.8-0.4,10.6-1.3c3.8-0.9,6.8-1.7,8.9-2.6l3-1.1l-4.9,31.2c-7.6,3.4-16.9,5.2-27.9,5.2c-24.8,0-37.2-12.5-37.2-37.6v-67.5
		H59.6v-4.9L98.1,286.5z"/>
</g>
<g class="st1">
	<path class="st2" d="M259.8,584.2h3.9v24.3h28.7v3.9h-28.7v45.3c0,5.1,1,8.5,3,10.1c2,1.7,5.3,2.5,9.8,2.5c2.6,0,5.4-0.3,8.4-1
		c3-0.7,5.3-1.4,7-2l2.4-0.8l-3.9,24.5c-6,2.7-13.3,4.1-22,4.1c-19.5,0-29.2-9.9-29.2-29.6v-53.1h-9.6v-3.9L259.8,584.2z"/>
</g>
<g class="st1">
	<path class="st2" d="M216.3,296v87.6c0,4.2,0.8,7.2,2.3,9.1c1.5,1.9,4.5,2.9,8.8,2.9l12.5-1.9l-3,38.4c-8.3,2.2-17.3,3.3-26.9,3.3
		c-22.1,0-33.2-11.2-33.2-33.5v-29.6c0-25-0.5-40.3-1.6-45.7c-2-9.8-6.9-15.2-14.7-16.3c-3.3-0.5-7.3-0.5-12.2,0.3l-0.5-5.2
		L216.3,296z"/>
</g>
<g class="st1">
	<path class="st2" d="M424.3,587v87.6c0,4.2,0.8,7.2,2.3,9.1c1.5,1.9,4.5,2.9,8.8,2.9l12.5-1.9l-3,38.4c-8.3,2.2-17.3,3.3-26.9,3.3
		c-22.1,0-33.2-11.2-33.2-33.5v-29.6c0-25-0.5-40.3-1.6-45.7c-2-9.8-6.9-15.2-14.7-16.3c-3.3-0.5-7.3-0.5-12.2,0.3l-0.5-5.2
		L424.3,587z"/>
</g>
<g class="st1">
	<path class="st2" d="M297.4,331l-0.3,64.7l3.3,0.8c2.5-12.5,6-23.6,10.3-33.3c4.4-9.7,10.6-18,18.8-25c8.2-7,17.6-10.5,28.3-10.5
		c23.6,0,35.4,14.3,35.4,43c0,4.2-0.5,11.5-1.6,21.9c-1.1,10.4-1.6,18.1-1.6,23c0,5.1,0.8,8.8,2.3,11.3c1.5,2.4,4.5,3.7,8.8,3.7
		l12.8-1.9l-3.3,38.4c-8.2,2.2-17.7,3.3-28.6,3.3c-10.3,0-18.2-3.2-23.5-9.5c-5.4-6.3-8-15-8-26.1c0-6.3,0.5-14.8,1.6-25.3
		c1.1-10.5,1.6-18.5,1.6-23.9c0-7.4-1.2-12.8-3.5-16.2c-2.4-3.4-6.1-5-11.2-5c-6.9,0-13,3.1-18.4,9.4c-5.4,6.3-9.4,13.7-12.2,22.3
		c-2.8,8.6-5.1,18.2-6.9,28.7c-1.8,10.5-2.9,19.1-3.4,25.8c-0.5,6.7-0.7,12.2-0.7,16.6h-39.7v-59.8c0-1.8,0-4.4,0-7.6
		c0-12.7-0.2-21.7-0.5-27.1c-0.4-5.3-1.5-10.8-3.4-16.5c-1.9-5.6-5.1-9.1-9.7-10.3c-4.5-1.3-10.9-1.4-19-0.3l-0.3-5.2L297.4,331z"/>
</g>
<g class="st1">
	<path class="st2" d="M128.1,584c0-8,3.3-14.5,9.8-19.4c6.5-4.9,15.5-7.4,27-7.4h18.2c0-11.6-4.3-17.4-12.9-17.4
		c-7.2,0-12.4,3.2-15.7,9.6l-22.4-9.1c2.9-5.8,7.5-11.2,14-16.1c6.5-4.9,14.8-7.3,24.9-7.3c24.7,0,37,13.7,37,41.1v16.3
		c0,2.6,0.5,4.6,1.5,5.8c1,1.2,2.8,1.8,5.6,1.8l8.1-1.2l-2.1,24.3c-5.3,1.4-11,2.1-17,2.1c-14,0-21-7.1-21-21.2v-10.3l-2.1-0.2
		c-0.6,2.8-1.2,5.2-1.8,7.3c-0.6,2.1-1.7,4.8-3.3,8.1c-1.5,3.3-3.3,6-5.2,8.2c-2,2.2-4.6,4.1-8,5.7c-3.4,1.6-7.1,2.4-11.3,2.4
		c-7.3,0-13.1-2.2-17.2-6.5C130.1,596.2,128.1,590.7,128.1,584z M182.7,561.1h-7.1c-15.1,0-22.7,4.5-22.7,13.6
		c0,2.9,0.9,5.1,2.6,6.7c1.7,1.6,4,2.4,6.9,2.4c6,0,10.5-2.3,13.8-6.9C179.4,572.4,181.6,567.1,182.7,561.1z"/>
</g>
<g class="st1">
	<path class="st2" d="M63.8,446.8h7.9v49.7h58.6v7.9H71.7v92.5c0,10.4,2.1,17.2,6.2,20.7s10.8,5.2,20,5.2c5.3,0,11-0.7,17.1-2.1
		c6.1-1.4,10.9-2.8,14.3-4.1l4.8-1.7l-7.9,50c-12.2,5.5-27.1,8.3-44.9,8.3c-39.8,0-59.7-20.1-59.7-60.4V504.4H2v-7.9L63.8,446.8z"/>
</g>
</svg>
