<?xml version="1.0" encoding="utf-8"?>
<!-- Generator: Adobe Illustrator 26.0.2, SVG Export Plug-In . SVG Version: 6.00 Build 0)  -->
<svg version="1.1" id="Layer_1" xmlns="http://www.w3.org/2000/svg" xmlns:xlink="http://www.w3.org/1999/xlink" x="0px" y="0px"
	 viewBox="0 0 575.9 825.7" style="enable-background:new 0 0 575.9 825.7;" xml:space="preserve">
<style type="text/css">
	.st0{fill:none;stroke:#E0007A;stroke-width:10;stroke-miterlimit:10;}
	.st1{enable-background:new    ;}
	.st2{fill:#FFFFFF;}
</style>
<path id="Path_1" class="st0" d="M150.8,15.1l150,53.2l51-26.6l61,90.1l22,124.5l18.2,35l-9.1,67.2l62.2,105.8l49,117.5l-71.1,25.9
	l24.6,137.5l-11.7,36.3h-188c0,0-144,16.9-158.2,19.5c-14.3,2.6-113.6,10.4-113.6,10.4"/>
<path id="Path_2" class="st0" d="M246.9,4.6l177.7,73.9l-18.2,90.8l70,197.1L549,537.1l21.9,38.3v15.4c0,0-24.4,16.9-28.3,13
	s-44.1-41.5-44.1-41.5l1.3,54.4l14.3,59.7l-20.8,58.4l5.1,13.4l-1.2,55.4l-180.7,16.9l-13.9-57.1L22.6,752.9"/>
<g class="st1">
	<path class="st2" d="M56.5,276.7c-14.5,0-26.1-4.9-34.8-14.6c-8.7-9.7-13-23.8-13-42.2c0-12.3,1.5-23.8,4.5-34.5
		c3-10.7,7.6-23.7,14-38.8c6.8-16,12-30,15.7-42.2c3.7-12.2,5.7-20.3,6.1-24.4l0.6-6.1h60.8L185.4,273h-48.2L113,207.9l-3.4,0.9
		c-1.6,7.8-2.9,13.5-3.8,17.2c-0.9,3.7-2.8,9.4-5.7,17c-2.9,7.7-5.9,13.5-9.2,17.5c-3.3,4-7.9,7.7-14,11.1
		C70.9,275,64.1,276.7,56.5,276.7z M82.6,114.6c-0.8,2-2.7,6.9-5.7,14.6c-3,7.7-5,12.9-6,15.7c-1,2.8-2.7,7.4-5.1,13.8
		c-2.4,6.4-4,11.4-4.9,14.9c-0.9,3.5-2,7.8-3.4,12.9c-1.3,5.1-2.3,9.7-2.8,13.7c-0.5,4-0.8,7.9-0.8,11.8c0,9.2,2,16.2,6,20.9
		c4,4.7,9.4,7.1,16.1,7.1c11.3,0,19.4-6.5,24.4-19.5c5-13,5.2-28,0.5-45L82.6,114.6z"/>
</g>
<g class="st1">
	<path class="st2" d="M288.5,255.2l-1,3c11.9,5.1,21.2,12.4,28,21.9c6.8,9.5,10.3,20.9,10.3,34.2c0,18.8-6.3,34.3-19,46.4
		c-12.7,12.2-28.6,18.3-47.7,18.3c-19.3,0-35.2-6.1-47.9-18.3c-12.7-12.2-19-27.7-19-46.4s6.3-34.2,19-46.4
		c12.7-12.2,28.7-18.3,47.9-18.3h53.1v5.7H288.5z M235.2,339c6.3,6.6,14.2,9.9,24,9.9c9.7,0,17.7-3.3,24-9.9
		c6.3-6.6,9.4-14.8,9.4-24.7s-3.1-18.1-9.4-24.7c-6.3-6.6-14.2-9.9-24-9.9c-9.7,0-17.7,3.3-24,9.9c-6.3,6.6-9.4,14.8-9.4,24.7
		S228.9,332.4,235.2,339z"/>
</g>
<g class="st1">
	<path class="st2" d="M324,453c0-22,7.1-39.7,21.3-53.1c14.2-13.3,32.4-20,54.6-20c19.4,0,35,3.7,46.8,11.2
		c11.8,7.5,17.6,16.9,17.6,28.3c0,17.9-14.7,28.1-44,30.5l0.3,3.1H462v6.4h-96c1.7,19.6,12.6,29.4,32.8,29.4
		c13.8,0,23.8-6.2,30-18.5l36.4,15.7c-4.3,10.3-11.7,19.6-22.3,27.9c-10.5,8.3-25.2,12.5-44.1,12.5c-22.6-0.2-40.7-6.9-54.3-20.2
		C330.8,492.9,324,475.2,324,453z M423.4,432.6c0-4.5-2.1-8.2-6.2-11.2c-4.1-3-9.9-4.5-17.4-4.5c-10.3,0-18.6,3.2-24.9,9.5
		c-6.3,6.3-9.5,15.2-9.5,26.6h18.2c12.7,0,22.5-2,29.4-5.9C419.9,443.2,423.4,438.3,423.4,432.6z"/>
</g>
<g class="st1">
	<path class="st2" d="M338,368v-66.8c0-9.2-0.3-17.3-1-24.3c-0.7-7-1.3-11.5-2-13.8l-0.8-3.5h58.1c11.6,0,20.4,2.9,26.4,8.7
		c6,5.8,9,13.7,9,23.7c0,10.4-2.7,18.6-8,24.7c-5.3,6.1-13.5,9.2-24.5,9.2c-4.2,0-8.2-0.6-11.9-1.8s-6.7-2.6-8.9-4.2
		c-2.3-1.6-4.2-3.2-5.8-4.8c-1.6-1.6-2.8-3-3.4-4.3l-1-1.7l-1.8,0.3V368H338z M362.2,281.5v19.4c0.2,0.3,0.5,0.8,0.9,1.4
		c0.4,0.6,1.3,1.7,2.8,3.2c1.4,1.5,3.1,2.8,4.8,3.9c1.8,1.1,4.1,2.1,7,3.1c2.9,0.9,6,1.4,9.2,1.4c5.8,0,10.4-1.6,13.9-4.7
		c3.4-3.1,5.2-7.5,5.2-13c0-9.8-5.7-14.7-17.2-14.7H362.2z"/>
</g>
<g class="st1">
	<path class="st2" d="M239.1,401.3v114.4l2.8,0.8c1.9-8.7,4.2-16.7,7.1-24c2.8-7.3,6.4-14.1,10.7-20.6c4.3-6.4,9.5-11.4,15.8-15
		c6.3-3.6,13.2-5.4,20.9-5.4c22.1,0,33.2,13.5,33.2,40.6c0,3.9-0.5,10.8-1.4,20.7c-0.9,9.9-1.4,17.1-1.4,21.7
		c0,4.8,0.7,8.4,2.2,10.7c1.5,2.3,4.2,3.5,8.1,3.5l12.1-1.8l-3.1,36.2c-7.7,2.1-16.6,3.1-26.7,3.1c-9.8,0-17.2-3-22.2-8.9
		c-5.1-5.9-7.6-14.2-7.6-24.8c0-6,0.5-14,1.4-23.9c0.9-9.9,1.4-17.5,1.4-22.6c0-13.4-4.5-20-13.6-20c-8.1,0-15,4.2-20.7,12.7
		c-5.7,8.5-9.9,18.8-12.3,31.1c-2.5,12.3-4.2,22.8-5.1,31.6c-0.9,8.8-1.4,16.1-1.4,21.7h-37.3V473.5c0-1.7,0-4.1,0-7.2
		c0-5.1,0-8.9,0-11.2c0-2.3,0-5.4-0.1-9.4c-0.1-3.9-0.3-6.8-0.5-8.6c-0.3-1.8-0.6-4.1-1.2-6.8c-0.5-2.7-1.2-4.7-1.9-5.9
		c-0.8-1.2-1.7-2.6-2.8-4.2c-1.1-1.6-2.4-2.7-4-3.2c-1.5-0.5-3.3-1.1-5.3-1.7c-2-0.6-4.2-0.9-6.7-0.9c-2.5,0-5.3,0.3-8.4,0.8
		l-0.5-4.9L239.1,401.3z"/>
</g>
<g class="st1">
	<path class="st2" d="M261.3,645.9c-6.1,0-10.5,1-13.2,3.1c-2.8,2-4.1,4.4-4.1,7.1c0,5.8,6.6,10,19.9,12.7
		c15.8,2.8,26.4,5.5,31.6,8.1c9.9,4.7,14.8,12.2,14.8,22.5c0,9.2-4.2,16.4-12.7,21.5c-8.5,5.2-19.6,7.7-33.3,7.7
		c-13.7,0-24.6-2.4-32.8-7.3c-8.1-4.9-12.2-11.8-12.2-20.9c0-7.5,2.7-13.7,8.1-18.7c5.4-4.9,11.7-8.3,19.1-10v-2.3
		c-7.2-1.3-13.2-3.8-18.1-7.7c-4.9-3.9-7.3-9-7.3-15.4c0-8.3,3.9-15.2,11.7-20.6c7.8-5.4,17.2-8.1,28.4-8.1
		c13.7,0,24.6,2.9,32.8,8.7c8.1,5.8,13.6,12.3,16.4,19.5l-28,12.3C278.8,650,271.8,645.9,261.3,645.9z M279.6,686.8
		c0-4.7-2.2-8-6.5-10c-4.3-2-9.2-3-14.5-3c-5.7,0-10.4,1.1-14.2,3.3c-3.8,2.2-5.7,5.4-5.7,9.6c0,4,1.7,7.1,5.2,9.5
		c3.5,2.4,8.4,3.6,14.9,3.6c5.8,0,10.7-1.1,14.7-3.2C277.6,694.6,279.6,691.3,279.6,686.8z"/>
</g>
<g class="st1">
	<path class="st2" d="M371.9,683.5c-9.9-15.6-19.5-29.9-28.9-42.9c-9.3-13-16.2-22-20.6-27.2l-6.6-7.4h53.8l36.6,56.6l40.6-56.6h7.7
		L410,668.9l51.2,80.1H414l-38-59.2L333.3,749h-7.7L371.9,683.5z"/>
</g>
<g class="st1">
	<path class="st2" d="M48.5,520V405.8c0-1.8,0-4.3,0-7.5c0-5.4,0-9.2,0-11.7s0-5.7-0.1-9.8c-0.1-4.1-0.3-7.1-0.5-9
		c-0.3-1.9-0.7-4.2-1.2-7.1c-0.5-2.9-1.2-4.9-2-6.2c-0.8-1.2-1.8-2.7-2.9-4.4c-1.2-1.7-2.5-2.8-4.2-3.3s-3.4-1.1-5.5-1.7
		c-2.1-0.6-4.4-0.9-7-0.9c-2.6,0-5.5,0.3-8.7,0.8l-0.3-5.1l71.3-9.4v110.1l3.2,1.1c10.4-39.1,28.9-58.7,55.7-58.7
		c10.2,0,18.8,3,25.7,9c7,6,10.5,14.1,10.5,24.3c0,12.2-4,21.4-11.9,27.7c-8,6.3-16.8,9.5-26.7,9.5l9.6,17.2
		c2.9,5.2,5.7,8.7,8.6,10.6c2.9,1.9,7,2.8,12.3,2.8l16.9-1.9l-3.2,37.8c-7.3,2.1-14.7,3.2-22.2,3.2c-9.6,0-17.4-2.1-23.2-6.4
		c-5.8-4.3-11.7-11-17.6-20.1l-22.8-41.3v-7.8h18.5c6.1,0,11.4-1.3,15.9-4c4.6-2.7,6.8-6.8,6.8-12.3c0-3.8-1.3-6.7-3.9-8.8
		c-2.6-2.1-6.1-3.2-10.6-3.2c-5.7,0-10.9,1.4-15.5,4.2c-4.6,2.8-8.4,6.1-11.3,10c-2.9,3.9-5.3,9.2-7.4,15.7
		c-2.1,6.5-3.6,12.3-4.6,17.4c-1,5.1-1.7,11.5-2.3,19.2c-0.5,7.7-0.8,13.3-0.8,16.8c0,3.5,0,8.3,0,14.3c0,1.4,0,2.5,0,3.2H48.5z"/>
</g>
</svg>
