<svg xmlns="http://www.w3.org/2000/svg" xmlns:xlink="http://www.w3.org/1999/xlink" width="23.198" height="11.643" viewBox="0 0 23.198 11.643"><defs><clipPath id="a"><rect width="23.198" height="11.643" fill="#fff"/></clipPath></defs><g clip-path="url(#a)"><path d="M0,5.957a5.579,5.579,0,0,0,.355.432q2.511,2.519,5.029,5.032a.538.538,0,0,0,.765.106.5.5,0,0,0,.1-.7,2.289,2.289,0,0,0-.228-.251q-1.993-2-3.989-3.989a1.994,1.994,0,0,0-.195-.152l.032-.075h.276q10.138,0,20.277,0a1.9,1.9,0,0,0,.381-.033.51.51,0,0,0,0-1,1.972,1.972,0,0,0-.382-.031H1.816c.1-.1.156-.168.217-.229Q4.074,3.019,6.116.976A.566.566,0,0,0,6.309.329.514.514,0,0,0,5.54.09a2.009,2.009,0,0,0-.252.227Q2.82,2.783.355,5.252A5.457,5.457,0,0,0,0,5.685Z" transform="translate(-0.001 0)" fill="#fff"/></g></svg>