<svg xmlns="http://www.w3.org/2000/svg" xmlns:xlink="http://www.w3.org/1999/xlink" width="23.198" height="11.644" viewBox="0 0 23.198 11.644"><defs><clipPath id="a"><rect width="23.198" height="11.644" fill="#fff"/></clipPath></defs><g clip-path="url(#a)"><path d="M23.2,5.957a5.579,5.579,0,0,1-.355.432q-2.511,2.519-5.029,5.032a.538.538,0,0,1-.765.106.5.5,0,0,1-.1-.7,2.289,2.289,0,0,1,.228-.251q1.993-2,3.989-3.989a1.994,1.994,0,0,1,.195-.152l-.032-.075h-.276q-10.138,0-20.277,0A1.9,1.9,0,0,1,.4,6.321a.51.51,0,0,1,0-1,1.972,1.972,0,0,1,.382-.031h20.6c-.1-.1-.156-.168-.217-.229Q19.126,3.019,17.084.976a.566.566,0,0,1-.193-.647A.514.514,0,0,1,17.66.09a2.009,2.009,0,0,1,.252.227q2.468,2.466,4.933,4.935a5.457,5.457,0,0,1,.354.433Z" transform="translate(-0.001 0)" fill="#fff"/></g></svg>