<?xml version="1.0" encoding="utf-8"?>
<!-- Generator: Adobe Illustrator 26.0.2, SVG Export Plug-In . SVG Version: 6.00 Build 0)  -->
<svg version="1.1" id="Layer_1" xmlns="http://www.w3.org/2000/svg" xmlns:xlink="http://www.w3.org/1999/xlink" x="0px" y="0px"
	 viewBox="0 0 553.5 825.7" style="enable-background:new 0 0 553.5 825.7;" xml:space="preserve">
<style type="text/css">
	.st0{fill:none;stroke:#E0007A;stroke-width:10;stroke-miterlimit:10;}
	.st1{enable-background:new    ;}
	.st2{fill:#FFFFFF;}
</style>
<path id="Path_1" class="st0" d="M128.4,15.1l150,53.2l51-26.6l61,90.1l22,124.5l18.2,35l-9.1,67.2l62.2,105.8l49,117.5l-71.1,25.9
	l24.6,137.5l-11.7,36.3h-188c0,0-144,16.9-158.2,19.5S14.9,811.4,14.9,811.4"/>
<path id="Path_2" class="st0" d="M224.5,4.6l177.7,73.9l-18.2,90.8l70,197.1l72.5,170.7l21.9,38.3v15.4c0,0-24.4,16.9-28.3,13
	s-44.1-41.5-44.1-41.5l1.3,54.4l14.3,59.7L471,734.8l5.1,13.4l-1.2,55.4l-180.7,16.9l-13.9-57.1L0.2,752.9"/>
<g class="st1">
	<path class="st2" d="M17.4,193v-84.8c0-11.7-0.4-22-1.2-30.8c-0.8-8.8-1.6-14.7-2.4-17.5l-1.3-4.5h77.6c13.6,0,24,2.6,31.2,7.7
		c7.2,5.2,10.8,12.5,10.8,21.9c0,9.3-3.1,16.7-9.3,22.3c-6.2,5.5-14,8.8-23.3,9.8v2.3c9.8,1,18.4,4.8,26.1,11.3
		c7.6,6.6,11.4,15.3,11.4,26.2c0,10.5-3.9,19.1-11.7,25.9c-7.8,6.8-18.4,10.2-32,10.2H17.4z M48.1,84.2v32.6h29.5
		c7.5,0,13.6-1.4,18.2-4.2c4.7-2.8,7-6.9,7-12.3c0-5.1-1.8-9-5.5-11.9c-3.7-2.8-9-4.2-16.1-4.2H48.1z M48.1,121.8V164h35.2
		c7.2,0,12.8-2.1,16.9-6.4c4-4.2,6-9.4,6-15.5c0-6.5-2.4-11.5-7.3-15.1c-4.9-3.5-12-5.3-21.3-5.3H48.1z"/>
</g>
<g class="st1">
	<path class="st2" d="M135.3,167.6c0.5-13.8,5.3-24.8,14.5-32.9c9.2-8.1,20.8-11.9,34.7-11.4c12.2,0.4,21.9,3.1,29.1,8.1
		c7.2,4.9,10.7,11,10.5,18.1c-0.4,11.3-9.8,17.3-28.3,18.2l0.1,1.9l26,0.9l-0.1,4l-60.3-2.1c0.6,12.3,7.3,18.7,19.9,19.2
		c8.7,0.3,15.1-3.3,19.2-10.9l22.5,10.6c-2.9,6.4-7.8,12-14.6,17c-6.8,5-16.1,7.3-28,6.9c-14.2-0.6-25.4-5.2-33.7-13.9
		C138.7,192.9,134.8,181.6,135.3,167.6z M198.2,157c0.1-2.8-1.1-5.2-3.6-7.2c-2.5-2-6.1-3-10.8-3.2c-6.4-0.2-11.7,1.6-15.9,5.4
		c-4.1,3.8-6.3,9.3-6.6,16.5l11.4,0.4c8,0.3,14.2-0.7,18.6-3C195.8,163.6,198.1,160.6,198.2,157z"/>
</g>
<g class="st1">
	<path class="st2" d="M227.8,197v-46.9c0-1.6,0-3.9,0-7c0-12.6-0.2-21.4-0.7-26.3c-0.5-4.9-2.3-8.9-5.4-12c-3.1-3.1-8.2-4.1-15.1-3
		l-0.2-4l52.4-7.2v45.2l2.6,0.9c1.3-7,2.8-13.1,4.5-18.5c1.7-5.4,4-10.5,6.8-15.2c2.8-4.8,6.5-8.4,10.9-11c4.4-2.6,9.4-3.8,15.1-3.8
		c9.1,0,16.4,4.2,22,12.5c5.6,8.3,7.8,20.9,6.7,37.8L296,144c1.7-19.3-2.1-29-11.3-29c-4.4,0-8.3,2.5-11.6,7.5
		c-3.3,5-5.9,10.9-7.7,17.7c-1.8,6.8-3.2,14.5-4.3,22.9c-1.1,8.5-1.7,15.3-2,20.6c-0.3,5.3-0.4,9.7-0.4,13.4H227.8z"/>
</g>
<g class="st1">
	<path class="st2" d="M44.1,367v-90.7c0-1.4,0-3.4,0-6c0-4.3,0-7.3,0-9.3s0-4.5-0.1-7.8c-0.1-3.3-0.2-5.6-0.4-7.1
		c-0.2-1.5-0.5-3.4-1-5.6c-0.4-2.3-1-3.9-1.6-4.9c-0.6-1-1.4-2.2-2.3-3.5c-0.9-1.3-2-2.2-3.3-2.7c-1.3-0.4-2.7-0.9-4.4-1.4
		c-1.6-0.5-3.5-0.7-5.5-0.7c-2.1,0-4.4,0.2-6.9,0.6l-0.2-4l56.7-7.5V304l2.6,0.9c8.2-31.1,23-46.6,44.3-46.6
		c8.1,0,14.9,2.4,20.4,7.1c5.5,4.8,8.3,11.2,8.3,19.3c0,9.7-3.2,17-9.5,22c-6.3,5-13.4,7.6-21.2,7.6l7.7,13.6
		c2.3,4.1,4.5,6.9,6.8,8.4c2.3,1.5,5.5,2.2,9.8,2.2l13.4-1.5l-2.6,30c-5.8,1.7-11.7,2.6-17.7,2.6c-7.7,0-13.8-1.7-18.4-5.1
		c-4.6-3.4-9.3-8.7-14-16l-18.1-32.8v-6.2h14.7c4.8,0,9.1-1.1,12.7-3.2s5.4-5.4,5.4-9.8c0-3-1-5.3-3.1-7c-2.1-1.7-4.9-2.6-8.4-2.6
		c-4.5,0-8.7,1.1-12.4,3.3c-3.7,2.2-6.7,4.9-8.9,8c-2.3,3.1-4.2,7.3-5.9,12.5c-1.6,5.2-2.8,9.8-3.6,13.8c-0.8,4-1.4,9.1-1.8,15.2
		c-0.4,6.1-0.6,10.5-0.6,13.3c0,2.8,0,6.6,0,11.4c0,1.1,0,2,0,2.6H44.1z"/>
</g>
<g class="st1">
	<path class="st2" d="M150.3,312c0-9.9,4-18,12.1-24.1c8.1-6.1,19.2-9.2,33.4-9.2h22.6c0-14.3-5.3-21.5-16-21.5
		c-8.9,0-15.4,4-19.4,11.9l-27.7-11.3c3.5-7.2,9.3-13.9,17.4-19.9c8-6,18.3-9.1,30.8-9.1c30.5,0,45.8,17,45.8,50.9v20.2
		c0,3.3,0.6,5.6,1.8,7.1c1.2,1.5,3.5,2.2,6.9,2.2l10-1.5l-2.6,30c-6.5,1.7-13.6,2.6-21.1,2.6c-17.3,0-26-8.7-26-26.2v-12.8l-2.6-0.2
		c-0.7,3.4-1.5,6.4-2.2,9.1c-0.8,2.6-2.1,6-4,10s-4.1,7.4-6.5,10.1c-2.4,2.7-5.7,5-9.9,7c-4.2,2-8.8,3-14,3
		c-9.1,0-16.2-2.7-21.3-8.1C152.9,327.1,150.3,320.3,150.3,312z M218.1,283.7h-8.7c-18.7,0-28.1,5.6-28.1,16.8
		c0,3.6,1.1,6.3,3.2,8.3c2.1,2,5,3,8.5,3c7.4,0,13.1-2.8,17-8.5C213.9,297.6,216.6,291.1,218.1,283.7z"/>
</g>
<g class="st1">
	<path class="st2" d="M112.8,483.6c0-7,2.9-12.7,8.6-17.1c5.7-4.3,13.6-6.5,23.7-6.5h16c0-10.2-3.8-15.3-11.3-15.3
		c-6.3,0-10.9,2.8-13.7,8.5l-19.6-8c2.5-5.1,6.6-9.8,12.3-14.1c5.7-4.3,13-6.4,21.8-6.4c21.6,0,32.5,12,32.5,36.1v14.3
		c0,2.3,0.4,4,1.3,5.1c0.9,1.1,2.5,1.6,4.9,1.6l7.1-1.1l-1.8,21.3c-4.6,1.2-9.6,1.8-14.9,1.8c-12.3,0-18.4-6.2-18.4-18.6v-9.1
		l-1.8-0.2c-0.5,2.4-1,4.6-1.6,6.4c-0.6,1.9-1.5,4.2-2.9,7.1c-1.4,2.9-2.9,5.3-4.6,7.2c-1.7,1.9-4.1,3.6-7,5c-3,1.4-6.3,2.1-9.9,2.1
		c-6.4,0-11.5-1.9-15.1-5.7C114.6,494.2,112.8,489.4,112.8,483.6z M160.8,463.5h-6.2c-13.3,0-19.9,4-19.9,11.9
		c0,2.5,0.8,4.5,2.3,5.9c1.5,1.4,3.5,2.1,6,2.1c5.2,0,9.3-2,12.1-6C157.9,473.4,159.8,468.7,160.8,463.5z"/>
</g>
<g class="st1">
	<path class="st2" d="M217,358.2V433l1.8,0.5c1.2-5.7,2.8-10.9,4.6-15.7c1.8-4.8,4.2-9.2,7-13.4c2.8-4.2,6.2-7.5,10.3-9.8
		c4.1-2.4,8.7-3.5,13.7-3.5c14.4,0,21.7,8.8,21.7,26.5c0,2.6-0.3,7.1-0.9,13.5c-0.6,6.4-0.9,11.2-0.9,14.2c0,3.1,0.5,5.5,1.4,7
		c1,1.5,2.7,2.3,5.3,2.3l7.9-1.2l-2,23.7c-5,1.3-10.9,2-17.5,2c-6.4,0-11.2-1.9-14.5-5.8c-3.3-3.9-5-9.3-5-16.2
		c0-3.9,0.3-9.1,0.9-15.6c0.6-6.5,0.9-11.4,0.9-14.8c0-8.7-3-13.1-8.9-13.1c-5.3,0-9.8,2.8-13.5,8.3c-3.8,5.5-6.4,12.3-8.1,20.3
		c-1.6,8-2.7,14.9-3.4,20.7c-0.6,5.8-0.9,10.5-0.9,14.2h-24.4v-71.6c0-1.1,0-2.7,0-4.7c0-3.4,0-5.8,0-7.3s0-3.6-0.1-6.1
		c-0.1-2.6-0.2-4.5-0.3-5.6s-0.4-2.7-0.8-4.5c-0.3-1.8-0.8-3.1-1.3-3.9c-0.5-0.8-1.1-1.7-1.8-2.8c-0.7-1.1-1.6-1.8-2.6-2.1
		c-1-0.3-2.2-0.7-3.4-1.1c-1.3-0.4-2.7-0.6-4.4-0.6c-1.6,0-3.4,0.2-5.5,0.5l-0.3-3.2L217,358.2z"/>
</g>
<g class="st1">
	<path class="st2" d="M322.1,519l-17.4-46.5c-4.2-11.3-8.5-21.7-12.7-31.1c-4.2-9.4-7.5-15.9-9.6-19.6l-3.1-5.3h35.7l10.5,27.7
		l2.3-0.2c4-20,13.5-29.9,28.7-29.9c8.1,0,14.2,2.6,18.6,7.9c4.3,5.3,6.5,12.8,6.5,22.7c0,6.7-1.4,14.7-4.3,23.9
		c-2.9,9.2-5.7,16.9-8.4,23.1c-2.7,6.1-7,15.3-12.9,27.5H322.1z M342.4,436.2c-5.1,0-8.6,2.7-10.8,8.2c-2.1,5.5-2.1,10.9,0.1,16.4
		l8.2,21.5c7.7-16.8,11.5-28.4,11.5-34.8C351.4,439.9,348.4,436.2,342.4,436.2z"/>
</g>
<g class="st1">
	<path class="st2" d="M103.6,608.2c-6.9,0-12.3,2.5-16.4,7.4c-4.1,5-6.1,11.8-6.1,20.6s2,15.6,6.1,20.5c4.1,4.9,9.6,7.3,16.4,7.3
		c3.6,0,6.9-0.6,9.7-1.8c2.8-1.2,5-2.6,6.5-4.4c1.5-1.8,2.5-3.2,3.1-4.4c0.6-1.2,1-2.1,1.3-2.8l28.7,12.9c-3.7,8-9.4,15-17.2,21
		c-7.8,6-18.4,9-31.9,9c-16.2,0-29.4-5.3-39.5-15.9c-10.1-10.6-15.2-24.4-15.2-41.5s5.1-30.9,15.2-41.4
		c10.1-10.5,23.3-15.8,39.5-15.8c13.4,0,24.1,3,31.9,8.9c7.8,5.9,13.5,12.8,17.2,20.7l-28.7,13.1c-0.3-0.7-0.7-1.7-1.3-2.8
		c-0.6-1.2-1.6-2.7-3.1-4.5c-1.5-1.8-3.6-3.3-6.5-4.5C110.5,608.8,107.3,608.2,103.6,608.2z"/>
</g>
<g class="st1">
	<path class="st2" d="M194.8,575.5v64.1c0,3.1,0.6,5.3,1.7,6.7c1.1,1.4,3.3,2.1,6.5,2.1l9.2-1.4l-2.2,28.1
		c-6.1,1.6-12.7,2.4-19.7,2.4c-16.2,0-24.3-8.2-24.3-24.5v-21.7c0-18.3-0.4-29.5-1.2-33.4c-1.5-7.2-5-11.1-10.7-11.9
		c-2.4-0.4-5.4-0.3-9,0.2l-0.4-3.8L194.8,575.5z M194.4,546l0.4,4.4l-31.2,2.2l-0.2-4.6L194.4,546z"/>
</g>
<g class="st1">
	<path class="st2" d="M294.7,546.4l-0.9,2.7c10.7,4.6,19.1,11.1,25.2,19.6c6.1,8.5,9.2,18.8,9.2,30.7c0,16.9-5.7,30.8-17.1,41.7
		c-11.4,11-25.7,16.4-42.8,16.4c-17.3,0-31.7-5.5-43.1-16.4c-11.4-11-17.1-24.9-17.1-41.7s5.7-30.8,17.1-41.7
		c11.4-11,25.8-16.4,43.1-16.4H316v5.1H294.7z M246.8,621.7c5.6,5.9,12.8,8.9,21.5,8.9c8.7,0,15.9-3,21.5-8.9
		c5.6-5.9,8.4-13.3,8.4-22.2s-2.8-16.3-8.4-22.2c-5.6-5.9-12.8-8.9-21.5-8.9c-8.7,0-15.9,3-21.5,8.9c-5.6,5.9-8.4,13.3-8.4,22.2
		S241.2,615.8,246.8,621.7z"/>
</g>
<g class="st1">
	<path class="st2" d="M373.8,643.3c-8.6,0-16.2-1.9-22.8-5.6l-9.5,9.5h38.2c9.9,0,17.8,1.9,23.9,5.6c6,3.7,9.1,9.1,9.1,16.2
		c0,7.8-3.5,13.5-10.5,17.3c-7,3.8-16.4,5.7-28.3,5.7c-11.9,0-21.3-1.7-28.4-5.1c-7-3.4-10.6-8.5-10.6-15.3c0-3.1,0.8-5.9,2.5-8.5
		c1.7-2.5,3.8-4.5,6.5-5.9c2.7-1.4,5.2-2.5,7.5-3.2c2.4-0.8,4.8-1.3,7.2-1.6l-0.3-1.7h-21.6v-3.5l11.5-11.5
		c-7.8-5.8-11.6-13.6-11.6-23.3c0-9,3.4-16.3,10.3-22c6.8-5.7,15.9-8.6,27-8.6c8.9,0,16.4,1.9,22.6,5.6l11.8-11.6l2.4,2.4
		l-11.2,11.2c7.6,5.9,11.5,13.6,11.5,23.1c0,9.1-3.4,16.5-10.3,22.2C393.9,640.4,384.9,643.3,373.8,643.3z M373.7,672.7
		c4.7,0,8.4-0.9,11-2.8c2.6-1.9,3.9-4.6,3.9-8.1c0-4.9-2.6-8.3-7.9-10c-2.5-0.4-5-0.6-7.5-0.6c-9.9,0-14.8,3.5-14.8,10.6
		C358.4,669.1,363.5,672.7,373.7,672.7z M384,567c-2.4,2.1-5.8,3.1-10.2,3.1c-4.4,0-7.9-1-10.3-3.1c-2.4-2.1-3.8-4.2-4.2-6.4
		l3.3-0.8l0.2,0.2c0,0.2,0,0.4,0.2,0.7c0.1,0.3,0.2,0.5,0.4,0.8c0.2,0.3,0.3,0.6,0.5,0.9c0.2,0.3,0.5,0.6,0.8,1
		c0.4,0.4,0.7,0.7,1.1,1c0.4,0.3,0.9,0.6,1.4,0.8c0.6,0.3,1.1,0.5,1.7,0.8c0.6,0.3,1.3,0.4,2.2,0.5c0.9,0.1,1.7,0.2,2.6,0.2
		c0.9,0,1.8,0,2.6-0.2c0.9-0.1,1.6-0.3,2.2-0.5c0.6-0.2,1.2-0.5,1.7-0.8c0.6-0.2,1-0.5,1.4-0.8c0.4-0.3,0.8-0.6,1.1-1
		c0.4-0.4,0.6-0.7,0.8-1c0.2-0.3,0.4-0.6,0.5-0.9s0.3-0.6,0.4-0.8c0.1-0.2,0.2-0.5,0.2-0.7l0.2-0.2l3.3,0.8
		C387.8,562.8,386.4,564.9,384,567z M373.8,602.1c-3.9,0-7.1,1-9.6,2.9c-2.5,2-3.7,4.5-3.7,7.5c0,3,1.2,5.5,3.6,7.4l16-16.3
		C378.2,602.6,376,602.1,373.8,602.1z M383.3,605.2l-16,16.5c1.9,0.8,4.1,1.2,6.5,1.2c4,0,7.2-1,9.6-2.9c2.4-1.9,3.5-4.4,3.5-7.5
		C387,609.5,385.8,607.1,383.3,605.2z"/>
</g>
<g class="st1">
	<path class="st2" d="M333.3,690.5v55c0,1.6,0.3,2.8,0.9,3.5c0.6,0.7,1.7,1.1,3.3,1.1l4.9-0.7l-1.2,14.7c-3.1,0.8-6.5,1.2-10.2,1.2
		c-8.5,0-12.8-4.3-12.8-12.8v-32.8c0-0.7,0-1.7,0-2.9c0-2.1,0-3.6,0-4.5c0-0.9,0-2.2-0.1-3.8c0-1.6-0.1-2.8-0.2-3.5
		c-0.1-0.7-0.3-1.6-0.5-2.8c-0.2-1.1-0.5-1.9-0.8-2.4c-0.3-0.5-0.7-1.1-1.1-1.7c-0.5-0.7-1-1.1-1.6-1.3s-1.3-0.4-2.1-0.7
		c-0.8-0.2-1.7-0.4-2.7-0.4c-1,0-2.1,0.1-3.4,0.3l-0.1-2L333.3,690.5z"/>
</g>
<g class="st1">
	<path class="st2" d="M404.8,708v33.5c0,1.6,0.3,2.8,0.9,3.5c0.6,0.7,1.7,1.1,3.4,1.1l4.9-0.7l-1.2,14.7c-3.2,0.8-6.6,1.2-10.3,1.2
		c-8.5,0-12.7-4.3-12.7-12.8v-13.2l-1.2-0.3c-0.8,3.7-1.6,6.9-2.6,9.8c-1,2.8-2.3,5.6-3.8,8.2c-1.6,2.6-3.6,4.7-6,6.1
		c-2.4,1.5-5.1,2.2-8.2,2.2c-8.8,0-13.2-5.4-13.2-16.2c0-1.7,0.2-4.5,0.6-8.6c0.4-4.1,0.6-7,0.6-8.8c0-1.9-0.3-3.4-0.9-4.3
		c-0.6-0.9-1.7-1.4-3.3-1.4l-4.9,0.7l1.1-14.7c3.1-0.8,6.8-1.2,10.9-1.2c4,0,7,1.2,9,3.6c2,2.4,3.1,5.7,3.1,10
		c0,2.4-0.2,5.7-0.6,9.8c-0.4,4.1-0.6,7.2-0.6,9.4c0,5.2,1.7,7.8,5.2,7.8c3,0,5.5-1.7,7.7-5.1c2.1-3.4,3.7-7.7,4.6-12.7
		c0.9-5,1.6-9.3,1.9-12.8c0.3-3.5,0.5-6.4,0.5-8.6H404.8z"/>
</g>
<g class="st1">
	<path class="st2" d="M369.1,512c0-17.3,5.6-31.2,16.7-41.7c11.1-10.5,25.4-15.7,42.9-15.7c15.3,0,27.5,2.9,36.7,8.8
		c9.2,5.9,13.9,13.3,13.9,22.2c0,14.1-11.5,22.1-34.5,24l0.2,2.4h32.6v5.1h-75.5c1.3,15.4,9.9,23.1,25.7,23.1
		c10.9,0,18.7-4.8,23.5-14.5L480,538c-3.4,8.1-9.2,15.4-17.5,21.9c-8.3,6.5-19.8,9.8-34.7,9.8c-17.7-0.1-32-5.4-42.7-15.8
		C374.5,543.4,369.1,529.5,369.1,512z M447.2,495.9c0-3.5-1.6-6.5-4.8-8.8c-3.2-2.3-7.8-3.5-13.6-3.5c-8.1,0-14.6,2.5-19.6,7.5
		c-5,5-7.5,12-7.5,20.9H416c10,0,17.7-1.5,23.1-4.6C444.5,504.3,447.2,500.5,447.2,495.9z"/>
</g>
<g class="st1">
	<path class="st2" d="M293.6,255c0-2.3,0.4-4.7,1.3-7.4c0.8-2.7,2.1-5.5,3.8-8.5c1.7-3,4.3-5.4,7.7-7.4c3.5-2,7.5-3,12-3
		c6.4,0,11.5,1.6,15.5,4.8c4,3.2,6.5,7.2,7.7,12.2c1.2,4.9,1.6,10.2,1.1,15.8c-0.5,5.6-1.7,11.1-3.7,16.4l-29.9,79.5
		c-1.7,4.7-3,8-3.9,10c-0.9,2-2.4,4.5-4.6,7.5c-2.1,3-4.8,5.2-8,6.5c-3.2,1.3-7,1.9-11.3,1.9c-2.5,0-5.2-0.2-7.9-0.6
		c-2.8-0.4-4.8-0.8-6.3-1.1l-2.1-0.6l-2.5-31c6.4,1.7,13.6,2.5,21.8,2.5c14.3,0,23-4.2,26.3-12.7l1.1-2.8h-22.3l-19.3-50.7
		c-4.5-11.7-8.9-22.2-13.2-31.4c-4.3-9.2-7.5-15.5-9.4-18.9l-3.2-5.1H282l9.3,24.6L293.6,255z M334.3,275.9
		c1.7-4.5,2.8-9.1,3.4-13.9c0.6-4.7,0.5-9.3-0.3-13.7c-0.8-4.4-2.8-8-6-10.8c-3.3-2.8-7.6-4.2-12.9-4.2c-5.7,0-10.2,1.7-13.6,5
		c-3.4,3.3-5.5,7.5-6.5,12.5c-0.9,5-1.2,10.1-0.8,15.3c0.4,5.2,1.3,9.9,2.9,14.1l15.9,43.7L334.3,275.9z"/>
</g>
<g class="st1">
	<path class="st2" d="M25.7,542v-79.2c0-11-0.4-20.6-1.2-28.8c-0.8-8.2-1.6-13.7-2.4-16.3l-1-4.2h33.3v55h8.1l39.6-55h35.2
		l-43.8,57.4l18.4,31.9c1.7,2.5,3.2,4.5,4.5,6c1.3,1.5,3.2,2.9,5.8,4.3c2.6,1.3,5.7,2,9.1,2l12.9-1.4l-2.4,28.3
		c-6.5,1.6-12.6,2.4-18.4,2.4c-7.1,0-13.1-1.7-18-5c-4.9-3.3-9.6-8.8-14.1-16.6l-28.9-49.7h-8.1V542H25.7z"/>
</g>
</svg>
