<?xml version="1.0" encoding="utf-8"?>
<!-- Generator: Adobe Illustrator 26.0.2, SVG Export Plug-In . SVG Version: 6.00 Build 0)  -->
<svg version="1.1" id="Layer_1" xmlns="http://www.w3.org/2000/svg" xmlns:xlink="http://www.w3.org/1999/xlink" x="0px" y="0px"
	 viewBox="0 0 553.5 825.7" style="enable-background:new 0 0 553.5 825.7;" xml:space="preserve">
<style type="text/css">
	.st0{fill:none;stroke:#E0007A;stroke-width:10;stroke-miterlimit:10;}
	.st1{enable-background:new    ;}
	.st2{fill:#FFFFFF;}
</style>
<path id="Path_1" class="st0" d="M128.4,15.1l150,53.2l51-26.6l61,90.1l22,124.5l18.2,35l-9.1,67.2l62.2,105.8l49,117.5l-71.1,25.9
	l24.6,137.5l-11.7,36.3h-188c0,0-144,16.9-158.2,19.5c-14.3,2.6-113.6,10.4-113.6,10.4"/>
<path id="Path_2" class="st0" d="M224.5,4.6l177.7,73.9l-18.2,90.8l70,197.1l72.5,170.7l21.9,38.3v15.4c0,0-24.4,16.9-28.3,13
	s-44.1-41.5-44.1-41.5l1.3,54.4l14.3,59.7L471,734.8l5.1,13.4l-1.2,55.4l-180.7,16.9l-13.9-57.1L0.2,752.9"/>
<g class="st1">
	<path class="st2" d="M28.7,222v-84.8c0-11.7-0.4-22-1.2-30.8c-0.8-8.8-1.6-14.7-2.4-17.5l-1.3-4.5h77.6c13.6,0,24,2.6,31.2,7.7
		c7.2,5.2,10.8,12.5,10.8,21.9c0,9.3-3.1,16.7-9.3,22.3c-6.2,5.5-14,8.8-23.3,9.8v2.3c9.8,1,18.4,4.8,26.1,11.3
		c7.6,6.6,11.4,15.3,11.4,26.2c0,10.5-3.9,19.1-11.7,25.9c-7.8,6.8-18.4,10.2-32,10.2H28.7z M59.4,113.2v32.6h29.5
		c7.5,0,13.6-1.4,18.2-4.2c4.7-2.8,7-6.9,7-12.3c0-5.1-1.8-9-5.5-11.9c-3.7-2.8-9-4.2-16.1-4.2H59.4z M59.4,150.8V193h35.2
		c7.2,0,12.8-2.1,16.9-6.4c4-4.2,6-9.4,6-15.5c0-6.5-2.4-11.5-7.3-15.1c-4.9-3.5-12-5.3-21.3-5.3H59.4z"/>
</g>
<g class="st1">
	<path class="st2" d="M238.2,281c0-16.7,5.4-30.1,16.1-40.2c10.7-10.1,24.5-15.2,41.3-15.2c14.7,0,26.5,2.8,35.4,8.5
		c8.9,5.7,13.4,12.8,13.4,21.4c0,13.6-11.1,21.3-33.3,23.1l0.2,2.3h31.4v4.9H270c1.3,14.8,9.5,22.3,24.8,22.3c10.5,0,18-4.7,22.7-14
		L345,306c-3.3,7.8-8.9,14.8-16.9,21.1c-8,6.3-19.1,9.4-33.4,9.4c-17.1-0.1-30.8-5.2-41.1-15.3C243.3,311.2,238.2,297.8,238.2,281z
		 M313.4,265.5c0-3.4-1.6-6.2-4.7-8.5c-3.1-2.3-7.5-3.4-13.1-3.4c-7.8,0-14.1,2.4-18.9,7.2c-4.8,4.8-7.2,11.5-7.2,20.1h13.8
		c9.6,0,17-1.5,22.3-4.5C310.8,273.6,313.4,269.9,313.4,265.5z"/>
</g>
<g class="st1">
	<path class="st2" d="M111.5,656.9L88.4,526.1c-3.2-18.1-6.7-33.8-10.4-47.2c-3.7-13.4-6.6-22.2-8.7-26.3l-2.8-6.6l54.9-9.7
		l16.1,90.9l13.4-2.4l49.3-102.5l58.2-10.3L203,519.7l39.7,47.3c3.6,3.6,6.6,6.5,9.1,8.7c2.5,2.1,6.1,3.9,10.9,5.3
		c4.7,1.4,9.9,1.6,15.6,0.6l20.9-6l4.3,47.5c-10.2,4.5-20.1,7.6-29.7,9.3c-11.8,2.1-22.2,1.1-31.2-2.9c-9-4-18.4-11.8-28.1-23.4
		l-62.2-73.6l-13.4,2.4l20.1,113.8L111.5,656.9z"/>
</g>
<g class="st1">
	<path class="st2" d="M286.5,630.7l35.7,1.2l5.5-156.1l-31.5,26.6l-5-5.7l36.8-30.6l46.7,1.6l-5.8,165.7l35.7,1.2l-1.5,43.1
		L285,673.9L286.5,630.7z"/>
</g>
<g class="st1">
	<path class="st2" d="M154.6,400l5.1-145.1c0.7-20.4,0.6-38.1-0.3-53.3c-0.9-15.2-2-25.2-3.3-30.2l-1.6-7.7l61.1,2.1l-6.5,186.5
		l108.7,3.8l-1.7,49.5L154.6,400z"/>
</g>
</svg>
