<?xml version="1.0" encoding="utf-8"?>
<!-- Generator: Adobe Illustrator 26.0.2, SVG Export Plug-In . SVG Version: 6.00 Build 0)  -->
<svg version="1.1" id="Layer_1" xmlns="http://www.w3.org/2000/svg" xmlns:xlink="http://www.w3.org/1999/xlink" x="0px" y="0px"
	 viewBox="0 0 590.9 825.7" style="enable-background:new 0 0 590.9 825.7;" xml:space="preserve">
<style type="text/css">
	.st0{fill:none;stroke:#E0007A;stroke-width:10;stroke-miterlimit:10;}
	.st1{enable-background:new    ;}
	.st2{fill:#FFFFFF;}
</style>
<path id="Path_1" class="st0" d="M165.8,15.1l150,53.2l51-26.6l61,90.1l22,124.5l18.2,35l-9.1,67.2l62.2,105.8l49,117.5l-71.1,25.9
	l24.6,137.5l-11.7,36.3h-188c0,0-144,16.9-158.2,19.5S52.3,811.4,52.3,811.4"/>
<path id="Path_2" class="st0" d="M261.9,4.6l177.7,73.9l-18.2,90.8l70,197.1L564,537.1l21.9,38.3v15.4c0,0-24.4,16.9-28.3,13
	s-44.1-41.5-44.1-41.5l1.3,54.4l14.3,59.7l-20.8,58.4l5.1,13.4l-1.2,55.4l-180.7,16.9l-13.9-57.1L37.6,752.9"/>
<g class="st1">
	<path class="st2" d="M14.4,269v-84.8c0-11.7-0.4-22-1.2-30.8c-0.8-8.8-1.6-14.7-2.4-17.5l-1.3-4.5h77.6c13.6,0,24,2.6,31.2,7.7
		c7.2,5.2,10.8,12.5,10.8,21.9c0,9.3-3.1,16.7-9.3,22.3c-6.2,5.5-14,8.8-23.3,9.8v2.3c9.8,1,18.4,4.8,26.1,11.3
		c7.6,6.6,11.4,15.3,11.4,26.2c0,10.5-3.9,19.1-11.7,25.9c-7.8,6.8-18.4,10.2-32,10.2H14.4z M45.1,160.2v32.6h29.5
		c7.5,0,13.6-1.4,18.2-4.2c4.7-2.8,7-6.9,7-12.3c0-5.1-1.8-9-5.5-11.9c-3.7-2.8-9-4.2-16.1-4.2H45.1z M45.1,197.8V240h35.2
		c7.2,0,12.8-2.1,16.9-6.4c4-4.2,6-9.4,6-15.5c0-6.5-2.4-11.5-7.3-15.1c-4.9-3.5-12-5.3-21.3-5.3H45.1z"/>
</g>
<g class="st1">
	<path class="st2" d="M240.5,131.4h35.6v84c0,8.9,2,15.7,6,20.2c4,4.6,10.7,6.9,20,6.9c9.3,0,16-2.3,20-6.9c4-4.6,6-11.3,6-20.2v-31
		c0-11.9-0.4-22.2-1.3-31.1c-0.8-8.8-1.7-14.7-2.5-17.5l-1.1-4.5h35.8v84c0,17.2-5,30.9-15.1,41c-10,10.1-24,15.2-42,15.2
		c-17.9,0-31.9-5.1-41.9-15.2c-10-10.1-14.9-23.8-14.9-41v-31c0-11.9-0.4-22.2-1.2-31.1c-0.8-8.8-1.6-14.7-2.4-17.5L240.5,131.4z"/>
</g>
<g class="st1">
	<path class="st2" d="M131.5,377.3H51.3v40.1h70v5.6h-70V469h85.1v33H16v-97.2c0-13.4-0.5-25.2-1.5-35.2c-1-10-1.9-16.8-2.9-20.2
		l-1.2-5.1h121V377.3z"/>
</g>
<g class="st1">
	<path class="st2" d="M279.5,407.3c0,23.1-14.5,35.6-43.4,37.7l17.3,28.5c2,3.4,4.3,6,6.8,7.9c2.5,1.9,5.8,2.8,10.1,2.8l16.9-1.5
		l-2.6,31.3c-8,1.8-15,2.6-21,2.6c-7.9,0-14.3-1.8-19.4-5.4c-5-3.6-10.1-9.7-15.2-18.5l-27.6-47.3h-10.1V514h-31.8v-87.6
		c0-12.1-0.4-22.7-1.3-31.9c-0.9-9.1-1.8-15.1-2.6-18.1l-1.1-4.6h81c14.3,0,25.2,3.1,32.7,9.3C275.7,387.4,279.5,396.1,279.5,407.3z
		 M222.1,440.4c8.2,0,14.5-1.9,18.9-5.8c4.5-3.9,6.7-9.2,6.7-15.9c0-11.4-6.9-17.1-20.6-17.1h-35.9v38.8H222.1z"/>
</g>
<g class="st1">
	<path class="st2" d="M431.5,370.3h-80.2v40.1h70v5.6h-70V462h85v33H316v-97.2c0-13.4-0.5-25.2-1.5-35.2c-1-10-1.9-16.8-2.9-20.2
		l-1.2-5.1h121V370.3z"/>
</g>
<g class="st1">
	<path class="st2" d="M57.4,608.2v-52.8H17.6v-27.2h108.2v27.2H86.4V658H52.8C55.9,649.6,57.4,633,57.4,608.2z"/>
</g>
<g class="st1">
	<path class="st2" d="M228.4,699.2V735h-96v-35.8h28.4v-99.2h-28.4v-35.8h96v35.8h-29.5v99.2H228.4z"/>
</g>
<g class="st1">
	<path class="st2" d="M249.6,705V603.3c0-14.3-0.5-26.7-1.4-37.4c-0.9-10.6-1.9-17.6-2.9-21l-1.3-5.4h43.1l66,150.7V603
		c0-14.1-0.5-26.5-1.5-37.1c-1-10.6-2-17.6-2.8-21l-1.5-5.4h42.8V705h-37.2l-66-150.7V705H249.6z"/>
</g>
<g class="st1">
	<path class="st2" d="M421.2,675.8c-7.2,0-13-2.4-17.4-7.3c-4.3-4.8-6.5-11.9-6.5-21c0-6.1,0.7-11.9,2.2-17.2
		c1.5-5.4,3.8-11.8,7-19.4c3.4-8,6-15,7.8-21c1.8-6.1,2.9-10.1,3.1-12.2l0.3-3.1h30.3l37.5,99.3h-24l-12.1-32.4l-1.7,0.5
		c-0.8,3.9-1.5,6.7-1.9,8.6s-1.4,4.7-2.8,8.5c-1.4,3.8-3,6.7-4.6,8.7c-1.6,2-4,3.8-7,5.5C428.3,675,424.9,675.8,421.2,675.8z
		 M434.2,595.1c-0.4,1-1.4,3.4-2.8,7.3c-1.5,3.8-2.5,6.4-3,7.8c-0.5,1.4-1.4,3.7-2.5,6.9c-1.2,3.2-2,5.7-2.4,7.4
		c-0.5,1.7-1,3.9-1.7,6.4c-0.7,2.6-1.1,4.8-1.4,6.8c-0.3,2-0.4,4-0.4,5.9c0,4.6,1,8.1,3,10.4c2,2.3,4.7,3.5,8,3.5
		c5.6,0,9.7-3.2,12.2-9.7c2.5-6.5,2.6-13.9,0.2-22.4L434.2,595.1z"/>
</g>
<g class="st1">
	<path class="st2" d="M145,334.8l5.1-145.1c0.7-20.4,0.6-38.1-0.3-53.3c-0.9-15.2-2-25.2-3.3-30.2l-1.6-7.7l61.1,2.1l-6.5,186.5
		l108.7,3.8l-1.7,49.5L145,334.8z"/>
</g>
</svg>
