<?xml version="1.0" encoding="utf-8"?>
<!-- Generator: Adobe Illustrator 26.0.2, SVG Export Plug-In . SVG Version: 6.00 Build 0)  -->
<svg version="1.1" id="Layer_1" xmlns="http://www.w3.org/2000/svg" xmlns:xlink="http://www.w3.org/1999/xlink" x="0px" y="0px"
	 viewBox="0 0 600.9 874.7" style="enable-background:new 0 0 600.9 874.7;" xml:space="preserve">
<style type="text/css">
	.st0{fill:none;stroke:#E0007A;stroke-width:10;stroke-miterlimit:10;}
	.st1{enable-background:new    ;}
	.st2{fill:#FFFFFF;}
</style>
<path id="Path_1" class="st0" d="M175.8,64.1l150,53.2l51-26.6l61,90.1l22,124.5l18.2,35l-9.1,67.2l62.2,105.8l49,117.5l-71.1,25.9
	l24.6,137.5l-11.7,36.3h-188c0,0-144,16.9-158.2,19.5c-14.3,2.6-113.6,10.4-113.6,10.4"/>
<path id="Path_2" class="st0" d="M271.9,53.6l177.7,73.9l-18.2,90.8l70,197.1L574,586.1l21.9,38.3v15.4c0,0-24.4,16.9-28.3,13
	s-44.1-41.5-44.1-41.5l1.3,54.4l14.3,59.7l-20.8,58.4l5.1,13.4l-1.2,55.4l-180.7,16.9l-13.9-57.1L47.6,801.9"/>
<g class="st1">
	<path class="st2" d="M118.9,205.9c-13.6,0-24.5,4.9-32.5,14.8c-8.1,9.8-12.2,23.4-12.2,40.8s4,30.9,12.2,40.6
		c8.1,9.7,18.9,14.5,32.5,14.5c7.2,0,13.7-1.2,19.3-3.5c5.6-2.3,9.9-5.2,12.8-8.7c2.9-3.5,4.9-6.4,6.1-8.7c1.2-2.3,2-4.2,2.6-5.6
		l56.9,25.6c-7.2,15.9-18.6,29.8-34.1,41.7c-15.5,11.9-36.5,17.8-63.1,17.8c-32.1,0-58.2-10.5-78.3-31.5
		c-20.1-21-30.2-48.4-30.2-82.2s10-61.2,30.2-82c20.1-20.8,46.2-31.2,78.3-31.2c26.6,0,47.7,5.9,63.1,17.6
		c15.5,11.7,26.8,25.4,34.1,41l-56.9,26c-0.6-1.4-1.5-3.3-2.6-5.6c-1.2-2.3-3.2-5.3-6.1-8.9c-2.9-3.6-7.2-6.6-12.8-8.9
		C132.6,207.1,126.1,205.9,118.9,205.9z"/>
</g>
<g class="st1">
	<path class="st2" d="M227.9,310.8c0-15.8,6.4-28.5,19.3-38.2c12.8-9.7,30.5-14.5,53.1-14.5H336c0-22.8-8.4-34.1-25.3-34.1
		c-14.2,0-24.5,6.3-30.8,18.9L236,224.9c5.6-11.5,14.8-22,27.5-31.6c12.7-9.6,29-14.4,48.8-14.4c48.4,0,72.7,26.9,72.7,80.8v32.1
		c0,5.2,1,9,2.9,11.3c1.9,2.4,5.6,3.5,11,3.5l15.9-2.4l-4.1,47.7c-10.4,2.7-21.5,4.1-33.5,4.1c-27.5,0-41.2-13.9-41.2-41.6v-20.3
		l-4.1-0.3c-1.1,5.4-2.3,10.2-3.5,14.4c-1.2,4.2-3.4,9.5-6.4,15.9s-6.5,11.8-10.3,16.1c-3.8,4.3-9.1,8-15.7,11.2
		c-6.6,3.2-14,4.7-22.1,4.7c-14.4,0-25.7-4.3-33.8-12.8C231.9,334.7,227.9,323.8,227.9,310.8z M335.3,265.8h-13.9
		c-29.7,0-44.6,8.9-44.6,26.7c0,5.6,1.7,10,5.1,13.2c3.4,3.2,7.9,4.7,13.5,4.7c11.7,0,20.7-4.5,27-13.5
		C328.8,287.9,333.1,277.5,335.3,265.8z"/>
</g>
<g class="st1">
	<path class="st2" d="M266.1,524c0-17.2,7-31.1,21-41.7c14-10.6,33.3-15.9,57.9-15.9h39.1c0-24.8-9.2-37.3-27.7-37.3
		c-15.5,0-26.7,6.9-33.6,20.7l-48-19.6c6.1-12.5,16.2-24,30.1-34.5c13.9-10.5,31.7-15.7,53.3-15.7c52.9,0,79.3,29.4,79.3,88.2v35.1
		c0,5.7,1,9.8,3.1,12.4c2.1,2.6,6.1,3.9,12,3.9l17.3-2.6l-4.4,52c-11.3,3-23.5,4.4-36.5,4.4c-30,0-45-15.1-45-45.4v-22.1l-4.4-0.4
		c-1.2,5.9-2.5,11.1-3.9,15.7c-1.4,4.6-3.7,10.3-7,17.3s-7.1,12.9-11.3,17.5c-4.2,4.7-9.9,8.7-17.2,12.2c-7.3,3.4-15.3,5.2-24.2,5.2
		c-15.7,0-28-4.7-36.9-14C270.6,550.1,266.1,538.3,266.1,524z M383.5,474.9h-15.1c-32.5,0-48.7,9.7-48.7,29.2
		c0,6.2,1.8,10.9,5.5,14.4c3.7,3.4,8.6,5.2,14.8,5.2c12.8,0,22.6-4.9,29.5-14.8C376.3,499,381,487.7,383.5,474.9z"/>
</g>
<g class="st1">
	<path class="st2" d="M197.4,725c0-11.9,4.8-21.4,14.5-28.7c9.7-7.3,22.9-10.9,39.9-10.9h26.9c0-17.1-6.3-25.7-19-25.7
		c-10.7,0-18.4,4.7-23.1,14.2l-33-13.5c4.2-8.6,11.1-16.5,20.7-23.7c9.6-7.2,21.8-10.8,36.7-10.8c36.4,0,54.6,20.2,54.6,60.7v24.1
		c0,3.9,0.7,6.7,2.2,8.5c1.4,1.8,4.2,2.7,8.3,2.7l11.9-1.8l-3,35.8c-7.8,2-16.2,3-25.1,3c-20.7,0-31-10.4-31-31.2v-15.2l-3-0.3
		c-0.8,4.1-1.7,7.7-2.7,10.8c-0.9,3.1-2.5,7.1-4.8,11.9c-2.3,4.8-4.9,8.9-7.7,12.1c-2.9,3.2-6.8,6-11.8,8.4
		c-5,2.4-10.5,3.6-16.6,3.6c-10.8,0-19.3-3.2-25.4-9.7C200.5,743,197.4,734.8,197.4,725z M278.2,691.2h-10.4
		c-22.4,0-33.5,6.7-33.5,20.1c0,4.2,1.3,7.5,3.8,9.9c2.5,2.4,5.9,3.6,10.2,3.6c8.8,0,15.6-3.4,20.3-10.2
		C273.3,707.8,276.5,700,278.2,691.2z"/>
</g>
<g class="st1">
	<path class="st2" d="M344.9,748v-63.4c0-2.1,0-5.3,0-9.5c0-17.1-0.3-28.9-1-35.6c-0.7-6.6-3.1-12-7.3-16.3c-4.2-4.2-11-5.6-20.4-4
		l-0.3-5.5l70.8-9.8v61.1l3.5,1.2c1.7-9.4,3.7-17.8,6-25.1c2.3-7.3,5.4-14.2,9.2-20.6c3.8-6.4,8.7-11.4,14.7-14.8
		c5.9-3.5,12.8-5.2,20.4-5.2c12.3,0,22.2,5.6,29.8,16.8c7.6,11.2,10.6,28.3,9.1,51.1l-42.3,7.8c2.3-26.1-2.8-39.2-15.3-39.2
		c-6,0-11.2,3.4-15.7,10.1c-4.5,6.7-8,14.7-10.4,23.9c-2.4,9.2-4.3,19.5-5.8,31c-1.4,11.4-2.4,20.7-2.7,27.8
		c-0.4,7.1-0.6,13.2-0.6,18.1H344.9z"/>
</g>
<g class="st1">
	<path class="st2" d="M138,388l-0.3,67.6l3.4,0.9c2.6-13.1,6.2-24.7,10.8-34.8c4.5-10.1,11.1-18.8,19.6-26.1
		c8.5-7.3,18.4-10.9,29.5-10.9c24.6,0,36.9,15,36.9,44.9c0,4.4-0.6,12-1.7,22.9c-1.1,10.9-1.7,18.9-1.7,24c0,5.3,0.8,9.2,2.4,11.8
		c1.6,2.6,4.7,3.8,9.2,3.8l13.3-2l-3.4,40c-8.5,2.3-18.5,3.4-29.8,3.4c-10.8,0-19-3.3-24.6-9.9c-5.6-6.6-8.4-15.7-8.4-27.3
		c0-6.6,0.6-15.4,1.7-26.4c1.1-11,1.7-19.3,1.7-25c0-7.8-1.2-13.4-3.7-16.9c-2.5-3.5-6.3-5.3-11.6-5.3c-7.2,0-13.6,3.3-19.2,9.8
		c-5.6,6.5-9.8,14.3-12.8,23.3c-2.9,9-5.4,19-7.2,30c-1.9,11-3.1,20-3.6,27c-0.5,7-0.7,12.8-0.7,17.3H96.6v-62.5c0-1.9,0-4.5,0-8
		c0-13.3-0.2-22.7-0.6-28.3c-0.4-5.6-1.6-11.3-3.6-17.2c-2-5.9-5.4-9.5-10.1-10.8c-4.7-1.3-11.4-1.4-19.9-0.3l-0.3-5.4L138,388z"/>
</g>
<g class="st1">
	<path class="st2" d="M206.1,603.9c0,5.9-0.6,12.4-1.8,19.5c-1.2,7.1-2.5,13.4-3.8,19c-1.3,5.6-3.6,12.8-6.9,21.6
		c-3.3,8.9-5.8,15.5-7.5,20c-1.8,4.5-5,11.7-9.7,21.6c-4.7,10-7.7,16.2-8.9,18.9c-1.2,2.6-4.5,9.2-9.8,19.7
		c-5.4,10.5-8.1,16.1-8.4,16.7H97.9L48.7,629.8c-6.8-18.1-13.4-34.1-19.8-47.7c-6.5-13.7-11.2-22.7-14.3-27.1l-4.6-6.9h58.7
		l26.9,71.2l3.6-1c1.3-9,3.2-17.3,5.6-25.1c2.4-7.8,5.8-15.6,10.2-23.5c4.4-7.9,10.2-14.1,17.5-18.7c7.3-4.6,15.7-6.9,25.1-6.9
		c15.1,0,26.9,5,35.6,14.9C201.8,569.1,206.1,584,206.1,603.9z M127.1,703.9c0.9-2.2,3.2-7.3,6.9-15.3c3.7-8,6.2-13.4,7.5-16.4
		c1.3-3,3.3-7.8,6.1-14.6c2.7-6.8,4.6-12.1,5.7-15.9c1.1-3.8,2.1-8.3,3.1-13.3c1-5,1.5-9.6,1.5-13.8c0-17.1-6.8-25.6-20.3-25.6
		c-13.1,0-22.6,6.9-28.5,20.8c-5.9,13.9-5.7,29.6,0.7,47.1L127.1,703.9z"/>
</g>
</svg>
