<?xml version="1.0" encoding="utf-8"?>
<!-- Generator: Adobe Illustrator 26.0.2, SVG Export Plug-In . SVG Version: 6.00 Build 0)  -->
<svg version="1.1" id="Layer_1" xmlns="http://www.w3.org/2000/svg" xmlns:xlink="http://www.w3.org/1999/xlink" x="0px" y="0px"
	 viewBox="0 0 553.5 825.7" style="enable-background:new 0 0 553.5 825.7;" xml:space="preserve">
<style type="text/css">
	.st0{fill:none;stroke:#E0007A;stroke-width:10;stroke-miterlimit:10;}
	.st1{enable-background:new    ;}
	.st2{fill:#FFFFFF;}
</style>
<path id="Path_1" class="st0" d="M128.4,15.1l150,53.2l51-26.6l61,90.1l22,124.5l18.2,35l-9.1,67.2l62.2,105.8l49,117.5l-71.1,25.9
	l24.6,137.5l-11.7,36.3h-188c0,0-144,16.9-158.2,19.5S14.9,811.4,14.9,811.4"/>
<path id="Path_2" class="st0" d="M224.5,4.6l177.7,73.9l-18.2,90.8l70,197.1l72.5,170.7l21.9,38.3v15.4c0,0-24.4,16.9-28.3,13
	s-44.1-41.5-44.1-41.5l1.3,54.4l14.3,59.7L471,734.8l5.1,13.4l-1.2,55.4l-180.7,16.9l-13.9-57.1L0.2,752.9"/>
<g class="st1">
	<path class="st2" d="M129.7,283.9c-30.8,0-55.9-10.2-75.3-30.5s-29-47-29-80c0-32.8,9.7-59.4,29-79.7s44.4-30.5,75.3-30.5
		c12.5,0,24,1.6,34.6,4.9c10.6,3.3,19.4,7.3,26.2,12.1c6.9,4.8,13,10.4,18.2,16.9c5.2,6.5,9.2,12.4,12,17.9c2.7,5.5,5,10.9,6.7,16.4
		l-45.6,11.8c-4.2-11.4-10-19.8-17.4-25.3c-9.2-6.6-20.8-9.8-34.8-9.8c-16.2,0-29.7,5.9-40.5,17.7C78.4,137.6,73,153.6,73,173.7
		c0,19.9,5.4,35.8,16.2,47.6c10.8,11.8,24.3,17.7,40.5,17.7c27.1,0,44.4-11.5,51.8-34.4c0.2-0.4,0.3-0.8,0.3-1l45.6,12.1
		c-1.8,5.5-4,10.9-6.7,16.4c-2.7,5.5-6.7,11.4-12,17.9c-5.2,6.5-11.3,12.1-18.2,16.9c-6.9,4.8-15.6,8.9-26.2,12.1
		C153.7,282.3,142.2,283.9,129.7,283.9z"/>
</g>
<g class="st1">
	<path class="st2" d="M151.5,501.2V530H74.1v-28.8H97v-79.9H74.1v-28.8h77.4v28.8h-23.7v79.9H151.5z M101.6,353.7
		c3-2.9,6.8-4.3,11.3-4.3c4.5,0,8.3,1.5,11.2,4.3c3,2.9,4.5,6.6,4.5,11.1c0,4.4-1.5,8-4.5,10.9c-3,2.9-6.7,4.3-11.2,4.3
		c-4.5,0-8.3-1.4-11.3-4.3c-3-2.9-4.6-6.5-4.6-10.9C97,360.3,98.5,356.6,101.6,353.7z"/>
</g>
<g class="st1">
	<path class="st2" d="M161.3,494.4l36.6-136.4c5.1-19.2,9-36,11.6-50.6c2.6-14.6,3.8-24.3,3.6-29.3l0.2-7.6l57.8,15.5l34.4,225.8
		l31.4-117c5.1-18.9,8.8-35.7,11.3-50.3c2.5-14.6,3.7-24.4,3.8-29.2l-0.1-7.7l57.5,15.4l-59.5,221.9l-49.9-13.4l-34.4-225.8
		l-54.2,202.1L161.3,494.4z"/>
</g>
<g class="st1">
	<path class="st2" d="M295.4,601c-10.2,0-17.7,1.9-22.4,5.5c-4.7,3.7-7.1,8-7.1,12.9c0,5.7,2.9,10.6,8.6,14.7
		c5.7,4.1,15.4,7.7,29,10.7c20.8,4.7,34.5,8.4,41.1,11.1c18.1,7.7,27.2,20.1,27.2,37c0,14.1-6.4,24.8-19.3,32.1
		c-12.9,7.3-29.1,11-48.8,11c-21.7,0-38.2-4.2-49.6-12.5c-11.4-8.3-17.1-18.9-17.1-31.9c0-11.6,4.4-20.9,13.2-27.8
		c8.8-7,19.8-11.5,32.9-13.5v-3c-13.4-3.4-24.1-7.9-31.9-13.6c-7.8-5.7-11.7-13.9-11.7-24.7c0-12.4,5.5-22.6,16.4-30.6
		c10.9-8,24.6-12,41.1-12c11.8,0,22.2,1.5,31.2,4.4c9.1,2.9,16.3,7,21.5,12.1c5.3,5.1,9.4,10.1,12.2,14.9c2.9,4.8,5.1,9.9,6.8,15.2
		l-35,11.6C328,608.9,315.2,601,295.4,601z M321.1,656.6c-5.5-2.2-11.8-3.3-18.9-3.3c-8.9,0-16.5,2.1-22.8,6.3
		c-6.3,4.2-9.4,10.4-9.4,18.6c0,6.6,2.6,12.1,7.7,16.5c5.1,4.5,13.1,6.7,24.1,6.7c8.7,0,16.4-2,23.1-6c6.6-4,10-10.2,10-18.6
		C334.7,667.7,330.2,661,321.1,656.6z"/>
</g>
</svg>
