<?xml version="1.0" encoding="utf-8"?>
<!-- Generator: Adobe Illustrator 26.0.2, SVG Export Plug-In . SVG Version: 6.00 Build 0)  -->
<svg version="1.1" id="Layer_1" xmlns="http://www.w3.org/2000/svg" xmlns:xlink="http://www.w3.org/1999/xlink" x="0px" y="0px"
	 viewBox="0 0 562.9 825.7" style="enable-background:new 0 0 562.9 825.7;" xml:space="preserve">
<style type="text/css">
	.st0{fill:none;stroke:#E0007A;stroke-width:10;stroke-miterlimit:10;}
	.st1{enable-background:new    ;}
	.st2{fill:#FFFFFF;}
</style>
<path id="Path_1" class="st0" d="M137.8,15.1l150,53.2l51-26.6l61,90.1l22,124.5l18.2,35l-9.1,67.2l62.2,105.8l49,117.5l-71.1,25.9
	l24.6,137.5l-11.7,36.3h-188c0,0-144,16.9-158.2,19.5c-14.3,2.6-113.6,10.4-113.6,10.4"/>
<path id="Path_2" class="st0" d="M233.9,4.6l177.7,73.9l-18.2,90.8l70,197.1L536,537.1l21.9,38.3v15.4c0,0-24.4,16.9-28.3,13
	s-44.1-41.5-44.1-41.5l1.3,54.4l14.3,59.7l-20.8,58.4l5.1,13.4l-1.2,55.4l-180.7,16.9l-13.9-57.1L9.6,752.9"/>
<g class="st1">
	<path class="st2" d="M21.6,341V209.8c0-18.1-0.7-34.1-2-47.7c-1.3-13.7-2.6-22.7-3.9-27.1l-1.6-6.9h100.7
		c26.5,0,48.1,9.8,64.9,29.5c16.8,19.7,25.3,45.3,25.3,76.8c0,31.7-8.4,57.4-25.3,77.1c-16.8,19.7-38.5,29.5-64.9,29.5H21.6z
		 M69.2,172.7v123.7h41.7c14.9,0,26.3-6.2,34.4-18.5c8.1-12.4,12.1-26.8,12.1-43.5c0-18.1-4.2-33-12.5-44.4
		c-8.3-11.5-20.9-17.2-37.7-17.2H69.2z"/>
</g>
<g class="st1">
	<path class="st2" d="M192.3,407.2h-70v35h61.1v4.9h-61.1v40.1h74.2V516H91.6v-84.8c0-11.7-0.4-22-1.3-30.7
		c-0.8-8.8-1.7-14.6-2.5-17.6l-1.1-4.5h105.6V407.2z"/>
</g>
<g class="st1">
	<path class="st2" d="M216.4,516.8V375.2c0-19.6-0.7-36.8-2.1-51.5c-1.4-14.7-2.8-24.5-4.2-29.2l-1.8-7.4h172.4v48.1H267.7v66.6
		h98.1v8.1h-98.1v106.9H216.4z"/>
</g>
<g class="st1">
	<path class="st2" d="M374,494.2l-0.5,3c16,6,28.6,15.6,37.8,28.7c9.2,13.1,13.9,28.8,13.9,47.1c0,24.5-7.9,44.8-23.7,60.9
		c-15.8,16-35.9,24.1-60.2,24.1c-24.4,0-44.4-8-60.2-24.1c-15.8-16-23.7-36.3-23.7-60.9c0-24.5,7.9-44.8,23.7-60.7
		c15.8-16,35.9-23.9,60.2-23.9h70.1v5.8H374z M341.2,522.7c-13.9,0-25.3,4.8-34.1,14.4c-8.8,9.6-13.2,21.6-13.2,36
		c0,14.6,4.4,26.7,13.2,36.3s20.2,14.4,34.1,14.4c13.8,0,25.1-4.8,33.9-14.4s13.2-21.7,13.2-36.3c0-14.4-4.4-26.5-13.2-36
		C366.3,527.5,355,522.7,341.2,522.7z"/>
</g>
</svg>
