<?xml version="1.0" encoding="utf-8"?>
<!-- Generator: Adobe Illustrator 26.0.2, SVG Export Plug-In . SVG Version: 6.00 Build 0)  -->
<svg version="1.1" id="Layer_1" xmlns="http://www.w3.org/2000/svg" xmlns:xlink="http://www.w3.org/1999/xlink" x="0px" y="0px"
	 viewBox="0 0 562.9 832.7" style="enable-background:new 0 0 562.9 832.7;" xml:space="preserve">
<style type="text/css">
	.st0{fill:none;stroke:#E0007A;stroke-width:10;stroke-miterlimit:10;}
	.st1{enable-background:new    ;}
	.st2{fill:#FFFFFF;}
	.st3{font-family:'Galvitra-Bold';}
	.st4{font-size:294.1536px;}
</style>
<path id="Path_1" class="st0" d="M137.8,22.1l150,53.2l51-26.6l61,90.1l22,124.5l18.2,35l-9.1,67.2l62.2,105.8l49,117.5l-71.1,25.9
	l24.6,137.5l-11.7,36.3h-188c0,0-144,16.9-158.2,19.5S24.3,818.4,24.3,818.4"/>
<path id="Path_2" class="st0" d="M233.9,11.6l177.7,73.9l-18.2,90.8l70,197.1L536,544.1l21.9,38.3v15.4c0,0-24.4,16.9-28.3,13
	s-44.1-41.5-44.1-41.5l1.3,54.4l14.3,59.7l-20.8,58.4l5.1,13.4l-1.2,55.4l-180.7,16.9l-13.9-57.1L9.6,759.9"/>
<g class="st1">
	<path class="st2" d="M125.3,114.5c0-22.2-1.4-37.4-4.2-45.5c-2.8-8.1-9.6-12.2-20.4-12.2c-2.9,0-6.3,0.3-10.1,0.9l-0.6-5.5
		L167.3,42v153.4c0,4.5,0.8,7.7,2.5,9.7c1.6,2,4.8,3,9.4,3l13.6-2l-3.5,40.9c-11,2.3-21.6,3.5-31.6,3.5c-12,0-20.3-3.4-25.1-10.2
		c-4.7-6.8-7.1-14.8-7.1-24.1v-8.7l-3.5-0.9c-10.2,29.2-28.2,43.8-53.9,43.8c-18.2,0-32.8-7.1-43.9-21.3
		C13.1,215,7.5,196.7,7.5,174.5c0-23.2,6.3-41.6,19-55.2c12.7-13.6,29.5-20.4,50.6-20.4C95.7,98.8,111.7,104,125.3,114.5z
		 M88.5,137.4c-11.8,0-20.9,3.5-27.3,10.4s-9.6,15.9-9.6,26.7c0,11.2,3,20.2,9,27c6,6.8,15.3,10.2,27.8,10.2
		c10.6,0,19.5-3.6,26.5-10.7c7.1-7.2,10.6-15.9,10.6-26.4s-3.5-19.2-10.6-26.4C107.9,141,99.1,137.4,88.5,137.4z"/>
</g>
<g class="st1">
	<path class="st2" d="M253.9,124.8l-0.3,1.9c9.9,3.8,17.8,9.7,23.5,17.9c5.8,8.2,8.6,18,8.6,29.4c0,15.3-4.9,27.9-14.8,37.9
		c-9.8,10-22.3,15-37.5,15c-15.2,0-27.7-5-37.5-15c-9.8-10-14.8-22.6-14.8-37.9c0-15.3,4.9-27.9,14.8-37.8
		c9.8-9.9,22.3-14.9,37.5-14.9h43.6v3.6H253.9z M233.5,142.6c-8.7,0-15.8,3-21.3,8.9c-5.5,6-8.2,13.5-8.2,22.5
		c0,9.1,2.7,16.6,8.2,22.6s12.6,8.9,21.3,8.9c8.6,0,15.6-3,21.1-8.9s8.2-13.5,8.2-22.6c0-9-2.7-16.5-8.2-22.5
		C249.1,145.6,242,142.6,233.5,142.6z"/>
</g>
<g class="st1">
	<path class="st2" d="M337.2,105v117.4c0,3.4,0.7,5.9,2,7.4s3.7,2.3,7.1,2.3l10.4-1.6L354,262c-6.7,1.8-13.9,2.7-21.8,2.7
		c-18.2,0-27.3-9.1-27.3-27.3v-69.9c0-1.5,0-3.6,0-6.2c0-4.4,0-7.7,0-9.7s0-4.7-0.1-8.1c-0.1-3.4-0.2-5.9-0.4-7.4
		c-0.2-1.6-0.6-3.5-1-5.9c-0.4-2.4-1-4.1-1.7-5.1c-0.7-1-1.5-2.3-2.4-3.7c-1-1.4-2.1-2.3-3.4-2.8c-1.3-0.4-2.9-0.9-4.6-1.4
		c-1.7-0.5-3.6-0.8-5.8-0.8c-2.1,0-4.6,0.2-7.2,0.7l-0.2-4.2L337.2,105z"/>
</g>
<g class="st1">
	<path class="st2" d="M150.8,371.9c-14.9,0-27.1-4.9-36.5-14.8c-9.4-9.9-14.1-22.8-14.1-38.8c0-15.9,4.7-28.8,14.1-38.6
		c9.4-9.9,21.5-14.8,36.5-14.8c6,0,11.6,0.8,16.8,2.4c5.1,1.6,9.4,3.6,12.7,5.9c3.3,2.3,6.3,5.1,8.8,8.2c2.5,3.1,4.5,6,5.8,8.7
		c1.3,2.7,2.4,5.3,3.3,7.9l-22.1,5.7c-2-5.5-4.8-9.6-8.4-12.2c-4.5-3.2-10.1-4.8-16.9-4.8c-7.8,0-14.4,2.9-19.6,8.6
		c-5.2,5.7-7.9,13.5-7.9,23.2c0,9.6,2.6,17.3,7.9,23.1s11.8,8.6,19.6,8.6c13.1,0,21.5-5.6,25.1-16.7c0.1-0.2,0.2-0.4,0.2-0.5
		l22.1,5.9c-0.8,2.7-1.9,5.3-3.3,8c-1.3,2.7-3.3,5.5-5.8,8.7c-2.5,3.1-5.5,5.9-8.8,8.2c-3.3,2.3-7.6,4.3-12.7,5.9
		C162.4,371.1,156.9,371.9,150.8,371.9z"/>
</g>
<g class="st1">
	<path class="st2" d="M159.5,623.5h-38.9V509c0-24.7-0.5-39.7-1.6-45c-2-9.6-6.8-15-14.5-16.1c-3.2-0.5-7.2-0.4-12.1,0.3l-0.3-5.1
		l67.3-9.1v36.4l3.2,0.8c3.2-10.5,9.1-19.9,17.7-28c8.6-8.1,19.5-12.2,32.7-12.2c17.3,0,30.9,6.3,40.7,19
		c9.8,12.7,14.7,29.7,14.7,50.9c0,21.4-6,38.5-18,51.2c-12,12.7-27.7,19-47.2,19c-14.3,0-28.9-4.3-44-12.9V623.5z M193.8,535.3
		c10.9,0,19.3-3.2,25.2-9.6c5.9-6.4,8.8-14.6,8.8-24.7c0-10.4-2.8-18.7-8.3-24.9c-5.5-6.3-14.1-9.4-25.7-9.4c-9.8,0-18,3.3-24.5,9.9
		c-6.5,6.6-9.8,14.7-9.8,24.4s3.3,17.8,9.8,24.4C175.8,532,184,535.3,193.8,535.3z"/>
</g>
<text transform="matrix(0.9135 -0.4068 0.4068 0.9135 311.1951 580.0331)" class="st2 st3 st4">A</text>
<g class="st1">
	<path class="st2" d="M221.3,670.3c-11.3,0-21.3-2.5-30-7.4l-12.5,12.5h50.3c13,0,23.5,2.5,31.4,7.4c8,4.9,11.9,12,11.9,21.3
		c0,10.2-4.6,17.8-13.8,22.8c-9.2,5-21.7,7.5-37.3,7.5c-15.7,0-28.1-2.2-37.4-6.7c-9.3-4.4-13.9-11.2-13.9-20.2
		c0-4.1,1.1-7.8,3.3-11.1c2.2-3.3,5-5.9,8.6-7.8c3.5-1.9,6.8-3.3,9.9-4.3c3.1-1,6.3-1.7,9.5-2.1l-0.4-2.2h-28.5v-4.6l15.1-15.1
		c-10.2-7.7-15.3-17.9-15.3-30.6c0-11.8,4.5-21.5,13.5-29.1c9-7.6,20.9-11.3,35.6-11.3c11.7,0,21.6,2.5,29.8,7.4l15.5-15.3l3.2,3.2
		l-14.7,14.7c10.1,7.8,15.1,18,15.1,30.4c0,11.9-4.5,21.7-13.5,29.3C247.7,666.5,235.9,670.3,221.3,670.3z M221.1,709.1
		c6.2,0,11.1-1.2,14.5-3.7c3.4-2.5,5.2-6,5.2-10.6c0-6.5-3.5-10.9-10.3-13.1c-3.3-0.5-6.6-0.8-10-0.8c-13,0-19.5,4.6-19.5,13.9
		C201,704.3,207.7,709.1,221.1,709.1z M221.3,616c-5.2,0-9.4,1.3-12.6,3.9c-3.3,2.6-4.9,5.9-4.9,9.9s1.6,7.2,4.8,9.8l21.1-21.5
		C227,616.6,224.2,616,221.3,616z M233.9,620.2l-21.1,21.7c2.5,1.1,5.4,1.6,8.6,1.6c5.3,0,9.5-1.3,12.6-3.8c3.1-2.5,4.7-5.8,4.7-10
		C238.6,625.7,237,622.5,233.9,620.2z"/>
</g>
<g class="st1">
	<path class="st2" d="M280.4,653.9c0-8.4,3.4-15.3,10.3-20.5c6.9-5.2,16.3-7.8,28.4-7.8h19.2c0-12.2-4.5-18.3-13.6-18.3
		c-7.6,0-13.1,3.4-16.5,10.1l-23.5-9.6c3-6.2,7.9-11.8,14.8-16.9c6.8-5.1,15.5-7.7,26.2-7.7c25.9,0,38.9,14.4,38.9,43.3v17.2
		c0,2.8,0.5,4.8,1.5,6.1c1,1.3,3,1.9,5.9,1.9l8.5-1.3l-2.2,25.5c-5.6,1.4-11.5,2.2-17.9,2.2c-14.7,0-22.1-7.4-22.1-22.3V645
		l-2.2-0.2c-0.6,2.9-1.2,5.5-1.9,7.7c-0.7,2.2-1.8,5.1-3.4,8.5c-1.6,3.4-3.5,6.3-5.5,8.6c-2.1,2.3-4.9,4.3-8.4,6
		c-3.6,1.7-7.5,2.5-11.9,2.5c-7.7,0-13.8-2.3-18.1-6.9C282.6,666.7,280.4,660.9,280.4,653.9z M338,629.8h-7.4
		c-15.9,0-23.9,4.8-23.9,14.3c0,3,0.9,5.4,2.7,7.1c1.8,1.7,4.2,2.5,7.2,2.5c6.3,0,11.1-2.4,14.5-7.2
		C334.5,641.7,336.8,636.1,338,629.8z"/>
</g>
<g class="st1">
	<path class="st2" d="M404,582l-0.1,30l1.5,0.4c1.2-5.8,2.8-10.9,4.8-15.4c2-4.5,4.9-8.4,8.7-11.6c3.8-3.2,8.1-4.9,13.1-4.9
		c10.9,0,16.4,6.6,16.4,19.9c0,1.9-0.3,5.3-0.8,10.1c-0.5,4.8-0.8,8.4-0.8,10.6c0,2.4,0.4,4.1,1.1,5.2c0.7,1.1,2.1,1.7,4.1,1.7
		l5.9-0.9l-1.5,17.8c-3.8,1-8.2,1.5-13.2,1.5c-4.8,0-8.4-1.5-10.9-4.4c-2.5-2.9-3.7-7-3.7-12.1c0-2.9,0.3-6.8,0.8-11.7
		c0.5-4.9,0.8-8.6,0.8-11.1c0-3.4-0.5-5.9-1.6-7.5c-1.1-1.6-2.8-2.3-5.2-2.3c-3.2,0-6,1.4-8.5,4.3c-2.5,2.9-4.4,6.3-5.7,10.3
		c-1.3,4-2.4,8.4-3.2,13.3c-0.8,4.9-1.4,8.9-1.6,12c-0.2,3.1-0.3,5.7-0.3,7.7h-18.4v-27.7c0-0.8,0-2,0-3.5c0-5.9-0.1-10.1-0.3-12.5
		c-0.2-2.5-0.7-5-1.6-7.6c-0.9-2.6-2.4-4.2-4.5-4.8c-2.1-0.6-5-0.6-8.8-0.1l-0.1-2.4L404,582z"/>
</g>
<g class="st1">
	<path class="st2" d="M388.2,704.8c0-10.1,3.3-18.3,9.8-24.4c6.5-6.1,14.9-9.2,25.2-9.2c8.9,0,16.1,1.7,21.5,5.2
		c5.4,3.4,8.1,7.8,8.1,13c0,8.3-6.8,12.9-20.3,14.1l0.1,1.4h19.1v3h-44.2c0.8,9,5.8,13.5,15.1,13.5c6.4,0,11-2.8,13.8-8.5l16.8,7.2
		c-2,4.7-5.4,9-10.3,12.8c-4.9,3.8-11.6,5.7-20.3,5.7c-10.4-0.1-18.8-3.2-25-9.3C391.4,723.2,388.2,715,388.2,704.8z M434,695.3
		c0-2.1-0.9-3.8-2.8-5.2c-1.9-1.4-4.6-2.1-8-2.1c-4.7,0-8.6,1.5-11.5,4.4c-2.9,2.9-4.4,7-4.4,12.3h8.4c5.8,0,10.4-0.9,13.5-2.7
		C432.4,700.2,434,698,434,695.3z"/>
</g>
<g class="st1">
	<path class="st2" d="M196.5,301.5c0-17.5,5.6-31.5,16.9-42.1c11.2-10.6,25.7-15.9,43.3-15.9c15.4,0,27.8,3,37.1,8.9
		c9.3,5.9,14,13.4,14,22.4c0,14.2-11.6,22.3-34.9,24.2l0.2,2.4H306v5.1h-76.1c1.3,15.5,10,23.3,26,23.3c11,0,18.9-4.9,23.8-14.7
		l28.9,12.4c-3.4,8.1-9.3,15.5-17.6,22.1c-8.4,6.6-20,9.9-35,9.9c-17.9-0.1-32.3-5.5-43.1-16C202,333.2,196.5,319.1,196.5,301.5z
		 M275.4,285.3c0-3.6-1.6-6.5-4.9-8.9c-3.3-2.4-7.8-3.6-13.8-3.6c-8.1,0-14.7,2.5-19.8,7.5c-5,5-7.5,12.1-7.5,21.1h14.4
		c10.1,0,17.8-1.6,23.3-4.7C272.6,293.7,275.4,289.9,275.4,285.3z"/>
</g>
</svg>
