<?xml version="1.0" encoding="utf-8"?>
<!-- Generator: Adobe Illustrator 26.0.2, SVG Export Plug-In . SVG Version: 6.00 Build 0)  -->
<svg version="1.1" id="Layer_1" xmlns="http://www.w3.org/2000/svg" xmlns:xlink="http://www.w3.org/1999/xlink" x="0px" y="0px"
	 viewBox="0 0 591.9 825.7" style="enable-background:new 0 0 591.9 825.7;" xml:space="preserve">
<style type="text/css">
	.st0{fill:none;stroke:#E0007A;stroke-width:10;stroke-miterlimit:10;}
	.st1{enable-background:new    ;}
	.st2{fill:#FFFFFF;}
</style>
<path id="Path_1" class="st0" d="M166.8,15.1l150,53.2l51-26.6l61,90.1l22,124.5l18.2,35l-9.1,67.2l62.2,105.8l49,117.5l-71.1,25.9
	l24.6,137.5l-11.7,36.3h-188c0,0-144,16.9-158.2,19.5S53.3,811.4,53.3,811.4"/>
<path id="Path_2" class="st0" d="M262.9,4.6l177.7,73.9l-18.2,90.8l70,197.1L565,537.1l21.9,38.3v15.4c0,0-24.4,16.9-28.3,13
	s-44.1-41.5-44.1-41.5l1.3,54.4l14.3,59.7l-20.8,58.4l5.1,13.4l-1.2,55.4l-180.7,16.9l-13.9-57.1L38.6,752.9"/>
<g class="st1">
	<path class="st2" d="M20.9,275V148.2c0-17.5-0.6-32.9-1.9-46.1c-1.3-13.2-2.5-21.9-3.8-26.2l-1.6-6.7H111
		c25.6,0,46.5,9.5,62.8,28.5c16.3,19,24.4,43.7,24.4,74.2c0,30.6-8.1,55.5-24.4,74.5c-16.3,19-37.2,28.5-62.8,28.5H20.9z
		 M66.9,112.4v119.5h40.3c14.4,0,25.5-6,33.3-17.9c7.8-11.9,11.7-25.9,11.7-42c0-17.5-4-31.9-12-43c-8-11.1-20.2-16.6-36.5-16.6
		H66.9z"/>
</g>
<g class="st1">
	<path class="st2" d="M237.5,306v-62c0-2.1,0-5.2,0-9.3c0-16.7-0.3-28.3-1-34.8c-0.7-6.5-3.1-11.8-7.2-15.9
		c-4.1-4.1-10.8-5.5-20-3.9l-0.3-5.4l69.4-9.6v59.8l3.4,1.1c1.7-9.2,3.7-17.4,5.9-24.5c2.3-7.1,5.3-13.9,9-20.2
		c3.8-6.3,8.6-11.1,14.4-14.5c5.8-3.4,12.5-5.1,20-5.1c12,0,21.8,5.5,29.2,16.5c7.4,11,10.4,27.7,8.9,50.1l-41.5,7.6
		c2.3-25.6-2.7-38.4-14.9-38.4c-5.8,0-11,3.3-15.4,9.9c-4.4,6.6-7.8,14.4-10.2,23.4c-2.4,9-4.2,19.1-5.6,30.3
		c-1.4,11.2-2.3,20.3-2.7,27.2c-0.4,7-0.6,12.9-0.6,17.8H237.5z"/>
</g>
<g class="st1">
	<path class="st2" d="M267.1,370.5c-10.6,0-18.3,1.8-23.1,5.4c-4.8,3.6-7.2,7.7-7.2,12.4c0,10.1,11.6,17.5,34.7,22.1
		c27.5,4.9,45.9,9.6,55,14c17.2,8.1,25.8,21.2,25.8,39.1c0,16-7.4,28.5-22.1,37.5c-14.8,9-34.1,13.5-57.9,13.5
		c-23.9,0-42.9-4.2-57-12.7c-14.1-8.5-21.2-20.6-21.2-36.3c0-13,4.7-23.9,14-32.5c9.3-8.6,20.4-14.4,33.2-17.3v-4.1
		c-12.5-2.2-23.1-6.7-31.5-13.5c-8.5-6.8-12.7-15.7-12.7-26.8c0-14.5,6.8-26.4,20.3-35.8c13.5-9.3,30-14,49.4-14
		c23.9,0,42.9,5,57,15.1c14.1,10.1,23.7,21.4,28.6,33.9l-48.7,21.4C297.5,377.7,285.3,370.5,267.1,370.5z M298.9,441.7
		c0-8.1-3.8-13.9-11.3-17.3c-7.5-3.4-15.9-5.2-25.3-5.2c-9.8,0-18.1,1.9-24.7,5.7c-6.6,3.8-10,9.4-10,16.8c0,6.9,3,12.4,9,16.6
		c6,4.2,14.7,6.3,26,6.3c10.1,0,18.6-1.8,25.6-5.5C295.4,455.4,298.9,449.6,298.9,441.7z"/>
</g>
<g class="st1">
	<path class="st2" d="M398.8,258.5h5.9v37h43.7v5.9h-43.7v68.9c0,7.7,1.5,12.8,4.6,15.4s8.1,3.9,14.9,3.9c3.9,0,8.2-0.5,12.7-1.5
		c4.5-1,8.1-2.1,10.7-3.1l3.6-1.3l-5.9,37.3c-9.1,4.1-20.2,6.2-33.4,6.2c-29.6,0-44.5-15-44.5-45v-80.7h-14.6v-5.9L398.8,258.5z"/>
</g>
<g class="st1">
	<path class="st2" d="M445.1,451.9c3.6-3.6,8.1-5.4,13.6-5.4c5.5,0,10.1,1.8,13.7,5.4c3.7,3.6,5.5,8.1,5.5,13.4
		c0,5.5-1.8,10-5.5,13.5c-3.7,3.5-8.3,5.3-13.7,5.3c-5.5,0-10-1.8-13.6-5.3c-3.6-3.5-5.4-8-5.4-13.5
		C439.7,459.9,441.5,455.5,445.1,451.9z"/>
</g>
<g class="st1">
	<path class="st2" d="M215.1,663v-80.6c0-11.3-0.4-21.2-1.1-29.6c-0.7-8.4-1.5-14-2.3-16.7l-1-4.2h34.1l52.3,119.4v-69.1
		c0-11.2-0.4-21-1.2-29.4c-0.8-8.4-1.5-14-2.2-16.7l-1.2-4.2h33.9V663h-29.5l-52.3-119.4V663H215.1z"/>
</g>
<g class="st1">
	<path class="st2" d="M340.8,655c0-21.4,6.9-38.6,20.7-51.5c13.8-13,31.5-19.4,53-19.4c18.9,0,34,3.6,45.4,10.9
		c11.4,7.3,17.1,16.4,17.1,27.5c0,17.4-14.2,27.3-42.7,29.6l0.3,3h40.3v6.3h-93.3c1.6,19,12.2,28.6,31.8,28.6c13.4,0,23.1-6,29.1-18
		l35.4,15.2c-4.2,10-11.4,19-21.6,27.1c-10.2,8.1-24.5,12.1-42.8,12.1c-21.9-0.2-39.5-6.7-52.8-19.6
		C347.4,693.8,340.8,676.6,340.8,655z M437.4,635.1c0-4.4-2-8-6-10.9c-4-2.9-9.6-4.4-16.9-4.4c-10,0-18,3.1-24.2,9.2
		c-6.2,6.2-9.2,14.8-9.2,25.8h17.7c12.3,0,21.8-1.9,28.6-5.7C434,645.5,437.4,640.8,437.4,635.1z"/>
</g>
<g class="st1">
	<path class="st2" d="M160.7,326.5v80.2c0,3.8,0.7,6.6,2.1,8.3c1.4,1.7,4.1,2.6,8.1,2.6l11.7-1.7l-3,35.1c-7.6,2-15.9,3-24.7,3
		c-20.3,0-30.4-10.2-30.4-30.6v-31.6l-3-0.7c-1.8,8.8-3.9,16.6-6.2,23.4c-2.3,6.8-5.4,13.4-9.2,19.7c-3.8,6.3-8.6,11.2-14.3,14.7
		c-5.7,3.5-12.2,5.2-19.5,5.2c-21.1,0-31.6-12.9-31.6-38.8c0-4,0.5-10.8,1.4-20.5c0.9-9.7,1.4-16.7,1.4-21c0-4.6-0.7-8.1-2.1-10.3
		c-1.4-2.2-4-3.4-7.8-3.4l-11.7,1.7l2.7-35.1c7.5-2,16.2-3,26.1-3c9.5,0,16.6,2.9,21.5,8.6c4.9,5.7,7.3,13.7,7.3,24
		c0,5.8-0.5,13.6-1.4,23.4c-0.9,9.8-1.4,17.3-1.4,22.4c0,12.5,4.1,18.7,12.4,18.7c7.1,0,13.3-4.1,18.4-12.3
		c5.1-8.2,8.8-18.3,11.1-30.4c2.2-12,3.8-22.3,4.6-30.8c0.8-8.5,1.2-15.4,1.2-20.7H160.7z"/>
</g>
<g class="st1">
	<path class="st2" d="M136.1,551.6l-1.3,3.9c15.7,6.8,28.2,16.5,37.2,29c9.1,12.6,13.6,27.7,13.6,45.4c0,24.9-8.4,45.5-25.3,61.7
		c-16.8,16.2-37.9,24.3-63.3,24.3c-25.6,0-46.8-8.1-63.6-24.3C16.6,675.5,8.2,654.9,8.2,630s8.4-45.5,25.3-61.7
		c16.8-16.2,38-24.3,63.6-24.3h70.5v7.5H136.1z M65.3,662.8c8.3,8.7,18.9,13.1,31.8,13.1c12.9,0,23.5-4.4,31.8-13.1
		c8.3-8.7,12.5-19.7,12.5-32.8s-4.2-24.1-12.5-32.8c-8.3-8.7-18.9-13.1-31.8-13.1c-12.9,0-23.5,4.4-31.8,13.1
		c-8.3,8.7-12.5,19.7-12.5,32.8S57,654.1,65.3,662.8z"/>
</g>
</svg>
