<?xml version="1.0" encoding="utf-8"?>
<!-- Generator: Adobe Illustrator 26.0.2, SVG Export Plug-In . SVG Version: 6.00 Build 0)  -->
<svg version="1.1" id="Layer_1" xmlns="http://www.w3.org/2000/svg" xmlns:xlink="http://www.w3.org/1999/xlink" x="0px" y="0px"
	 viewBox="0 0 621.9 863.7" style="enable-background:new 0 0 621.9 863.7;" xml:space="preserve">
<style type="text/css">
	.st0{fill:none;stroke:#E0007A;stroke-width:10;stroke-miterlimit:10;}
	.st1{enable-background:new    ;}
	.st2{fill:#FFFFFF;}
</style>
<path id="Path_1" class="st0" d="M196.8,53.1l150,53.2l51-26.6l61,90.1l22,124.5l18.2,35l-9.1,67.2l62.2,105.8l49,117.5l-71.1,25.9
	l24.6,137.5l-11.7,36.3h-188c0,0-144,16.9-158.2,19.5c-14.3,2.6-113.6,10.4-113.6,10.4"/>
<path id="Path_2" class="st0" d="M292.9,42.6l177.7,73.9l-18.2,90.8l70,197.1L595,575.1l21.9,38.3v15.4c0,0-24.4,16.9-28.3,13
	s-44.1-41.5-44.1-41.5l1.3,54.4l14.3,59.7l-20.8,58.4l5.1,13.4l-1.2,55.4l-180.7,16.9l-13.9-57.1L68.6,790.9"/>
<g class="st1">
	<path class="st2" d="M156.9,148.2H61.2v47.8h83.5v6.7H61.2v54.8h101.5V297H19.1V181c0-16-0.6-30.1-1.7-42c-1.2-12-2.3-20-3.5-24.1
		l-1.4-6.1h144.4V148.2z"/>
</g>
<g class="st1">
	<path class="st2" d="M224.6,491.5c0-17.8,5.7-32.1,17.2-42.8c11.4-10.8,26.1-16.2,44.1-16.2c15.7,0,28.3,3,37.7,9
		c9.5,6,14.2,13.6,14.2,22.8c0,14.5-11.8,22.7-35.5,24.6l0.2,2.5h33.4v5.2h-77.5c1.4,15.8,10.2,23.7,26.4,23.7
		c11.1,0,19.2-5,24.2-14.9l29.4,12.7c-3.5,8.3-9.5,15.8-18,22.5c-8.5,6.7-20.4,10.1-35.6,10.1c-18.2-0.2-32.8-5.6-43.8-16.3
		C230.1,523.7,224.6,509.4,224.6,491.5z M304.9,475c0-3.6-1.7-6.6-5-9c-3.3-2.4-8-3.6-14-3.6c-8.3,0-15,2.6-20.1,7.7
		c-5.1,5.1-7.7,12.3-7.7,21.5h14.7c10.2,0,18.2-1.6,23.7-4.7C302.1,483.6,304.9,479.7,304.9,475z"/>
</g>
<g class="st1">
	<path class="st2" d="M295.8,606.2c0-2.6,0.5-5.5,1.5-8.6c1-3.1,2.5-6.4,4.4-9.8c2-3.4,4.9-6.3,8.9-8.6c4-2.3,8.6-3.4,13.8-3.4
		c7.4,0,13.3,1.8,17.9,5.5c4.6,3.7,7.6,8.4,8.9,14.1c1.4,5.7,1.8,11.8,1.2,18.3c-0.6,6.5-2,12.8-4.3,19l-34.5,91.9
		c-2,5.4-3.5,9.2-4.5,11.5c-1.1,2.3-2.8,5.2-5.3,8.7c-2.4,3.5-5.5,6-9.2,7.5c-3.7,1.5-8,2.2-13.1,2.2c-2.9,0-6-0.2-9.2-0.7
		s-5.6-0.9-7.2-1.2l-2.4-0.7l-2.9-35.8c7.3,2,15.8,2.9,25.2,2.9c16.5,0,26.6-4.9,30.4-14.7l1.2-3.2h-25.7l-22.3-58.6
		c-5.2-13.6-10.3-25.6-15.3-36.3c-5-10.6-8.6-17.9-10.9-21.8l-3.7-5.9h43.6l10.8,28.4L295.8,606.2z M342.9,630.4
		c2-5.2,3.3-10.6,3.9-16c0.7-5.5,0.5-10.7-0.4-15.8c-0.9-5.1-3.2-9.2-7-12.5c-3.8-3.3-8.7-4.9-14.9-4.9c-6.5,0-11.8,1.9-15.7,5.8
		c-3.9,3.8-6.4,8.7-7.5,14.5c-1.1,5.8-1.4,11.7-1,17.6c0.4,6,1.5,11.4,3.3,16.3l18.4,50.5L342.9,630.4z"/>
</g>
<g class="st1">
	<path class="st2" d="M397.4,535.5l-0.2,49.7l2.5,0.6c1.9-9.6,4.6-18.1,7.9-25.6c3.3-7.5,8.2-13.9,14.4-19.2c6.3-5.4,13.5-8,21.7-8
		c18.1,0,27.2,11,27.2,33c0,3.2-0.4,8.8-1.3,16.8c-0.8,8-1.3,13.9-1.3,17.7c0,3.9,0.6,6.8,1.8,8.7c1.2,1.9,3.4,2.8,6.8,2.8l9.8-1.5
		l-2.5,29.5c-6.3,1.7-13.6,2.5-21.9,2.5c-7.9,0-14-2.4-18.1-7.3c-4.1-4.9-6.2-11.6-6.2-20.1c0-4.9,0.4-11.4,1.3-19.4
		c0.8-8.1,1.3-14.2,1.3-18.4c0-5.7-0.9-9.9-2.7-12.4c-1.8-2.6-4.7-3.9-8.6-3.9c-5.3,0-10,2.4-14.1,7.2c-4.1,4.8-7.2,10.5-9.4,17.1
		c-2.2,6.6-3.9,14-5.3,22c-1.4,8.1-2.3,14.7-2.6,19.9c-0.3,5.2-0.5,9.4-0.5,12.7h-30.5v-46c0-1.4,0-3.3,0-5.9
		c0-9.8-0.1-16.7-0.4-20.8c-0.3-4.1-1.1-8.3-2.6-12.6c-1.5-4.3-3.9-7-7.4-7.9c-3.5-1-8.4-1-14.6-0.2l-0.2-4L397.4,535.5z"/>
</g>
<g class="st1">
	<path class="st2" d="M254.8,193.2c-11.7,0-20.1,2-25.4,5.9c-5.3,3.9-7.9,8.5-7.9,13.6c0,11.1,12.8,19.3,38.3,24.4
		c30.4,5.4,50.6,10.6,60.6,15.5c19,9,28.5,23.3,28.5,43.1c0,17.6-8.1,31.4-24.4,41.3c-16.3,9.9-37.6,14.9-63.9,14.9
		c-26.3,0-47.3-4.7-62.9-14c-15.6-9.4-23.4-22.7-23.4-40.1c0-14.4,5.2-26.3,15.5-35.8c10.3-9.5,22.5-15.9,36.6-19.1v-4.5
		c-13.8-2.4-25.4-7.4-34.8-14.9c-9.4-7.5-14-17.3-14-29.5c0-16,7.5-29.2,22.4-39.5c14.9-10.3,33.1-15.5,54.5-15.5
		c26.3,0,47.3,5.6,62.9,16.7c15.6,11.1,26.1,23.6,31.5,37.4l-53.7,23.6C288.3,201,274.9,193.2,254.8,193.2z M289.8,271.7
		c0-9-4.1-15.3-12.4-19.1c-8.3-3.8-17.6-5.7-27.9-5.7c-10.9,0-19.9,2.1-27.3,6.3c-7.3,4.2-11,10.4-11,18.5c0,7.6,3.3,13.7,10,18.3
		c6.6,4.6,16.2,6.9,28.7,6.9c11.1,0,20.6-2,28.3-6.1C285.9,286.8,289.8,280.4,289.8,271.7z"/>
</g>
<g class="st1">
	<path class="st2" d="M360.7,389v-92.4c0-1.4,0-3.5,0-6.1c0-4.3,0-7.5,0-9.4c0-2,0-4.6-0.1-7.9c-0.1-3.3-0.2-5.8-0.4-7.3
		s-0.5-3.4-1-5.8c-0.4-2.3-1-4-1.6-5c-0.7-1-1.4-2.2-2.4-3.6c-0.9-1.4-2.1-2.3-3.4-2.7c-1.3-0.4-2.8-0.9-4.4-1.4
		c-1.7-0.5-3.5-0.8-5.6-0.8c-2.1,0-4.4,0.2-7.1,0.7l-0.2-4.1l57.7-7.6v89.2l2.6,0.9c8.4-31.7,23.4-47.5,45.1-47.5
		c8.2,0,15.2,2.4,20.8,7.3c5.6,4.8,8.5,11.4,8.5,19.6c0,9.8-3.2,17.3-9.7,22.5c-6.4,5.1-13.6,7.7-21.6,7.7l7.8,13.9
		c2.3,4.2,4.6,7.1,6.9,8.6c2.3,1.5,5.6,2.3,10,2.3l13.7-1.5l-2.6,30.6c-5.9,1.7-11.9,2.6-18,2.6c-7.8,0-14.1-1.7-18.8-5.2
		c-4.7-3.5-9.4-8.9-14.2-16.3l-18.4-33.4v-6.3h15c4.9,0,9.2-1.1,12.9-3.3c3.7-2.2,5.5-5.5,5.5-10c0-3-1.1-5.4-3.1-7.2
		c-2.1-1.7-5-2.6-8.6-2.6c-4.6,0-8.8,1.1-12.6,3.4c-3.8,2.2-6.8,5-9.1,8.1c-2.3,3.2-4.3,7.4-6,12.7c-1.7,5.3-2.9,10-3.7,14.1
		c-0.8,4.1-1.4,9.3-1.8,15.5c-0.4,6.2-0.7,10.7-0.7,13.6c0,2.8,0,6.7,0,11.6c0,1.2,0,2,0,2.6H360.7z"/>
</g>
<g class="st1">
	<path class="st2" d="M210.8,420.8c0,34.4-21.6,53.2-64.7,56.2l25.8,42.5c3.1,5,6.4,8.9,10.1,11.8c3.7,2.8,8.7,4.3,15,4.3l25.2-2.3
		l-3.9,46.8c-12,2.6-22.5,3.9-31.4,3.9c-11.8,0-21.4-2.7-28.9-8c-7.5-5.3-15.1-14.6-22.7-27.6L94,477.6H79V580H31.6V449.2
		c0-18.1-0.7-34-2-47.6c-1.3-13.6-2.6-22.6-3.9-27l-1.6-6.9h121c21.4,0,37.7,4.6,48.9,13.9C205.2,390.9,210.8,404,210.8,420.8z
		 M125.1,470.1c12.2,0,21.6-2.9,28.3-8.7c6.6-5.8,10-13.7,10-23.7c0-17-10.2-25.5-30.7-25.5H79v57.9H125.1z"/>
</g>
</svg>
