<?xml version="1.0" encoding="utf-8"?>
<!-- Generator: Adobe Illustrator 26.0.2, SVG Export Plug-In . SVG Version: 6.00 Build 0)  -->
<svg version="1.1" id="Layer_1" xmlns="http://www.w3.org/2000/svg" xmlns:xlink="http://www.w3.org/1999/xlink" x="0px" y="0px"
	 viewBox="0 0 585.9 877.7" style="enable-background:new 0 0 585.9 877.7;" xml:space="preserve">
<style type="text/css">
	.st0{fill:none;stroke:#E0007A;stroke-width:10;stroke-miterlimit:10;}
	.st1{enable-background:new    ;}
	.st2{fill:#FFFFFF;}
</style>
<path id="Path_1" class="st0" d="M160.8,67.1l150,53.2l51-26.6l61,90.1l22,124.5l18.2,35l-9.1,67.2l62.2,105.8l49,117.5l-71.1,25.9
	l24.6,137.5l-11.7,36.3h-188c0,0-144,16.9-158.2,19.5c-14.3,2.6-113.6,10.4-113.6,10.4"/>
<path id="Path_2" class="st0" d="M256.9,56.6l177.7,73.9l-18.2,90.8l70,197.1L559,589.1l21.9,38.3v15.4c0,0-24.4,16.9-28.3,13
	s-44.1-41.5-44.1-41.5l1.3,54.4l14.3,59.7l-20.8,58.4l5.1,13.4l-1.2,55.4l-180.7,16.9l-13.9-57.1L32.6,804.9"/>
<g class="st1">
	<path class="st2" d="M81.8,196.6c-14.9,0-28.1-3.2-39.7-9.7l-16.6,16.6h66.5c17.2,0,31,3.2,41.6,9.7c10.5,6.5,15.8,15.9,15.8,28.1
		c0,13.5-6.1,23.5-18.3,30.1c-12.2,6.6-28.6,9.9-49.3,9.9c-20.7,0-37.2-2.9-49.4-8.8c-12.3-5.9-18.4-14.8-18.4-26.7
		c0-5.4,1.4-10.3,4.3-14.7c2.9-4.4,6.7-7.8,11.3-10.3c4.6-2.5,9-4.3,13.2-5.7c4.1-1.3,8.3-2.2,12.5-2.8l-0.5-2.9H17.1v-6l20-20
		c-13.5-10.2-20.3-23.7-20.3-40.5c0-15.6,6-28.4,17.9-38.4c11.9-10,27.6-15,47.1-15c15.4,0,28.6,3.2,39.5,9.7l20.5-20.3l4.2,4.2
		l-19.5,19.5c13.3,10.3,20,23.8,20,40.2c0,15.8-6,28.7-17.9,38.7C116.7,191.7,101.1,196.6,81.8,196.6z M81.5,247.9
		c8.2,0,14.6-1.6,19.2-4.9c4.6-3.2,6.8-7.9,6.8-14.1c0-8.6-4.6-14.4-13.7-17.4c-4.4-0.7-8.8-1.1-13.1-1.1
		c-17.2,0-25.8,6.1-25.8,18.4C55,241.6,63.8,247.9,81.5,247.9z M81.8,124.8c-6.8,0-12.4,1.7-16.7,5.1c-4.3,3.4-6.4,7.8-6.4,13
		s2.1,9.6,6.3,12.9l27.9-28.4C89.3,125.7,85.7,124.8,81.8,124.8z M98.4,130.4L70.5,159c3.3,1.4,7.1,2.1,11.3,2.1
		c7,0,12.6-1.7,16.7-5c4.1-3.3,6.2-7.7,6.2-13.2C104.7,137.7,102.6,133.5,98.4,130.4z"/>
</g>
<g class="st1">
	<path class="st2" d="M137.4,646.6c-8.4,0-15.8-1.8-22.3-5.5l-9.3,9.3h37.4c9.7,0,17.5,1.8,23.4,5.5c5.9,3.7,8.9,8.9,8.9,15.8
		c0,7.6-3.4,13.2-10.3,16.9c-6.9,3.7-16.1,5.5-27.8,5.5c-11.6,0-20.9-1.7-27.8-5c-6.9-3.3-10.4-8.3-10.4-15c0-3.1,0.8-5.8,2.4-8.3
		c1.6-2.5,3.7-4.4,6.4-5.8c2.6-1.4,5.1-2.4,7.4-3.2c2.3-0.7,4.7-1.3,7-1.6l-0.3-1.6H101v-3.4l11.2-11.2
		c-7.6-5.7-11.4-13.3-11.4-22.8c0-8.8,3.4-16,10.1-21.6c6.7-5.6,15.5-8.4,26.5-8.4c8.7,0,16.1,1.8,22.2,5.5l11.5-11.4l2.4,2.4
		l-11,11c7.5,5.8,11.2,13.4,11.2,22.6c0,8.9-3.4,16.1-10.1,21.8C157,643.8,148.3,646.6,137.4,646.6z M137.3,675.5
		c4.6,0,8.2-0.9,10.8-2.7c2.6-1.8,3.8-4.5,3.8-7.9c0-4.8-2.6-8.1-7.7-9.8c-2.5-0.4-4.9-0.6-7.4-0.6c-9.7,0-14.5,3.5-14.5,10.4
		C122.3,671.9,127.3,675.5,137.3,675.5z M137.4,606.2c-3.8,0-7,1-9.4,2.9c-2.4,1.9-3.6,4.4-3.6,7.3s1.2,5.4,3.6,7.3l15.7-16
		C141.6,606.7,139.6,606.2,137.4,606.2z M146.7,609.3L131,625.4c1.9,0.8,4,1.2,6.4,1.2c3.9,0,7.1-0.9,9.4-2.8
		c2.3-1.9,3.5-4.3,3.5-7.4C150.3,613.5,149.1,611.1,146.7,609.3z"/>
</g>
<g class="st1">
	<path class="st2" d="M239.4,359.5v66c0,3.1,0.6,5.4,1.7,6.9c1.2,1.4,3.4,2.2,6.7,2.2l9.4-1.4L255,462c-6.3,1.6-13.1,2.5-20.3,2.5
		c-16.7,0-25-8.4-25-25.2v-22.3c0-18.9-0.4-30.3-1.2-34.4c-1.5-7.4-5.2-11.5-11.1-12.3c-2.5-0.4-5.5-0.3-9.2,0.2l-0.4-3.9
		L239.4,359.5z M239,329.2l0.4,4.5l-32.2,2.3l-0.2-4.7L239,329.2z"/>
</g>
<g class="st1">
	<path class="st2" d="M316.8,713.5v37c0,1.8,0.3,3,1,3.9c0.7,0.8,1.9,1.2,3.7,1.2l5.3-0.8l-1.3,16.2c-3.5,0.9-7.3,1.4-11.4,1.4
		c-9.4,0-14-4.7-14-14.1v-12.5c0-10.6-0.2-17-0.7-19.3c-0.8-4.1-2.9-6.4-6.2-6.9c-1.4-0.2-3.1-0.2-5.2,0.1l-0.2-2.2L316.8,713.5z
		 M316.6,696.5l0.2,2.5l-18.1,1.3l-0.1-2.6L316.6,696.5z"/>
</g>
<g class="st1">
	<path class="st2" d="M304.8,409.5c-7.4,0-12.8,1.2-16.1,3.7c-3.4,2.5-5,5.4-5,8.6c0,7.1,8.1,12.2,24.3,15.5
		c19.3,3.4,32.1,6.7,38.4,9.8c12,5.7,18.1,14.8,18.1,27.3c0,11.2-5.2,19.9-15.5,26.2c-10.3,6.3-23.8,9.4-40.5,9.4
		c-16.7,0-30-3-39.9-8.9c-9.9-5.9-14.8-14.4-14.8-25.4c0-9.1,3.3-16.7,9.8-22.7c6.5-6,14.3-10.1,23.2-12.1v-2.8
		c-8.8-1.5-16.1-4.7-22.1-9.4c-5.9-4.7-8.9-11-8.9-18.7c0-10.1,4.7-18.5,14.2-25c9.5-6.5,21-9.8,34.6-9.8c16.7,0,30,3.5,39.9,10.6
		c9.9,7.1,16.6,15,20,23.7l-34.1,15C326.1,414.5,317.6,409.5,304.8,409.5z M327,459.3c0-5.7-2.6-9.7-7.9-12.1
		c-5.2-2.4-11.1-3.6-17.7-3.6c-6.9,0-12.6,1.3-17.3,4c-4.6,2.7-7,6.6-7,11.7c0,4.8,2.1,8.7,6.3,11.6c4.2,2.9,10.3,4.4,18.2,4.4
		c7.1,0,13-1.3,17.9-3.9C324.6,468.8,327,464.8,327,459.3z"/>
</g>
<g class="st1">
	<path class="st2" d="M361.1,757.2c-4.2,0-7.2,0.7-9.1,2.1c-1.9,1.4-2.8,3-2.8,4.9c0,4,4.5,6.9,13.6,8.7c10.8,1.9,18,3.8,21.6,5.5
		c6.8,3.2,10.2,8.3,10.2,15.4c0,6.3-2.9,11.2-8.7,14.7c-5.8,3.5-13.4,5.3-22.8,5.3c-9.4,0-16.8-1.7-22.4-5
		c-5.6-3.3-8.3-8.1-8.3-14.3c0-5.1,1.8-9.4,5.5-12.8c3.7-3.4,8-5.7,13.1-6.8v-1.6c-4.9-0.9-9.1-2.6-12.4-5.3c-3.3-2.7-5-6.2-5-10.5
		c0-5.7,2.7-10.4,8-14.1c5.3-3.7,11.8-5.5,19.4-5.5c9.4,0,16.8,2,22.4,5.9c5.6,4,9.3,8.4,11.2,13.3l-19.1,8.4
		C373,760,368.2,757.2,361.1,757.2z M373.5,785.2c0-3.2-1.5-5.5-4.4-6.8c-2.9-1.4-6.3-2-9.9-2c-3.9,0-7.1,0.8-9.7,2.2
		c-2.6,1.5-3.9,3.7-3.9,6.6c0,2.7,1.2,4.9,3.6,6.5c2.4,1.6,5.8,2.5,10.2,2.5c4,0,7.3-0.7,10.1-2.2S373.5,788.3,373.5,785.2z"/>
</g>
<g class="st1">
	<path class="st2" d="M402.8,418.7v84.6l2.1,0.6c1.4-6.5,3.1-12.4,5.2-17.8c2.1-5.4,4.7-10.5,7.9-15.2c3.2-4.8,7.1-8.5,11.7-11.1
		c4.6-2.7,9.8-4,15.5-4c16.3,0,24.5,10,24.5,30c0,2.9-0.3,8-1,15.3c-0.7,7.3-1,12.6-1,16.1c0,3.5,0.5,6.2,1.6,7.9
		c1.1,1.7,3.1,2.6,6,2.6l8.9-1.3l-2.3,26.8c-5.7,1.5-12.3,2.3-19.8,2.3c-7.2,0-12.7-2.2-16.4-6.6c-3.7-4.4-5.6-10.5-5.6-18.3
		c0-4.4,0.3-10.3,1-17.7c0.7-7.3,1-12.9,1-16.7c0-9.9-3.4-14.8-10.1-14.8c-6,0-11.1,3.1-15.3,9.4c-4.2,6.3-7.3,13.9-9.1,23
		c-1.8,9.1-3.1,16.8-3.8,23.4c-0.7,6.5-1,11.9-1,16.1h-27.6v-80.9c0-1.3,0-3,0-5.3c0-3.8,0-6.6,0-8.3s0-4-0.1-6.9
		c-0.1-2.9-0.2-5-0.4-6.4s-0.5-3-0.9-5c-0.4-2-0.9-3.5-1.4-4.4c-0.6-0.9-1.3-1.9-2.1-3.1c-0.8-1.2-1.8-2-2.9-2.4
		c-1.1-0.4-2.4-0.8-3.9-1.2c-1.5-0.4-3.1-0.7-4.9-0.7c-1.8,0-3.9,0.2-6.2,0.6l-0.4-3.6L402.8,418.7z"/>
</g>
<g class="st1">
	<path class="st2" d="M424.9,698.8v46.7l1.2,0.3c0.8-3.6,1.7-6.8,2.9-9.8c1.2-3,2.6-5.8,4.4-8.4c1.7-2.6,3.9-4.7,6.5-6.1
		c2.6-1.5,5.4-2.2,8.6-2.2c9,0,13.5,5.5,13.5,16.6c0,1.6-0.2,4.4-0.6,8.5c-0.4,4-0.6,7-0.6,8.9c0,2,0.3,3.4,0.9,4.4
		c0.6,0.9,1.7,1.4,3.3,1.4l4.9-0.7l-1.3,14.8c-3.2,0.8-6.8,1.3-10.9,1.3c-4,0-7-1.2-9.1-3.6c-2.1-2.4-3.1-5.8-3.1-10.1
		c0-2.4,0.2-5.7,0.6-9.8c0.4-4.1,0.6-7.1,0.6-9.2c0-5.5-1.9-8.2-5.6-8.2c-3.3,0-6.1,1.7-8.5,5.2c-2.3,3.5-4,7.7-5,12.7
		c-1,5-1.7,9.3-2.1,12.9c-0.4,3.6-0.6,6.6-0.6,8.9h-15.2v-44.7c0-0.7,0-1.7,0-2.9c0-2.1,0-3.6,0-4.6c0-0.9,0-2.2-0.1-3.8
		c0-1.6-0.1-2.8-0.2-3.5c-0.1-0.7-0.3-1.7-0.5-2.8c-0.2-1.1-0.5-1.9-0.8-2.4c-0.3-0.5-0.7-1.1-1.2-1.7c-0.5-0.7-1-1.1-1.6-1.3
		c-0.6-0.2-1.3-0.4-2.2-0.7c-0.8-0.2-1.7-0.4-2.7-0.4c-1,0-2.2,0.1-3.4,0.3l-0.2-2L424.9,698.8z"/>
</g>
<g class="st1">
	<path class="st2" d="M292.5,155.5v84c0,4,0.7,6.9,2.2,8.7c1.5,1.8,4.3,2.7,8.5,2.7l12.3-1.8l-3.1,36.8c-8,2.1-16.6,3.1-25.8,3.1
		c-21.2,0-31.8-10.7-31.8-32.1v-33.1l-3.1-0.8c-1.9,9.2-4.1,17.4-6.5,24.5c-2.4,7.1-5.7,14-9.7,20.6c-4,6.6-9,11.7-15,15.4
		c-6,3.7-12.8,5.5-20.5,5.5c-22.1,0-33.1-13.6-33.1-40.7c0-4.2,0.5-11.4,1.4-21.5c1-10.2,1.4-17.5,1.4-22.1c0-4.9-0.7-8.5-2.2-10.8
		c-1.5-2.3-4.2-3.5-8.2-3.5l-12.3,1.8l2.9-36.8c7.8-2.1,17-3.1,27.4-3.1c9.9,0,17.4,3,22.6,9c5.1,6,7.7,14.4,7.7,25.2
		c0,6.1-0.5,14.3-1.4,24.5c-1,10.3-1.4,18.1-1.4,23.5c0,13,4.3,19.6,13.1,19.6c7.5,0,13.9-4.3,19.3-12.9c5.4-8.6,9.3-19.2,11.6-31.8
		c2.3-12.6,4-23.4,4.8-32.2c0.9-8.9,1.3-16.1,1.3-21.7H292.5z"/>
</g>
<g class="st1">
	<path class="st2" d="M327.1,538v84.4c0,4,0.7,6.9,2.2,8.8c1.5,1.8,4.3,2.8,8.5,2.8l12.3-1.8L347,669c-8,2.1-16.7,3.1-25.9,3.1
		c-21.3,0-32-10.7-32-32.2v-33.3l-3.1-0.8c-1.9,9.3-4.1,17.5-6.5,24.6c-2.4,7.2-5.7,14.1-9.7,20.7c-4,6.6-9,11.8-15.1,15.5
		c-6,3.7-12.9,5.5-20.6,5.5c-22.2,0-33.3-13.6-33.3-40.9c0-4.2,0.5-11.4,1.4-21.6c1-10.2,1.4-17.6,1.4-22.1c0-4.9-0.7-8.5-2.2-10.9
		c-1.5-2.4-4.2-3.5-8.3-3.5l-12.3,1.8l2.9-36.9c7.9-2.1,17-3.1,27.5-3.1c10,0,17.5,3,22.7,9c5.1,6,7.7,14.5,7.7,25.3
		c0,6.1-0.5,14.3-1.4,24.6c-1,10.3-1.4,18.2-1.4,23.6c0,13.1,4.4,19.7,13.1,19.7c7.5,0,14-4.3,19.4-13c5.4-8.6,9.3-19.3,11.7-32
		c2.4-12.7,4-23.4,4.8-32.4c0.9-8.9,1.3-16.2,1.3-21.7H327.1z"/>
</g>
<g class="st1">
	<path class="st2" d="M323.6,342v-83.5c0-1.3,0-3.1,0-5.5c0-3.9,0-6.8,0-8.5c0-1.8,0-4.1-0.1-7.2c-0.1-3-0.2-5.2-0.4-6.6
		c-0.2-1.4-0.5-3.1-0.9-5.2c-0.4-2.1-0.9-3.6-1.5-4.5c-0.6-0.9-1.3-2-2.2-3.2c-0.9-1.2-1.9-2.1-3-2.5c-1.2-0.4-2.5-0.8-4-1.3
		c-1.5-0.5-3.2-0.7-5.1-0.7c-1.9,0-4,0.2-6.4,0.6l-0.2-3.7l52.1-6.9v47.6c10.7-6.3,21.4-9.4,32.1-9.4c14,0,25.4,4.7,34.3,14.1
		c8.9,9.4,13.3,21.8,13.3,37.2c0,15-3.9,27.3-11.6,36.8c-7.7,9.5-17.9,14.3-30.6,14.3c-16.2,0-28-9.8-35.3-29.4l-2.4,0.6V342H323.6z
		 M377.1,267.9c-7.1,0-13,2.4-17.8,7.3c-4.8,4.8-7.3,10.8-7.3,17.8s2.4,13,7.3,17.8c4.8,4.8,10.8,7.3,17.8,7.3
		c8.2,0,14.4-2.3,18.6-7c4.2-4.6,6.3-10.7,6.3-18.1c0-7.3-2.2-13.3-6.5-18C391.2,270.3,385.1,267.9,377.1,267.9z"/>
</g>
<g class="st1">
	<path class="st2" d="M364.9,684v-70.3c0-1.1,0-2.6,0-4.6c0-3.3,0-5.7,0-7.2c0-1.5,0-3.5-0.1-6c-0.1-2.5-0.2-4.4-0.3-5.5
		c-0.2-1.2-0.4-2.6-0.7-4.4c-0.3-1.8-0.7-3-1.2-3.8c-0.5-0.8-1.1-1.7-1.8-2.7c-0.7-1-1.6-1.7-2.6-2.1s-2.1-0.7-3.4-1.1
		c-1.3-0.4-2.7-0.6-4.3-0.6c-1.6,0-3.4,0.2-5.4,0.5l-0.2-3.1l43.9-5.8v40.1c9-5.3,18-7.9,27.1-7.9c11.8,0,21.4,4,28.9,11.9
		c7.5,7.9,11.2,18.4,11.2,31.3c0,12.7-3.2,23-9.7,31c-6.5,8-15.1,12-25.7,12c-13.6,0-23.5-8.2-29.7-24.8l-2,0.5V684H364.9z
		 M410,621.6c-5.9,0-10.9,2-15,6.1c-4.1,4.1-6.1,9.1-6.1,15s2,10.9,6.1,15c4.1,4.1,9.1,6.1,15,6.1c6.9,0,12.2-2,15.7-5.9
		c3.5-3.9,5.3-9,5.3-15.3c0-6.2-1.8-11.2-5.4-15.2C421.8,623.6,416.7,621.6,410,621.6z"/>
</g>
<g class="st1">
	<path class="st2" d="M36,539V412.9c0-2,0-4.7,0-8.3c0-5.9,0-10.2,0-12.9s-0.1-6.3-0.1-10.8c-0.1-4.5-0.3-7.8-0.6-9.9
		c-0.3-2.1-0.7-4.7-1.3-7.8c-0.6-3.2-1.3-5.4-2.2-6.8c-0.9-1.4-2-3-3.3-4.9c-1.3-1.9-2.8-3.1-4.6-3.7c-1.8-0.6-3.8-1.2-6.1-1.9
		c-2.3-0.7-4.8-1-7.7-1c-2.9,0-6.1,0.3-9.6,0.9l-0.3-5.6l78.7-10.4v71.9c16.2-9.5,32.4-14.2,48.5-14.2c21.1,0,38.4,7.1,51.8,21.3
		c13.4,14.2,20.1,33,20.1,56.2c0,22.7-5.8,41.2-17.5,55.6c-11.6,14.4-27,21.6-46.2,21.6c-24.5,0-42.2-14.8-53.3-44.4l-3.6,0.9V539
		H36z M116.8,427.1c-10.7,0-19.6,3.7-26.9,11c-7.3,7.3-11,16.3-11,26.9s3.6,19.6,11,26.9c7.3,7.3,16.3,11,26.9,11
		c12.4,0,21.8-3.5,28.1-10.5c6.3-7,9.5-16.1,9.5-27.4c0-11-3.3-20.1-9.8-27.2C138.1,430.7,128.8,427.1,116.8,427.1z"/>
</g>
<g class="st1">
	<path class="st2" d="M194,796v-71.1c0-1.1,0-2.7,0-4.7c0-3.3,0-5.8,0-7.3c0-1.5,0-3.5-0.1-6.1c-0.1-2.6-0.2-4.4-0.3-5.6
		s-0.4-2.6-0.8-4.4c-0.3-1.8-0.8-3.1-1.3-3.8c-0.5-0.8-1.1-1.7-1.8-2.8c-0.7-1.1-1.6-1.8-2.6-2.1s-2.1-0.7-3.4-1.1
		c-1.3-0.4-2.7-0.6-4.3-0.6c-1.6,0-3.4,0.2-5.4,0.5l-0.2-3.2l44.4-5.8v40.6c9.1-5.3,18.3-8,27.4-8c11.9,0,21.7,4,29.2,12
		c7.6,8,11.4,18.6,11.4,31.7c0,12.8-3.3,23.3-9.9,31.4c-6.6,8.1-15.3,12.2-26.1,12.2c-13.8,0-23.8-8.3-30.1-25l-2,0.5V796H194z
		 M239.6,732.9c-6,0-11.1,2.1-15.2,6.2c-4.1,4.1-6.2,9.2-6.2,15.2s2.1,11.1,6.2,15.2c4.1,4.1,9.2,6.2,15.2,6.2c7,0,12.3-2,15.9-5.9
		c3.6-4,5.3-9.1,5.3-15.4c0-6.2-1.8-11.4-5.5-15.4C251.6,734.9,246.4,732.9,239.6,732.9z"/>
</g>
</svg>
