<?xml version="1.0" encoding="utf-8"?>
<!-- Generator: Adobe Illustrator 26.0.2, SVG Export Plug-In . SVG Version: 6.00 Build 0)  -->
<svg version="1.1" id="Layer_1" xmlns="http://www.w3.org/2000/svg" xmlns:xlink="http://www.w3.org/1999/xlink" x="0px" y="0px"
	 viewBox="0 0 580.9 825.7" style="enable-background:new 0 0 580.9 825.7;" xml:space="preserve">
<style type="text/css">
	.st0{fill:none;stroke:#E0007A;stroke-width:10;stroke-miterlimit:10;}
	.st1{enable-background:new    ;}
	.st2{fill:#FFFFFF;}
</style>
<path id="Path_1" class="st0" d="M155.8,15.1l150,53.2l51-26.6l61,90.1l22,124.5l18.2,35l-9.1,67.2l62.2,105.8l49,117.5l-71.1,25.9
	l24.6,137.5l-11.7,36.3h-188c0,0-144,16.9-158.2,19.5c-14.3,2.6-113.6,10.4-113.6,10.4"/>
<path id="Path_2" class="st0" d="M251.9,4.6l177.7,73.9l-18.2,90.8l70,197.1L554,537.1l21.9,38.3v15.4c0,0-24.4,16.9-28.3,13
	s-44.1-41.5-44.1-41.5l1.3,54.4l14.3,59.7l-20.8,58.4l5.1,13.4l-1.2,55.4l-180.7,16.9l-13.9-57.1L27.6,752.9"/>
<g class="st1">
	<path class="st2" d="M21.6,340V209.1c0-18.4-0.7-34.4-2-48.1c-1.3-13.7-2.6-22.7-3.9-27.1l-1.6-6.9h55.1v98.7h88.2v-17.1
		c0-18.1-0.7-34.1-2-47.7c-1.3-13.7-2.6-22.7-3.9-27.1l-1.6-6.9H205V340h-47.6V233.4H69.2V340H21.6z"/>
</g>
<g class="st1">
	<path class="st2" d="M214.3,146c0-16.7,5.4-30.1,16.1-40.2c10.7-10.1,24.5-15.2,41.3-15.2c14.7,0,26.5,2.8,35.4,8.5
		c8.9,5.7,13.4,12.8,13.4,21.4c0,13.6-11.1,21.3-33.3,23.1l0.2,2.3h31.4v4.9h-72.7c1.3,14.8,9.5,22.3,24.8,22.3
		c10.5,0,18-4.7,22.7-14l27.6,11.9c-3.3,7.8-8.9,14.8-16.9,21.1c-8,6.3-19.1,9.4-33.4,9.4c-17.1-0.1-30.8-5.2-41.1-15.3
		C219.5,176.2,214.3,162.8,214.3,146z M289.6,130.5c0-3.4-1.6-6.2-4.7-8.5c-3.1-2.3-7.5-3.4-13.1-3.4c-7.8,0-14.1,2.4-18.9,7.2
		c-4.8,4.8-7.2,11.5-7.2,20.1h13.8c9.6,0,17-1.5,22.3-4.5C286.9,138.6,289.6,134.9,289.6,130.5z"/>
</g>
<g class="st1">
	<path class="st2" d="M351.9,271.2c0-27.1-1.7-45.7-5.1-55.6c-3.4-9.9-11.7-14.9-25-14.9c-3.5,0-7.7,0.4-12.4,1.1l-0.7-6.7
		l94.5-12.4V370c0,5.4,1,9.4,3,11.9c2,2.5,5.8,3.7,11.5,3.7l16.6-2.5l-4.2,49.9c-13.5,2.8-26.3,4.2-38.6,4.2
		c-14.6,0-24.8-4.1-30.6-12.4c-5.8-8.3-8.7-18.1-8.7-29.4v-10.6l-4.2-1.1c-12.5,35.6-34.5,53.5-65.8,53.5c-22.2,0-40.1-8.7-53.6-26
		c-13.6-17.3-20.4-39.6-20.4-66.7c0-28.3,7.7-50.8,23.2-67.4c15.5-16.6,36-25,61.8-25C315.8,252.1,335.4,258.5,351.9,271.2z
		 M307,299.2c-14.4,0-25.5,4.2-33.3,12.7S262,331.3,262,344.5c0,13.7,3.7,24.7,11,32.9c7.3,8.3,18.6,12.4,34,12.4
		c13,0,23.8-4.4,32.4-13.1c8.6-8.7,12.9-19.5,12.9-32.2s-4.3-23.5-12.9-32.2C330.7,303.6,319.9,299.2,307,299.2z"/>
</g>
<g class="st1">
	<path class="st2" d="M219.4,432.5c0,36.4-22.8,56.3-68.5,59.5l27.3,45c3.2,5.3,6.8,9.5,10.7,12.5c3.9,3,9.2,4.5,15.9,4.5l26.6-2.4
		l-4.2,49.5c-12.7,2.8-23.8,4.2-33.2,4.2c-12.5,0-22.7-2.8-30.6-8.5s-16-15.4-24-29.2l-43.6-74.7H80V601H29.8V462.6
		c0-19.1-0.7-35.9-2.1-50.3c-1.4-14.4-2.8-23.9-4.2-28.5l-1.7-7.3h128c22.6,0,39.8,4.9,51.7,14.7C213.5,401,219.4,414.7,219.4,432.5
		z M128.8,484.7c12.9,0,22.9-3.1,29.9-9.2c7-6.1,10.6-14.5,10.6-25.1c0-18-10.8-27-32.5-27H80v61.2H128.8z"/>
</g>
<g class="st1">
	<path class="st2" d="M357.5,462.4l-0.5,3c15.6,5.9,28,15.3,37.1,28.2c9.1,12.8,13.6,28.2,13.6,46.2c0,24-7.7,43.9-23.2,59.7
		c-15.5,15.7-35.2,23.6-59,23.6c-23.9,0-43.6-7.9-59-23.6c-15.5-15.7-23.2-35.6-23.2-59.7c0-24,7.7-43.9,23.2-59.5
		c15.5-15.6,35.2-23.5,59-23.5h68.7v5.7H357.5z M325.4,490.3c-13.7,0-24.8,4.7-33.5,14.1c-8.6,9.4-13,21.2-13,35.3
		c0,14.3,4.3,26.2,13,35.6c8.6,9.4,19.8,14.1,33.5,14.1c13.5,0,24.6-4.7,33.2-14.1c8.6-9.4,13-21.2,13-35.6c0-14.2-4.3-25.9-13-35.3
		C350,495,338.9,490.3,325.4,490.3z"/>
</g>
<g class="st1">
	<path class="st2" d="M351.9,757v-79.4c0-11.1-0.4-20.9-1.1-29.2c-0.7-8.3-1.5-13.8-2.3-16.4l-1-4.2h33.6l51.5,117.6v-68.1
		c0-11-0.4-20.7-1.2-29c-0.8-8.3-1.5-13.8-2.2-16.4l-1.2-4.2h33.4V757h-29.1L381,639.4V757H351.9z"/>
</g>
</svg>
