<?xml version="1.0" encoding="utf-8"?>
<!-- Generator: Adobe Illustrator 26.0.2, SVG Export Plug-In . SVG Version: 6.00 Build 0)  -->
<svg version="1.1" id="Layer_1" xmlns="http://www.w3.org/2000/svg" xmlns:xlink="http://www.w3.org/1999/xlink" x="0px" y="0px"
	 viewBox="0 0 611.9 825.7" style="enable-background:new 0 0 611.9 825.7;" xml:space="preserve">
<style type="text/css">
	.st0{fill:none;stroke:#E0007A;stroke-width:10;stroke-miterlimit:10;}
	.st1{enable-background:new    ;}
	.st2{fill:#FFFFFF;}
</style>
<path id="Path_1" class="st0" d="M186.8,15.1l150,53.2l51-26.6l61,90.1l22,124.5l18.2,35l-9.1,67.2l62.2,105.8l49,117.5l-71.1,25.9
	l24.6,137.5l-11.7,36.3h-188c0,0-144,16.9-158.2,19.5S73.3,811.4,73.3,811.4"/>
<path id="Path_2" class="st0" d="M282.9,4.6l177.7,73.9l-18.2,90.8l70,197.1L585,537.1l21.9,38.3v15.4c0,0-24.4,16.9-28.3,13
	s-44.1-41.5-44.1-41.5l1.3,54.4l14.3,59.7l-20.8,58.4l5.1,13.4l-1.2,55.4l-180.7,16.9l-13.9-57.1L58.6,752.9"/>
<g class="st1">
	<path class="st2" d="M85.1,60.9v141.1l3.5,1c2.3-10.8,5.2-20.7,8.7-29.6c3.5-9,7.9-17.4,13.2-25.4c5.3-7.9,11.8-14.1,19.5-18.5
		c7.7-4.4,16.3-6.7,25.8-6.7c27.3,0,40.9,16.7,40.9,50.1c0,4.9-0.6,13.4-1.7,25.5c-1.2,12.2-1.7,21.1-1.7,26.8
		c0,5.9,0.9,10.3,2.7,13.2c1.8,2.9,5.1,4.3,10,4.3l14.9-2.2L217,285c-9.5,2.5-20.5,3.8-33,3.8c-12,0-21.2-3.6-27.4-10.9
		c-6.2-7.3-9.4-17.5-9.4-30.6c0-7.4,0.6-17.2,1.7-29.5c1.2-12.3,1.7-21.6,1.7-27.9c0-16.5-5.6-24.7-16.8-24.7
		c-9.9,0-18.4,5.2-25.5,15.7c-7.1,10.5-12.2,23.2-15.2,38.4c-3.1,15.1-5.2,28.1-6.3,39c-1.2,10.9-1.7,19.8-1.7,26.8h-46V150
		c0-2.1,0-5.1,0-8.9c0-6.3,0-10.9,0-13.8c0-2.9-0.1-6.7-0.2-11.6c-0.1-4.9-0.3-8.4-0.6-10.6c-0.3-2.2-0.8-5-1.4-8.4
		c-0.6-3.4-1.4-5.8-2.4-7.3c-1-1.5-2.1-3.2-3.5-5.2c-1.4-2-3-3.3-4.9-4s-4.1-1.3-6.5-2.1c-2.4-0.7-5.2-1.1-8.2-1.1
		c-3.1,0-6.5,0.3-10.3,1l-0.6-6L85.1,60.9z"/>
</g>
<g class="st1">
	<path class="st2" d="M286.4,133v90.8c0,4.3,0.8,7.5,2.4,9.4c1.6,2,4.7,3,9.2,3l13-2l-3.1,39.8c-8.6,2.3-18,3.4-27.9,3.4
		c-22.9,0-34.4-11.6-34.4-34.7V212c0-25.9-0.6-41.7-1.7-47.4c-2.1-10.2-7.1-15.8-15.2-16.9c-3.4-0.6-7.6-0.5-12.7,0.3l-0.6-5.4
		L286.4,133z M285.8,91.3l0.6,6.2l-44.3,3.1l-0.3-6.5L285.8,91.3z"/>
</g>
<g class="st1">
	<path class="st2" d="M127.5,312.9v137c0,4,0.8,6.9,2.3,8.7c1.6,1.8,4.3,2.7,8.3,2.7l12.2-1.8l-3.1,36.5c-7.8,2.1-16.2,3.1-25.4,3.1
		c-21.2,0-31.9-10.6-31.9-31.9v-81.6c0-1.7,0-4.1,0-7.3c0-5.2,0-8.9,0-11.3s0-5.5-0.1-9.5c-0.1-4-0.3-6.9-0.5-8.7
		c-0.3-1.8-0.6-4.1-1.2-6.9c-0.5-2.8-1.2-4.7-1.9-6c-0.8-1.2-1.7-2.6-2.8-4.3c-1.1-1.6-2.5-2.7-4-3.2c-1.6-0.5-3.3-1.1-5.3-1.7
		c-2-0.6-4.2-0.9-6.7-0.9c-2.5,0-5.3,0.3-8.4,0.8l-0.3-4.9L127.5,312.9z"/>
</g>
<g class="st1">
	<path class="st2" d="M401.1,186.2v180.9c0,5.2,1,9.1,3.1,11.5c2.1,2.4,5.7,3.6,10.9,3.6l16.1-2.4L427,428
		c-10.3,2.7-21.4,4.1-33.5,4.1c-28,0-42.1-14-42.1-42.1V282.3c0-2.3,0-5.5,0-9.6c0-6.8,0-11.8,0-14.9c0-3.1-0.1-7.2-0.2-12.5
		c-0.1-5.2-0.3-9.1-0.7-11.5s-0.9-5.4-1.5-9.1c-0.7-3.6-1.5-6.3-2.6-7.9c-1-1.6-2.3-3.5-3.8-5.6c-1.5-2.2-3.2-3.6-5.3-4.3
		c-2.1-0.7-4.4-1.4-7-2.2c-2.6-0.8-5.6-1.2-8.9-1.2c-3.3,0-7,0.3-11.1,1l-0.3-6.5L401.1,186.2z"/>
</g>
<g class="st1">
	<path class="st2" d="M165.5,447.7c0-14.3,5.8-25.8,17.4-34.6c11.6-8.8,27.6-13.2,48-13.2h32.4c0-20.6-7.6-30.9-22.9-30.9
		c-12.9,0-22.1,5.7-27.8,17.1l-39.8-16.2c5.1-10.4,13.4-19.9,24.9-28.6c11.5-8.7,26.3-13,44.2-13c43.9,0,65.8,24.4,65.8,73.1v29.1
		c0,4.7,0.9,8.1,2.6,10.3c1.7,2.1,5,3.2,9.9,3.2l14.4-2.1l-3.7,43.1c-9.4,2.4-19.5,3.7-30.3,3.7c-24.9,0-37.3-12.5-37.3-37.6v-18.4
		l-3.7-0.3c-1,4.9-2.1,9.2-3.2,13c-1.1,3.8-3.1,8.6-5.8,14.4c-2.8,5.8-5.9,10.7-9.3,14.5c-3.5,3.9-8.2,7.2-14.2,10.1
		c-6,2.9-12.7,4.3-20,4.3c-13.1,0-23.3-3.9-30.6-11.6C169.2,469.3,165.5,459.5,165.5,447.7z M262.9,407h-12.5
		c-26.9,0-40.4,8.1-40.4,24.2c0,5.1,1.5,9.1,4.6,11.9c3.1,2.9,7.1,4.3,12.2,4.3c10.6,0,18.8-4.1,24.5-12.2
		C256.9,427,260.8,417.6,262.9,407z"/>
</g>
<g class="st1">
	<path class="st2" d="M141.5,571.2c-9.4,0-17,3.4-22.6,10.2c-5.6,6.8-8.4,16.3-8.4,28.3s2.8,21.4,8.4,28.1
		c5.6,6.7,13.1,10.1,22.6,10.1c5,0,9.5-0.8,13.4-2.4c3.9-1.6,6.9-3.6,8.9-6c2-2.4,3.4-4.4,4.2-6c0.8-1.6,1.4-2.9,1.8-3.9l39.4,17.8
		c-5,11-12.9,20.7-23.6,28.9c-10.7,8.2-25.3,12.3-43.8,12.3c-22.3,0-40.4-7.3-54.3-21.8c-13.9-14.5-20.9-33.6-20.9-57
		s7-42.4,20.9-56.9c13.9-14.4,32.1-21.7,54.3-21.7c18.5,0,33.1,4.1,43.8,12.2c10.7,8.1,18.6,17.6,23.6,28.4l-39.4,18.1
		c-0.4-1-1-2.3-1.8-3.9c-0.8-1.6-2.2-3.7-4.2-6.2c-2-2.5-5-4.6-8.9-6.2C151,572,146.5,571.2,141.5,571.2z"/>
</g>
<g class="st1">
	<path class="st2" d="M202.3,710.3c0-14,5.7-25.4,17.2-34c11.4-8.6,27.2-12.9,47.3-12.9h31.9c0-20.3-7.5-30.4-22.6-30.4
		c-12.6,0-21.8,5.6-27.4,16.9l-39.1-16c5-10.2,13.2-19.6,24.5-28.1c11.3-8.5,25.8-12.8,43.5-12.8c43.1,0,64.7,24,64.7,71.9v28.6
		c0,4.6,0.9,8,2.6,10.1c1.7,2.1,5,3.2,9.8,3.2l14.1-2.1l-3.6,42.4c-9.2,2.4-19.2,3.6-29.8,3.6c-24.5,0-36.7-12.3-36.7-37v-18.1
		l-3.6-0.3c-1,4.8-2.1,9.1-3.2,12.8c-1.1,3.7-3,8.4-5.7,14.1c-2.7,5.7-5.8,10.5-9.2,14.3c-3.4,3.8-8.1,7.1-14,9.9
		c-5.9,2.8-12.5,4.2-19.7,4.2c-12.8,0-22.9-3.8-30.1-11.4C206,731.6,202.3,721.9,202.3,710.3z M298.1,670.2h-12.3
		c-26.5,0-39.7,7.9-39.7,23.8c0,5,1.5,8.9,4.5,11.7c3,2.8,7,4.2,12,4.2c10.4,0,18.5-4,24.1-12C292.2,689.9,296.1,680.7,298.1,670.2z
		"/>
</g>
<g class="st1">
	<path class="st2" d="M388.4,521.5l-0.3,62.6l3.2,0.8c2.5-12.1,5.8-22.8,10-32.2c4.2-9.4,10.3-17.4,18.1-24.2
		c7.9-6.7,17-10.1,27.4-10.1c22.8,0,34.2,13.9,34.2,41.6c0,4-0.5,11.1-1.6,21.2c-1.1,10.1-1.6,17.5-1.6,22.2c0,4.9,0.7,8.5,2.2,10.9
		c1.5,2.4,4.3,3.6,8.5,3.6l12.4-1.8l-3.2,37.1c-7.9,2.1-17.1,3.2-27.6,3.2c-10,0-17.6-3.1-22.8-9.2c-5.2-6.1-7.8-14.6-7.8-25.2
		c0-6.1,0.5-14.3,1.6-24.5c1.1-10.2,1.6-17.9,1.6-23.1c0-7.2-1.1-12.4-3.4-15.6c-2.3-3.2-5.9-4.9-10.8-4.9c-6.7,0-12.6,3-17.8,9.1
		c-5.2,6-9.1,13.2-11.8,21.6c-2.7,8.3-5,17.6-6.7,27.7c-1.8,10.2-2.9,18.5-3.3,25c-0.4,6.5-0.7,11.8-0.7,16H350v-57.9
		c0-1.8,0-4.2,0-7.4c0-12.3-0.2-21-0.5-26.2c-0.4-5.2-1.4-10.5-3.3-15.9c-1.8-5.4-5-8.8-9.3-10c-4.4-1.2-10.5-1.3-18.4-0.3l-0.3-5
		L388.4,521.5z"/>
</g>
</svg>
