<?xml version="1.0" encoding="utf-8"?>
<!-- Generator: Adobe Illustrator 26.0.2, SVG Export Plug-In . SVG Version: 6.00 Build 0)  -->
<svg version="1.1" id="Layer_1" xmlns="http://www.w3.org/2000/svg" xmlns:xlink="http://www.w3.org/1999/xlink" x="0px" y="0px"
	 viewBox="0 0 580.9 825.7" style="enable-background:new 0 0 580.9 825.7;" xml:space="preserve">
<style type="text/css">
	.st0{fill:none;stroke:#E0007A;stroke-width:10;stroke-miterlimit:10;}
	.st1{enable-background:new    ;}
	.st2{fill:#FFFFFF;}
</style>
<path id="Path_1" class="st0" d="M155.8,15.1l150,53.2l51-26.6l61,90.1l22,124.5l18.2,35l-9.1,67.2l62.2,105.8l49,117.5l-71.1,25.9
	l24.6,137.5l-11.7,36.3h-188c0,0-144,16.9-158.2,19.5S42.3,811.4,42.3,811.4"/>
<path id="Path_2" class="st0" d="M251.9,4.6l177.7,73.9l-18.2,90.8l70,197.1L554,537.1l21.9,38.3v15.4c0,0-24.4,16.9-28.3,13
	s-44.1-41.5-44.1-41.5l1.3,54.4l14.3,59.7l-20.8,58.4l5.1,13.4l-1.2,55.4l-180.7,16.9l-13.9-57.1L27.6,752.9"/>
<g class="st1">
	<path class="st2" d="M21.6,291V160.1c0-18.4-0.7-34.4-2-48.1c-1.3-13.7-2.6-22.7-3.9-27.1l-1.6-6.9h55.1v98.7h88.2v-17.1
		c0-18.1-0.7-34.1-2-47.7c-1.3-13.7-2.6-22.7-3.9-27.1l-1.6-6.9H205V291h-47.6V184.4H69.2V291H21.6z"/>
</g>
<g class="st1">
	<path class="st2" d="M323.6,183v68.3c0,3.3,0.6,5.6,1.8,7.1c1.2,1.5,3.5,2.2,6.9,2.2l10-1.5l-2.5,29.9c-6.5,1.7-13.5,2.5-21,2.5
		c-17.2,0-25.9-8.7-25.9-26.1v-26.9l-2.5-0.6c-1.6,7.5-3.3,14.1-5.3,19.9c-2,5.8-4.6,11.4-7.8,16.7c-3.3,5.4-7.3,9.5-12.2,12.5
		c-4.9,3-10.4,4.5-16.6,4.5c-18,0-26.9-11-26.9-33.1c0-3.4,0.4-9.2,1.2-17.5c0.8-8.3,1.2-14.2,1.2-17.9c0-4-0.6-6.9-1.8-8.8
		c-1.2-1.9-3.4-2.9-6.7-2.9l-10,1.5l2.3-29.9c6.4-1.7,13.8-2.5,22.3-2.5c8.1,0,14.2,2.4,18.3,7.3c4.2,4.9,6.3,11.7,6.3,20.5
		c0,4.9-0.4,11.6-1.2,19.9c-0.8,8.3-1.2,14.7-1.2,19.1c0,10.6,3.5,15.9,10.6,15.9c6.1,0,11.3-3.5,15.7-10.5c4.4-7,7.5-15.6,9.4-25.9
		c1.9-10.2,3.2-19,3.9-26.2c0.7-7.2,1.1-13.1,1.1-17.6H323.6z M234.9,144.3c3-2.9,6.8-4.3,11.3-4.3c4.5,0,8.3,1.5,11.3,4.3
		c3,2.9,4.6,6.6,4.6,11.1c0,4.4-1.5,8-4.6,10.9c-3,2.9-6.8,4.3-11.3,4.3c-4.5,0-8.3-1.4-11.3-4.3c-3-2.9-4.6-6.5-4.6-10.9
		C230.3,150.9,231.9,147.2,234.9,144.3z M281.4,144.3c3-2.9,6.7-4.3,11.2-4.3c4.5,0,8.3,1.5,11.3,4.3c3,2.9,4.6,6.6,4.6,11.1
		c0,4.4-1.5,8-4.6,10.9c-3,2.9-6.8,4.3-11.3,4.3c-4.5,0-8.3-1.4-11.2-4.3c-3-2.9-4.5-6.5-4.5-10.9
		C277,150.9,278.5,147.2,281.4,144.3z"/>
</g>
<g class="st1">
	<path class="st2" d="M327.2,217v-32.8c0-1.1,0-2.7,0-4.9c0-8.8-0.2-15-0.5-18.4c-0.3-3.4-1.6-6.2-3.8-8.4
		c-2.2-2.2-5.7-2.9-10.6-2.1l-0.1-2.8l36.7-5.1v31.6l1.8,0.6c0.9-4.9,1.9-9.2,3.1-13c1.2-3.8,2.8-7.3,4.8-10.7
		c2-3.3,4.5-5.9,7.6-7.7c3.1-1.8,6.6-2.7,10.6-2.7c6.4,0,11.5,2.9,15.4,8.7c3.9,5.8,5.5,14.6,4.7,26.4l-21.9,4
		c1.2-13.5-1.4-20.3-7.9-20.3c-3.1,0-5.8,1.7-8.1,5.2c-2.3,3.5-4.1,7.6-5.4,12.4c-1.2,4.8-2.2,10.1-3,16c-0.7,5.9-1.2,10.7-1.4,14.4
		c-0.2,3.7-0.3,6.8-0.3,9.4H327.2z"/>
</g>
<g class="st1">
	<path class="st2" d="M88,493V382.7c0-1.7,0-4.1,0-7.3c0-5.2,0-8.9,0-11.3s0-5.5-0.1-9.5c-0.1-4-0.3-6.9-0.5-8.7
		c-0.3-1.8-0.6-4.1-1.2-6.9c-0.5-2.8-1.2-4.7-1.9-6c-0.8-1.2-1.7-2.6-2.8-4.3c-1.1-1.6-2.5-2.7-4-3.2c-1.6-0.5-3.3-1.1-5.3-1.7
		c-2-0.6-4.2-0.9-6.7-0.9c-2.5,0-5.3,0.3-8.4,0.8l-0.3-4.9l68.9-9.1v106.4l3.1,1c10-37.8,28-56.7,53.9-56.7c9.8,0,18.1,2.9,24.9,8.7
		c6.7,5.8,10.1,13.6,10.1,23.4c0,11.7-3.8,20.7-11.5,26.8c-7.7,6.1-16.3,9.2-25.8,9.2l9.3,16.6c2.8,5,5.5,8.4,8.3,10.2
		c2.8,1.8,6.7,2.7,11.9,2.7l16.3-1.8l-3.1,36.5c-7.1,2.1-14.2,3.1-21.5,3.1c-9.3,0-16.8-2.1-22.4-6.2c-5.6-4.1-11.3-10.6-17-19.4
		l-22-39.9v-7.5h17.9c5.9,0,11-1.3,15.4-3.9c4.4-2.6,6.6-6.6,6.6-11.9c0-3.6-1.3-6.5-3.8-8.5c-2.5-2.1-5.9-3.1-10.2-3.1
		c-5.5,0-10.5,1.3-15,4c-4.5,2.7-8.1,5.9-10.9,9.7c-2.8,3.8-5.1,8.9-7.1,15.2c-2,6.3-3.5,11.9-4.4,16.8c-1,4.9-1.7,11.1-2.2,18.5
		c-0.5,7.4-0.8,12.8-0.8,16.2c0,3.4,0,8,0,13.9c0,1.4,0,2.4,0,3.1H88z"/>
</g>
<g class="st1">
	<path class="st2" d="M210.7,528v148.1c0,4.3,0.8,7.4,2.5,9.4c1.7,2,4.7,2.9,9,2.9l13.2-2L232,726c-8.4,2.2-17.5,3.4-27.4,3.4
		c-23,0-34.4-11.5-34.4-34.4v-88.2c0-1.9,0-4.5,0-7.8c0-5.6,0-9.7,0-12.2c0-2.5,0-5.9-0.1-10.2c-0.1-4.3-0.3-7.4-0.6-9.4
		c-0.3-2-0.7-4.4-1.3-7.4c-0.6-3-1.3-5.1-2.1-6.4c-0.8-1.3-1.9-2.8-3.1-4.6c-1.2-1.8-2.7-2.9-4.3-3.5c-1.7-0.6-3.6-1.2-5.7-1.8
		c-2.1-0.7-4.6-1-7.3-1c-2.7,0-5.7,0.3-9.1,0.8l-0.3-5.3L210.7,528z"/>
</g>
<g class="st1">
	<path class="st2" d="M268.4,472c-11.7,0-21-3.9-28-11.7c-7-7.8-10.5-19.1-10.5-34c0-9.9,1.2-19.1,3.6-27.8
		c2.4-8.6,6.1-19.1,11.2-31.2c5.4-12.8,9.6-24.2,12.6-34c3-9.8,4.6-16.3,4.9-19.6l0.5-4.9h48.9L372.2,469h-38.8l-19.5-52.4l-2.7,0.7
		c-1.3,6.3-2.3,10.9-3.1,13.8c-0.7,3-2.3,7.5-4.6,13.7c-2.3,6.2-4.8,10.9-7.4,14.1c-2.6,3.2-6.4,6.2-11.2,8.9
		C280,470.6,274.5,472,268.4,472z M289.4,341.5c-0.7,1.6-2.2,5.6-4.6,11.7c-2.4,6.2-4,10.4-4.8,12.6c-0.8,2.2-2.2,5.9-4.1,11.1
		c-1.9,5.2-3.2,9.2-4,12c-0.7,2.8-1.6,6.3-2.7,10.4c-1.1,4.1-1.8,7.8-2.2,11c-0.4,3.2-0.6,6.4-0.6,9.5c0,7.4,1.6,13,4.8,16.8
		c3.2,3.8,7.5,5.7,13,5.7c9.1,0,15.6-5.2,19.6-15.7c4-10.5,4.2-22.5,0.4-36.2L289.4,341.5z"/>
</g>
<g class="st1">
	<path class="st2" d="M47.4,702c-11.7,0-21-3.9-28-11.7c-7-7.8-10.5-19.1-10.5-34c0-9.9,1.2-19.1,3.6-27.8
		c2.4-8.6,6.1-19.1,11.2-31.2c5.4-12.8,9.6-24.2,12.6-34c3-9.8,4.6-16.3,4.9-19.6l0.5-4.9h48.9L151.2,699h-38.8l-19.5-52.4l-2.7,0.7
		c-1.3,6.3-2.3,10.9-3.1,13.8c-0.7,3-2.3,7.5-4.6,13.7c-2.3,6.2-4.8,10.9-7.4,14.1c-2.6,3.2-6.4,6.2-11.2,8.9
		C59,700.6,53.5,702,47.4,702z M68.4,571.5c-0.7,1.6-2.2,5.6-4.6,11.7c-2.4,6.2-4,10.4-4.8,12.6c-0.8,2.2-2.2,5.9-4.1,11.1
		c-1.9,5.2-3.2,9.2-4,12c-0.7,2.8-1.6,6.3-2.7,10.4c-1.1,4.1-1.8,7.8-2.2,11c-0.4,3.2-0.6,6.4-0.6,9.5c0,7.4,1.6,13,4.8,16.8
		c3.2,3.8,7.5,5.7,13,5.7c9.1,0,15.6-5.2,19.6-15.7c4-10.5,4.2-22.5,0.4-36.2L68.4,571.5z"/>
</g>
<g class="st1">
	<path class="st2" d="M276.7,544.6c-7.7,0-13.9,2.8-18.5,8.4c-4.6,5.6-6.9,13.3-6.9,23.2s2.3,17.6,6.9,23.1
		c4.6,5.5,10.8,8.3,18.5,8.3c4.1,0,7.8-0.7,11-2c3.2-1.3,5.6-3,7.3-4.9c1.6-2,2.8-3.6,3.5-4.9c0.7-1.3,1.2-2.4,1.5-3.2l32.4,14.6
		c-4.1,9.1-10.6,17-19.4,23.7c-8.8,6.8-20.8,10.1-35.9,10.1c-18.3,0-33.1-6-44.6-17.9c-11.4-11.9-17.2-27.5-17.2-46.8
		s5.7-34.8,17.2-46.7c11.4-11.9,26.3-17.8,44.6-17.8c15.1,0,27.1,3.3,35.9,10c8.8,6.7,15.3,14.5,19.4,23.3l-32.4,14.8
		c-0.3-0.8-0.8-1.9-1.5-3.2c-0.7-1.3-1.8-3-3.5-5.1c-1.6-2.1-4.1-3.7-7.3-5.1C284.5,545.3,280.8,544.6,276.7,544.6z"/>
</g>
<g class="st1">
	<path class="st2" d="M316.1,645.9c0-11.5,4.7-20.8,14.1-27.9c9.4-7.1,22.3-10.6,38.8-10.6h26.2c0-16.6-6.2-24.9-18.5-24.9
		c-10.4,0-17.9,4.6-22.5,13.8l-32.1-13.1c4.1-8.4,10.8-16.1,20.1-23.1c9.3-7,21.2-10.5,35.7-10.5c35.4,0,53.1,19.7,53.1,59V632
		c0,3.8,0.7,6.5,2.1,8.3c1.4,1.7,4.1,2.6,8,2.6l11.6-1.7l-3,34.8c-7.6,2-15.7,3-24.5,3c-20.1,0-30.1-10.1-30.1-30.4v-14.8l-3-0.2
		c-0.8,4-1.7,7.5-2.6,10.5c-0.9,3-2.5,6.9-4.7,11.6c-2.2,4.7-4.7,8.6-7.5,11.7c-2.8,3.1-6.6,5.8-11.5,8.2
		c-4.9,2.3-10.3,3.5-16.2,3.5c-10.5,0-18.8-3.1-24.7-9.4C319.1,663.3,316.1,655.4,316.1,645.9z M394.7,613h-10.1
		c-21.7,0-32.6,6.5-32.6,19.5c0,4.1,1.2,7.3,3.7,9.6c2.5,2.3,5.8,3.5,9.9,3.5c8.6,0,15.1-3.3,19.8-9.9
		C389.9,629.2,393,621.6,394.7,613z"/>
</g>
<g class="st1">
	<path class="st2" d="M424,701.5l-0.2,36.4l1.8,0.5c1.4-7,3.4-13.3,5.8-18.7c2.4-5.5,6-10.1,10.6-14.1c4.6-3.9,9.9-5.9,15.9-5.9
		c13.3,0,19.9,8.1,19.9,24.2c0,2.3-0.3,6.5-0.9,12.3c-0.6,5.9-0.9,10.2-0.9,12.9c0,2.9,0.4,5,1.3,6.3c0.9,1.4,2.5,2.1,5,2.1l7.2-1.1
		l-1.8,21.6c-4.6,1.2-9.9,1.8-16.1,1.8c-5.8,0-10.2-1.8-13.2-5.4c-3-3.6-4.5-8.5-4.5-14.7c0-3.6,0.3-8.3,0.9-14.2
		c0.6-5.9,0.9-10.4,0.9-13.5c0-4.2-0.7-7.2-2-9.1c-1.3-1.9-3.4-2.8-6.3-2.8c-3.9,0-7.3,1.8-10.3,5.3c-3,3.5-5.3,7.7-6.9,12.5
		c-1.6,4.8-2.9,10.2-3.9,16.1c-1,5.9-1.7,10.8-1.9,14.5c-0.3,3.8-0.4,6.9-0.4,9.3h-22.3v-33.7c0-1,0-2.4,0-4.3
		c0-7.1-0.1-12.2-0.3-15.2c-0.2-3-0.8-6.1-1.9-9.3c-1.1-3.2-2.9-5.1-5.4-5.8c-2.6-0.7-6.1-0.8-10.7-0.2l-0.2-2.9L424,701.5z"/>
</g>
<g class="st1">
	<path class="st2" d="M420.2,430.5l-0.2,47.4l2.4,0.6c1.9-9.2,4.4-17.3,7.6-24.4c3.2-7.1,7.8-13.2,13.7-18.3
		c6-5.1,12.9-7.7,20.7-7.7c17.2,0,25.9,10.5,25.9,31.4c0,3.1-0.4,8.4-1.2,16c-0.8,7.6-1.2,13.2-1.2,16.8c0,3.7,0.6,6.5,1.7,8.3
		c1.1,1.8,3.3,2.7,6.5,2.7l9.4-1.4L503,530c-6,1.6-12.9,2.4-20.9,2.4c-7.6,0-13.3-2.3-17.2-7c-3.9-4.6-5.9-11-5.9-19.1
		c0-4.6,0.4-10.8,1.2-18.5c0.8-7.7,1.2-13.5,1.2-17.5c0-5.4-0.9-9.4-2.6-11.8c-1.7-2.5-4.4-3.7-8.2-3.7c-5,0-9.5,2.3-13.4,6.9
		c-3.9,4.6-6.9,10-9,16.3c-2.1,6.3-3.7,13.3-5.1,21c-1.3,7.7-2.2,14-2.5,18.9c-0.3,4.9-0.5,9-0.5,12.1h-29.1v-43.8
		c0-1.3,0-3.2,0-5.6c0-9.3-0.1-15.9-0.4-19.8c-0.3-3.9-1.1-7.9-2.5-12c-1.4-4.1-3.8-6.6-7.1-7.6c-3.3-0.9-8-1-13.9-0.2l-0.2-3.8
		L420.2,430.5z"/>
</g>
</svg>
