<svg xmlns="http://www.w3.org/2000/svg" width="59.482" height="47.531" viewBox="0 0 59.482 47.531"><g transform="translate(-1713.498 -985.63)"><path d="M276.623,76.562,262.109,93.978l3.971,19.9h20.161l21.653-17.926-4.753-18.091-.181-1.3,14.829,25.392-31.548,11.927,16.719,2.284.181-33.869-16.9-10.246Z" transform="translate(1453 915.279)" fill="none" stroke="#ec008c" stroke-width="3"/><g transform="translate(175.901 1068.801)"><g transform="translate(1548.14 -69)"><path d="M1567.841-69H1569a.688.688,0,0,0,.135.045,6.537,6.537,0,0,1,3.78,1.738.521.521,0,0,0,.275.141,8.417,8.417,0,0,0,1.236.064,4.268,4.268,0,0,0,1.733-.617.91.91,0,0,1,1.382.828,4.226,4.226,0,0,1-.1.892,7.569,7.569,0,0,1-2.24,3.7.611.611,0,0,0-.171.392,16.5,16.5,0,0,1-1.628,7.251,16.6,16.6,0,0,1-12.723,9.537c-.607.105-1.225.154-1.837.23h-1.974c-.084-.016-.169-.034-.253-.047-.935-.141-1.882-.232-2.8-.433a16.151,16.151,0,0,1-5.166-2.15.916.916,0,0,1-.455-1.112.9.9,0,0,1,1.013-.633c.116.008.232.015.348.025a10.642,10.642,0,0,0,5.206-.876c.089-.038.175-.085.3-.146-.115-.053-.177-.08-.238-.109a6.707,6.707,0,0,1-3.391-3.584,1.111,1.111,0,0,1,.1-1.317c-.09-.087-.16-.153-.229-.22a6.594,6.594,0,0,1-2.037-4.372c-.047-.633.1-1.136.78-1.341-.036-.083-.06-.146-.088-.206a6.436,6.436,0,0,1,.224-6.129.841.841,0,0,1,.985-.489,1.36,1.36,0,0,1,.637.408,15.433,15.433,0,0,0,8.581,5.136c.427.095.862.153,1.292.228.036-.452.036-.853.1-1.241a6.476,6.476,0,0,1,4.711-5.293A12.416,12.416,0,0,1,1567.841-69Zm-14.082,15.526c.1.119.169.219.251.309a4.867,4.867,0,0,0,3.5,1.649.9.9,0,0,1,.907.678.936.936,0,0,1-.42,1.057,12.458,12.458,0,0,1-4.664,2.187l-.45.111c.132.047.175.064.218.078a15.471,15.471,0,0,0,6.561.635,14.726,14.726,0,0,0,9.778-5.073,14.811,14.811,0,0,0,3.713-10.33,1.315,1.315,0,0,1,.55-1.221,5.368,5.368,0,0,0,1.48-1.768c-.645,0-1.282.028-1.916-.008a2.2,2.2,0,0,1-1.528-.6,4.878,4.878,0,0,0-7.722,1.313,4.546,4.546,0,0,0-.327,3.085.919.919,0,0,1-.957,1.149c-.2,0-.405-.028-.607-.046a16.977,16.977,0,0,1-8.853-3.366c-.68-.507-1.307-1.084-1.965-1.635a1.554,1.554,0,0,0-.06.194,4.618,4.618,0,0,0,.25,2.624,4.74,4.74,0,0,0,1.713,2.113.92.92,0,0,1,.433,1.123.931.931,0,0,1-1.027.625,4.456,4.456,0,0,1-.462-.037c-.261-.034-.521-.077-.8-.119a1.089,1.089,0,0,0,.027.116,4.748,4.748,0,0,0,3.519,3.1.916.916,0,0,1,.788.906.916.916,0,0,1-.791.933C1554.542-53.6,1554.178-53.55,1553.759-53.474Z" transform="translate(-1548.14 69)" fill="#fff"/></g></g></g></svg>