<svg xmlns="http://www.w3.org/2000/svg" xmlns:xlink="http://www.w3.org/1999/xlink" width="59.057" height="49.743" viewBox="0 0 59.057 49.743"><defs><clipPath id="a"><rect width="30.143" height="23.183" fill="#fff"/></clipPath></defs><g transform="translate(-1640.498 -984.532)"><path d="M276.623,76.562,262.109,93.978l3.971,19.9,28.941,3.423L267.784,100.62l3.09-24.059,45.433,16.456-7.784,25.155-21.322-5.8H313.71l4.08-10.422h0l-31.548-29.9Z" transform="translate(1380 914.274)" fill="none" stroke="#ec008c" stroke-width="3"/><g transform="translate(1655.595 1000.309)"><g clip-path="url(#a)"><path d="M30.143,13.216c-.04.437-.067.876-.122,1.312-.159,1.252-.246,2.52-.512,3.75a5.448,5.448,0,0,1-4.806,4.3,75.358,75.358,0,0,1-12.265.564A66.144,66.144,0,0,1,5.5,22.586,5.521,5.521,0,0,1,1.154,19.7a7.206,7.206,0,0,1-.728-2.552,37.856,37.856,0,0,1-.418-6.328,34.348,34.348,0,0,1,.607-5.9A5.441,5.441,0,0,1,5.5.562C7.282.382,9.064.139,10.851.071c2.438-.093,4.882-.079,7.323-.047,1.37.017,2.741.13,4.107.258a21.116,21.116,0,0,1,3.308.471,5.121,5.121,0,0,1,3.937,4.222c.3,1.521.381,3.086.561,4.631.012.106.037.21.056.315ZM15.075,21.35a83.293,83.293,0,0,0,9.473-.658,3.6,3.6,0,0,0,3.127-2.884,33.211,33.211,0,0,0,.582-5.781,33.47,33.47,0,0,0-.541-6.521,3.424,3.424,0,0,0-2.732-2.961,21.419,21.419,0,0,0-2.968-.385c-1.484-.121-2.972-.237-4.46-.262-2.087-.035-4.179-.046-6.264.049-1.886.085-3.765.319-5.647.5A3.561,3.561,0,0,0,2.475,5.313a33.206,33.206,0,0,0-.583,5.722,36.241,36.241,0,0,0,.53,6.582A3.568,3.568,0,0,0,5.408,20.64c1.111.174,2.231.319,3.353.393,2.1.138,4.209.215,6.313.317" transform="translate(0 0)" fill="#fff"/><path d="M140.544,84.737c0-1.441,0-2.883,0-4.324a.9.9,0,0,1,.765-.991,1.092,1.092,0,0,1,.668.122q3.68,2.17,7.34,4.374a.945.945,0,0,1-.065,1.694q-2.621,1.566-5.247,3.124c-.648.385-1.307.753-1.94,1.161a.978.978,0,0,1-1.534-.867c.04-1.43.012-2.863.012-4.294m6.459,0-4.549-2.719v5.429L147,84.741" transform="translate(-129.481 -73.168)" fill="#fff"/></g></g></g></svg>