<svg xmlns="http://www.w3.org/2000/svg" xmlns:xlink="http://www.w3.org/1999/xlink" width="58.587" height="45.123" viewBox="0 0 58.587 45.123"><defs><clipPath id="a"><rect width="25" height="25" transform="translate(0.197 0.197)" fill="#fff"/></clipPath></defs><g transform="translate(-1786.498 -985.536)"><path d="M276.623,76.562,262.109,93.978l3.971,19.9h20.161l20.817-7.91-4.1-29.409,14.829,25.392h0l-31.548-29.9Z" transform="translate(1526 915.279)" fill="none" stroke="#ec008c" stroke-width="3"/><g transform="translate(1797.802 998.803)"><g clip-path="url(#a)"><path d="M0,19.039V6.347c.041-.226.079-.453.125-.678A7.012,7.012,0,0,1,7.04,0q5.65-.006,11.3,0a7.517,7.517,0,0,1,1.353.119A6.994,6.994,0,0,1,25.23,5.572a7.582,7.582,0,0,1,.147,1.5c.012,3.75,0,7.5.008,11.251a6.763,6.763,0,0,1-.6,2.882,6.908,6.908,0,0,1-4.808,3.992c-.31.077-.627.128-.94.191H6.346a1.913,1.913,0,0,0-.212-.051,6.618,6.618,0,0,1-1.941-.54,6.924,6.924,0,0,1-4-4.815c-.077-.31-.128-.626-.19-.94m2.276-6.346H2.265q0,2.764,0,5.528a5.21,5.21,0,0,0,.24,1.656,4.793,4.793,0,0,0,4.611,3.249c3.718-.023,7.437,0,11.155-.017a5.575,5.575,0,0,0,1.6-.241,4.732,4.732,0,0,0,3.253-4.6c-.022-3.718,0-7.437-.017-11.155a5.568,5.568,0,0,0-.241-1.6,4.735,4.735,0,0,0-4.6-3.253c-3.718.022-7.436.009-11.154,0a4.636,4.636,0,0,0-2.266.52A4.51,4.51,0,0,0,2.289,6.77c-.061,1.973-.014,3.949-.014,5.924" transform="translate(0 0.001)" fill="#fff"/><path d="M45.784,39.241A6.543,6.543,0,1,1,39.245,32.7a6.556,6.556,0,0,1,6.539,6.536M39.23,43.522a4.274,4.274,0,1,0-4.263-4.29,4.263,4.263,0,0,0,4.263,4.29" transform="translate(-26.548 -26.555)" fill="#fff"/><path d="M96.594,25.841A1.656,1.656,0,0,1,94.927,24.2a1.657,1.657,0,1,1,1.667,1.638" transform="translate(-77.075 -18.297)" fill="#fff"/></g></g></g></svg>