<?xml version="1.0" encoding="utf-8"?>
<!-- Generator: Adobe Illustrator 26.0.2, SVG Export Plug-In . SVG Version: 6.00 Build 0)  -->
<svg version="1.1" id="Layer_1" xmlns="http://www.w3.org/2000/svg" xmlns:xlink="http://www.w3.org/1999/xlink" x="0px" y="0px"
	 viewBox="0 0 587.9 862.7" style="enable-background:new 0 0 587.9 862.7;" xml:space="preserve">
<style type="text/css">
	.st0{fill:none;stroke:#E0007A;stroke-width:10;stroke-miterlimit:10;}
	.st1{enable-background:new    ;}
	.st2{fill:#FFFFFF;}
</style>
<path id="Path_1" class="st0" d="M162.8,52.1l150,53.2l51-26.6l61,90.1l22,124.5l18.2,35l-9.1,67.2l62.2,105.8l49,117.5l-71.1,25.9
	l24.6,137.5l-11.7,36.3h-188c0,0-144,16.9-158.2,19.5c-14.3,2.6-113.6,10.4-113.6,10.4"/>
<path id="Path_2" class="st0" d="M258.9,41.6l177.7,73.9l-18.2,90.8l70,197.1L561,574.1l21.9,38.3v15.4c0,0-24.4,16.9-28.3,13
	s-44.1-41.5-44.1-41.5l1.3,54.4l14.3,59.7l-20.8,58.4l5.1,13.4l-1.2,55.4l-180.7,16.9l-13.9-57.1L34.6,789.9"/>
<g class="st1">
	<path class="st2" d="M45,315V157.4c0-2.5,0-5.9,0-10.4c0-7.4,0-12.8,0-16.1s-0.1-7.8-0.2-13.5c-0.1-5.7-0.4-9.8-0.7-12.4
		c-0.4-2.6-0.9-5.9-1.7-9.8c-0.7-3.9-1.7-6.8-2.8-8.5c-1.1-1.7-2.5-3.8-4.1-6.1c-1.6-2.3-3.5-3.9-5.7-4.6c-2.2-0.7-4.8-1.5-7.6-2.4
		c-2.8-0.9-6-1.3-9.6-1.3c-3.6,0-7.6,0.4-12,1.1l-0.4-7l98.4-13v152.1l4.4,1.5c14.3-54,40-81,77-81c14.1,0,25.9,4.1,35.5,12.4
		c9.6,8.3,14.4,19.4,14.4,33.5c0,16.8-5.5,29.5-16.5,38.3c-11,8.8-23.3,13.1-36.8,13.1l13.3,23.7c3.9,7.2,7.9,12,11.8,14.6
		c3.9,2.6,9.6,3.9,17,3.9l23.3-2.6l-4.4,52.2c-10.1,3-20.4,4.4-30.7,4.4c-13.3,0-24-3-32-8.9c-8-5.9-16.1-15.2-24.2-27.8l-31.4-57
		v-10.7h25.5c8.4,0,15.7-1.8,22-5.5s9.4-9.4,9.4-17c0-5.2-1.8-9.2-5.4-12.2c-3.6-3-8.5-4.4-14.6-4.4c-7.9,0-15,1.9-21.5,5.7
		c-6.4,3.8-11.6,8.5-15.5,13.9c-3.9,5.4-7.3,12.6-10.2,21.6c-2.8,9-4.9,17-6.3,24c-1.4,7-2.4,15.9-3.1,26.5
		c-0.7,10.6-1.1,18.3-1.1,23.1c0,4.8,0,11.4,0,19.8c0,2,0,3.5,0,4.4H45z"/>
</g>
<g class="st1">
	<path class="st2" d="M250.8,271c0-13.4,5.5-24.2,16.4-32.4c10.9-8.2,25.9-12.3,45.1-12.3h30.4c0-19.3-7.2-29-21.5-29
		c-12.1,0-20.8,5.4-26.1,16.1l-37.3-15.2c4.8-9.8,12.6-18.7,23.4-26.8c10.8-8.1,24.6-12.2,41.5-12.2c41.1,0,61.7,22.9,61.7,68.6
		v27.3c0,4.4,0.8,7.6,2.4,9.6c1.6,2,4.7,3,9.3,3l13.5-2L406,306c-8.8,2.3-18.3,3.4-28.4,3.4c-23.3,0-35-11.8-35-35.3v-17.2l-3.4-0.3
		c-1,4.6-2,8.7-3,12.2c-1.1,3.5-2.9,8-5.5,13.5s-5.5,10-8.8,13.6c-3.3,3.6-7.7,6.8-13.3,9.5c-5.6,2.7-11.9,4-18.8,4
		c-12.2,0-21.8-3.6-28.7-10.9C254.2,291.3,250.8,282.1,250.8,271z M342,232.8h-11.8c-25.3,0-37.9,7.6-37.9,22.7
		c0,4.8,1.4,8.5,4.3,11.2c2.9,2.7,6.7,4,11.5,4c9.9,0,17.6-3.8,23-11.5C336.5,251.6,340.1,242.8,342,232.8z"/>
</g>
<g class="st1">
	<path class="st2" d="M115.1,372.7c0-12.8-0.8-21.5-2.4-26.2c-1.6-4.7-5.5-7-11.8-7c-1.7,0-3.6,0.2-5.8,0.5l-0.3-3.2l44.6-5.8v88.3
		c0,2.6,0.5,4.4,1.4,5.6c0.9,1.2,2.8,1.8,5.4,1.8l7.8-1.2l-2,23.5c-6.3,1.3-12.4,2-18.2,2c-6.9,0-11.7-1.9-14.4-5.8
		c-2.7-3.9-4.1-8.5-4.1-13.9v-5l-2-0.5c-5.9,16.8-16.3,25.2-31.1,25.2c-10.5,0-18.9-4.1-25.3-12.3c-6.4-8.2-9.6-18.7-9.6-31.5
		c0-13.4,3.6-24,10.9-31.8c7.3-7.8,17-11.8,29.1-11.8C98.1,363.7,107.3,366.7,115.1,372.7z M93.9,385.9c-6.8,0-12,2-15.7,6
		c-3.7,4-5.5,9.1-5.5,15.4c0,6.5,1.7,11.6,5.2,15.5c3.4,3.9,8.8,5.8,16,5.8c6.1,0,11.2-2.1,15.3-6.2c4.1-4.1,6.1-9.2,6.1-15.2
		s-2-11.1-6.1-15.2C105.1,387.9,100.1,385.9,93.9,385.9z"/>
</g>
<g class="st1">
	<path class="st2" d="M219.7,374.5v94.3c0,4.5,0.8,7.8,2.5,9.8c1.7,2.1,4.8,3.1,9.5,3.1l13.5-2.1l-3.2,41.3c-9,2.3-18.7,3.5-29,3.5
		c-23.8,0-35.7-12-35.7-36v-31.9c0-27-0.6-43.4-1.8-49.2c-2.2-10.5-7.4-16.4-15.8-17.6c-3.5-0.6-7.9-0.5-13.2,0.3l-0.6-5.6
		L219.7,374.5z M219.1,331.1l0.6,6.4l-46,3.2l-0.3-6.7L219.1,331.1z"/>
</g>
<g class="st1">
	<path class="st2" d="M238,567v90.2c0,4.3,0.8,7.4,2.4,9.4c1.6,2,4.6,2.9,9.1,2.9l12.9-2l-3.1,39.5c-8.6,2.2-17.8,3.4-27.7,3.4
		c-22.8,0-34.2-11.5-34.2-34.4v-30.5c0-25.8-0.6-41.4-1.7-47c-2.1-10.1-7.1-15.7-15.1-16.8c-3.4-0.6-7.6-0.5-12.6,0.3l-0.6-5.3
		L238,567z"/>
</g>
<g class="st1">
	<path class="st2" d="M259.2,508v-60.9c0-2,0-5.1,0-9.1c0-16.4-0.3-27.8-1-34.2c-0.6-6.4-3-11.6-7.1-15.7
		c-4.1-4.1-10.6-5.4-19.7-3.9l-0.3-5.3l68.1-9.4v58.7l3.3,1.1c1.7-9,3.6-17.1,5.8-24.1c2.2-7,5.2-13.6,8.9-19.8
		c3.7-6.2,8.4-10.9,14.1-14.3c5.7-3.3,12.3-5,19.7-5c11.8,0,21.4,5.4,28.7,16.2c7.3,10.8,10.2,27.2,8.7,49.2l-40.7,7.5
		c2.2-25.1-2.7-37.7-14.7-37.7c-5.7,0-10.8,3.2-15.1,9.7c-4.3,6.5-7.7,14.1-10,23c-2.3,8.9-4.2,18.8-5.5,29.8
		c-1.4,11-2.3,19.9-2.6,26.7c-0.4,6.8-0.6,12.7-0.6,17.5H259.2z"/>
</g>
<g class="st1">
	<path class="st2" d="M95.7,739c-4.1,0-8-0.2-11.6-0.7l-1.7,12.8c3.6-1.3,7.4-2,11.4-2c6.1,0,10.6,1.8,13.5,5.4
		c2.9,3.6,4.3,7.7,4.3,12.3c0,5.1-1.7,9.3-5.1,12.5c-3.4,3.2-7.9,4.8-13.5,4.8c-7.6,0-14.2-2.8-19.8-8.4l4.4-3.5
		c4.1,4.1,9.2,6.2,15.3,6.2c4.1,0,7.3-1.1,9.5-3.2c2.2-2.1,3.3-4.9,3.3-8.4c0-8.1-4-12.1-12.1-12.1c-1.5,0-3,0.1-4.4,0.4
		s-2.7,0.5-3.7,0.7c-1,0.2-1.9,0.5-2.7,0.9c-0.8,0.3-1.5,0.7-2,1l-0.7,0.2l-4.2-3l2.5-17.8c-18.6-3.8-33.5-13-44.6-27.5
		c-11.1-14.6-16.7-32.6-16.7-54c0-24.7,7.3-44.7,21.9-60c14.6-15.3,33.5-23,56.7-23c9.4,0,18.1,1.2,26.1,3.7
		c8,2.5,14.6,5.5,19.8,9.1c5.2,3.6,9.8,7.9,13.7,12.7c4,4.9,7,9.3,9,13.5c2.1,4.1,3.7,8.2,5.1,12.4L135,633
		c-3.1-8.6-7.5-14.9-13.1-19c-6.9-4.9-15.6-7.4-26.2-7.4c-12.2,0-22.4,4.4-30.5,13.3C57,628.8,53,640.8,53,656
		c0,15,4.1,26.9,12.2,35.8c8.2,8.9,18.3,13.3,30.5,13.3c20.4,0,33.4-8.6,39-25.9c0.2-0.3,0.2-0.6,0.2-0.7l34.3,9.1
		c-1.3,4.1-3,8.2-5.1,12.4c-2.1,4.1-5.1,8.6-9,13.5c-4,4.9-8.5,9.1-13.7,12.7c-5.2,3.6-11.8,6.7-19.8,9.1
		C113.8,737.7,105.1,739,95.7,739z"/>
</g>
<g class="st1">
	<path class="st2" d="M301,576.9h5.7v35.6h42v5.7h-42v66.2c0,7.4,1.5,12.3,4.4,14.8c3,2.5,7.7,3.7,14.3,3.7c3.8,0,7.9-0.5,12.2-1.5
		c4.4-1,7.8-2,10.3-3l3.5-1.2l-5.7,35.8c-8.7,4-19.4,5.9-32.1,5.9c-28.5,0-42.7-14.4-42.7-43.2v-77.6h-14.1v-5.7L301,576.9z"/>
</g>
<g class="st1">
	<path class="st2" d="M323.1,662.9c0-11.5,4.7-20.8,14.1-27.9c9.4-7.1,22.3-10.6,38.8-10.6h26.2c0-16.6-6.2-24.9-18.5-24.9
		c-10.4,0-17.9,4.6-22.5,13.8l-32.1-13.1c4.1-8.4,10.8-16.1,20.1-23.1c9.3-7,21.2-10.5,35.7-10.5c35.4,0,53.1,19.7,53.1,59V649
		c0,3.8,0.7,6.5,2.1,8.3c1.4,1.7,4.1,2.6,8,2.6l11.6-1.7l-3,34.8c-7.6,2-15.7,3-24.5,3c-20.1,0-30.1-10.1-30.1-30.4v-14.8l-3-0.2
		c-0.8,4-1.7,7.5-2.6,10.5c-0.9,3-2.5,6.9-4.7,11.6c-2.2,4.7-4.7,8.6-7.5,11.7c-2.8,3.1-6.6,5.8-11.5,8.2
		c-4.9,2.3-10.3,3.5-16.2,3.5c-10.5,0-18.8-3.1-24.7-9.4C326.1,680.3,323.1,672.4,323.1,662.9z M401.7,630h-10.1
		c-21.7,0-32.6,6.5-32.6,19.5c0,4.1,1.2,7.3,3.7,9.6c2.5,2.3,5.8,3.5,9.9,3.5c8.6,0,15.1-3.3,19.8-9.9
		C396.9,646.2,400,638.6,401.7,630z"/>
</g>
<g class="st1">
	<path class="st2" d="M392.6,809v-52c0-7.2-0.3-13.5-0.8-18.9c-0.5-5.4-1-9-1.6-10.7l-0.7-2.7h21.8v36.1h5.3l26-36.1h23.1
		l-28.7,37.7l12.1,20.9c1.1,1.6,2.1,3,2.9,4c0.8,1,2.1,1.9,3.8,2.8c1.7,0.9,3.7,1.3,6,1.3l8.5-0.9l-1.6,18.6
		c-4.2,1-8.3,1.6-12.1,1.6c-4.7,0-8.6-1.1-11.8-3.2c-3.2-2.2-6.3-5.8-9.2-10.9l-19-32.6h-5.3V809H392.6z"/>
</g>
</svg>
