<?xml version="1.0" encoding="utf-8"?>
<!-- Generator: Adobe Illustrator 26.0.2, SVG Export Plug-In . SVG Version: 6.00 Build 0)  -->
<svg version="1.1" id="Layer_1" xmlns="http://www.w3.org/2000/svg" xmlns:xlink="http://www.w3.org/1999/xlink" x="0px" y="0px"
	 viewBox="0 0 604.9 862.7" style="enable-background:new 0 0 604.9 862.7;" xml:space="preserve">
<style type="text/css">
	.st0{fill:none;stroke:#E0007A;stroke-width:10;stroke-miterlimit:10;}
	.st1{enable-background:new    ;}
	.st2{fill:#FFFFFF;}
</style>
<path id="Path_1" class="st0" d="M179.8,52.1l150,53.2l51-26.6l61,90.1l22,124.5l18.2,35l-9.1,67.2l62.2,105.8l49,117.5l-71.1,25.9
	l24.6,137.5l-11.7,36.3h-188c0,0-144,16.9-158.2,19.5c-14.3,2.6-113.6,10.4-113.6,10.4"/>
<path id="Path_2" class="st0" d="M275.9,41.6l177.7,73.9l-18.2,90.8l70,197.1L578,574.1l21.9,38.3v15.4c0,0-24.4,16.9-28.3,13
	s-44.1-41.5-44.1-41.5l1.3,54.4l14.3,59.7l-20.8,58.4l5.1,13.4l-1.2,55.4l-180.7,16.9l-13.9-57.1L51.6,789.9"/>
<g class="st1">
	<path class="st2" d="M66.4,315V167c0-20.5-0.7-38.4-2.2-53.8c-1.5-15.4-3-25.6-4.4-30.5l-1.8-7.8h62.2v102.9h15.2l74-102.9h65.9
		l-81.8,107.3l34.4,59.6c3.2,4.7,6,8.5,8.3,11.3c2.3,2.8,6,5.5,10.9,8c4.9,2.5,10.6,3.7,17,3.7l24-2.6l-4.4,52.9
		c-12.1,3-23.6,4.4-34.4,4.4c-13.3,0-24.5-3.1-33.7-9.2c-9.1-6.2-17.9-16.5-26.3-31.1l-54-92.9h-15.2V315H66.4z"/>
</g>
<g class="st1">
	<path class="st2" d="M259.8,227c0-13.4,5.5-24.2,16.4-32.4c10.9-8.2,25.9-12.3,45.1-12.3h30.4c0-19.3-7.2-29-21.5-29
		c-12.1,0-20.8,5.4-26.1,16.1l-37.3-15.2c4.8-9.8,12.6-18.7,23.4-26.8c10.8-8.1,24.6-12.2,41.5-12.2c41.1,0,61.7,22.9,61.7,68.6
		v27.3c0,4.4,0.8,7.6,2.4,9.6c1.6,2,4.7,3,9.3,3l13.5-2L415,262c-8.8,2.3-18.3,3.4-28.4,3.4c-23.3,0-35-11.8-35-35.3v-17.2l-3.4-0.3
		c-1,4.6-2,8.7-3,12.2c-1.1,3.5-2.9,8-5.5,13.5s-5.5,10-8.8,13.6c-3.3,3.6-7.7,6.8-13.3,9.5c-5.6,2.7-11.9,4-18.8,4
		c-12.2,0-21.8-3.6-28.7-10.9C263.2,247.3,259.8,238.1,259.8,227z M351,188.8h-11.8c-25.3,0-37.9,7.6-37.9,22.7
		c0,4.8,1.4,8.5,4.3,11.2c2.9,2.7,6.7,4,11.5,4c9.9,0,17.6-3.8,23-11.5C345.5,207.6,349.1,198.8,351,188.8z"/>
</g>
<g class="st1">
	<path class="st2" d="M119,434v-66.8c0-9.2-0.3-17.3-1-24.3c-0.7-7-1.3-11.5-2-13.8l-0.8-3.5h51.3c13.5,0,24.5,5,33.1,15
		c8.6,10,12.9,23,12.9,39.1c0,16.1-4.3,29.2-12.9,39.2c-8.6,10-19.6,15-33.1,15H119z M143.2,348.3v63h21.2c7.6,0,13.4-3.1,17.5-9.4
		c4.1-6.3,6.2-13.7,6.2-22.1c0-9.2-2.1-16.8-6.3-22.6c-4.2-5.8-10.6-8.8-19.2-8.8H143.2z"/>
</g>
<g class="st1">
	<path class="st2" d="M299.7,378.5v94.3c0,4.5,0.8,7.8,2.5,9.8c1.7,2.1,4.8,3.1,9.5,3.1l13.5-2.1l-3.2,41.3c-9,2.3-18.7,3.5-29,3.5
		c-23.8,0-35.7-12-35.7-36v-31.9c0-27-0.6-43.4-1.8-49.2c-2.2-10.5-7.4-16.4-15.8-17.6c-3.5-0.6-7.9-0.5-13.2,0.3l-0.6-5.6
		L299.7,378.5z M299.1,335.1l0.6,6.4l-46,3.2l-0.3-6.7L299.1,335.1z"/>
</g>
<g class="st1">
	<path class="st2" d="M339.6,584.3h-57.1v28.5h49.8v4h-49.8v32.7h60.5V673h-85.6v-69.2c0-9.6-0.3-17.9-1-25.1
		c-0.7-7.1-1.4-11.9-2.1-14.4l-0.9-3.6h86.2V584.3z"/>
</g>
<g class="st1">
	<path class="st2" d="M333.3,432v-40c0-1.3,0-3.3,0-6c0-10.8-0.2-18.3-0.6-22.5c-0.4-4.2-2-7.6-4.6-10.3c-2.7-2.7-7-3.5-12.9-2.5
		l-0.2-3.5l44.8-6.2v38.6l2.2,0.7c1.1-5.9,2.4-11.2,3.8-15.8c1.5-4.6,3.4-8.9,5.8-13c2.4-4.1,5.5-7.2,9.3-9.4
		c3.8-2.2,8.1-3.3,12.9-3.3c7.8,0,14,3.5,18.8,10.6c4.8,7.1,6.7,17.9,5.7,32.3l-26.8,4.9c1.5-16.5-1.8-24.8-9.6-24.8
		c-3.8,0-7.1,2.1-9.9,6.4c-2.9,4.2-5,9.3-6.6,15.1c-1.5,5.8-2.7,12.3-3.6,19.6c-0.9,7.2-1.5,13.1-1.7,17.6
		c-0.2,4.5-0.4,8.3-0.4,11.5H333.3z"/>
</g>
<g class="st1">
	<path class="st2" d="M10.9,615v-67c0-9.4-0.3-17.6-0.9-24.6c-0.6-7-1.3-11.6-1.9-13.9l-1-3.5h28.4l32.8,102.5L101,506h24.5v109H101
		v-96.4L70.2,615h-4l-30.7-96.4V615H10.9z"/>
	<path class="st2" d="M178.6,504c11.3,0,20,2.9,26.1,8.7c6.1,5.8,9.2,13.1,9.2,22.1c0,4.4-1.1,8.5-3.4,12.3c-2.2,3.9-5,7.2-8.1,10.1
		s-6.4,5.7-9.6,8.5c-3.2,2.8-5.9,5.9-8.1,9.4c-2.2,3.5-3.4,7.1-3.4,10.8h-16.8c0-4.1,0.8-8.1,2.4-11.9c1.6-3.8,3.6-7.2,5.9-10.1
		c2.3-2.9,4.6-5.7,6.8-8.4c2.2-2.7,4.2-5.5,5.8-8.4c1.6-2.9,2.4-5.8,2.4-8.7c0-7.8-3.6-11.8-10.9-11.8c-1.9,0-3.7,0.3-5.3,0.9
		c-1.6,0.6-3,1.4-4.1,2.4c-1.1,1-2.1,2.1-2.9,3.2c-0.8,1.1-1.4,2.4-1.9,3.7s-0.9,2.5-1.2,3.4c-0.3,1-0.5,1.9-0.7,2.8
		c-0.2,0.9-0.3,1.4-0.3,1.5l-23.4-7.4c1-3.6,2.4-7,4-10.2c1.7-3.2,4.1-6.7,7.1-10.5c3.1-3.8,7.2-6.7,12.3-9
		C165.9,505.1,171.9,504,178.6,504z M164.6,595.9c2.4-2.3,5.4-3.4,9-3.4c3.6,0,6.6,1.1,8.9,3.4c2.4,2.3,3.5,5.2,3.5,8.7
		c0,3.6-1.2,6.5-3.5,8.8c-2.4,2.3-5.3,3.4-8.9,3.4c-3.6,0-6.6-1.1-9-3.4c-2.4-2.3-3.6-5.2-3.6-8.8
		C160.9,601.1,162.1,598.2,164.6,595.9z"/>
</g>
<g class="st1">
	<path class="st2" d="M370.3,680v-54.3c0-1.8,0-4.5,0-8.2c0-14.7-0.3-24.8-0.9-30.5c-0.6-5.7-2.7-10.3-6.3-14
		c-3.6-3.6-9.5-4.8-17.5-3.5l-0.2-4.7l60.8-8.4v52.4l3,1c1.5-8.1,3.2-15.2,5.2-21.5c2-6.3,4.6-12.1,7.9-17.7
		c3.3-5.5,7.5-9.8,12.6-12.7c5.1-3,10.9-4.4,17.5-4.4c10.5,0,19.1,4.8,25.6,14.4c6.5,9.6,9.1,24.2,7.8,43.8l-36.3,6.7
		c2-22.4-2.4-33.6-13.1-33.6c-5.1,0-9.6,2.9-13.5,8.6c-3.9,5.8-6.8,12.6-8.9,20.5c-2.1,7.9-3.7,16.8-4.9,26.6
		c-1.2,9.8-2,17.7-2.3,23.8c-0.3,6.1-0.5,11.3-0.5,15.6H370.3z"/>
</g>
<g class="st1">
	<path class="st2" d="M278.5,723.1c-4.8,0-8.4,0.8-10.6,2.5c-2.2,1.6-3.3,3.5-3.3,5.7c0,4.6,5.3,8,15.9,10.1
		c12.6,2.3,21,4.4,25.2,6.4c7.9,3.7,11.8,9.7,11.8,17.9c0,7.3-3.4,13-10.1,17.2c-6.8,4.1-15.6,6.2-26.5,6.2
		c-10.9,0-19.6-1.9-26.1-5.8c-6.5-3.9-9.7-9.4-9.7-16.6c0-6,2.1-10.9,6.4-14.9c4.3-3.9,9.4-6.6,15.2-7.9v-1.9
		c-5.7-1-10.6-3.1-14.4-6.2c-3.9-3.1-5.8-7.2-5.8-12.3c0-6.6,3.1-12.1,9.3-16.4c6.2-4.3,13.7-6.4,22.6-6.4c10.9,0,19.6,2.3,26.1,6.9
		c6.5,4.6,10.8,9.8,13.1,15.5l-22.3,9.8C292.4,726.4,286.9,723.1,278.5,723.1z M293.1,755.7c0-3.7-1.7-6.4-5.2-7.9
		c-3.4-1.6-7.3-2.4-11.6-2.4c-4.5,0-8.3,0.9-11.3,2.6c-3,1.7-4.6,4.3-4.6,7.7c0,3.2,1.4,5.7,4.1,7.6c2.8,1.9,6.7,2.9,11.9,2.9
		c4.6,0,8.5-0.8,11.7-2.5C291.5,762,293.1,759.3,293.1,755.7z"/>
</g>
<g class="st1">
	<path class="st2" d="M382.5,710.1l-0.3,1.6c8.2,3.1,14.7,8.1,19.5,14.8c4.8,6.8,7.1,14.9,7.1,24.3c0,12.7-4.1,23.1-12.2,31.4
		c-8.1,8.3-18.5,12.4-31.1,12.4c-12.6,0-22.9-4.1-31.1-12.4c-8.1-8.3-12.2-18.7-12.2-31.4c0-12.7,4.1-23.1,12.2-31.3
		c8.1-8.2,18.5-12.3,31.1-12.3h36.1v3H382.5z M365.6,724.8c-7.2,0-13.1,2.5-17.6,7.4c-4.5,4.9-6.8,11.1-6.8,18.6
		c0,7.5,2.3,13.8,6.8,18.7c4.6,4.9,10.4,7.4,17.6,7.4c7.1,0,12.9-2.5,17.5-7.4c4.6-4.9,6.8-11.2,6.8-18.7c0-7.5-2.3-13.7-6.8-18.6
		C378.5,727.2,372.7,724.8,365.6,724.8z"/>
</g>
<g class="st1">
	<path class="st2" d="M449.5,698.9c0-1.7,0.3-3.6,1-5.7c0.7-2.1,1.6-4.2,2.9-6.5c1.3-2.3,3.3-4.2,6-5.7c2.7-1.5,5.7-2.3,9.2-2.3
		c4.9,0,8.9,1.2,11.9,3.7c3,2.4,5,5.6,6,9.4c0.9,3.8,1.2,7.9,0.8,12.1c-0.4,4.3-1.3,8.5-2.9,12.6l-23,61.1c-1.3,3.6-2.3,6.1-3,7.7
		c-0.7,1.5-1.9,3.4-3.5,5.8c-1.6,2.3-3.7,4-6.1,5c-2.4,1-5.4,1.5-8.7,1.5c-2,0-4-0.2-6.1-0.5c-2.1-0.3-3.7-0.6-4.8-0.8l-1.6-0.5
		l-2-23.8c4.9,1.3,10.5,2,16.8,2c11,0,17.7-3.3,20.2-9.8l0.8-2.1h-17.1l-14.8-39c-3.5-9-6.9-17.1-10.2-24.1
		c-3.3-7.1-5.7-11.9-7.3-14.5l-2.4-3.9h29l7.2,18.9L449.5,698.9z M480.8,715.1c1.3-3.5,2.2-7,2.6-10.7c0.4-3.6,0.4-7.1-0.2-10.5
		c-0.6-3.4-2.1-6.1-4.6-8.3c-2.5-2.2-5.8-3.3-9.9-3.3c-4.3,0-7.8,1.3-10.4,3.8c-2.6,2.6-4.3,5.8-5,9.6c-0.7,3.9-0.9,7.8-0.7,11.7
		c0.3,4,1,7.6,2.2,10.8l12.2,33.6L480.8,715.1z"/>
</g>
</svg>
