<?xml version="1.0" encoding="utf-8"?>
<!-- Generator: Adobe Illustrator 26.0.2, SVG Export Plug-In . SVG Version: 6.00 Build 0)  -->
<svg version="1.1" id="Layer_1" xmlns="http://www.w3.org/2000/svg" xmlns:xlink="http://www.w3.org/1999/xlink" x="0px" y="0px"
	 viewBox="0 0 582.9 832.7" style="enable-background:new 0 0 582.9 832.7;" xml:space="preserve">
<style type="text/css">
	.st0{fill:none;stroke:#E0007A;stroke-width:10;stroke-miterlimit:10;}
	.st1{enable-background:new    ;}
	.st2{fill:#FFFFFF;}
</style>
<path id="Path_1" class="st0" d="M157.8,22.1l150,53.2l51-26.6l61,90.1l22,124.5l18.2,35l-9.1,67.2l62.2,105.8l49,117.5l-71.1,25.9
	l24.6,137.5l-11.7,36.3h-188c0,0-144,16.9-158.2,19.5c-14.3,2.6-113.6,10.4-113.6,10.4"/>
<path id="Path_2" class="st0" d="M253.9,11.6l177.7,73.9l-18.2,90.8l70,197.1L556,544.1l21.9,38.3v15.4c0,0-24.4,16.9-28.3,13
	s-44.1-41.5-44.1-41.5l1.3,54.4l14.3,59.7l-20.8,58.4l5.1,13.4l-1.2,55.4l-180.7,16.9l-13.9-57.1L29.6,759.9"/>
<g class="st1">
	<path class="st2" d="M35.7,247V123.5c0-1.9,0-4.6,0-8.1c0-5.8,0-10,0-12.6c0-2.6,0-6.1-0.1-10.6c-0.1-4.4-0.3-7.7-0.6-9.7
		s-0.7-4.6-1.3-7.7c-0.6-3.1-1.3-5.3-2.2-6.7c-0.9-1.4-1.9-2.9-3.2-4.8c-1.3-1.8-2.8-3-4.5-3.6c-1.7-0.6-3.7-1.2-5.9-1.9
		c-2.2-0.7-4.7-1-7.5-1c-2.8,0-5.9,0.3-9.4,0.9l-0.3-5.5L77.7,42v119.2l3.5,1.2c11.2-42.3,31.3-63.5,60.3-63.5
		c11,0,20.3,3.2,27.8,9.7c7.5,6.5,11.3,15.2,11.3,26.2c0,13.2-4.3,23.2-12.9,30c-8.6,6.9-18.2,10.3-28.9,10.3l10.4,18.6
		c3.1,5.6,6.2,9.4,9.3,11.5c3.1,2,7.5,3,13.3,3l18.3-2l-3.5,40.9c-7.9,2.3-16,3.5-24.1,3.5c-10.4,0-18.8-2.3-25.1-7
		c-6.3-4.6-12.6-11.9-19-21.8L94,177.1v-8.4h20c6.6,0,12.3-1.5,17.3-4.4c4.9-2.9,7.4-7.3,7.4-13.3c0-4.1-1.4-7.2-4.2-9.6
		c-2.8-2.3-6.6-3.5-11.5-3.5c-6.2,0-11.8,1.5-16.8,4.5c-5,3-9.1,6.6-12.2,10.9c-3.1,4.3-5.8,9.9-8,17c-2.2,7.1-3.9,13.3-4.9,18.8
		c-1.1,5.5-1.9,12.4-2.5,20.7c-0.6,8.3-0.9,14.4-0.9,18.1c0,3.8,0,8.9,0,15.5c0,1.5,0,2.7,0,3.5H35.7z"/>
</g>
<g class="st1">
	<path class="st2" d="M244.8,257.3c-13.1,0-23.5-4.4-31.3-13.1c-7.8-8.7-11.7-21.4-11.7-38c0-11,1.3-21.4,4-31
		c2.7-9.7,6.9-21.3,12.6-34.9c6.1-14.4,10.8-27,14.1-38c3.3-10.9,5.1-18.3,5.5-21.9l0.6-5.5h54.6L360.7,254h-43.3l-21.8-58.5l-3,0.8
		c-1.5,7-2.6,12.1-3.5,15.5c-0.8,3.3-2.5,8.4-5.1,15.3c-2.6,6.9-5.3,12.1-8.3,15.7c-2.9,3.6-7.1,6.9-12.6,9.9
		C257.7,255.8,251.6,257.3,244.8,257.3z M268.2,111.6c-0.7,1.8-2.4,6.2-5.1,13.1c-2.7,6.9-4.5,11.6-5.4,14.1
		c-0.9,2.5-2.4,6.6-4.6,12.4c-2.1,5.8-3.6,10.3-4.4,13.4c-0.8,3.1-1.8,7-3,11.6c-1.2,4.6-2,8.7-2.5,12.3c-0.5,3.6-0.7,7.1-0.7,10.6
		c0,8.3,1.8,14.5,5.4,18.8c3.6,4.2,8.4,6.3,14.5,6.3c10.1,0,17.4-5.8,21.9-17.5c4.5-11.7,4.6-25.2,0.4-40.4L268.2,111.6z"/>
</g>
<g class="st1">
	<path class="st2" d="M87.8,389v-48.8c0-1.6,0-4.1,0-7.3c0-13.2-0.3-22.3-0.8-27.4c-0.5-5.1-2.4-9.3-5.7-12.5
		c-3.3-3.3-8.5-4.3-15.8-3.1l-0.2-4.2L120,278v47.1l2.7,0.9c1.3-7.2,2.9-13.7,4.7-19.3c1.8-5.6,4.1-10.9,7.1-15.9
		c3-5,6.7-8.8,11.3-11.4c4.6-2.7,9.8-4,15.8-4c9.5,0,17.1,4.3,23,13c5.8,8.7,8.2,21.8,7,39.4l-32.6,6c1.8-20.1-2.1-30.2-11.8-30.2
		c-4.6,0-8.6,2.6-12.1,7.8c-3.5,5.2-6.1,11.3-8,18.4c-1.9,7.1-3.3,15.1-4.4,23.9c-1.1,8.8-1.8,15.9-2.1,21.4
		c-0.3,5.5-0.4,10.1-0.4,14H87.8z"/>
</g>
<g class="st1">
	<path class="st2" d="M190.5,357.7c0-7.4,3-13.3,9-17.9c6-4.5,14.3-6.8,24.8-6.8H241c0-10.6-4-16-11.9-16c-6.6,0-11.4,3-14.4,8.8
		l-20.5-8.4c2.6-5.4,6.9-10.3,12.9-14.8c5.9-4.5,13.6-6.7,22.8-6.7c22.6,0,34,12.6,34,37.8v15c0,2.4,0.4,4.2,1.3,5.3
		c0.9,1.1,2.6,1.7,5.1,1.7l7.4-1.1L276,377c-4.8,1.3-10.1,1.9-15.6,1.9c-12.9,0-19.3-6.5-19.3-19.4V350l-1.9-0.2
		c-0.5,2.5-1.1,4.8-1.7,6.7c-0.6,2-1.6,4.4-3,7.4s-3,5.5-4.8,7.5c-1.8,2-4.2,3.7-7.3,5.2c-3.1,1.5-6.6,2.2-10.3,2.2
		c-6.7,0-12-2-15.8-6C192.4,368.9,190.5,363.8,190.5,357.7z M240.7,336.7h-6.5c-13.9,0-20.9,4.2-20.9,12.5c0,2.6,0.8,4.7,2.4,6.2
		c1.6,1.5,3.7,2.2,6.3,2.2c5.5,0,9.7-2.1,12.6-6.3C237.7,347,239.7,342.2,240.7,336.7z"/>
</g>
<g class="st1">
	<path class="st2" d="M226.9,398.4h6.2V437h45.6v6.2h-45.6V515c0,8,1.6,13.4,4.8,16.1c3.2,2.7,8.4,4,15.5,4c4.1,0,8.5-0.5,13.3-1.6
		c4.7-1.1,8.4-2.1,11.1-3.2l3.8-1.3l-6.2,38.9c-9.5,4.3-21.1,6.4-34.8,6.4c-30.9,0-46.4-15.6-46.4-46.9v-84.2h-15.3V437L226.9,398.4
		z"/>
</g>
<g class="st1">
	<path class="st2" d="M282.5,476.7c-0.8-23.1,6-41.9,20.4-56.5c14.4-14.5,33.2-22.2,56.6-23c20.4-0.7,36.9,2.6,49.5,10
		c12.6,7.4,19.1,17.1,19.5,29c0.7,18.8-14.3,30-45,33.6l0.4,3.2l43.5-1.5l0.2,6.8l-100.8,3.5c2.5,20.5,14.3,30.4,35.5,29.6
		c14.5-0.5,24.7-7.3,30.8-20.5l38.8,15.1c-4.1,10.9-11.6,21-22.3,30.1c-10.8,9.1-26,14-45.8,14.7c-23.7,0.6-43-5.8-57.7-19.2
		C291.1,518.3,283.3,500,282.5,476.7z M386.1,451.6c-0.2-4.7-2.5-8.5-6.9-11.5c-4.4-3-10.5-4.3-18.4-4.1c-10.8,0.4-19.4,4-25.8,10.9
		c-6.4,6.9-9.4,16.3-9,28.3l19.1-0.7c13.3-0.5,23.5-2.9,30.6-7.2C382.8,462.9,386.3,457.6,386.1,451.6z"/>
</g>
<g class="st1">
	<path class="st2" d="M80.2,732.2H51.3v-85c0-18.3-0.4-29.5-1.2-33.4c-1.5-7.2-5-11.1-10.7-11.9c-2.4-0.4-5.4-0.3-9,0.2l-0.2-3.8
		l49.9-6.8v27.1l2.4,0.6c2.4-7.8,6.8-14.8,13.1-20.8c6.4-6,14.5-9.1,24.3-9.1c12.9,0,23,4.7,30.2,14.1c7.3,9.4,10.9,22,10.9,37.8
		c0,15.9-4.4,28.6-13.3,38c-8.9,9.4-20.6,14.1-35,14.1c-10.6,0-21.5-3.2-32.6-9.6V732.2z M105.7,666.7c8.1,0,14.3-2.4,18.7-7.2
		c4.4-4.8,6.6-10.9,6.6-18.3c0-7.7-2.1-13.9-6.2-18.5c-4.1-4.6-10.5-7-19.1-7c-7.3,0-13.4,2.5-18.2,7.4c-4.8,4.9-7.3,10.9-7.3,18.1
		s2.4,13.2,7.3,18.1C92.3,664.3,98.4,666.7,105.7,666.7z"/>
</g>
<g class="st1">
	<path class="st2" d="M177.5,649.8c0-14.2,4.6-25.7,13.8-34.3c9.2-8.6,20.9-12.9,35.3-12.9c12.5,0,22.6,2.4,30.2,7.2
		c7.6,4.8,11.4,10.9,11.4,18.3c0,11.6-9.5,18.2-28.4,19.7l0.2,2h26.8v4.2h-62.1c1.1,12.7,8.1,19,21.2,19c8.9,0,15.4-4,19.4-11.9
		l23.5,10.1c-2.8,6.6-7.6,12.6-14.4,18c-6.8,5.4-16.3,8.1-28.5,8.1c-14.6-0.1-26.3-4.5-35.1-13C181.9,675.6,177.5,664.1,177.5,649.8
		z M241.8,636.5c0-2.9-1.3-5.3-4-7.2c-2.7-1.9-6.4-2.9-11.2-2.9c-6.6,0-12,2.1-16.1,6.2c-4.1,4.1-6.2,9.8-6.2,17.2h11.8
		c8.2,0,14.5-1.3,19-3.8C239.5,643.4,241.8,640.3,241.8,636.5z"/>
</g>
<g class="st1">
	<path class="st2" d="M324.2,576.4V707c0,3.8,0.7,6.5,2.2,8.3c1.5,1.7,4.1,2.6,7.9,2.6l11.6-1.7l-3,34.8c-7.4,2-15.5,3-24.2,3
		c-20.3,0-30.4-10.1-30.4-30.4v-77.8c0-1.6,0-4,0-6.9c0-4.9,0-8.5,0-10.7c0-2.2,0-5.2-0.1-9c-0.1-3.8-0.2-6.5-0.5-8.3
		c-0.2-1.7-0.6-3.9-1.1-6.5c-0.5-2.6-1.1-4.5-1.9-5.7c-0.7-1.1-1.6-2.5-2.7-4.1c-1.1-1.6-2.3-2.6-3.8-3.1c-1.5-0.5-3.2-1-5.1-1.6
		c-1.9-0.6-4-0.9-6.4-0.9c-2.4,0-5.1,0.2-8,0.7l-0.2-4.7L324.2,576.4z"/>
</g>
<g class="st1">
	<path class="st2" d="M353.2,681.8c0-10.1,3.3-18.3,9.8-24.4c6.5-6.1,14.9-9.2,25.2-9.2c8.9,0,16.1,1.7,21.5,5.2
		c5.4,3.4,8.1,7.8,8.1,13c0,8.3-6.8,12.9-20.3,14.1l0.1,1.4h19.1v3h-44.2c0.8,9,5.8,13.5,15.1,13.5c6.4,0,11-2.8,13.8-8.5l16.8,7.2
		c-2,4.7-5.4,9-10.3,12.8c-4.9,3.8-11.6,5.7-20.3,5.7c-10.4-0.1-18.8-3.2-25-9.3C356.4,700.2,353.2,692,353.2,681.8z M399,672.3
		c0-2.1-0.9-3.8-2.8-5.2c-1.9-1.4-4.6-2.1-8-2.1c-4.7,0-8.6,1.5-11.5,4.4c-2.9,2.9-4.4,7-4.4,12.3h8.4c5.8,0,10.4-0.9,13.5-2.7
		C397.4,677.2,399,675,399,672.3z"/>
</g>
<g class="st1">
	<path class="st2" d="M431,632v-28.4c0-0.9,0-2.4,0-4.3c0-7.7-0.2-13-0.5-15.9c-0.3-3-1.4-5.4-3.3-7.3c-1.9-1.9-4.9-2.5-9.2-1.8
		l-0.1-2.5l31.7-4.4v27.3l1.5,0.5c0.8-4.2,1.7-8,2.7-11.2c1-3.3,2.4-6.3,4.1-9.2c1.7-2.9,3.9-5.1,6.6-6.6c2.7-1.5,5.7-2.3,9.2-2.3
		c5.5,0,10,2.5,13.4,7.5c3.4,5,4.8,12.7,4.1,22.9l-19,3.5c1-11.7-1.2-17.5-6.8-17.5c-2.7,0-5,1.5-7,4.5c-2,3-3.6,6.6-4.6,10.7
		c-1.1,4.1-1.9,8.8-2.6,13.9c-0.6,5.1-1.1,9.3-1.2,12.4c-0.2,3.2-0.3,5.9-0.3,8.1H431z"/>
</g>
</svg>
