<?xml version="1.0" encoding="utf-8"?>
<!-- Generator: Adobe Illustrator 26.0.2, SVG Export Plug-In . SVG Version: 6.00 Build 0)  -->
<svg version="1.1" id="Layer_1" xmlns="http://www.w3.org/2000/svg" xmlns:xlink="http://www.w3.org/1999/xlink" x="0px" y="0px"
	 viewBox="0 0 562.9 862.7" style="enable-background:new 0 0 562.9 862.7;" xml:space="preserve">
<style type="text/css">
	.st0{fill:none;stroke:#E0007A;stroke-width:10;stroke-miterlimit:10;}
	.st1{enable-background:new    ;}
	.st2{fill:#FFFFFF;}
</style>
<path id="Path_1" class="st0" d="M137.8,52.1l150,53.2l51-26.6l61,90.1l22,124.5l18.2,35l-9.1,67.2l62.2,105.8l49,117.5l-71.1,25.9
	l24.6,137.5l-11.7,36.3h-188c0,0-144,16.9-158.2,19.5S24.3,848.4,24.3,848.4"/>
<path id="Path_2" class="st0" d="M233.9,41.6l177.7,73.9l-18.2,90.8l70,197.1L536,574.1l21.9,38.3v15.4c0,0-24.4,16.9-28.3,13
	s-44.1-41.5-44.1-41.5l1.3,54.4l14.3,59.7l-20.8,58.4l5.1,13.4l-1.2,55.4l-180.7,16.9l-13.9-57.1L9.6,789.9"/>
<g class="st1">
	<path class="st2" d="M24.4,315V167.4c0-20.7-0.7-38.8-2.2-54.2c-1.5-15.4-3-25.6-4.4-30.5l-1.8-7.8h62.2v189.8h110.6V315H24.4z"/>
</g>
<g class="st1">
	<path class="st2" d="M253.4,189.5v92.4c0,4.4,0.8,7.6,2.4,9.6c1.6,2,4.7,3,9.3,3l13.2-2l-3.2,40.5c-8.8,2.3-18.3,3.4-28.4,3.4
		c-23.3,0-35-11.8-35-35.3v-31.3c0-26.4-0.6-42.5-1.7-48.2c-2.1-10.3-7.3-16.1-15.5-17.2c-3.4-0.6-7.7-0.5-12.9,0.3l-0.6-5.5
		L253.4,189.5z M252.8,147l0.6,6.3l-45.1,3.2l-0.3-6.6L252.8,147z"/>
</g>
<g class="st1">
	<path class="st2" d="M235,401.2V423l4.4,1.1c2.7-13.3,5.7-24.6,8.9-33.9c3.2-9.2,7.3-18.2,12.4-26.8c5.1-8.6,11.4-15.1,19.1-19.4
		c7.6-4.3,16.6-6.5,27-6.5c31.1,0,46.6,19.5,46.6,58.5c0,5.7-0.7,15.6-2.2,29.8c-1.5,14.2-2.2,24.6-2.2,31.3c0,6.9,1,12,3.1,15.4
		c2.1,3.3,6.1,5,12,5l17.4-2.6L377,527c-11.1,3-24,4.4-38.9,4.4c-14.1,0-24.7-4.3-32-13c-7.3-8.6-10.9-20.5-10.9-35.5
		c0-9.6,0.7-22,2-37.2c1.4-15.2,2-26,2-32.4c0-9.6-1.3-16.4-3.9-20.4c-2.6-3.9-6.6-5.9-12-5.9c-10.1,0-18.7,6.1-25.9,18.3
		c-7.2,12.2-12.3,27.1-15.5,44.8c-3.2,17.6-5.4,32.9-6.7,45.7c-1.2,12.8-1.8,23.2-1.8,31.1h-53.7V415.3c0-18.7-6.3-28.1-18.9-28.1
		c-7.9,0-14.9,4.3-21.1,12.8c-6.2,8.5-10.8,18.6-13.9,30.3c-3.1,11.7-5.7,24.7-7.8,39c-2.1,14.3-3.4,26-3.9,35.1
		c-0.5,9.1-0.7,16.7-0.7,22.6H59.9v-81.4c0-34-0.7-54.8-2.2-62.2c-2.7-13.3-9.4-20.7-20-22.2c-4.4-0.7-10-0.6-16.7,0.4l-0.7-7
		l93.2-12.6v84.4l4.1,1.1c11.3-59.7,33.4-89.5,66.2-89.5c15.3,0,27.6,5.1,37,15.2C230.3,363.2,235,379.2,235,401.2z"/>
</g>
<g class="st1">
	<path class="st2" d="M121.8,704v-72.8c0-10.1-0.3-18.9-1-26.5c-0.7-7.6-1.4-12.6-2.1-15l-1.1-3.8h66.6c11.6,0,20.6,2.2,26.8,6.6
		c6.2,4.4,9.3,10.7,9.3,18.8c0,8-2.7,14.4-8,19.1c-5.3,4.7-12,7.5-20,8.4v2c8.4,0.9,15.8,4.1,22.4,9.7c6.6,5.6,9.8,13.1,9.8,22.5
		c0,9-3.3,16.4-10,22.2c-6.7,5.8-15.8,8.7-27.5,8.7H121.8z M148.2,610.6v28h25.3c6.4,0,11.6-1.2,15.7-3.6c4-2.4,6-5.9,6-10.6
		c0-4.4-1.6-7.8-4.7-10.2c-3.2-2.4-7.8-3.6-13.8-3.6H148.2z M148.2,642.8v36.2h30.2c6.2,0,11-1.8,14.5-5.5c3.5-3.6,5.2-8.1,5.2-13.3
		c0-5.6-2.1-9.9-6.3-12.9c-4.2-3-10.3-4.6-18.3-4.6H148.2z"/>
</g>
<g class="st1">
	<path class="st2" d="M383.7,564.2l-0.7,4c21,8,37.6,20.6,49.8,37.8c12.2,17.3,18.3,38,18.3,62.1c0,32.3-10.4,59-31.2,80.2
		c-20.8,21.1-47.3,31.7-79.3,31.7c-32.1,0-58.5-10.6-79.3-31.7c-20.8-21.1-31.2-47.9-31.2-80.2c0-32.3,10.4-59,31.2-80
		c20.8-21,47.3-31.5,79.3-31.5h92.3v7.6H383.7z M340.5,601.7c-18.4,0-33.4,6.3-45,18.9c-11.6,12.6-17.4,28.4-17.4,47.5
		c0,19.3,5.8,35.2,17.4,47.8c11.6,12.6,26.6,18.9,45,18.9c18.1,0,33-6.3,44.7-18.9s17.4-28.6,17.4-47.8c0-19-5.8-34.9-17.4-47.5
		S358.7,601.7,340.5,601.7z"/>
</g>
</svg>
