<?xml version="1.0" encoding="utf-8"?>
<!-- Generator: Adobe Illustrator 26.0.2, SVG Export Plug-In . SVG Version: 6.00 Build 0)  -->
<svg version="1.1" id="Layer_1" xmlns="http://www.w3.org/2000/svg" xmlns:xlink="http://www.w3.org/1999/xlink" x="0px" y="0px"
	 viewBox="0 0 506.6 234.9" style="enable-background:new 0 0 506.6 234.9;" xml:space="preserve">
<style type="text/css">
	.st0{fill:#141414;}
</style>
<g>
	<path class="st0" d="M84.3,0C61.6,0,41.9,11.7,37.9,32.2h-2.1l3.9-29.3H8.4v125.9H39V63.7h0.7c4.1,20.3,22.4,32,44.2,32
		c26.2,0,45.8-18.9,45.8-47.1C129.7,19.4,110.3,0,84.3,0z M71.8,24.5c15.3,0,28.3,8.1,28.3,23.7c0,15.5-13,23-28.3,23
		c-14.6,0-28.7-7.5-28.7-23C43.1,32.5,57.2,24.5,71.8,24.5z"/>
	<path class="st0" d="M195.9,95.7c23.7,0,34.2-2.9,49.7-8.8V62.2c-10.2,4.3-19.1,9.9-40.8,9.9c-19.3,0-29.5-5.2-32.6-16.5h77.3V40.8
		C249,16.4,227.8,0,195.9,0c-32.2,0-53.6,19.1-53.6,47.9S163.6,95.7,195.9,95.7z M171.5,43c1.8-13.1,10.5-18.5,24.4-18.5
		c14.6,0,23.5,4.8,24.2,17.4L171.5,43z"/>
	<path class="st0" d="M315.7,95.7c23.7,0,34.2-2.9,49.7-8.8V62.2c-10.1,4.3-19.1,9.9-40.8,9.9c-19.2,0-29.6-5.2-32.6-16.5h77.3V40.8
		C368.8,16.4,347.6,0,315.7,0c-32.2,0-53.6,19.1-53.6,47.9S283.5,95.7,315.7,95.7z M291.3,43c1.8-13.1,10.5-18.5,24.4-18.5
		c14.6,0,23.5,4.8,24.2,17.4L291.3,43z"/>
	<path class="st0" d="M461.2,0c-22.7,0-42.4,11.7-46.3,32.2h-2.1l3.9-29.3h-31.4v125.9H416V63.7h0.7c4.1,20.3,22.4,32,44.2,32
		c26.2,0,45.8-18.9,45.8-47.1C506.6,19.4,487.2,0,461.2,0z M448.7,24.5c15.3,0,28.3,8.1,28.3,23.7c0,15.5-13,23-28.3,23
		c-14.6,0-28.7-7.5-28.7-23C420.1,32.5,434.1,24.5,448.7,24.5z"/>
	<path class="st0" d="M0,199.7h13.6l5.1-9h32.7l5.1,9h13.6l-28.5-47.6H28.5L0,199.7z M24.3,180.7l10.8-19l10.8,19H24.3z"/>
	<path class="st0" d="M74.4,199.7H86L85.9,180h11.4c8,0,9.8,3.9,18.5,19.7h14.7c-7.7-15.5-12.1-22.3-23.4-23.1h4.8
		c9.1,0,15.2-4.4,15.2-12c0-7.3-5.4-12.6-15.2-12.6H74.4V199.7z M85.9,170.9l-0.1-9.3h23.7c4,0,5.9,1.4,5.9,4.8c0,3-1.8,4.5-5.9,4.5
		H85.9z"/>
	<path class="st0" d="M155.7,199.7h11.6V162h22v-9.9h-55.5v9.9h21.9L155.7,199.7z"/>
	<path class="st0" d="M241.2,200.8c15.9,0,26.6-5.9,26.6-15.7c0-19.9-40.8-10.1-40.8-19c0-4,5.9-5.3,14.1-5.2
		c9.4,0.1,12.9,3.4,12.9,6.7h12.3c-0.1-10.1-10.7-16.6-26.1-16.6c-14.9,0-24.9,5.9-24.9,15.7c0,20.4,40.9,9.6,40.9,18.8
		c0,4.2-6.9,5.4-16,5.4c-9.7-0.1-13.8-3.5-13.7-6.7h-12.3C214.1,194.2,224.8,200.8,241.2,200.8z"/>
	<path class="st0" d="M276.3,199.7h11.6v-18.6h22.6c9.1,0,15.8-4.8,15.8-14.5c0-8-6.1-14.5-15.8-14.5h-34.2L276.3,199.7z
		 M287.9,171.6v-10h21c4,0,5.9,1.6,5.9,5.1s-1.9,5-5.9,5L287.9,171.6z"/>
	<path class="st0" d="M319.2,199.7h13.6l5.1-9h32.7l5.1,9h13.6l-28.5-47.6h-13.1L319.2,199.7z M343.4,180.7l10.8-19l10.8,19H343.4z"
		/>
	<path class="st0" d="M416.4,200.8c17.1,0,28.4-8.7,28.4-21.8h-11.7c-0.5,7.8-7.1,11.9-16.7,11.9c-10.1,0-16.9-5.4-16.9-15
		s6.7-15,16.9-15c9.5,0,16.2,4.1,16.7,11.9h11.7c0-13.1-11.4-21.8-28.4-21.8s-28.4,9.9-28.4,24.9S399.4,200.8,416.4,200.8z"/>
	<path class="st0" d="M452,199.7h46v-9.9h-34.4v-9.6h33.8v-9.3h-33.8V162H498v-9.9h-46V199.7z"/>
</g>
</svg>
