<?xml version="1.0" encoding="utf-8"?>
<!-- Generator: Adobe Illustrator 26.0.2, SVG Export Plug-In . SVG Version: 6.00 Build 0)  -->
<svg version="1.1" id="Layer_1" xmlns="http://www.w3.org/2000/svg" xmlns:xlink="http://www.w3.org/1999/xlink" x="0px" y="0px"
	 viewBox="0 0 840.1 1191.9" style="enable-background:new 0 0 840.1 1191.9;" xml:space="preserve">
<style type="text/css">
	.st0{fill:#FFFFFF;}
	.st1{fill:#E6007E;}
</style>
<path class="st0" d="M19.3,432V263c0-23.4-0.8-43.9-2.5-61.5c-1.7-17.6-3.4-29.2-5-34.9l-2.1-8.9h129.7c34.1,0,62,12.7,83.7,38
	c21.7,25.3,32.5,58.3,32.5,98.9c0,40.9-10.8,74-32.5,99.3c-21.7,25.3-49.6,38-83.7,38L19.3,432z M80.6,215.2v159.3h53.7
	c19.2,0,33.9-8,44.4-23.9s15.6-34.6,15.6-56c0-23.4-5.4-42.5-16.1-57.3c-10.7-14.8-26.9-22.2-48.6-22.2L80.6,215.2z"/>
<path class="st0" d="M279.6,309.3c0-43.6,14-78.5,42.1-104.9c28.1-26.4,64.1-39.6,108-39.6c38.4,0,69.2,7.4,92.4,22.1
	c23.3,14.8,34.9,33.4,34.9,55.9c0,35.4-29,55.6-86.9,60.4l0.6,6.1h81.9V322H362.6c3.3,38.8,24.9,58.1,64.8,58.1
	c27.3,0,47.1-12.2,59.2-36.5l72,31c-8.5,20.3-23.2,38.7-44,55.1c-20.8,16.4-49.9,24.6-87.2,24.6c-44.7-0.4-80.5-13.7-107.4-39.9
	C293.1,388.3,279.6,353.2,279.6,309.3z M476.1,268.8c0-8.9-4.1-16.2-12.2-22.2s-19.6-8.9-34.3-8.9c-20.3,0-36.7,6.3-49.3,18.8
	c-12.5,12.5-18.8,30.1-18.8,52.6h36c25.1,0,44.5-3.9,58.1-11.6C469.3,289.9,476.2,280.3,476.1,268.8z"/>
<path class="st0" d="M111.4,676c-22.2,0-41.9-4.8-59.1-14.5l-24.7,24.7h99c25.6,0,46.2,4.8,61.8,14.5s23.5,23.6,23.5,41.9
	c0,20.1-9.1,35-27.2,44.8s-42.6,14.7-73.4,14.7c-30.8,0-55.3-4.4-73.6-13.1s-27.4-22-27.4-39.7c-0.1-7.8,2.2-15.4,6.5-21.9
	c4.2-6.5,10-11.7,16.9-15.3c6.3-3.4,12.8-6.2,19.6-8.4c6.1-1.9,12.3-3.3,18.6-4.1l-0.8-4.3h-56v-9l29.7-29.7
	c-20.1-15.1-30.1-35.2-30.1-60.2c0-23.2,8.9-42.3,26.6-57.2s41.1-22.3,70.1-22.3c22.9,0,42.5,4.8,58.7,14.5l30.5-30.2l6.3,6.3
	l-29,29c19.8,15.4,29.7,35.4,29.7,59.9c0,23.5-8.9,42.7-26.6,57.5S140,676,111.4,676z M111,752.3c12.3,0,21.8-2.4,28.6-7.2
	c6.8-4.8,10.2-11.8,10.2-20.9c0-12.8-6.8-21.4-20.4-25.8c-6.5-1-13-1.6-19.6-1.6c-25.6,0-38.4,9.1-38.3,27.4
	C71.5,742.9,84.6,752.3,111,752.3L111,752.3z M137.8,478.2c-6.1,5.3-14.9,8-26.4,8c-11.5,0-20.4-2.7-26.6-8
	c-6.3-5.3-9.9-10.9-11-16.6l8.6-2l0.4,0.4c0,0.6,0.1,1.2,0.4,1.8c0.3,0.7,0.6,1.5,1,2.1c0.4,0.8,0.9,1.6,1.4,2.4
	c0.6,0.9,1.4,1.8,2.2,2.5c0.9,0.9,1.9,1.8,2.9,2.5c1.2,0.8,2.4,1.6,3.7,2.1c1.4,0.6,2.9,1.3,4.5,2c1.8,0.7,3.7,1.2,5.7,1.4
	c4.6,0.5,9.1,0.5,13.7,0c1.9-0.2,3.9-0.7,5.7-1.4c1.6-0.6,3.1-1.3,4.5-2c1.3-0.6,2.6-1.3,3.7-2.1c1-0.8,2-1.6,2.9-2.5
	c0.8-0.8,1.5-1.6,2.2-2.5c0.5-0.8,1-1.5,1.4-2.4c0.4-0.8,0.7-1.5,1-2.1c0.2-0.6,0.4-1.2,0.4-1.8l0.4-0.4l8.6,2
	C147.6,467.3,143.9,472.8,137.8,478.2L137.8,478.2z M111.4,569.2c-10.2,0-18.5,2.5-24.9,7.6c-6.4,5.1-9.6,11.5-9.6,19.4
	c-0.1,7.5,3.4,14.7,9.4,19.2l41.5-42.3C122.7,570.5,117.1,569.2,111.4,569.2L111.4,569.2z M136,577.4L94.5,620
	c5.3,2.2,11.1,3.2,16.8,3.1c10.4,0,18.7-2.5,24.8-7.4c6-4.7,9.4-11.9,9.2-19.6C145.6,588.7,142.1,581.7,136,577.4L136,577.4z"/>
<path class="st0" d="M331.8,582.1v129c0,6.2,1.1,10.6,3.4,13.4c2.3,2.8,6.6,4.2,13,4.2l18.5-2.7l-4.4,56.5
	c-13,3.3-26.3,4.9-39.7,4.8c-32.6,0-48.9-16.5-48.9-49.3v-43.7c0-36.9-0.8-59.3-2.4-67.3c-2.9-14.4-10.2-22.4-21.6-24
	c-4.8-0.8-10.8-0.7-18,0.4l-0.8-7.6L331.8,582.1z M331,522.8l0.8,8.8l-62.9,4.4l-0.4-9.2L331,522.8z"/>
<path class="st0" d="M637.2,582.1v129c0,6.2,1.1,10.6,3.4,13.4c2.3,2.8,6.6,4.2,13,4.2l18.4-2.8l-4.4,56.5
	c-13,3.3-26.3,4.9-39.7,4.8c-32.6,0-48.9-16.4-48.9-49.3v-43.6c0-36.9-0.8-59.3-2.4-67.3c-2.9-14.4-10.2-22.4-21.6-24
	c-4.8-0.8-10.8-0.7-18,0.4l-0.8-7.6L637.2,582.1z M636.4,522.8l0.8,8.8l-62.9,4.4l-0.4-9.2L636.4,522.8z"/>
<path class="st0" d="M401.5,892V651.2c0-33.8-1.2-63.2-3.6-88.4c-2.4-25.1-4.8-41.7-7.2-49.8l-3-12.7H489v309.5h180.4V892H401.5z"/>
<path class="st0" d="M270.8,896.1v16.7l3.4,0.8c1.7-8.7,4-17.4,6.8-25.8c2.5-7.1,5.6-14,9.5-20.5c3.4-6.2,8.4-11.3,14.5-14.8
	c5.8-3.3,12.7-4.9,20.6-4.9c23.7,0,35.6,14.9,35.6,44.6c0,4.3-0.6,11.9-1.7,22.7c-1.1,10.8-1.7,18.8-1.7,23.9
	c0,5.3,0.8,9.2,2.4,11.7c1.6,2.5,4.7,3.8,9.2,3.8l13.3-2l-3.4,39.8c-9.7,2.4-19.7,3.5-29.6,3.4c-10.7,0-18.9-3.3-24.4-9.9
	c-5.6-6.6-8.3-15.6-8.3-27.1c0-7.3,0.5-16.8,1.5-28.4c1-11.6,1.6-19.8,1.5-24.7c0-7.3-1-12.5-3-15.5c-2-3-5.1-4.5-9.2-4.5
	c-7.7,0-14.3,4.7-19.8,14c-5.5,9.3-9.4,20.7-11.8,34.1c-2.4,13.5-4.1,25.1-5.1,34.9s-1.4,17.7-1.4,23.7h-40.9v-85.2
	c0-14.3-4.8-21.5-14.4-21.5c-6,0-11.4,3.2-16.1,9.7c-4.9,7-8.5,14.8-10.6,23.2c-2.5,9.8-4.5,19.7-5.9,29.7
	c-1.6,10.9-2.6,19.9-3,26.8c-0.4,7-0.6,12.7-0.6,17.2h-40.9v-62c0-26-0.6-41.8-1.7-47.4c-2.1-10.2-7.2-15.8-15.2-16.9
	c-4.2-0.6-8.5-0.5-12.7,0.3l-0.6-5.4l71.1-9.6v64.3l3.1,0.8c8.7-45.5,25.5-68.3,50.5-68.3c11.7,0,21.1,3.9,28.2,11.6
	C267.2,867.2,270.8,879.4,270.8,896.1z"/>
<path class="st1" d="M480.8,1123.4l-18.5-76.2l-367.5-13.6l0.4-10l375.1,13.9l18.2,75.1l230.7-21.5l1.5-68l-7.1-18.5l27.6-77.7
	l-18.7-78.2v-0.5l-2-84l8.7,8.1c2.1,2,49.8,46.5,57.8,54.4c1.4-0.2,5.9-1.2,17.4-7.9c5-2.9,9.7-6,12.2-7.7v-16.4l-28.5-49.8
	l-0.1-0.3L692,518.2V518l-93.4-262.6l23.5-117.7L390.4,41.4l3.8-9.2l239.3,99.6l-24.6,123l92.3,259.8l96,225.8l29.5,51.6v24.4
	l-2.2,1.5c-0.3,0.2-8.4,5.8-17.2,10.8c-4.3,2.5-8.8,4.7-13.4,6.5c-4,1.5-9.7,3-13.3-0.7c-3.8-3.8-34.3-32.4-49.6-46.7l1.4,59.7
	l19.1,80l-27.4,77l6.5,16.9l-1.8,78.8L480.8,1123.4z"/>
<path class="st1" d="M135.6,1123l-0.8-10c1.3-0.1,131.6-10.3,150-13.7c18.9-3.4,202.2-24.9,210-25.8h246.2l14-43.5l-33.2-185.1
	l93.2-34l-62.8-150.7l-83.2-141.4l12-89.2l-23.7-45.7l-0.1-0.8l-29-164l-77.7-114.9L485,138.5L284.1,67.3l3.3-9.4l196.8,69.8
	l69.6-36.3l83.9,124.1L667,380.7l24.5,47.1l-12,88.9l81.6,138.7l0.2,0.3l0.1,0.3l67,160.6l-95.1,34.7l32.1,179.3l-17,52.8H495.8
	c-8.5,1-190.9,22.4-209.1,25.7C267.7,1112.6,141,1122.6,135.6,1123z"/>
</svg>
