<svg xmlns="http://www.w3.org/2000/svg" viewBox="0 0 592.63 498.19"><defs><style>.cls-1{fill:#141414;}</style></defs><g id="Layer_2" data-name="Layer 2"><g id="Layer_1-2" data-name="Layer 1"><path class="cls-1" d="M337.49,219.66c-1.7,3.48-3.84,6.82-5,10.47-6.91,21.55-13.88,43.1-20.28,64.81-4.56,15.47-10.65,30.1-19.9,43.37-4.88,7-10.6,11.92-20,9.61-9.7-2.37-17.19-7.12-18.24-17.83-1.27-12.91-2.51-25.88-2.58-38.83-.31-56.67-.16-113.33-.29-170a162.75,162.75,0,0,0-1.24-16.92c-.14-1.32-1.36-3.57-2.05-3.56a5.37,5.37,0,0,0-4,2.16,88.44,88.44,0,0,0-6.61,13.91c-14.78,44-33.05,86.47-53.42,128.08-4,8.22-8.61,16.17-13.12,24.13-3.24,5.72-8.34,8.84-14.84,9.91-3.6.59-7.13,2.18-10.71,2.24a26,26,0,0,1-10.38-2.06c-8.59-3.66-10.86-2.74-12.64,6.42a98.59,98.59,0,0,1-13,33.85c-8.38,13.4-20.39,19-36.15,16.62-5.84-.88-11-3.22-13.32-8.52-3.42-7.84-5.81-16.14-8.47-24.31-.6-1.83-.55-3.89-.93-6.88-2.55,2.69-4.57,4.58-6.32,6.69-6.2,7.47-14,12.79-22.67,16.89-5.52,2.62-11.79,4.77-17.08.67C-.93,316.6-.31,310,.66,304.27A22.64,22.64,0,0,1,5,293.85c19.61-23.41,32.08-50.48,41.44-79.2,4.8-14.72,9.52-29.47,14.27-44.2.51-1.59,1-3.18,1.54-4.75,2.07-5.86,5.28-10.45,12.23-10.76,6.58-.29,13.42,3.64,15.63,10.3a36.71,36.71,0,0,1,2.06,15.13c-1.69,15.22-4.54,30.3-6.41,45.49-2.64,21.5-4.79,43.05-2.59,64.75A15.53,15.53,0,0,0,85.94,298c.71-1.69,1.52-3.36,2.14-5.08q11.22-31.26,22.37-62.55a103.93,103.93,0,0,0,2.88-10.58c2.86-12.19,13.25-16.33,23.59-9.16,3.41,2.36,6.31,5.42,9.55,8,5.5,4.44,9.94,4.3,14.24-1.25A172.16,172.16,0,0,0,173,199.19c30.7-52.12,56-106.67,74.65-164.31,2.89-9,7-17.6,11.2-26.07,2.28-4.6,5.8-9.28,11.75-8.77,6.24.53,9.5,5.73,11.07,11a44.48,44.48,0,0,1,2,16.63c-2.14,21.37-5.78,42.62-7.41,64-3,39.52-5.64,79.1-7.15,118.7-1.08,28.27-.18,56.63.12,84.94.08,7.7,1.31,9.88,5.3,14,2.29-3.35,5.12-6.28,6.56-9.78,7.89-19.05,15.71-38.13,23-57.41,5.17-13.69,8.82-28,14.42-41.48,3.25-7.84,8.78-14.79,13.74-21.83,1.85-2.63,4.79-4.64,7.54-6.46,9.53-6.29,17.33-3.74,21.36,6.86a55.35,55.35,0,0,1,2,6.68c.75,3,2.49,4.16,5.52,3.31,1-.27,2-.39,2.93-.62,9.52-2.24,12.32-1.17,17.62,6.78,4.31,6.46,6.5,7.07,13.58,3.74,8.19-3.84,12.76-3.19,18.44,3.77,3.13,3.83,5.81,3.38,8.75.61,3.15-3,5.65-6.68,9-9.31,4.37-3.42,9.05-6.79,14.13-8.82,2.7-1.08,7.09-.19,9.74,1.42,4.07,2.48,7.37,2.44,11.08,0,9.09-5.9,18.09-11.93,27.29-17.63,7.78-4.82,15.62-9.61,23.78-13.73a61.86,61.86,0,0,1,15.56-5.16c13.15-2.65,20.77,1.25,27.08,13.19,5.31,10,7.85,21,8.59,32.13,1.58,23.59,3.17,47.22,3.46,70.85.67,53.65.5,107.32.81,161a116.27,116.27,0,0,0,8.9,44.81,43.84,43.84,0,0,1,3,10.52c.92,6.39-1.49,10.67-7.32,13.33a20.72,20.72,0,0,1-22.19-2.48c-2.71-2.12-4-7.18-4.32-11-.85-10.28-.82-20.63-1.13-30.95-2.08-68.44-3.79-136.89-6.5-205.3-.68-17.21-4.38-34.32-7.09-51.42-1.15-7.3-5.15-9.12-11.89-6a42.3,42.3,0,0,0-8.92,5.47C508,206.45,493,218.54,478.24,231a38.61,38.61,0,0,1-21.54,9.5c-2.74.27-6.14.36-8.25-1-5-3.21-9-1.68-13.85.27-4,1.6-8.62,1.33-12.93,2.12a107.59,107.59,0,0,0-11.48,2.73c-2.36.71-4.66,3.14-6.77,2.9-8.61-1-17.34,2.24-25.85-.86a9.49,9.49,0,0,0-3.4-.64c-6.14.11-12.27.26-18.4.55-3.81.19-6.57-1.44-8-4.78-2.38-5.48-4.42-11.12-6.63-16.68-.7-1.77-1.46-3.51-2.2-5.26Z"/></g></g></svg>