<?xml version="1.0" encoding="utf-8"?>
<!-- Generator: Adobe Illustrator 26.0.2, SVG Export Plug-In . SVG Version: 6.00 Build 0)  -->
<svg version="1.1" id="Layer_1" xmlns="http://www.w3.org/2000/svg" xmlns:xlink="http://www.w3.org/1999/xlink" x="0px" y="0px"
	 viewBox="0 0 589.9 862.7" style="enable-background:new 0 0 589.9 862.7;" xml:space="preserve">
<style type="text/css">
	.st0{fill:none;stroke:#E0007A;stroke-width:10;stroke-miterlimit:10;}
	.st1{enable-background:new    ;}
	.st2{fill:#FFFFFF;}
</style>
<path id="Path_1" class="st0" d="M164.8,52.1l150,53.2l51-26.6l61,90.1l22,124.5l18.2,35l-9.1,67.2l62.2,105.8l49,117.5l-71.1,25.9
	l24.6,137.5l-11.7,36.3h-188c0,0-144,16.9-158.2,19.5S51.3,848.4,51.3,848.4"/>
<path id="Path_2" class="st0" d="M260.9,41.6l177.7,73.9l-18.2,90.8l70,197.1L563,574.1l21.9,38.3v15.4c0,0-24.4,16.9-28.3,13
	s-44.1-41.5-44.1-41.5l1.3,54.4l14.3,59.7l-20.8,58.4l5.1,13.4l-1.2,55.4l-180.7,16.9l-13.9-57.1L36.6,789.9"/>
<g class="st1">
	<path class="st2" d="M225,189.2V211l4.4,1.1c2.7-13.3,5.7-24.6,8.9-33.9c3.2-9.2,7.3-18.2,12.4-26.8c5.1-8.6,11.4-15.1,19.1-19.4
		c7.6-4.3,16.6-6.5,27-6.5c31.1,0,46.6,19.5,46.6,58.5c0,5.7-0.7,15.6-2.2,29.8c-1.5,14.2-2.2,24.6-2.2,31.3c0,6.9,1,12,3.1,15.4
		c2.1,3.3,6.1,5,12,5l17.4-2.6L367,315c-11.1,3-24,4.4-38.9,4.4c-14.1,0-24.7-4.3-32-13c-7.3-8.6-10.9-20.5-10.9-35.5
		c0-9.6,0.7-22,2-37.2c1.4-15.2,2-26,2-32.4c0-9.6-1.3-16.4-3.9-20.4c-2.6-3.9-6.6-5.9-12-5.9c-10.1,0-18.7,6.1-25.9,18.3
		c-7.2,12.2-12.3,27.1-15.5,44.8c-3.2,17.6-5.4,32.9-6.7,45.7c-1.2,12.8-1.8,23.2-1.8,31.1h-53.7V203.3c0-18.7-6.3-28.1-18.9-28.1
		c-7.9,0-14.9,4.3-21.1,12.8c-6.2,8.5-10.8,18.6-13.9,30.3c-3.1,11.7-5.7,24.7-7.8,39c-2.1,14.3-3.4,26-3.9,35.1
		c-0.5,9.1-0.7,16.7-0.7,22.6H49.9v-81.4c0-34-0.7-54.8-2.2-62.2c-2.7-13.3-9.4-20.7-20-22.2c-4.4-0.7-10-0.6-16.7,0.4l-0.7-7
		l93.2-12.6v84.4l4.1,1.1c11.3-59.7,33.4-89.5,66.2-89.5c15.3,0,27.6,5.1,37,15.2C220.3,151.2,225,167.2,225,189.2z"/>
</g>
<g class="st1">
	<path class="st2" d="M7.2,450.3c0-22.6,7.3-40.7,21.8-54.4c14.5-13.7,33.2-20.5,56-20.5c19.9,0,35.9,3.8,47.9,11.5
		c12.1,7.7,18.1,17.3,18.1,29c0,18.4-15,28.8-45.1,31.3l0.3,3.2h42.5v6.6H50.2c1.7,20.1,12.9,30.1,33.6,30.1
		c14.2,0,24.4-6.3,30.7-18.9l37.3,16.1c-4.4,10.5-12,20-22.8,28.6c-10.8,8.5-25.9,12.8-45.2,12.8c-23.2-0.2-41.7-7.1-55.7-20.7
		C14.2,491.2,7.2,473,7.2,450.3z M109.1,429.3c0-4.6-2.1-8.4-6.3-11.5c-4.2-3.1-10.1-4.6-17.8-4.6c-10.5,0-19,3.3-25.5,9.8
		c-6.5,6.5-9.8,15.6-9.8,27.3h18.7c13,0,23.1-2,30.1-6C105.5,440.2,109.1,435.2,109.1,429.3z"/>
</g>
<g class="st1">
	<path class="st2" d="M319.2,382.2c0,30.2-18.9,46.7-56.8,49.4l22.7,37.3c2.7,4.4,5.6,7.8,8.9,10.3c3.3,2.5,7.7,3.7,13.2,3.7l22.1-2
		l-3.4,41c-10.5,2.3-19.7,3.4-27.6,3.4c-10.3,0-18.8-2.3-25.4-7c-6.6-4.7-13.3-12.8-19.9-24.3l-36.2-62h-13.2V522h-41.6V407.2
		c0-15.9-0.6-29.8-1.7-41.8c-1.1-12-2.3-19.8-3.4-23.7l-1.4-6h106.2c18.7,0,33.1,4.1,42.9,12.2C314.3,356.1,319.2,367.5,319.2,382.2
		z M244,425.6c10.7,0,19-2.5,24.8-7.6c5.8-5.1,8.8-12,8.8-20.8c0-14.9-9-22.4-27-22.4h-47.1v50.8H244z"/>
</g>
<g class="st1">
	<path class="st2" d="M376.2,337.2h6.6v41.3h48.8v6.6h-48.8V462c0,8.6,1.7,14.4,5.2,17.2s9,4.3,16.6,4.3c4.4,0,9.1-0.6,14.2-1.7
		c5.1-1.1,9-2.3,11.9-3.4l4-1.4l-6.6,41.6c-10.1,4.6-22.6,6.9-37.3,6.9c-33.1,0-49.7-16.7-49.7-50.2v-90.1h-16.4v-6.6L376.2,337.2z"
		/>
</g>
<g class="st1">
	<path class="st2" d="M219.1,653v-46.6c0-1.6,0-3.9,0-7c0-12.6-0.2-21.3-0.7-26.2c-0.5-4.9-2.3-8.9-5.4-12c-3.1-3.1-8.1-4.1-15.1-3
		l-0.2-4l52.2-7.2v44.9l2.5,0.8c1.3-6.9,2.8-13.1,4.5-18.4c1.7-5.4,4-10.4,6.8-15.2c2.8-4.7,6.4-8.4,10.8-10.9
		c4.4-2.5,9.4-3.8,15.1-3.8c9,0,16.4,4.1,21.9,12.4c5.6,8.3,7.8,20.8,6.7,37.6l-31.2,5.7c1.7-19.2-2.1-28.8-11.2-28.8
		c-4.4,0-8.2,2.5-11.6,7.4c-3.3,4.9-5.9,10.8-7.6,17.6c-1.8,6.8-3.2,14.4-4.2,22.8c-1.1,8.4-1.7,15.2-2,20.5
		c-0.3,5.2-0.4,9.7-0.4,13.4H219.1z"/>
</g>
<g class="st1">
	<path class="st2" d="M77.9,633v-41.6c0-5.8-0.2-10.8-0.6-15.1c-0.4-4.3-0.8-7.2-1.2-8.6l-0.5-2.2h17.5v28.9h4.3l20.8-28.9h18.5
		l-23,30.2l9.7,16.7c0.9,1.3,1.7,2.4,2.3,3.2c0.7,0.8,1.7,1.5,3.1,2.2c1.4,0.7,3,1,4.8,1l6.8-0.7l-1.2,14.9
		c-3.4,0.8-6.6,1.2-9.7,1.2c-3.7,0-6.9-0.9-9.5-2.6c-2.6-1.7-5-4.6-7.4-8.7l-15.2-26.1h-4.3V633H77.9z"/>
</g>
<g class="st1">
	<path class="st2" d="M123.7,658.9c0-8.8,3.6-15.9,10.8-21.4c7.2-5.4,17.1-8.1,29.7-8.1h20c0-12.7-4.7-19.1-14.2-19.1
		c-7.9,0-13.7,3.5-17.2,10.6l-24.6-10c3.1-6.4,8.3-12.3,15.4-17.7c7.1-5.4,16.2-8,27.3-8c27.1,0,40.6,15.1,40.6,45.2v18
		c0,2.9,0.5,5,1.6,6.3c1.1,1.3,3.1,2,6.1,2l8.9-1.3L226,682c-5.8,1.5-12,2.3-18.7,2.3c-15.4,0-23.1-7.7-23.1-23.2v-11.3l-2.3-0.2
		c-0.6,3-1.3,5.7-2,8c-0.7,2.3-1.9,5.3-3.6,8.9c-1.7,3.6-3.6,6.6-5.8,9c-2.1,2.4-5.1,4.5-8.8,6.2c-3.7,1.8-7.8,2.6-12.4,2.6
		c-8.1,0-14.4-2.4-18.9-7.2C126,672.3,123.7,666.3,123.7,658.9z M183.9,633.8h-7.7c-16.6,0-24.9,5-24.9,14.9c0,3.2,0.9,5.6,2.8,7.4
		c1.9,1.8,4.4,2.6,7.6,2.6c6.6,0,11.6-2.5,15.1-7.6C180.2,646.2,182.6,640.4,183.9,633.8z"/>
</g>
<g class="st1">
	<path class="st2" d="M250.7,675.9c0-8.8,3.6-15.9,10.8-21.4c7.2-5.4,17.1-8.1,29.7-8.1h20c0-12.7-4.7-19.1-14.2-19.1
		c-7.9,0-13.7,3.5-17.2,10.6l-24.6-10c3.1-6.4,8.3-12.3,15.4-17.7c7.1-5.4,16.2-8,27.3-8c27.1,0,40.6,15.1,40.6,45.2v18
		c0,2.9,0.5,5,1.6,6.3c1.1,1.3,3.1,2,6.1,2l8.9-1.3L353,699c-5.8,1.5-12,2.3-18.7,2.3c-15.4,0-23.1-7.7-23.1-23.2v-11.3l-2.3-0.2
		c-0.6,3-1.3,5.7-2,8c-0.7,2.3-1.9,5.3-3.6,8.9c-1.7,3.6-3.6,6.6-5.8,9c-2.1,2.4-5.1,4.5-8.8,6.2c-3.7,1.8-7.8,2.6-12.4,2.6
		c-8.1,0-14.4-2.4-18.9-7.2C253,689.3,250.7,683.3,250.7,675.9z M310.9,650.8h-7.8c-16.6,0-24.9,5-24.9,14.9c0,3.2,0.9,5.6,2.8,7.4
		c1.9,1.8,4.4,2.6,7.6,2.6c6.6,0,11.6-2.5,15.1-7.6C307.2,663.2,309.6,657.4,310.9,650.8z"/>
</g>
<g class="st1">
	<path class="st2" d="M358.2,677v-80.5c0-1.3,0-3,0-5.3c0-3.8,0-6.5,0-8.2s0-4-0.1-6.9c-0.1-2.9-0.2-5-0.4-6.3c-0.2-1.3-0.5-3-0.9-5
		c-0.4-2-0.8-3.5-1.4-4.3c-0.6-0.9-1.3-1.9-2.1-3.1c-0.8-1.2-1.8-2-2.9-2.4s-2.4-0.8-3.9-1.2c-1.4-0.4-3.1-0.7-4.9-0.7
		c-1.8,0-3.9,0.2-6.1,0.6l-0.2-3.6l50.3-6.6v77.7l2.3,0.8c7.3-27.6,20.4-41.4,39.3-41.4c7.2,0,13.2,2.1,18.1,6.3
		c4.9,4.2,7.4,9.9,7.4,17.1c0,8.6-2.8,15.1-8.4,19.6c-5.6,4.5-11.9,6.7-18.8,6.7l6.8,12.1c2,3.7,4,6.1,6,7.5c2,1.3,4.9,2,8.7,2
		l11.9-1.3l-2.3,26.6c-5.2,1.5-10.4,2.3-15.7,2.3c-6.8,0-12.3-1.5-16.3-4.5c-4.1-3-8.2-7.7-12.4-14.2l-16.1-29.1V626h13
		c4.3,0,8-0.9,11.2-2.8c3.2-1.9,4.8-4.8,4.8-8.7c0-2.6-0.9-4.7-2.7-6.2c-1.8-1.5-4.3-2.3-7.5-2.3c-4,0-7.7,1-11,2.9
		c-3.3,2-5.9,4.3-7.9,7.1c-2,2.8-3.8,6.5-5.2,11.1c-1.5,4.6-2.5,8.7-3.2,12.3c-0.7,3.6-1.2,8.1-1.6,13.5c-0.4,5.4-0.6,9.4-0.6,11.8
		s0,5.8,0,10.1c0,1,0,1.8,0,2.3H358.2z"/>
</g>
<g class="st1">
	<path class="st2" d="M445.2,696v52.2c0,2.5,0.5,4.3,1.4,5.4c0.9,1.1,2.7,1.7,5.3,1.7l7.6-1.1l-1.9,22.8c-5,1.3-10.3,1.9-16,1.9
		c-13.2,0-19.8-6.6-19.8-19.9v-20.6l-1.9-0.5c-1.2,5.7-2.5,10.8-4.1,15.2c-1.5,4.4-3.5,8.7-6,12.8c-2.5,4.1-5.6,7.3-9.3,9.6
		c-3.7,2.3-8,3.4-12.7,3.4c-13.7,0-20.6-8.4-20.6-25.3c0-2.6,0.3-7,0.9-13.4c0.6-6.3,0.9-10.9,0.9-13.7c0-3-0.5-5.3-1.4-6.7
		c-0.9-1.5-2.6-2.2-5.1-2.2l-7.6,1.1l1.8-22.8c4.9-1.3,10.5-1.9,17-1.9c6.2,0,10.8,1.9,14,5.6c3.2,3.7,4.8,8.9,4.8,15.6
		c0,3.8-0.3,8.9-0.9,15.2c-0.6,6.4-0.9,11.2-0.9,14.6c0,8.1,2.7,12.2,8.1,12.2c4.6,0,8.6-2.7,12-8c3.3-5.3,5.8-11.9,7.2-19.8
		c1.5-7.8,2.5-14.5,3-20c0.5-5.5,0.8-10,0.8-13.4H445.2z"/>
</g>
<g class="st1">
	<path class="st2" d="M449.1,742v-25.1c0-0.8,0-2.1,0-3.8c0-6.8-0.1-11.5-0.4-14.1c-0.3-2.6-1.2-4.8-2.9-6.4
		c-1.7-1.7-4.4-2.2-8.1-1.6l-0.1-2.2l28-3.9v24.2l1.4,0.5c0.7-3.7,1.5-7,2.4-9.9c0.9-2.9,2.1-5.6,3.6-8.2c1.5-2.5,3.5-4.5,5.8-5.9
		c2.4-1.4,5.1-2.1,8.1-2.1c4.9,0,8.8,2.2,11.8,6.7c3,4.4,4.2,11.2,3.6,20.2l-16.8,3.1c0.9-10.3-1.1-15.5-6-15.5
		c-2.4,0-4.4,1.3-6.2,4c-1.8,2.7-3.2,5.8-4.1,9.5c-1,3.6-1.7,7.7-2.3,12.3c-0.6,4.5-0.9,8.2-1.1,11c-0.2,2.8-0.2,5.2-0.2,7.2H449.1z
		"/>
</g>
<g class="st1">
	<path class="st2" d="M481.7,733.6h2.6V750h19.4v2.6h-19.4v30.6c0,3.4,0.7,5.7,2.1,6.8c1.4,1.1,3.6,1.7,6.6,1.7
		c1.7,0,3.6-0.2,5.6-0.7c2-0.5,3.6-0.9,4.7-1.4l1.6-0.6l-2.6,16.5c-4,1.8-9,2.7-14.8,2.7c-13.2,0-19.7-6.6-19.7-20v-35.8h-6.5V750
		L481.7,733.6z"/>
</g>
</svg>
