<?xml version="1.0" encoding="utf-8"?>
<!-- Generator: Adobe Illustrator 26.0.2, SVG Export Plug-In . SVG Version: 6.00 Build 0)  -->
<svg version="1.1" id="Layer_1" xmlns="http://www.w3.org/2000/svg" xmlns:xlink="http://www.w3.org/1999/xlink" x="0px" y="0px"
	 viewBox="0 0 589.9 825.7" style="enable-background:new 0 0 589.9 825.7;" xml:space="preserve">
<style type="text/css">
	.st0{fill:none;stroke:#E0007A;stroke-width:10;stroke-miterlimit:10;}
	.st1{enable-background:new    ;}
	.st2{fill:#FFFFFF;}
</style>
<path id="Path_1" class="st0" d="M164.8,15.1l150,53.2l51-26.6l61,90.1l22,124.5l18.2,35l-9.1,67.2l62.2,105.8l49,117.5l-71.1,25.9
	l24.6,137.5l-11.7,36.3h-188c0,0-144,16.9-158.2,19.5c-14.3,2.6-113.6,10.4-113.6,10.4"/>
<path id="Path_2" class="st0" d="M260.9,4.6l177.7,73.9l-18.2,90.8l70,197.1L563,537.1l21.9,38.3v15.4c0,0-24.4,16.9-28.3,13
	s-44.1-41.5-44.1-41.5l1.3,54.4l14.3,59.7l-20.8,58.4l5.1,13.4l-1.2,55.4l-180.7,16.9l-13.9-57.1L36.6,752.9"/>
<g class="st1">
	<path class="st2" d="M20.6,285V158.5c0-17.8-0.6-33.2-1.7-46.4c-1.2-13.2-2.4-21.9-3.6-26.2l-1.9-6.7h53.6l61.8,193.4l61.8-193.4
		h46.3V285h-46.3V103l-58,182h-7.6l-58-182v182H20.6z"/>
</g>
<g class="st1">
	<path class="st2" d="M362,153.1l-1.1,3.4c13.5,5.8,24.2,14.1,32,25c7.8,10.8,11.7,23.8,11.7,39.1c0,21.4-7.2,39.1-21.7,53
		c-14.5,13.9-32.6,20.9-54.4,20.9c-22,0-40.2-7-54.7-20.9c-14.5-13.9-21.7-31.6-21.7-53s7.2-39.1,21.7-53
		c14.5-13.9,32.7-20.9,54.7-20.9h60.6v6.5H362z M301.1,248.7c7.1,7.5,16.3,11.3,27.4,11.3c11.1,0,20.2-3.8,27.4-11.3
		c7.1-7.5,10.7-16.9,10.7-28.2s-3.6-20.7-10.7-28.2c-7.1-7.5-16.3-11.3-27.4-11.3c-11.1,0-20.2,3.8-27.4,11.3
		c-7.1,7.5-10.7,16.9-10.7,28.2S294,241.2,301.1,248.7z"/>
</g>
<g class="st1">
	<path class="st2" d="M112.3,355.5l-0.4,85l4.3,1.1c3.3-16.4,7.9-31,13.6-43.7c5.7-12.7,13.9-23.7,24.6-32.8
		c10.7-9.2,23.1-13.7,37.1-13.7c30.9,0,46.4,18.8,46.4,56.4c0,5.5-0.7,15.1-2.1,28.7c-1.4,13.7-2.1,23.7-2.1,30.2
		c0,6.7,1,11.6,3,14.8c2,3.2,5.9,4.8,11.6,4.8l16.8-2.5l-4.3,50.3c-10.7,2.9-23.2,4.3-37.5,4.3c-13.6,0-23.9-4.2-30.9-12.5
		c-7-8.3-10.5-19.8-10.5-34.3c0-8.3,0.7-19.4,2.1-33.2c1.4-13.8,2.1-24.3,2.1-31.4c0-9.8-1.6-16.8-4.6-21.2c-3.1-4.4-8-6.6-14.6-6.6
		c-9,0-17.1,4.1-24.1,12.3c-7,8.2-12.4,18-16.1,29.3c-3.7,11.3-6.7,23.9-9.1,37.7c-2.4,13.8-3.9,25.1-4.5,33.9
		c-0.6,8.8-0.9,16.1-0.9,21.8H60.1v-78.5c0-2.4,0-5.7,0-10c0-16.7-0.2-28.5-0.7-35.5c-0.5-7-2-14.2-4.5-21.6
		c-2.5-7.4-6.7-11.9-12.7-13.6c-6-1.7-14.3-1.8-25-0.4l-0.4-6.8L112.3,355.5z"/>
</g>
<g class="st1">
	<path class="st2" d="M350.6,332.2l0.6,3.1c17.3,0.2,32.7,5,46.1,14.3c13.4,9.3,23.2,22.7,29.6,40.2c8.5,23.4,8,45.5-1.5,66.3
		c-9.5,20.8-25.9,35.4-49.1,43.9c-23.3,8.5-45.2,7.8-65.9-2c-20.7-9.8-35.2-26.4-43.8-49.9c-8.5-23.4-8-45.5,1.5-66.2
		c9.5-20.7,25.9-35.3,49.2-43.8l66.9-24.3l2,5.5L350.6,332.2z M329.2,370.8c-13.3,4.8-22.5,13.4-27.6,25.6
		c-5.1,12.2-5.1,25.2-0.1,39c5.1,14,13.5,24,25.2,30c11.7,6.1,24.3,6.7,37.6,1.8c13.1-4.8,22.3-13.3,27.4-25.5
		c5.1-12.2,5.1-25.3,0-39.2c-5-13.8-13.4-23.7-25.1-29.8C354.8,366.6,342.4,366,329.2,370.8z"/>
</g>
<g class="st1">
	<path class="st2" d="M254.3,737l-17.2-45.8L219.7,737h-45.8l-27.7-68.3c-6.6-16.5-13-31.6-19.3-45.3c-6.2-13.7-10.7-23.3-13.5-28.7
		l-4.5-8.1h52.7l54.8,140l17.2-44.8l-4.8-12.9c-6.2-16.7-12.4-31.9-18.7-45.6c-6.2-13.7-10.8-23.3-13.8-28.7l-4.5-7.8h52.1
		l15.4,40.6l3.3-0.3c2.2-12.4,6.7-22.9,13.5-31.3c6.8-8.4,16.4-12.6,28.6-12.6c11.8,0,20.9,3.9,27.2,11.6c6.3,7.7,9.5,18.8,9.5,33.3
		c0,9.8-2.1,21.5-6.3,34.9c-4.2,13.4-8.4,24.8-12.6,34.2c-4.2,9.3-10.5,22.7-19,40.2H254.3z M284.1,615.4c-7.4,0-12.7,4-16,12
		c-3.2,8-3.1,16.1,0.3,24.1l12,31.6c11.2-24.7,16.9-41.7,16.9-51.2C297.3,620.9,292.9,615.4,284.1,615.4z"/>
</g>
<g class="st1">
	<path class="st2" d="M432.9,580.5v107.2c0,5.1,0.9,8.8,2.8,11.2c1.9,2.3,5.5,3.5,10.8,3.5l15.3-2.3l-3.7,47c-10.2,2.7-21.2,4-33,4
		c-27.1,0-40.6-13.7-40.6-41v-36.3c0-30.6-0.7-49.3-2-55.9c-2.4-12-8.4-18.6-18-20c-4-0.7-9-0.6-15,0.3l-0.7-6.3L432.9,580.5z
		 M432.3,531.2l0.7,7.3l-52.3,3.7l-0.3-7.7L432.3,531.2z"/>
</g>
</svg>
