<?xml version="1.0" encoding="utf-8"?>
<!-- Generator: Adobe Illustrator 26.0.2, SVG Export Plug-In . SVG Version: 6.00 Build 0)  -->
<svg version="1.1" id="Layer_1" xmlns="http://www.w3.org/2000/svg" xmlns:xlink="http://www.w3.org/1999/xlink" x="0px" y="0px"
	 viewBox="0 0 558.9 825.7" style="enable-background:new 0 0 558.9 825.7;" xml:space="preserve">
<style type="text/css">
	.st0{fill:none;stroke:#E0007A;stroke-width:10;stroke-miterlimit:10;}
	.st1{enable-background:new    ;}
	.st2{fill:#FFFFFF;}
</style>
<path id="Path_1" class="st0" d="M133.8,15.1l150,53.2l51-26.6l61,90.1l22,124.5l18.2,35l-9.1,67.2l62.2,105.8l49,117.5l-71.1,25.9
	l24.6,137.5l-11.7,36.3h-188c0,0-144,16.9-158.2,19.5c-14.3,2.6-113.6,10.4-113.6,10.4"/>
<path id="Path_2" class="st0" d="M229.9,4.6l177.7,73.9l-18.2,90.8l70,197.1L532,537.1l21.9,38.3v15.4c0,0-24.4,16.9-28.3,13
	s-44.1-41.5-44.1-41.5l1.3,54.4l14.3,59.7l-20.8,58.4l5.1,13.4l-1.2,55.4l-180.7,16.9l-13.9-57.1L5.6,752.9"/>
<g class="st1">
	<path class="st2" d="M22.4,309V171.3c0-19.3-0.6-36.2-1.9-50.5c-1.3-14.4-2.6-23.9-4-28.5l-2.1-7.2h58.3l67.3,210.5l67.3-210.5
		h50.4V309h-50.4V111l-63.1,198h-8.3L72.8,111v198H22.4z"/>
</g>
<g class="st1">
	<path class="st2" d="M233.8,413c0,36.3-22.8,56.1-68.3,59.3l27.3,44.8c3.2,5.3,6.8,9.4,10.7,12.4c3.9,3,9.2,4.5,15.9,4.5l26.6-2.4
		l-4.1,49.3c-12.7,2.8-23.7,4.1-33.1,4.1c-12.4,0-22.6-2.8-30.5-8.5c-7.9-5.6-15.9-15.4-24-29.2L110.7,473H94.8v108h-50V443
		c0-19.1-0.7-35.8-2.1-50.2c-1.4-14.4-2.8-23.9-4.1-28.5l-1.7-7.2h127.6c22.5,0,39.7,4.9,51.6,14.7
		C227.9,381.5,233.8,395.3,233.8,413z M143.4,465.1c12.9,0,22.8-3,29.8-9.1c7-6.1,10.5-14.4,10.5-25c0-17.9-10.8-26.9-32.4-26.9
		H94.8v61.1H143.4z"/>
</g>
<g class="st1">
	<path class="st2" d="M436.6,545H322.8v56.9h99.4v7.9h-99.4v65.2h120.8V722H272.8V584c0-19.1-0.7-35.8-2.1-50
		c-1.4-14.3-2.8-23.8-4.1-28.6l-1.7-7.2h171.8V545z"/>
</g>
</svg>
