<?xml version="1.0" encoding="utf-8"?>
<!-- Generator: Adobe Illustrator 26.0.2, SVG Export Plug-In . SVG Version: 6.00 Build 0)  -->
<svg version="1.1" id="Layer_1" xmlns="http://www.w3.org/2000/svg" xmlns:xlink="http://www.w3.org/1999/xlink" x="0px" y="0px"
	 viewBox="0 0 581.9 825.7" style="enable-background:new 0 0 581.9 825.7;" xml:space="preserve">
<style type="text/css">
	.st0{enable-background:new    ;}
	.st1{fill:#FFFFFF;}
	.st2{fill:none;stroke:#E0007A;stroke-width:10;stroke-miterlimit:10;}
</style>
<g class="st0">
	<path class="st1" d="M14.1,228v-68.2c0-9.6-0.3-17.9-0.9-25.1c-0.6-7.1-1.3-11.8-2-14.1l-1-3.6h28.9l33.3,104.3L105.8,117h25v111
		h-25v-98.2L74.5,228h-4.1l-31.3-98.2V228H14.1z"/>
</g>
<g class="st0">
	<path class="st1" d="M139.8,73.9h43.5v102.6c0,10.9,2.5,19.1,7.4,24.7c4.9,5.6,13.1,8.4,24.5,8.4s19.6-2.8,24.5-8.4
		c4.9-5.6,7.4-13.9,7.4-24.7v-37.8c0-14.5-0.5-27.2-1.6-37.9c-1-10.8-2.1-17.9-3.1-21.4l-1.3-5.4h43.8v102.6
		c0,21.1-6.1,37.8-18.4,50.1c-12.3,12.3-29.4,18.5-51.3,18.5c-21.9,0-39-6.2-51.2-18.5c-12.2-12.3-18.3-29-18.3-50.1v-37.8
		c0-14.5-0.5-27.2-1.4-37.9c-1-10.8-1.9-17.9-3-21.4L139.8,73.9z"/>
</g>
<g class="st0">
	<path class="st1" d="M244.5,429.1c-12.2,0-22-4.1-29.3-12.3c-7.3-8.2-11-20-11-35.5c0-10.3,1.2-20,3.7-29c2.5-9,6.4-19.9,11.7-32.6
		c5.7-13.4,10.1-25.2,13.2-35.5c3.1-10.2,4.8-17.1,5.2-20.5l0.5-5.2h51.1L352.8,426h-40.5l-20.4-54.7l-2.8,0.8
		c-1.4,6.5-2.5,11.4-3.2,14.4c-0.8,3.1-2.4,7.9-4.8,14.3c-2.4,6.5-5,11.4-7.7,14.7c-2.8,3.4-6.7,6.5-11.7,9.3
		C256.6,427.7,250.8,429.1,244.5,429.1z M266.4,292.9c-0.7,1.7-2.3,5.8-4.8,12.3c-2.5,6.5-4.2,10.8-5,13.2
		c-0.9,2.3-2.3,6.2-4.3,11.6c-2,5.4-3.4,9.6-4.1,12.5c-0.8,2.9-1.7,6.5-2.8,10.8c-1.1,4.3-1.9,8.1-2.3,11.5
		c-0.4,3.4-0.6,6.7-0.6,9.9c0,7.7,1.7,13.6,5,17.5c3.4,4,7.9,5.9,13.5,5.9c9.5,0,16.3-5.5,20.5-16.4c4.2-10.9,4.3-23.5,0.4-37.8
		L266.4,292.9z"/>
</g>
<g class="st0">
	<path class="st1" d="M357.1,427c1.9-11.2,2.8-33.8,2.8-67.6v-55.9h-15.5v-6H381l0.5-3.1c-5.4-1-9.8-2-13.2-3
		c-3.5-0.9-7.3-2.3-11.4-4.1c-4.1-1.8-7.3-4.3-9.3-7.5c-2.1-3.2-3.1-6.9-3.1-11.3c0-7.4,3.8-13.9,11.3-19.3
		c7.5-5.4,18.3-8.2,32.5-8.2c28,0,47.1,9.8,57.5,29.3l-33.9,15.3c-0.3-1.2-1-2.5-1.8-4c-0.9-1.5-2.7-3.1-5.6-5
		c-2.8-1.9-6.2-2.8-10-2.8c-8.6,0-13,2.8-13,8.5c0,4.1,2.6,7.5,7.8,10c5.2,2.5,10.4,4,15.5,4.5l7.8,0.8h27.2v6h-42V427H357.1z"/>
</g>
<g class="st0">
	<path class="st1" d="M53.6,554c1.5-8.7,2.2-26.2,2.2-52.5v-43.4H43.8v-4.6h28.3l0.4-2.4c-4.2-0.8-7.6-1.6-10.3-2.3
		c-2.7-0.7-5.6-1.8-8.8-3.2c-3.2-1.4-5.6-3.3-7.2-5.8c-1.6-2.5-2.4-5.4-2.4-8.7c0-5.8,2.9-10.8,8.7-15c5.8-4.2,14.2-6.3,25.2-6.3
		c21.7,0,36.6,7.6,44.6,22.7l-26.3,11.9c-0.3-0.9-0.7-2-1.4-3.1c-0.7-1.1-2.1-2.4-4.3-3.9c-2.2-1.5-4.8-2.2-7.7-2.2
		c-6.7,0-10,2.2-10,6.6c0,3.2,2,5.8,6,7.7c4,1.9,8,3.1,12.1,3.5l6,0.6h21.1v4.6H85.2V554H53.6z"/>
</g>
<g class="st0">
	<path class="st1" d="M107.5,526.5c0-20.3,6.5-36.6,19.6-48.9c13.1-12.3,29.8-18.4,50.3-18.4c17.9,0,32.2,3.4,43.1,10.3
		c10.8,6.9,16.3,15.6,16.3,26.1c0,16.5-13.5,25.9-40.5,28.1l0.3,2.8h38.2v5.9h-88.5c1.5,18.1,11.6,27.1,30.2,27.1
		c12.7,0,21.9-5.7,27.6-17l33.5,14.4c-4,9.5-10.8,18-20.5,25.7c-9.7,7.7-23.3,11.5-40.6,11.5c-20.8-0.2-37.5-6.4-50.1-18.6
		C113.7,563.3,107.5,547,107.5,526.5z M199,507.7c0-4.1-1.9-7.6-5.7-10.3c-3.8-2.7-9.1-4.1-16-4.1c-9.5,0-17.1,2.9-23,8.8
		c-5.8,5.8-8.8,14-8.8,24.5h16.8c11.7,0,20.7-1.8,27.1-5.4C195.9,517.5,199,513,199,507.7z"/>
</g>
<g class="st0">
	<path class="st1" d="M262.1,573v-57c0-1.9,0-4.7,0-8.5c0-15.4-0.3-26-0.9-32c-0.6-6-2.8-10.8-6.6-14.6c-3.8-3.8-9.9-5-18.4-3.6
		l-0.3-4.9l63.7-8.8v54.9l3.1,1c1.6-8.5,3.4-16,5.4-22.5c2.1-6.6,4.8-12.7,8.3-18.5c3.5-5.8,7.9-10.2,13.2-13.3
		c5.3-3.1,11.5-4.7,18.4-4.7c11,0,20,5.1,26.8,15.2c6.8,10.1,9.5,25.4,8.2,46l-38.1,7c2.1-23.5-2.5-35.2-13.7-35.2
		c-5.4,0-10.1,3-14.1,9.1c-4.1,6-7.2,13.2-9.3,21.5c-2.2,8.3-3.9,17.6-5.2,27.8c-1.3,10.3-2.1,18.6-2.5,25
		c-0.3,6.4-0.5,11.8-0.5,16.3H262.1z"/>
</g>
<g class="st0">
	<path class="st1" d="M37.7,673.7v-47H2.3v-24.2h96.3v24.2H63.5V718H33.6C36.4,710.5,37.7,695.8,37.7,673.7z"/>
</g>
<g class="st0">
	<path class="st1" d="M179.3,635v57.3c0,2.7,0.5,4.7,1.5,6c1,1.2,2.9,1.9,5.8,1.9l8.4-1.2l-2.1,25.1c-5.5,1.4-11.3,2.1-17.6,2.1
		c-14.5,0-21.7-7.3-21.7-21.9v-22.6l-2.1-0.5c-1.3,6.3-2.8,11.9-4.4,16.7c-1.7,4.9-3.9,9.6-6.6,14.1c-2.7,4.5-6.1,8-10.2,10.5
		c-4.1,2.5-8.8,3.7-14,3.7c-15.1,0-22.6-9.3-22.6-27.8c0-2.8,0.3-7.7,1-14.7c0.7-6.9,1-12,1-15c0-3.3-0.5-5.8-1.5-7.4
		c-1-1.6-2.9-2.4-5.6-2.4l-8.4,1.2l2-25.1c5.3-1.4,11.6-2.1,18.7-2.1c6.8,0,11.9,2,15.4,6.1c3.5,4.1,5.3,9.8,5.3,17.2
		c0,4.2-0.3,9.7-1,16.7c-0.7,7-1,12.3-1,16c0,8.9,3,13.4,8.9,13.4c5.1,0,9.5-2.9,13.2-8.8c3.7-5.9,6.3-13.1,7.9-21.7
		c1.6-8.6,2.7-15.9,3.3-22c0.6-6.1,0.9-11,0.9-14.8H179.3z"/>
</g>
<g class="st0">
	<path class="st1" d="M355.8,584.7c-5.6,0-10,2-13.3,6.1c-3.3,4-5,9.6-5,16.7s1.7,12.7,5,16.6c3.3,4,7.8,6,13.3,6
		c3,0,5.6-0.5,7.9-1.4c2.3-0.9,4.1-2.1,5.2-3.6c1.2-1.4,2-2.6,2.5-3.6c0.5-0.9,0.8-1.7,1.1-2.3l23.3,10.5c-3,6.5-7.6,12.2-14,17.1
		c-6.3,4.9-15,7.3-25.9,7.3c-13.2,0-23.9-4.3-32.1-12.9c-8.2-8.6-12.4-19.8-12.4-33.7s4.1-25.1,12.4-33.6c8.2-8.5,19-12.8,32.1-12.8
		c10.9,0,19.5,2.4,25.9,7.2c6.3,4.8,11,10.4,14,16.8l-23.3,10.7c-0.2-0.6-0.6-1.4-1.1-2.3c-0.5-0.9-1.3-2.2-2.5-3.6
		c-1.2-1.5-2.9-2.7-5.2-3.6C361.4,585.2,358.7,584.7,355.8,584.7z"/>
</g>
<g class="st0">
	<path class="st1" d="M312.5,710.5c0-14,4.5-25.2,13.5-33.7c9-8.5,20.6-12.7,34.7-12.7c12.3,0,22.2,2.4,29.7,7.1
		c7.5,4.7,11.2,10.7,11.2,18c0,11.4-9.3,17.9-27.9,19.4l0.2,2h26.3v4.1h-61.1c1.1,12.5,8,18.7,20.8,18.7c8.8,0,15.1-3.9,19-11.7
		l23.1,10c-2.7,6.5-7.4,12.4-14.2,17.7c-6.7,5.3-16.1,7.9-28,7.9c-14.4-0.1-25.9-4.4-34.5-12.8C316.8,735.9,312.5,724.6,312.5,710.5
		z M375.6,697.5c0-2.8-1.3-5.2-3.9-7.1c-2.6-1.9-6.3-2.8-11-2.8c-6.5,0-11.8,2-15.8,6.1c-4,4-6.1,9.7-6.1,16.9h11.6
		c8.1,0,14.3-1.2,18.7-3.7C373.4,704.3,375.6,701.2,375.6,697.5z"/>
</g>
<g class="st0">
	<path class="st1" d="M409,751v-39.2c0-1.3,0-3.3,0-5.9c0-10.6-0.2-17.9-0.6-22c-0.4-4.1-1.9-7.4-4.5-10.1
		c-2.6-2.6-6.8-3.4-12.6-2.5l-0.2-3.4l43.8-6.1v37.7l2.1,0.7c1.1-5.8,2.3-11,3.7-15.5c1.4-4.5,3.3-8.8,5.7-12.7c2.4-4,5.4-7,9.1-9.2
		c3.7-2.1,7.9-3.2,12.6-3.2c7.6,0,13.7,3.5,18.4,10.4c4.7,6.9,6.6,17.5,5.6,31.6l-26.2,4.8c1.4-16.1-1.7-24.2-9.4-24.2
		c-3.7,0-6.9,2.1-9.7,6.2c-2.8,4.2-4.9,9.1-6.4,14.8c-1.5,5.7-2.7,12.1-3.6,19.1c-0.9,7.1-1.5,12.8-1.7,17.2
		c-0.2,4.4-0.4,8.1-0.4,11.2H409z"/>
</g>
<g class="st0">
	<path class="st1" d="M205.6,724v-71c0-10-0.3-18.7-1-26.1c-0.7-7.4-1.3-12.3-2-14.7l-0.9-3.7h30.1l46.1,105.2v-60.9
		c0-9.8-0.4-18.5-1.1-25.9c-0.7-7.4-1.4-12.3-2-14.7l-1.1-3.7h29.9V724h-26l-46.1-105.2V724H205.6z"/>
</g>
<g class="st0">
	<path class="st1" d="M193.3,355.4V393H91.5v-37.6l40.7-24.3h-31.9v-6h39.4l40.9-24.1H94.4v-37.6h98.9v37.6l-40.9,24.1h35v6h-42.2
		l-40.9,24.3H193.3z"/>
</g>
<path id="Path_1" class="st2" d="M156.8,15.1l150,53.2l51-26.6l61,90.1l22,124.5l18.2,35l-9.1,67.2l62.2,105.8l49,117.5l-71.1,25.9
	l24.6,137.5l-11.7,36.3h-188c0,0-144,16.9-158.2,19.5c-14.3,2.6-113.6,10.4-113.6,10.4"/>
<path id="Path_2" class="st2" d="M252.9,4.6l177.7,73.9l-18.2,90.8l70,197.1L555,537.1l21.9,38.3v15.4c0,0-24.4,16.9-28.3,13
	s-44.1-41.5-44.1-41.5l1.3,54.4l14.3,59.7l-20.8,58.4l5.1,13.4l-1.2,55.4l-180.7,16.9l-13.9-57.1L28.6,752.9"/>
</svg>
