<?xml version="1.0" encoding="utf-8"?>
<!-- Generator: Adobe Illustrator 26.0.2, SVG Export Plug-In . SVG Version: 6.00 Build 0)  -->
<svg version="1.1" id="Layer_1" xmlns="http://www.w3.org/2000/svg" xmlns:xlink="http://www.w3.org/1999/xlink" x="0px" y="0px"
	 viewBox="0 0 616.9 825.7" style="enable-background:new 0 0 616.9 825.7;" xml:space="preserve">
<style type="text/css">
	.st0{fill:none;stroke:#E0007A;stroke-width:10;stroke-miterlimit:10;}
	.st1{enable-background:new    ;}
	.st2{fill:#FFFFFF;}
</style>
<path id="Path_1" class="st0" d="M191.8,15.1l150,53.2l51-26.6l61,90.1l22,124.5l18.2,35l-9.1,67.2l62.2,105.8l49,117.5l-71.1,25.9
	l24.6,137.5l-11.7,36.3h-188c0,0-144,16.9-158.2,19.5S78.3,811.4,78.3,811.4"/>
<path id="Path_2" class="st0" d="M287.9,4.6l177.7,73.9l-18.2,90.8l70,197.1L590,537.1l21.9,38.3v15.4c0,0-24.4,16.9-28.3,13
	s-44.1-41.5-44.1-41.5l1.3,54.4l14.3,59.7l-20.8,58.4l5.1,13.4l-1.2,55.4l-180.7,16.9l-13.9-57.1L63.6,752.9"/>
<g class="st1">
	<path class="st2" d="M109,144.4l-0.7,2.1c8.2,3.5,14.7,8.6,19.4,15.1c4.7,6.6,7.1,14.4,7.1,23.7c0,13-4.4,23.7-13.2,32.1
		c-8.8,8.4-19.8,12.7-33,12.7c-13.3,0-24.4-4.2-33.2-12.7c-8.8-8.4-13.2-19.2-13.2-32.1s4.4-23.7,13.2-32.1
		c8.8-8.4,19.8-12.7,33.2-12.7h36.8v3.9H109z M72,202.3c4.3,4.6,9.9,6.8,16.6,6.8c6.7,0,12.3-2.3,16.6-6.8
		c4.3-4.6,6.5-10.3,6.5-17.1s-2.2-12.5-6.5-17.1c-4.3-4.6-9.9-6.8-16.6-6.8c-6.7,0-12.3,2.3-16.6,6.8c-4.3,4.6-6.5,10.3-6.5,17.1
		S67.7,197.8,72,202.3z"/>
</g>
<g class="st1">
	<path class="st2" d="M284,105.9c0,27.3-17.1,42.1-51.3,44.5l20.5,33.7c2.4,4,5.1,7.1,8,9.3c2.9,2.2,6.9,3.4,11.9,3.4l19.9-1.8
		l-3.1,37c-9.5,2.1-17.8,3.1-24.9,3.1c-9.3,0-17-2.1-22.9-6.3c-6-4.2-12-11.5-18-21.9l-32.6-55.9h-11.9V232h-37.6V128.4
		c0-14.3-0.5-26.9-1.6-37.7c-1-10.8-2.1-17.9-3.1-21.4l-1.3-5.4H232c16.9,0,29.8,3.7,38.7,11C279.6,82.3,284,92.6,284,105.9z
		 M216.2,145c9.7,0,17.1-2.3,22.4-6.9c5.3-4.6,7.9-10.8,7.9-18.8c0-13.5-8.1-20.2-24.3-20.2h-42.5V145H216.2z"/>
</g>
<g class="st1">
	<path class="st2" d="M351.6,172.5v83.4c0,4,0.7,6.9,2.2,8.7c1.5,1.8,4.3,2.7,8.4,2.7l11.9-1.8l-2.8,36.5
		c-7.9,2.1-16.5,3.1-25.6,3.1c-21.1,0-31.6-10.6-31.6-31.9V245c0-23.8-0.5-38.3-1.6-43.5c-1.9-9.3-6.6-14.5-14-15.5
		c-3.1-0.5-7-0.4-11.7,0.3l-0.5-4.9L351.6,172.5z M351.1,134.2l0.5,5.7l-40.7,2.8l-0.3-6L351.1,134.2z"/>
</g>
<g class="st1">
	<path class="st2" d="M202.3,282.4l-1.6,4.8c19,8.2,34,19.9,44.9,35c11,15.2,16.4,33.5,16.4,54.8c0,30.1-10.2,54.9-30.5,74.4
		c-20.3,19.5-45.8,29.3-76.4,29.3c-30.9,0-56.5-9.8-76.8-29.3c-20.3-19.5-30.5-44.4-30.5-74.4s10.2-54.9,30.5-74.4
		c20.3-19.5,45.9-29.3,76.8-29.3h85.1v9.1H202.3z M116.8,416.6c10,10.6,22.8,15.8,38.4,15.8c15.6,0,28.4-5.3,38.4-15.8
		c10-10.6,15-23.8,15-39.6s-5-29-15-39.6c-10-10.6-22.8-15.8-38.4-15.8c-15.6,0-28.4,5.3-38.4,15.8c-10,10.6-15,23.8-15,39.6
		S106.8,406,116.8,416.6z"/>
</g>
<g class="st1">
	<path class="st2" d="M105.8,518.3l-1,3.1c12.2,5.3,21.9,12.8,28.9,22.6c7.1,9.8,10.6,21.5,10.6,35.3c0,19.4-6.5,35.4-19.6,47.9
		c-13.1,12.6-29.5,18.9-49.2,18.9c-19.9,0-36.4-6.3-49.5-18.9c-13.1-12.6-19.6-28.6-19.6-47.9s6.5-35.4,19.6-47.9
		c13.1-12.6,29.6-18.9,49.5-18.9h54.8v5.9H105.8z M50.7,604.8c6.5,6.8,14.7,10.2,24.7,10.2c10,0,18.3-3.4,24.7-10.2
		c6.5-6.8,9.7-15.3,9.7-25.5s-3.2-18.7-9.7-25.5c-6.5-6.8-14.7-10.2-24.7-10.2c-10,0-18.3,3.4-24.7,10.2c-6.5,6.8-9.7,15.3-9.7,25.5
		S44.3,598,50.7,604.8z"/>
</g>
<g class="st1">
	<path class="st2" d="M206.6,609.5l-0.3,60.7l3.1,0.8c2.4-11.7,5.6-22.1,9.7-31.2c4.1-9.1,9.9-16.9,17.6-23.5
		c7.6-6.5,16.5-9.8,26.5-9.8c22.1,0,33.1,13.4,33.1,40.3c0,3.9-0.5,10.8-1.5,20.5c-1,9.8-1.5,17-1.5,21.5c0,4.8,0.7,8.3,2.2,10.6
		c1.4,2.3,4.2,3.4,8.3,3.4l12-1.8l-3.1,36c-7.6,2-16.6,3.1-26.8,3.1c-9.7,0-17-3-22.1-8.9c-5-5.9-7.5-14.1-7.5-24.5
		c0-5.9,0.5-13.9,1.5-23.7c1-9.9,1.5-17.3,1.5-22.4c0-7-1.1-12-3.3-15.2c-2.2-3.1-5.7-4.7-10.5-4.7c-6.5,0-12.2,2.9-17.2,8.8
		c-5,5.9-8.8,12.8-11.5,20.9c-2.6,8.1-4.8,17-6.5,26.9c-1.7,9.9-2.8,17.9-3.2,24.2c-0.4,6.3-0.6,11.5-0.6,15.6h-37.2v-56.1
		c0-1.7,0-4.1,0-7.1c0-11.9-0.2-20.4-0.5-25.4c-0.3-5-1.4-10.2-3.2-15.4c-1.8-5.3-4.8-8.5-9.1-9.7c-4.3-1.2-10.2-1.3-17.9-0.3
		l-0.3-4.8L206.6,609.5z"/>
</g>
<g class="st1">
	<path class="st2" d="M424.1,549.5v82.1c0,3.9,0.7,6.8,2.2,8.5c1.4,1.8,4.2,2.7,8.3,2.7l12-1.8l-3.1,36c-7.8,2-16.2,3.1-25.2,3.1
		c-20.7,0-31.1-10.5-31.1-31.4v-32.4l-3.1-0.8c-1.9,9-4,17-6.4,24c-2.4,7-5.5,13.7-9.4,20.1c-3.9,6.5-8.8,11.5-14.7,15
		s-12.5,5.4-20,5.4c-21.6,0-32.4-13.3-32.4-39.8c0-4.1,0.5-11.1,1.4-21c0.9-9.9,1.4-17.1,1.4-21.5c0-4.8-0.7-8.3-2.2-10.6
		c-1.4-2.3-4.1-3.4-8-3.4l-12,1.8l2.8-36c7.6-2,16.6-3.1,26.8-3.1c9.7,0,17,2.9,22.1,8.8c5,5.9,7.5,14.1,7.5,24.6
		c0,6-0.5,13.9-1.4,24c-0.9,10-1.4,17.7-1.4,22.9c0,12.8,4.2,19.1,12.8,19.1c7.3,0,13.6-4.2,18.9-12.6c5.3-8.4,9.1-18.8,11.3-31.1
		c2.3-12.3,3.9-22.8,4.7-31.5c0.8-8.7,1.3-15.7,1.3-21.2H424.1z"/>
</g>
<g class="st1">
	<path class="st2" d="M500.9,504.9v180.4c0,5.2,1,9,3.1,11.4c2,2.4,5.7,3.6,10.9,3.6l16-2.4l-4.1,48.1c-10.2,2.7-21.4,4.1-33.4,4.1
		c-28,0-41.9-14-41.9-41.9V600.7c0-2.3,0-5.5,0-9.5c0-6.8,0-11.8,0-14.8s-0.1-7.2-0.2-12.4c-0.1-5.2-0.3-9-0.7-11.4s-0.9-5.4-1.5-9
		c-0.7-3.6-1.5-6.2-2.6-7.8c-1-1.6-2.3-3.5-3.8-5.6c-1.5-2.2-3.2-3.6-5.3-4.3c-2-0.7-4.4-1.4-7-2.2c-2.6-0.8-5.6-1.2-8.9-1.2
		c-3.3,0-7,0.3-11.1,1l-0.3-6.5L500.9,504.9z"/>
</g>
<g class="st1">
	<path class="st2" d="M271.1,496V392.4c0-14.3-0.5-26.9-1.6-37.7c-1-10.8-2.1-17.9-3.1-21.4l-1.3-5.4h126.1v35.2h-82.6v48.7h71.7v6
		h-71.7V496H271.1z"/>
</g>
</svg>
