<?xml version="1.0" encoding="utf-8"?>
<!-- Generator: Adobe Illustrator 26.0.2, SVG Export Plug-In . SVG Version: 6.00 Build 0)  -->
<svg version="1.1" id="Layer_1" xmlns="http://www.w3.org/2000/svg" xmlns:xlink="http://www.w3.org/1999/xlink" x="0px" y="0px"
	 viewBox="0 0 595.9 896.7" style="enable-background:new 0 0 595.9 896.7;" xml:space="preserve">
<style type="text/css">
	.st0{fill:none;stroke:#E0007A;stroke-width:10;stroke-miterlimit:10;}
	.st1{enable-background:new    ;}
	.st2{fill:#FFFFFF;}
</style>
<path id="Path_1" class="st0" d="M170.8,86.1l150,53.2l51-26.6l61,90.1l22,124.5l18.2,35l-9.1,67.2l62.2,105.8l49,117.5l-71.1,25.9
	l24.6,137.5l-11.7,36.3h-188c0,0-144,16.9-158.2,19.5S57.3,882.4,57.3,882.4"/>
<path id="Path_2" class="st0" d="M266.9,75.6l177.7,73.9l-18.2,90.8l70,197.1L569,608.1l21.9,38.3v15.4c0,0-24.4,16.9-28.3,13
	s-44.1-41.5-44.1-41.5l1.3,54.4l14.3,59.7l-20.8,58.4l5.1,13.4l-1.2,55.4l-180.7,16.9l-13.9-57.1L42.6,823.9"/>
<g class="st1">
	<path class="st2" d="M327.3,297.4V335H225.5v-37.6l40.7-24.3h-31.9v-6h39.4l40.9-24.1h-86.2v-37.6h98.9v37.6l-40.9,24.1h35v6h-42.2
		l-40.9,24.3H327.3z"/>
</g>
<g class="st1">
	<path class="st2" d="M164.3,143.4l-1.6,4.8c19,8.2,34,19.9,44.9,35c11,15.2,16.4,33.5,16.4,54.8c0,30.1-10.2,54.9-30.5,74.4
		c-20.3,19.5-45.8,29.3-76.4,29.3c-30.9,0-56.5-9.8-76.8-29.3C20.1,292.9,9.9,268.1,9.9,238s10.2-54.9,30.5-74.4
		c20.3-19.5,45.9-29.3,76.8-29.3h85.1v9.1H164.3z M78.8,277.6c10,10.6,22.8,15.8,38.4,15.8c15.6,0,28.4-5.3,38.4-15.8
		c10-10.6,15-23.8,15-39.6s-5-29-15-39.6c-10-10.6-22.8-15.8-38.4-15.8c-15.6,0-28.4,5.3-38.4,15.8c-10,10.6-15,23.8-15,39.6
		S68.8,267,78.8,277.6z"/>
</g>
<g class="st1">
	<path class="st2" d="M170.9,638.6c0-9,3.6-16.2,10.9-21.7c7.3-5.5,17.3-8.3,30.1-8.3h20.4c0-12.9-4.8-19.4-14.4-19.4
		c-8.1,0-13.9,3.6-17.5,10.8l-25-10.2c3.2-6.5,8.4-12.5,15.6-18c7.2-5.4,16.5-8.2,27.7-8.2c27.5,0,41.3,15.3,41.3,45.9v18.2
		c0,2.9,0.5,5.1,1.6,6.4c1.1,1.3,3.2,2,6.2,2l9-1.3l-2.3,27.1c-5.9,1.5-12.2,2.3-19,2.3c-15.6,0-23.4-7.9-23.4-23.6v-11.5L230,629
		c-0.6,3.1-1.3,5.8-2,8.2c-0.7,2.4-1.9,5.4-3.6,9c-1.7,3.6-3.7,6.7-5.9,9.1c-2.2,2.4-5.2,4.5-8.9,6.3c-3.8,1.8-8,2.7-12.6,2.7
		c-8.2,0-14.6-2.4-19.2-7.3C173.2,652.1,170.9,646,170.9,638.6z M231.9,613h-7.9c-16.9,0-25.3,5.1-25.3,15.2c0,3.2,1,5.7,2.9,7.5
		c1.9,1.8,4.5,2.7,7.7,2.7c6.7,0,11.8-2.6,15.4-7.7C228.2,625.6,230.6,619.7,231.9,613z"/>
</g>
<g class="st1">
	<path class="st2" d="M293.2,791.6c0-5.9,2.4-10.6,7.2-14.2c4.8-3.6,11.4-5.4,19.8-5.4h13.4c0-8.5-3.2-12.7-9.5-12.7
		c-5.3,0-9.1,2.4-11.5,7.1l-16.4-6.7c2.1-4.3,5.5-8.2,10.3-11.8c4.7-3.6,10.8-5.4,18.2-5.4c18.1,0,27.1,10,27.1,30.1v12
		c0,1.9,0.4,3.3,1.1,4.2c0.7,0.9,2.1,1.3,4.1,1.3l5.9-0.9l-1.5,17.8c-3.9,1-8,1.5-12.5,1.5c-10.2,0-15.4-5.2-15.4-15.5v-7.6
		l-1.5-0.1c-0.4,2-0.9,3.8-1.3,5.4c-0.5,1.6-1.3,3.5-2.4,5.9c-1.1,2.4-2.4,4.4-3.8,6c-1.4,1.6-3.4,3-5.9,4.2
		c-2.5,1.2-5.2,1.8-8.3,1.8c-5.4,0-9.6-1.6-12.6-4.8C294.7,800.5,293.2,796.5,293.2,791.6z M333.2,774.9h-5.2
		c-11.1,0-16.6,3.3-16.6,10c0,2.1,0.6,3.7,1.9,4.9c1.3,1.2,2.9,1.8,5,1.8c4.4,0,7.7-1.7,10.1-5C330.8,783.1,332.4,779.2,333.2,774.9
		z"/>
</g>
<g class="st1">
	<path class="st2" d="M394.8,720.5c0-1.9,0.4-4,1.1-6.2c0.7-2.2,1.8-4.6,3.2-7.1c1.4-2.5,3.6-4.5,6.5-6.2c2.9-1.7,6.2-2.5,10-2.5
		c5.3,0,9.6,1.3,12.9,4c3.3,2.7,5.5,6,6.5,10.2c1,4.1,1.3,8.5,0.9,13.2c-0.4,4.7-1.4,9.2-3.1,13.7l-25,66.4
		c-1.4,3.9-2.5,6.7-3.3,8.3c-0.8,1.7-2,3.7-3.8,6.3c-1.8,2.5-4,4.3-6.6,5.4c-2.7,1.1-5.8,1.6-9.5,1.6c-2.1,0-4.3-0.2-6.6-0.5
		c-2.3-0.4-4-0.6-5.2-0.9l-1.8-0.5l-2.1-25.8c5.3,1.4,11.4,2.1,18.2,2.1c11.9,0,19.2-3.5,21.9-10.6l0.9-2.3h-18.6l-16.1-42.3
		c-3.8-9.8-7.5-18.5-11.1-26.2c-3.6-7.7-6.2-12.9-7.9-15.8l-2.7-4.2H385l7.8,20.5L394.8,720.5z M428.8,738c1.4-3.8,2.4-7.6,2.8-11.6
		c0.5-4,0.4-7.8-0.3-11.4c-0.7-3.7-2.3-6.7-5-9c-2.7-2.4-6.3-3.5-10.8-3.5c-4.7,0-8.5,1.4-11.3,4.2c-2.8,2.8-4.6,6.3-5.4,10.4
		c-0.8,4.2-1,8.4-0.7,12.7c0.3,4.3,1.1,8.2,2.4,11.8l13.3,36.5L428.8,738z"/>
</g>
<g class="st1">
	<path class="st2" d="M313.9,590.4h4.4V618H351v4.4h-32.6v51.5c0,5.8,1.2,9.6,3.5,11.5c2.3,1.9,6,2.9,11.1,2.9
		c2.9,0,6.1-0.4,9.5-1.2c3.4-0.8,6-1.5,8-2.3l2.7-1l-4.4,27.8c-6.8,3.1-15.1,4.6-25,4.6c-22.1,0-33.2-11.2-33.2-33.6v-60.3h-10.9
		V618L313.9,590.4z"/>
</g>
<g class="st1">
	<path class="st2" d="M390.3,682.3c-9.1,0-16.4-3-21.8-9.1c-5.4-6.1-8.2-14.9-8.2-26.4c0-7.7,0.9-14.9,2.8-21.6
		c1.9-6.7,4.8-14.8,8.7-24.3c4.2-10,7.5-18.8,9.8-26.4c2.3-7.6,3.6-12.7,3.8-15.3l0.4-3.8h38L471,680h-30.1l-15.2-40.7l-2.1,0.6
		c-1,4.9-1.8,8.4-2.4,10.8s-1.8,5.9-3.6,10.7c-1.8,4.8-3.7,8.4-5.8,10.9c-2,2.5-5,4.8-8.7,6.9C399.3,681.2,395.1,682.3,390.3,682.3z
		 M406.6,580.9c-0.5,1.3-1.7,4.3-3.6,9.1c-1.9,4.8-3.1,8.1-3.7,9.8c-0.6,1.7-1.7,4.6-3.2,8.6c-1.5,4-2.5,7.1-3.1,9.3
		c-0.6,2.2-1.3,4.9-2.1,8.1c-0.8,3.2-1.4,6-1.7,8.5c-0.3,2.5-0.5,5-0.5,7.4c0,5.8,1.2,10.1,3.7,13.1c2.5,2.9,5.9,4.4,10.1,4.4
		c7,0,12.1-4.1,15.3-12.2c3.1-8.1,3.2-17.5,0.3-28.1L406.6,580.9z"/>
</g>
<g class="st1">
	<path class="st2" d="M271.7,708.7v78.8c0,2.3,0.4,3.9,1.3,5s2.5,1.6,4.8,1.6l7-1l-1.8,21c-4.5,1.2-9.3,1.8-14.6,1.8
		c-12.2,0-18.3-6.1-18.3-18.3v-46.9c0-1,0-2.4,0-4.2c0-3,0-5.1,0-6.5c0-1.3,0-3.2-0.1-5.4c-0.1-2.3-0.1-3.9-0.3-5s-0.4-2.4-0.7-3.9
		c-0.3-1.6-0.7-2.7-1.1-3.4c-0.4-0.7-1-1.5-1.6-2.5c-0.6-0.9-1.4-1.6-2.3-1.9s-1.9-0.6-3.1-1c-1.1-0.3-2.4-0.5-3.9-0.5
		c-1.4,0-3.1,0.1-4.8,0.4l-0.1-2.8L271.7,708.7z"/>
</g>
<g class="st1">
	<path class="st2" d="M103.1,484c0-14.9,6.1-27,18.2-36.2c12.2-9.2,28.9-13.8,50.2-13.8h33.9c0-21.5-8-32.3-24-32.3
		c-13.4,0-23.1,6-29.1,17.9l-41.6-17c5.3-10.9,14-20.8,26.1-29.9c12.1-9.1,27.5-13.6,46.2-13.6c45.9,0,68.8,25.5,68.8,76.5V466
		c0,4.9,0.9,8.5,2.7,10.7c1.8,2.2,5.3,3.4,10.4,3.4l15-2.2l-3.8,45.1c-9.8,2.6-20.4,3.8-31.7,3.8c-26,0-39-13.1-39-39.4v-19.2
		l-3.8-0.3c-1.1,5.1-2.2,9.7-3.4,13.6c-1.2,4-3.2,9-6.1,15c-2.9,6.1-6.1,11.2-9.8,15.2c-3.6,4.1-8.6,7.6-14.9,10.6
		c-6.3,3-13.3,4.5-21,4.5c-13.7,0-24.3-4-32-12.2C107,506.6,103.1,496.3,103.1,484z M204.9,441.4h-13.1c-28.2,0-42.2,8.4-42.2,25.3
		c0,5.3,1.6,9.5,4.8,12.5c3.2,3,7.5,4.5,12.8,4.5c11.1,0,19.6-4.3,25.6-12.8C198.7,462.3,202.7,452.5,204.9,441.4z"/>
</g>
<g class="st1">
	<path class="st2" d="M339,363l-0.3,76.2l3.8,1c3-14.7,7-27.8,12.2-39.2c5.1-11.4,12.5-21.2,22.1-29.4c9.6-8.2,20.7-12.3,33.3-12.3
		c27.7,0,41.6,16.9,41.6,50.6c0,4.9-0.6,13.5-1.9,25.8c-1.3,12.3-1.9,21.3-1.9,27c0,6,0.9,10.4,2.7,13.3c1.8,2.9,5.3,4.3,10.4,4.3
		l15-2.2l-3.8,45.1c-9.6,2.6-20.8,3.8-33.6,3.8c-12.2,0-21.4-3.7-27.7-11.2c-6.3-7.5-9.4-17.7-9.4-30.7c0-7.5,0.6-17.4,1.9-29.8
		c1.3-12.4,1.9-21.8,1.9-28.2c0-8.7-1.4-15.1-4.2-19c-2.8-3.9-7.1-5.9-13.1-5.9c-8.1,0-15.3,3.7-21.6,11
		c-6.3,7.4-11.1,16.1-14.4,26.2c-3.3,10.1-6,21.4-8.2,33.8c-2.1,12.4-3.5,22.5-4,30.4c-0.5,7.9-0.8,14.4-0.8,19.5h-46.7v-70.4
		c0-2.1,0-5.1,0-9c0-14.9-0.2-25.5-0.6-31.8c-0.4-6.3-1.8-12.7-4-19.4c-2.2-6.6-6-10.7-11.4-12.2c-5.3-1.5-12.8-1.6-22.4-0.3
		l-0.3-6.1L339,363z"/>
</g>
</svg>
