<?xml version="1.0" encoding="utf-8"?>
<!-- Generator: Adobe Illustrator 26.0.2, SVG Export Plug-In . SVG Version: 6.00 Build 0)  -->
<svg version="1.1" id="Layer_1" xmlns="http://www.w3.org/2000/svg" xmlns:xlink="http://www.w3.org/1999/xlink" x="0px" y="0px"
	 viewBox="0 0 602.9 851.7" style="enable-background:new 0 0 602.9 851.7;" xml:space="preserve">
<style type="text/css">
	.st0{fill:none;stroke:#E0007A;stroke-width:10;stroke-miterlimit:10;}
	.st1{enable-background:new    ;}
	.st2{fill:#FFFFFF;}
</style>
<path id="Path_1" class="st0" d="M177.8,41.1l150,53.2l51-26.6l61,90.1l22,124.5l18.2,35l-9.1,67.2l62.2,105.8l49,117.5l-71.1,25.9
	l24.6,137.5l-11.7,36.3h-188c0,0-144,16.9-158.2,19.5c-14.3,2.6-113.6,10.4-113.6,10.4"/>
<path id="Path_2" class="st0" d="M273.9,30.6l177.7,73.9l-18.2,90.8l70,197.1L576,563.1l21.9,38.3v15.4c0,0-24.4,16.9-28.3,13
	s-44.1-41.5-44.1-41.5l1.3,54.4l14.3,59.7l-20.8,58.4l5.1,13.4l-1.2,55.4l-180.7,16.9l-13.9-57.1L49.6,778.9"/>
<g class="st1">
	<path class="st2" d="M159.5,211.9v115.3l2.8,0.8c1.9-8.8,4.3-16.9,7.1-24.2c2.8-7.3,6.4-14.2,10.7-20.7c4.3-6.5,9.6-11.5,15.9-15.2
		c6.3-3.6,13.3-5.4,21.1-5.4c22.3,0,33.4,13.6,33.4,40.9c0,4-0.5,10.9-1.4,20.8c-1,9.9-1.4,17.2-1.4,21.9c0,4.8,0.7,8.4,2.2,10.7
		c1.5,2.3,4.2,3.5,8.2,3.5l12.2-1.8l-3.1,36.5c-7.8,2.1-16.8,3.1-26.9,3.1c-9.8,0-17.3-3-22.4-8.9c-5.1-6-7.6-14.3-7.6-25
		c0-6,0.5-14.1,1.4-24.1c0.9-10,1.4-17.6,1.4-22.8c0-13.5-4.6-20.2-13.7-20.2c-8.1,0-15.1,4.3-20.8,12.8c-5.8,8.5-9.9,19-12.4,31.3
		c-2.5,12.3-4.2,23-5.2,31.9c-1,8.9-1.4,16.2-1.4,21.9H122V284.7c0-1.7,0-4.1,0-7.3c0-5.2,0-8.9,0-11.3s0-5.5-0.1-9.5
		c-0.1-4-0.3-6.9-0.5-8.7c-0.3-1.8-0.6-4.1-1.2-6.9c-0.5-2.8-1.2-4.7-1.9-6c-0.8-1.2-1.7-2.6-2.8-4.3c-1.1-1.6-2.5-2.7-4-3.2
		c-1.6-0.5-3.3-1.1-5.3-1.7c-2-0.6-4.2-0.9-6.7-0.9c-2.5,0-5.3,0.3-8.4,0.8l-0.5-4.9L159.5,211.9z"/>
</g>
<g class="st1">
	<path class="st2" d="M21.6,279V147.8c0-18.1-0.7-34.1-2-47.7c-1.3-13.7-2.6-22.7-3.9-27.1l-1.6-6.9h114.1c22.7,0,40,5.7,51.8,17.1
		c11.8,11.4,17.7,26.9,17.7,46.6c0,20.3-5.2,36.5-15.7,48.5c-10.5,12-26.6,18-48.2,18c-8.3,0-16.1-1.1-23.3-3.4
		c-7.2-2.3-13.1-5-17.5-8.2c-4.5-3.2-8.3-6.3-11.5-9.5c-3.2-3.2-5.4-6-6.7-8.4l-2-3.3l-3.6,0.7V279H21.6z M69.2,109.1v38
		c0.4,0.7,1,1.6,1.8,2.8c0.8,1.2,2.6,3.3,5.4,6.2c2.8,3,6,5.5,9.5,7.7c3.5,2.2,8.1,4.2,13.8,6.1c5.7,1.9,11.7,2.8,18,2.8
		c11.4,0,20.4-3.1,27.2-9.2c6.8-6.1,10.2-14.6,10.2-25.6c0-19.2-11.3-28.9-33.8-28.9H69.2z"/>
</g>
<g class="st1">
	<path class="st2" d="M345.2,243v103c0,4.9,0.9,8.5,2.7,10.7c1.8,2.2,5.3,3.4,10.4,3.4l14.7-2.2l-3.5,45.1
		c-9.8,2.6-20.4,3.8-31.7,3.8c-26,0-39-13.1-39-39.4v-34.9c0-29.4-0.6-47.4-1.9-53.8c-2.4-11.5-8.1-17.9-17.3-19.2
		c-3.8-0.6-8.6-0.5-14.4,0.3l-0.6-6.1L345.2,243z M344.6,195.6l0.6,7l-50.2,3.5l-0.3-7.4L344.6,195.6z"/>
</g>
<g class="st1">
	<path class="st2" d="M306.5,461.2c0,33.7-21.1,52.1-63.4,55l25.3,41.6c3,4.9,6.3,8.8,9.9,11.5c3.6,2.8,8.5,4.2,14.7,4.2l24.6-2.2
		l-3.8,45.8c-11.7,2.6-22,3.8-30.7,3.8c-11.5,0-21-2.6-28.3-7.8c-7.4-5.2-14.8-14.2-22.2-27l-40.3-69.1h-14.7V617h-46.4V489
		c0-17.7-0.6-33.2-1.9-46.6c-1.3-13.3-2.6-22.1-3.8-26.4l-1.6-6.7h118.4c20.9,0,36.8,4.5,47.8,13.6C301,432,306.5,444.7,306.5,461.2
		z M222.6,509.5c11.9,0,21.2-2.8,27.7-8.5c6.5-5.7,9.8-13.4,9.8-23.2c0-16.6-10-25-30.1-25h-52.5v56.6H222.6z"/>
</g>
<g class="st1">
	<path class="st2" d="M400.3,445.6l-0.9,2.8c11.1,4.8,19.9,11.6,26.3,20.5c6.4,8.9,9.6,19.6,9.6,32.1c0,17.6-6,32.2-17.9,43.6
		c-11.9,11.4-26.8,17.2-44.8,17.2c-18.1,0-33.1-5.7-45-17.2c-11.9-11.4-17.9-26-17.9-43.6s6-32.2,17.9-43.6
		c11.9-11.4,26.9-17.2,45-17.2h49.9v5.3H400.3z M350.2,524.2c5.9,6.2,13.4,9.3,22.5,9.3c9.1,0,16.6-3.1,22.5-9.3
		c5.9-6.2,8.8-13.9,8.8-23.2s-2.9-17-8.8-23.2c-5.9-6.2-13.4-9.3-22.5-9.3c-9.1,0-16.6,3.1-22.5,9.3c-5.9,6.2-8.8,13.9-8.8,23.2
		S344.3,518,350.2,524.2z"/>
</g>
<g class="st1">
	<path class="st2" d="M319.8,725.4V759h-91.2v-33.6l36.4-21.8h-28.5v-5.3h35.3l36.7-21.6h-77.3V643h88.6v33.6l-36.7,21.6h31.3v5.3
		h-37.8L240,725.4H319.8z"/>
</g>
<g class="st1">
	<path class="st2" d="M345.5,730.7c0-10.8,4.4-19.6,13.2-26.2c8.8-6.6,21-10,36.4-10h24.6c0-15.6-5.8-23.4-17.4-23.4
		c-9.7,0-16.8,4.3-21.1,13l-30.2-12.3c3.9-7.9,10.2-15.1,18.9-21.7c8.7-6.6,19.9-9.9,33.5-9.9c33.3,0,49.9,18.5,49.9,55.4v22
		c0,3.6,0.7,6.1,2,7.8c1.3,1.6,3.8,2.4,7.5,2.4l10.9-1.6L471,759c-7.1,1.9-14.8,2.8-23,2.8c-18.9,0-28.3-9.5-28.3-28.5v-13.9
		l-2.8-0.2c-0.8,3.7-1.6,7-2.4,9.9c-0.9,2.9-2.3,6.5-4.4,10.9c-2.1,4.4-4.4,8.1-7.1,11c-2.6,2.9-6.2,5.5-10.8,7.7
		c-4.6,2.2-9.6,3.2-15.2,3.2c-9.9,0-17.6-2.9-23.2-8.8C348.3,747.1,345.5,739.7,345.5,730.7z M419.3,699.8h-9.5
		c-20.4,0-30.6,6.1-30.6,18.3c0,3.9,1.2,6.9,3.5,9c2.3,2.2,5.4,3.2,9.3,3.2c8,0,14.2-3.1,18.6-9.3
		C414.8,715,417.7,707.9,419.3,699.8z"/>
</g>
</svg>
