<?xml version="1.0" encoding="utf-8"?>
<!-- Generator: Adobe Illustrator 26.0.2, SVG Export Plug-In . SVG Version: 6.00 Build 0)  -->
<svg version="1.1" id="Layer_1" xmlns="http://www.w3.org/2000/svg" xmlns:xlink="http://www.w3.org/1999/xlink" x="0px" y="0px"
	 viewBox="0 0 599.9 842.7" style="enable-background:new 0 0 599.9 842.7;" xml:space="preserve">
<style type="text/css">
	.st0{fill:none;stroke:#E0007A;stroke-width:10;stroke-miterlimit:10;}
	.st1{enable-background:new    ;}
	.st2{fill:#FFFFFF;}
</style>
<path id="Path_1" class="st0" d="M174.8,32.1l150,53.2l51-26.6l61,90.1l22,124.5l18.2,35l-9.1,67.2l62.2,105.8l49,117.5l-71.1,25.9
	l24.6,137.5l-11.7,36.3h-188c0,0-144,16.9-158.2,19.5c-14.3,2.6-113.6,10.4-113.6,10.4"/>
<path id="Path_2" class="st0" d="M270.9,21.6l177.7,73.9l-18.2,90.8l70,197.1L573,554.1l21.9,38.3v15.4c0,0-24.4,16.9-28.3,13
	s-44.1-41.5-44.1-41.5l1.3,54.4l14.3,59.7l-20.8,58.4l5.1,13.4l-1.2,55.4l-180.7,16.9l-13.9-57.1L46.6,769.9"/>
<g class="st1">
	<path class="st2" d="M55.5,302.5H23.6v-93.9c0-20.2-0.4-32.6-1.3-37c-1.6-7.9-5.6-12.3-11.9-13.2c-2.6-0.4-5.9-0.4-9.9,0.2
		l-0.2-4.2l55.2-7.5v29.9l2.6,0.7c2.6-8.7,7.5-16.3,14.5-23c7-6.7,16-10,26.8-10c14.2,0,25.4,5.2,33.4,15.6
		c8.1,10.4,12.1,24.3,12.1,41.8c0,17.6-4.9,31.6-14.7,42c-9.8,10.4-22.7,15.6-38.7,15.6c-11.7,0-23.8-3.5-36.1-10.6V302.5z
		 M83.7,230.2c8.9,0,15.8-2.6,20.7-7.9c4.8-5.3,7.3-12,7.3-20.2c0-8.5-2.3-15.3-6.8-20.5c-4.5-5.1-11.6-7.7-21.1-7.7
		c-8.1,0-14.8,2.7-20.1,8.1c-5.4,5.4-8,12.1-8,20s2.7,14.6,8,20C68.9,227.4,75.6,230.2,83.7,230.2z"/>
</g>
<g class="st1">
	<path class="st2" d="M263.7,193.5v78.9c0,3.8,0.7,6.5,2.1,8.2c1.4,1.7,4,2.6,8,2.6l11.3-1.7l-2.7,34.5c-7.5,2-15.6,2.9-24.3,2.9
		c-19.9,0-29.9-10-29.9-30.1v-26.7c0-22.5-0.5-36.3-1.5-41.2c-1.8-8.8-6.2-13.7-13.2-14.7c-2.9-0.5-6.6-0.4-11,0.2l-0.5-4.7
		L263.7,193.5z M263.2,157.2l0.5,5.4l-38.5,2.7l-0.2-5.6L263.2,157.2z"/>
</g>
<g class="st1">
	<path class="st2" d="M334.4,193.5l-0.2,58.3l2.9,0.7c2.3-11.3,5.4-21.3,9.3-30c3.9-8.7,9.6-16.2,16.9-22.5
		c7.4-6.3,15.8-9.4,25.5-9.4c21.2,0,31.9,12.9,31.9,38.7c0,3.8-0.5,10.3-1.5,19.7c-1,9.4-1.5,16.3-1.5,20.7c0,4.6,0.7,8,2.1,10.2
		c1.4,2.2,4,3.3,8,3.3l11.5-1.7l-2.9,34.5c-7.4,2-15.9,2.9-25.7,2.9c-9.3,0-16.4-2.9-21.2-8.6c-4.8-5.7-7.2-13.6-7.2-23.5
		c0-5.7,0.5-13.3,1.5-22.8c1-9.5,1.5-16.7,1.5-21.6c0-6.7-1.1-11.6-3.2-14.6c-2.1-3-5.5-4.5-10-4.5c-6.2,0-11.7,2.8-16.5,8.5
		c-4.8,5.6-8.5,12.3-11,20.1c-2.5,7.8-4.6,16.4-6.2,25.8c-1.6,9.5-2.7,17.2-3.1,23.3c-0.4,6-0.6,11-0.6,14.9h-35.8v-53.9
		c0-1.6,0-3.9,0-6.9c0-11.4-0.2-19.6-0.5-24.4c-0.3-4.8-1.3-9.8-3.1-14.8c-1.7-5.1-4.6-8.2-8.7-9.3c-4.1-1.1-9.8-1.2-17.1-0.2
		l-0.2-4.7L334.4,193.5z"/>
</g>
<g class="st1">
	<path class="st2" d="M104.1,339.4c-7.7,0-13.8,2.8-18.4,8.3c-4.6,5.6-6.9,13.2-6.9,23s2.3,17.4,6.9,22.9c4.6,5.5,10.7,8.2,18.4,8.2
		c4.1,0,7.7-0.7,10.9-2c3.2-1.3,5.6-2.9,7.2-4.9c1.6-2,2.8-3.6,3.4-4.9c0.7-1.3,1.1-2.4,1.5-3.2l32.1,14.5
		c-4.1,9-10.5,16.8-19.2,23.5c-8.7,6.7-20.6,10-35.6,10c-18.1,0-32.9-5.9-44.2-17.8c-11.4-11.8-17-27.3-17-46.4s5.7-34.5,17-46.3
		c11.4-11.8,26.1-17.6,44.2-17.6c15,0,26.9,3.3,35.6,9.9c8.7,6.6,15.1,14.3,19.2,23.2l-32.1,14.7c-0.3-0.8-0.8-1.9-1.5-3.2
		c-0.7-1.3-1.8-3-3.4-5c-1.6-2-4-3.7-7.2-5C111.8,340,108.2,339.4,104.1,339.4z"/>
</g>
<g class="st1">
	<path class="st2" d="M162.1,407.7c0-19.3,6.2-34.7,18.6-46.4c12.4-11.7,28.3-17.5,47.8-17.5c17,0,30.6,3.3,40.9,9.8
		c10.3,6.5,15.4,14.8,15.4,24.7c0,15.7-12.8,24.6-38.5,26.7l0.2,2.7h36.3v5.6h-84c1.5,17.2,11,25.7,28.7,25.7
		c12.1,0,20.8-5.4,26.2-16.2l31.9,13.7c-3.8,9-10.3,17.1-19.5,24.4c-9.2,7.3-22.1,10.9-38.6,10.9c-19.8-0.2-35.6-6-47.5-17.6
		C168.1,442.7,162.1,427.2,162.1,407.7z M249.1,389.9c0-3.9-1.8-7.2-5.4-9.8c-3.6-2.6-8.7-3.9-15.2-3.9c-9,0-16.3,2.8-21.8,8.3
		c-5.6,5.6-8.3,13.3-8.3,23.3h15.9c11.1,0,19.7-1.7,25.7-5.1C246.1,399.2,249.1,394.9,249.1,389.9z"/>
</g>
<g class="st1">
	<path class="st2" d="M323.5,376.2c-5.2,0-9,0.9-11.4,2.6c-2.4,1.8-3.5,3.8-3.5,6.1c0,5,5.7,8.6,17.1,10.9
		c13.6,2.4,22.6,4.7,27.1,6.9c8.5,4,12.7,10.4,12.7,19.3c0,7.9-3.6,14-10.9,18.5c-7.3,4.4-16.8,6.6-28.6,6.6
		c-11.8,0-21.1-2.1-28.1-6.3c-7-4.2-10.5-10.2-10.5-17.9c0-6.4,2.3-11.8,6.9-16c4.6-4.2,10.1-7.1,16.4-8.6v-2
		c-6.2-1.1-11.4-3.3-15.6-6.6c-4.2-3.3-6.3-7.7-6.3-13.2c0-7.2,3.3-13,10-17.7c6.7-4.6,14.8-6.9,24.4-6.9c11.8,0,21.1,2.5,28.1,7.5
		c7,5,11.7,10.6,14.1,16.7l-24,10.6C338.5,379.7,332.5,376.2,323.5,376.2z M339.1,411.3c0-4-1.9-6.9-5.6-8.6
		c-3.7-1.7-7.9-2.5-12.5-2.5c-4.9,0-8.9,0.9-12.2,2.8c-3.3,1.9-4.9,4.6-4.9,8.3c0,3.4,1.5,6.1,4.5,8.2c3,2.1,7.2,3.1,12.8,3.1
		c5,0,9.2-0.9,12.6-2.7C337.4,418.1,339.1,415.2,339.1,411.3z"/>
</g>
<g class="st1">
	<path class="st2" d="M396.6,348.3c-3.5,0-6,0.6-7.6,1.8c-1.6,1.2-2.4,2.5-2.4,4.1c0,3.3,3.8,5.7,11.4,7.3c9,1.6,15,3.1,18,4.6
		c5.6,2.7,8.5,6.9,8.5,12.8c0,5.2-2.4,9.3-7.3,12.3c-4.8,2.9-11.2,4.4-19,4.4c-7.8,0-14.1-1.4-18.7-4.2c-4.6-2.8-7-6.8-7-11.9
		c0-4.3,1.5-7.8,4.6-10.6c3.1-2.8,6.7-4.7,10.9-5.7v-1.3c-4.1-0.7-7.6-2.2-10.3-4.4c-2.8-2.2-4.2-5.1-4.2-8.8
		c0-4.8,2.2-8.7,6.7-11.7c4.4-3.1,9.8-4.6,16.2-4.6c7.8,0,14.1,1.7,18.7,5c4.6,3.3,7.8,7,9.4,11.1l-16,7
		C406.5,350.6,402.6,348.3,396.6,348.3z M407,371.6c0-2.7-1.2-4.6-3.7-5.7c-2.5-1.1-5.2-1.7-8.3-1.7c-3.2,0-5.9,0.6-8.1,1.9
		c-2.2,1.3-3.3,3.1-3.3,5.5c0,2.3,1,4.1,3,5.4c2,1.4,4.8,2.1,8.5,2.1c3.3,0,6.1-0.6,8.4-1.8C405.8,376.1,407,374.2,407,371.6z"/>
</g>
<g class="st1">
	<path class="st2" d="M154.3,197v-50.8c0-1.7,0-4.2,0-7.6c0-13.7-0.3-23.2-0.8-28.5c-0.5-5.3-2.5-9.7-5.9-13.1
		c-3.4-3.4-8.9-4.5-16.4-3.2l-0.2-4.4l56.8-7.9v49l2.8,0.9c1.4-7.5,3-14.2,4.9-20.1c1.8-5.9,4.3-11.4,7.4-16.5
		c3.1-5.2,7-9.1,11.8-11.9c4.8-2.8,10.2-4.2,16.4-4.2c9.9,0,17.8,4.5,23.9,13.5c6.1,9,8.5,22.7,7.3,41l-34,6.2
		c1.8-20.9-2.2-31.4-12.2-31.4c-4.8,0-9,2.7-12.6,8.1c-3.6,5.4-6.4,11.8-8.3,19.2c-1.9,7.4-3.5,15.7-4.6,24.8
		c-1.2,9.2-1.9,16.6-2.2,22.3c-0.3,5.7-0.5,10.5-0.5,14.6H154.3z"/>
</g>
<g class="st1">
	<path class="st2" d="M103.2,505v103.2l2.6,0.7c1.7-7.9,3.8-15.1,6.4-21.7c2.6-6.6,5.8-12.8,9.6-18.6c3.9-5.8,8.6-10.3,14.3-13.6
		c5.6-3.2,11.9-4.9,18.9-4.9c20,0,29.9,12.2,29.9,36.7c0,3.6-0.4,9.8-1.3,18.7c-0.9,8.9-1.3,15.4-1.3,19.6c0,4.3,0.7,7.5,2,9.6
		c1.3,2.1,3.7,3.1,7.3,3.1l10.9-1.6l-2.8,32.7c-7,1.9-15,2.8-24.1,2.8c-8.8,0-15.5-2.7-20.1-8c-4.6-5.3-6.8-12.8-6.8-22.4
		c0-5.4,0.4-12.6,1.3-21.6c0.8-9,1.3-15.8,1.3-20.4c0-12.1-4.1-18.1-12.3-18.1c-7.3,0-13.5,3.8-18.7,11.5c-5.2,7.7-8.9,17-11.1,28.1
		c-2.2,11.1-3.8,20.6-4.6,28.5c-0.9,8-1.3,14.5-1.3,19.6H69.5v-98.8c0-1.5,0-3.7,0-6.5c0-4.6,0-8,0-10.1s0-4.9-0.1-8.5
		c-0.1-3.6-0.2-6.1-0.5-7.8c-0.2-1.6-0.6-3.7-1-6.1c-0.5-2.5-1-4.3-1.7-5.3c-0.7-1.1-1.5-2.4-2.6-3.8c-1-1.5-2.2-2.4-3.6-2.9
		s-3-1-4.8-1.5c-1.8-0.5-3.8-0.8-6-0.8c-2.2,0-4.8,0.2-7.5,0.7l-0.5-4.4L103.2,505z"/>
</g>
<g class="st1">
	<path class="st2" d="M225,520v74.7c0,3.6,0.7,6.1,2,7.8c1.3,1.6,3.8,2.4,7.5,2.4l10.7-1.6l-2.6,32.7c-7.1,1.9-14.8,2.8-23,2.8
		c-18.9,0-28.3-9.5-28.3-28.5V585c0-21.3-0.5-34.3-1.4-39c-1.7-8.4-5.9-13-12.5-13.9c-2.8-0.5-6.3-0.4-10.4,0.2l-0.5-4.4L225,520z"
		/>
</g>
<g class="st1">
	<path class="st2" d="M387,534v74.7c0,3.6,0.7,6.1,2,7.8c1.3,1.6,3.8,2.4,7.5,2.4l10.7-1.6l-2.6,32.7c-7.1,1.9-14.8,2.8-23,2.8
		c-18.9,0-28.3-9.5-28.3-28.5V599c0-21.3-0.5-34.3-1.4-39c-1.7-8.4-5.9-13-12.5-13.9c-2.8-0.5-6.3-0.4-10.4,0.2l-0.5-4.4L387,534z"
		/>
</g>
<g class="st1">
	<path class="st2" d="M312.2,642c0-17.8-1.1-29.9-3.4-36.4c-2.2-6.5-7.7-9.7-16.4-9.7c-2.3,0-5,0.2-8.1,0.7l-0.5-4.4l61.9-8.1v122.7
		c0,3.6,0.7,6.1,2,7.8c1.3,1.6,3.8,2.4,7.5,2.4l10.9-1.6l-2.8,32.7c-8.8,1.9-17.2,2.8-25.3,2.8c-9.6,0-16.3-2.7-20.1-8.1
		c-3.8-5.4-5.7-11.8-5.7-19.3v-7l-2.8-0.7c-8.2,23.4-22.6,35-43.2,35c-14.5,0-26.3-5.7-35.1-17.1c-8.9-11.4-13.3-25.9-13.3-43.7
		c0-18.6,5.1-33.3,15.2-44.2c10.1-10.9,23.6-16.4,40.5-16.4C288.6,629.4,301.4,633.6,312.2,642z M282.8,660.3
		c-9.4,0-16.7,2.8-21.8,8.4c-5.1,5.6-7.7,12.7-7.7,21.3c0,9,2.4,16.2,7.2,21.6c4.8,5.4,12.2,8.1,22.3,8.1c8.5,0,15.6-2.9,21.2-8.6
		c5.6-5.7,8.5-12.8,8.5-21.1s-2.8-15.4-8.5-21.1C298.3,663.2,291.3,660.3,282.8,660.3z"/>
</g>
<g class="st1">
	<path class="st2" d="M390.4,786v-51c0-1.7,0-4.3,0-7.7c0-13.8-0.3-23.3-0.8-28.7c-0.5-5.3-2.5-9.7-5.9-13.1
		c-3.4-3.4-8.9-4.5-16.5-3.2l-0.2-4.4L424,670v49.2l2.8,0.9c1.4-7.6,3-14.3,4.9-20.2c1.9-5.9,4.3-11.4,7.4-16.6
		c3.1-5.2,7-9.2,11.8-11.9c4.8-2.8,10.3-4.2,16.5-4.2c9.9,0,17.9,4.5,24,13.6c6.1,9,8.5,22.8,7.3,41.2l-34.1,6.3
		c1.9-21-2.2-31.6-12.3-31.6c-4.8,0-9,2.7-12.6,8.1c-3.6,5.4-6.4,11.8-8.4,19.3c-1.9,7.4-3.5,15.7-4.6,24.9
		c-1.2,9.2-1.9,16.7-2.2,22.4c-0.3,5.7-0.5,10.6-0.5,14.6H390.4z"/>
</g>
</svg>
