<?xml version="1.0" encoding="utf-8"?>
<!-- Generator: Adobe Illustrator 26.0.2, SVG Export Plug-In . SVG Version: 6.00 Build 0)  -->
<svg version="1.1" id="Layer_1" xmlns="http://www.w3.org/2000/svg" xmlns:xlink="http://www.w3.org/1999/xlink" x="0px" y="0px"
	 viewBox="0 0 589.9 836.7" style="enable-background:new 0 0 589.9 836.7;" xml:space="preserve">
<style type="text/css">
	.st0{fill:none;stroke:#E0007A;stroke-width:10;stroke-miterlimit:10;}
	.st1{enable-background:new    ;}
	.st2{fill:#FFFFFF;}
</style>
<path id="Path_1" class="st0" d="M164.8,26.1l150,53.2l51-26.6l61,90.1l22,124.5l18.2,35l-9.1,67.2l62.2,105.8l49,117.5l-71.1,25.9
	l24.6,137.5l-11.7,36.3h-188c0,0-144,16.9-158.2,19.5c-14.3,2.6-113.6,10.4-113.6,10.4"/>
<path id="Path_2" class="st0" d="M260.9,15.6l177.7,73.9l-18.2,90.8l70,197.1L563,548.1l21.9,38.3v15.4c0,0-24.4,16.9-28.3,13
	s-44.1-41.5-44.1-41.5l1.3,54.4l14.3,59.7l-20.8,58.4l5.1,13.4l-1.2,55.4l-180.7,16.9l-13.9-57.1L36.6,763.9"/>
<g class="st1">
	<path class="st2" d="M274.9,116.6c0,33.6-21.1,51.9-63.2,54.9l25.2,41.5c3,4.9,6.3,8.7,9.9,11.5c3.6,2.8,8.5,4.1,14.7,4.1l24.6-2.2
		l-3.8,45.6c-11.7,2.6-21.9,3.8-30.6,3.8c-11.5,0-20.9-2.6-28.2-7.8c-7.3-5.2-14.7-14.2-22.2-27L161,172.2h-14.7V272h-46.3V144.4
		c0-17.7-0.6-33.1-1.9-46.4c-1.3-13.3-2.6-22.1-3.8-26.3L92.7,65h118c20.8,0,36.7,4.5,47.7,13.6C269.4,87.6,274.9,100.3,274.9,116.6
		z M191.3,164.8c11.9,0,21.1-2.8,27.6-8.5c6.5-5.6,9.7-13.3,9.7-23.1c0-16.6-10-24.9-30-24.9h-52.3v56.5H191.3z"/>
</g>
<g class="st1">
	<path class="st2" d="M16.2,691v-98c0-13.6-0.5-25.4-1.5-35.6c-1-10.2-2-16.9-2.9-20.2l-1.2-5.1h75.2c19.8,0,35.9,7.3,48.5,22
		c12.6,14.7,18.9,33.8,18.9,57.3c0,23.7-6.3,42.9-18.9,57.6c-12.6,14.7-28.7,22-48.5,22H16.2z M51.7,565.3v92.4h31.1
		c11.1,0,19.7-4.6,25.7-13.8c6-9.2,9.1-20,9.1-32.5c0-13.6-3.1-24.6-9.3-33.2c-6.2-8.6-15.6-12.9-28.2-12.9H51.7z"/>
</g>
<g class="st1">
	<path class="st2" d="M156.4,659.1c0-15.3,6.2-27.6,18.6-37c12.4-9.4,29.5-14.1,51.3-14.1H261c0-22-8.2-33-24.5-33
		c-13.7,0-23.7,6.1-29.8,18.3L164.3,576c5.4-11.1,14.3-21.3,26.7-30.6c12.3-9.3,28.1-13.9,47.3-13.9c46.9,0,70.3,26.1,70.3,78.2
		v31.1c0,5,0.9,8.7,2.8,11c1.8,2.3,5.4,3.4,10.6,3.4l15.4-2.3l-3.9,46.1c-10,2.6-20.8,3.9-32.4,3.9c-26.6,0-39.9-13.4-39.9-40.2
		v-19.6l-3.9-0.3c-1.1,5.2-2.2,9.9-3.4,13.9c-1.2,4-3.3,9.2-6.2,15.4s-6.3,11.4-10,15.5c-3.7,4.1-8.8,7.7-15.2,10.8
		c-6.4,3.1-13.6,4.6-21.4,4.6c-14,0-24.9-4.1-32.7-12.4C160.3,682.2,156.4,671.8,156.4,659.1z M260.4,615.6H247
		c-28.8,0-43.2,8.6-43.2,25.8c0,5.5,1.6,9.7,4.9,12.8c3.3,3.1,7.6,4.6,13.1,4.6c11.3,0,20.1-4.4,26.2-13.1
		C254.1,637,258.2,627,260.4,615.6z"/>
</g>
<g class="st1">
	<path class="st2" d="M348.3,640v-71.9c0-2.4,0-6,0-10.8c0-19.4-0.4-32.9-1.1-40.4c-0.8-7.5-3.5-13.7-8.3-18.5
		c-4.8-4.8-12.5-6.3-23.2-4.6l-0.3-6.2l80.4-11.1v69.3l3.9,1.3c2-10.7,4.2-20.2,6.9-28.4c2.6-8.3,6.1-16.1,10.5-23.4
		c4.4-7.3,9.9-12.9,16.7-16.8c6.8-3.9,14.5-5.9,23.2-5.9c13.9,0,25.2,6.4,33.8,19.1c8.6,12.8,12,32.1,10.3,58l-48.1,8.8
		c2.6-29.6-3.2-44.5-17.3-44.5c-6.8,0-12.7,3.8-17.8,11.4c-5.1,7.6-9,16.7-11.8,27.1c-2.7,10.5-4.9,22.2-6.5,35.2
		c-1.6,13-2.7,23.5-3.1,31.6c-0.4,8.1-0.7,14.9-0.7,20.6H348.3z"/>
</g>
<g class="st1">
	<path class="st2" d="M382.8,306c0-18.8-1.2-31.6-3.6-38.5c-2.4-6.9-8.1-10.3-17.3-10.3c-2.5,0-5.3,0.2-8.6,0.7l-0.5-4.7l65.4-8.6
		v129.6c0,3.8,0.7,6.5,2.1,8.2c1.4,1.7,4,2.6,8,2.6l11.5-1.7L437,418c-9.3,2-18.2,2.9-26.7,2.9c-10.1,0-17.2-2.9-21.2-8.6
		c-4-5.7-6-12.5-6-20.3v-7.4l-2.9-0.7c-8.7,24.7-23.8,37-45.6,37c-15.4,0-27.7-6-37.1-18c-9.4-12-14.1-27.4-14.1-46.2
		c0-19.6,5.3-35.2,16-46.7c10.7-11.5,24.9-17.3,42.8-17.3C357.8,292.8,371.4,297.2,382.8,306z M351.7,325.4c-10,0-17.6,2.9-23,8.8
		c-5.4,5.9-8.1,13.4-8.1,22.5c0,9.5,2.5,17.1,7.6,22.8c5.1,5.7,12.9,8.6,23.5,8.6c9,0,16.5-3,22.4-9.1c6-6,8.9-13.5,8.9-22.3
		s-3-16.2-8.9-22.3C368.2,328.4,360.7,325.4,351.7,325.4z"/>
</g>
<g class="st1">
	<path class="st2" d="M187,476.5c-13.6,0-24.5-4.6-32.7-13.7c-8.2-9.1-12.2-22.3-12.2-39.6c0-11.5,1.4-22.3,4.2-32.4
		c2.8-10.1,7.2-22.2,13.1-36.4c6.3-15,11.2-28.2,14.7-39.6c3.5-11.4,5.4-19.1,5.8-22.9l0.6-5.8h57L308,473h-45.2L240,411.9l-3.2,0.9
		c-1.5,7.3-2.7,12.7-3.6,16.1c-0.9,3.5-2.6,8.8-5.3,16c-2.7,7.2-5.6,12.7-8.6,16.4c-3.1,3.7-7.4,7.2-13.1,10.4
		C200.5,474.9,194.1,476.5,187,476.5z M211.5,324.4c-0.8,1.9-2.5,6.5-5.3,13.7c-2.8,7.2-4.7,12.1-5.6,14.7c-1,2.6-2.5,6.9-4.8,13
		c-2.2,6-3.7,10.7-4.6,14c-0.9,3.3-1.9,7.3-3.2,12.1c-1.3,4.8-2.1,9.1-2.6,12.8c-0.5,3.7-0.7,7.4-0.7,11.1c0,8.6,1.9,15.2,5.6,19.6
		c3.7,4.4,8.8,6.6,15.1,6.6c10.6,0,18.2-6.1,22.9-18.3c4.7-12.2,4.8-26.3,0.4-42.2L211.5,324.4z"/>
</g>
</svg>
