<?xml version="1.0" encoding="utf-8"?>
<!-- Generator: Adobe Illustrator 26.0.2, SVG Export Plug-In . SVG Version: 6.00 Build 0)  -->
<svg version="1.1" id="Layer_1" xmlns="http://www.w3.org/2000/svg" xmlns:xlink="http://www.w3.org/1999/xlink" x="0px" y="0px"
	 viewBox="0 0 553.5 847.7" style="enable-background:new 0 0 553.5 847.7;" xml:space="preserve">
<style type="text/css">
	.st0{fill:none;stroke:#E0007A;stroke-width:10;stroke-miterlimit:10;}
	.st1{enable-background:new    ;}
	.st2{fill:#FFFFFF;}
</style>
<path id="Path_1" class="st0" d="M128.4,37.1l150,53.2l51-26.6l61,90.1l22,124.5l18.2,35l-9.1,67.2l62.2,105.8l49,117.5l-71.1,25.9
	l24.6,137.5l-11.7,36.3h-188c0,0-144,16.9-158.2,19.5c-14.3,2.6-113.6,10.4-113.6,10.4"/>
<path id="Path_2" class="st0" d="M224.5,26.6l177.7,73.9l-18.2,90.8l70,197.1l72.5,170.7l21.9,38.3v15.4c0,0-24.4,16.9-28.3,13
	s-44.1-41.5-44.1-41.5l1.3,54.4l14.3,59.7L471,756.8l5.1,13.4l-1.2,55.4l-180.7,16.9l-13.9-57.1L0.2,774.9"/>
<g class="st1">
	<path class="st2" d="M99.1,104.8c-13,0-22.4,2.3-28.4,7c-6,4.7-8.9,10.1-8.9,16.3c0,7.2,3.6,13.5,10.8,18.7
		c7.2,5.2,19.5,9.7,36.7,13.6c26.4,6,43.7,10.6,52,14c23,9.8,34.5,25.4,34.5,46.9c0,17.9-8.1,31.4-24.4,40.7
		c-16.3,9.3-36.8,13.9-61.7,13.9c-27.4,0-48.4-5.3-62.8-15.8c-14.5-10.5-21.7-24-21.7-40.4c0-14.7,5.6-26.4,16.7-35.2
		c11.2-8.8,25-14.5,41.6-17.1v-3.8c-17-4.3-30.5-10-40.4-17.2c-9.9-7.2-14.8-17.7-14.8-31.3c0-15.7,6.9-28.7,20.7-38.8
		c13.8-10.1,31.2-15.2,52-15.2c14.9,0,28.1,1.9,39.6,5.6c11.5,3.7,20.6,8.8,27.3,15.3c6.7,6.5,11.9,12.8,15.5,18.8
		c3.6,6.1,6.5,12.5,8.6,19.3l-44.3,14.7C140.4,114.8,124.2,104.8,99.1,104.8z M131.7,175.3c-7-2.8-15-4.1-23.9-4.1
		c-11.3,0-20.9,2.7-28.9,8c-8,5.3-12,13.2-12,23.6c0,8.3,3.2,15.3,9.7,20.9c6.5,5.6,16.6,8.5,30.5,8.5c11.1,0,20.8-2.6,29.2-7.7
		c8.4-5.1,12.6-13,12.6-23.6C148.9,189.4,143.2,180.9,131.7,175.3z"/>
</g>
<g class="st1">
	<path class="st2" d="M366.7,653v-57c0-1.9,0-4.7,0-8.5c0-15.4-0.3-26-0.9-32c-0.6-6-2.8-10.8-6.6-14.6c-3.8-3.8-9.9-5-18.4-3.6
		l-0.3-4.9l63.7-8.8v54.9l3.1,1c1.6-8.5,3.4-16,5.4-22.5c2.1-6.6,4.8-12.7,8.3-18.5c3.5-5.8,7.9-10.2,13.2-13.3
		c5.3-3.1,11.5-4.7,18.4-4.7c11,0,20,5.1,26.8,15.2c6.8,10.1,9.5,25.4,8.2,46l-38.1,7c2.1-23.5-2.5-35.2-13.7-35.2
		c-5.4,0-10.1,3-14.1,9.1c-4.1,6-7.2,13.2-9.3,21.5c-2.2,8.3-3.9,17.6-5.2,27.8c-1.3,10.3-2.1,18.6-2.5,25
		c-0.3,6.4-0.5,11.8-0.5,16.3H366.7z"/>
</g>
<g class="st1">
	<path class="st2" d="M371.1,475.1H209.8v80.7h140.8v11.2H209.8v92.4h171.1V726H138.9V530.4c0-27.1-1-50.7-2.9-70.9
		c-2-20.2-3.9-33.7-5.9-40.6l-2.4-10.3h243.5V475.1z"/>
</g>
<g class="st1">
	<path class="st2" d="M188.3,290.2c0-24.1,7.8-43.5,23.3-58.2c15.6-14.6,35.5-22,59.9-22c21.3,0,38.4,4.1,51.3,12.3
		c12.9,8.2,19.3,18.5,19.3,31c0,19.6-16.1,30.8-48.2,33.5l0.3,3.4h45.4v7.1H234.3c1.8,21.5,13.8,32.2,35.9,32.2
		c15.1,0,26.1-6.8,32.8-20.3l39.9,17.2c-4.7,11.3-12.8,21.4-24.4,30.5c-11.6,9.1-27.7,13.7-48.4,13.7c-24.8-0.2-44.6-7.6-59.6-22.1
		C195.7,334,188.3,314.6,188.3,290.2z M297.3,267.8c0-4.9-2.3-9-6.8-12.3c-4.5-3.3-10.9-4.9-19-4.9c-11.3,0-20.4,3.5-27.3,10.4
		c-7,7-10.4,16.7-10.4,29.2h20c13.9,0,24.7-2.1,32.2-6.4C293.5,279.5,297.3,274.2,297.3,267.8z"/>
</g>
</svg>
