<?xml version="1.0" encoding="utf-8"?>
<!-- Generator: Adobe Illustrator 26.0.2, SVG Export Plug-In . SVG Version: 6.00 Build 0)  -->
<svg version="1.1" id="Layer_1" xmlns="http://www.w3.org/2000/svg" xmlns:xlink="http://www.w3.org/1999/xlink" x="0px" y="0px"
	 viewBox="0 0 572.9 825.7" style="enable-background:new 0 0 572.9 825.7;" xml:space="preserve">
<style type="text/css">
	.st0{fill:none;stroke:#E0007A;stroke-width:10;stroke-miterlimit:10;}
	.st1{enable-background:new    ;}
	.st2{fill:#FFFFFF;}
</style>
<path id="Path_1" class="st0" d="M147.8,15.1l150,53.2l51-26.6l61,90.1l22,124.5l18.2,35l-9.1,67.2l62.2,105.8l49,117.5l-71.1,25.9
	l24.6,137.5l-11.7,36.3h-188c0,0-144,16.9-158.2,19.5S34.3,811.4,34.3,811.4"/>
<path id="Path_2" class="st0" d="M243.9,4.6l177.7,73.9l-18.2,90.8l70,197.1L546,537.1l21.9,38.3v15.4c0,0-24.4,16.9-28.3,13
	s-44.1-41.5-44.1-41.5l1.3,54.4l14.3,59.7l-20.8,58.4l5.1,13.4l-1.2,55.4l-180.7,16.9l-13.9-57.1L19.6,752.9"/>
<g class="st1">
	<path class="st2" d="M95.2,149c-9.4,0-16.2,1.7-20.6,5.1c-4.3,3.4-6.5,7.3-6.5,11.8c0,5.2,2.6,9.7,7.9,13.5
		c5.2,3.8,14.1,7,26.6,9.8c19.1,4.3,31.6,7.7,37.7,10.2c16.6,7.1,24.9,18.4,24.9,34c0,12.9-5.9,22.8-17.7,29.5
		c-11.8,6.7-26.7,10-44.7,10c-19.9,0-35-3.8-45.5-11.4c-10.5-7.6-15.7-17.4-15.7-29.2c0-10.6,4-19.1,12.1-25.5
		c8.1-6.4,18.1-10.5,30.1-12.4v-2.8c-12.3-3.1-22.1-7.2-29.2-12.5c-7.2-5.2-10.7-12.8-10.7-22.6c0-11.4,5-20.8,15-28.1
		c10-7.3,22.6-11,37.7-11c10.8,0,20.3,1.4,28.6,4c8.3,2.7,14.9,6.4,19.8,11.1c4.9,4.7,8.6,9.2,11.2,13.6c2.6,4.4,4.7,9,6.2,14
		l-32.1,10.6C125.1,156.2,113.4,149,95.2,149z M118.8,200c-5.1-2-10.9-3-17.3-3c-8.2,0-15.1,1.9-20.9,5.8c-5.8,3.9-8.7,9.5-8.7,17.1
		c0,6,2.3,11.1,7,15.1c4.7,4.1,12,6.1,22.1,6.1c8,0,15.1-1.8,21.1-5.5c6.1-3.7,9.1-9.4,9.1-17.1C131.3,210.2,127.1,204,118.8,200z"
		/>
</g>
<g class="st1">
	<path class="st2" d="M205,437.1c-8.1,0-14.6,2.9-19.4,8.8c-4.8,5.9-7.3,14-7.3,24.3s2.4,18.4,7.3,24.2c4.8,5.8,11.3,8.7,19.4,8.7
		c4.3,0,8.2-0.7,11.5-2.1c3.4-1.4,5.9-3.1,7.6-5.2c1.7-2.1,2.9-3.8,3.6-5.2c0.7-1.4,1.2-2.5,1.6-3.4l33.9,15.3
		c-4.3,9.5-11.1,17.8-20.3,24.9c-9.2,7.1-21.8,10.6-37.7,10.6c-19.2,0-34.8-6.3-46.7-18.8c-12-12.5-18-28.9-18-49.1s6-36.5,18-49
		c12-12.4,27.6-18.6,46.7-18.6c15.9,0,28.4,3.5,37.7,10.5c9.2,7,16,15.2,20.3,24.5l-33.9,15.5c-0.3-0.9-0.9-2-1.6-3.4
		c-0.7-1.4-1.9-3.1-3.6-5.3c-1.7-2.2-4.3-3.9-7.6-5.3C213.1,437.8,209.3,437.1,205,437.1z"/>
</g>
<g class="st1">
	<path class="st2" d="M378.5,291.8l-0.5,3.1c16.4,6.2,29.4,16.1,38.9,29.5c9.5,13.5,14.2,29.6,14.2,48.4c0,25.2-8.1,46.1-24.3,62.5
		c-16.2,16.5-36.9,24.7-61.9,24.7c-25,0-45.7-8.2-61.9-24.7c-16.2-16.5-24.3-37.3-24.3-62.5c0-25.2,8.1-46,24.3-62.4
		c16.2-16.4,36.9-24.6,61.9-24.6h72v6H378.5z M344.8,321c-14.3,0-26,4.9-35.1,14.8c-9.1,9.8-13.6,22.2-13.6,37
		c0,15,4.5,27.5,13.6,37.3c9.1,9.8,20.8,14.8,35.1,14.8c14.2,0,25.8-4.9,34.8-14.8c9.1-9.8,13.6-22.3,13.6-37.3
		c0-14.8-4.5-27.2-13.6-37C370.6,325.9,359,321,344.8,321z"/>
</g>
<g class="st1">
	<path class="st2" d="M41.3,478v-71.9c0-2.4,0-6,0-10.8c0-19.4-0.4-32.9-1.1-40.4c-0.8-7.5-3.5-13.7-8.3-18.5
		c-4.8-4.8-12.5-6.3-23.2-4.6l-0.3-6.2l80.4-11.1v69.3l3.9,1.3c2-10.7,4.3-20.2,6.9-28.4c2.6-8.3,6.1-16.1,10.5-23.4
		c4.4-7.3,9.9-12.9,16.7-16.8c6.8-3.9,14.5-5.9,23.2-5.9c13.9,0,25.2,6.4,33.8,19.1c8.6,12.8,12,32.1,10.3,58l-48.1,8.8
		c2.6-29.6-3.2-44.5-17.3-44.5c-6.8,0-12.7,3.8-17.8,11.4c-5.1,7.6-9,16.7-11.8,27.1c-2.7,10.5-4.9,22.2-6.5,35.2
		c-1.6,13-2.7,23.5-3.1,31.6c-0.4,8.1-0.7,14.9-0.7,20.6H41.3z"/>
</g>
<g class="st1">
	<path class="st2" d="M106.7,608.1c0-18.9-1.2-31.9-3.6-38.8c-2.4-6.9-8.2-10.4-17.4-10.4c-2.5,0-5.4,0.2-8.6,0.7l-0.5-4.7l65.9-8.6
		V677c0,3.8,0.7,6.5,2.1,8.3c1.4,1.7,4.1,2.6,8,2.6l11.6-1.7l-3,34.8c-9.4,2-18.4,3-26.9,3c-10.2,0-17.3-2.9-21.4-8.6
		c-4-5.8-6.1-12.6-6.1-20.5v-7.4l-3-0.7C95.3,711.5,79.9,724,58,724c-15.5,0-28-6.1-37.4-18.2c-9.5-12.1-14.2-27.6-14.2-46.6
		c0-19.8,5.4-35.4,16.2-47.1c10.8-11.6,25.2-17.4,43.1-17.4C81.5,594.8,95.2,599.2,106.7,608.1z M75.3,627.6c-10,0-17.8,3-23.2,8.9
		c-5.4,5.9-8.2,13.5-8.2,22.7c0,9.6,2.6,17.2,7.7,23c5.1,5.8,13,8.6,23.7,8.6c9.1,0,16.6-3,22.6-9.1c6-6.1,9-13.6,9-22.5
		s-3-16.4-9-22.5C91.9,630.7,84.4,627.6,75.3,627.6z"/>
</g>
<g class="st1">
	<path class="st2" d="M167.2,659.3c0-19.4,6.3-35,18.8-46.8c12.5-11.8,28.6-17.7,48.2-17.7c17.1,0,30.9,3.3,41.2,9.9
		c10.4,6.6,15.6,14.9,15.6,24.9c0,15.8-12.9,24.8-38.8,26.9l0.2,2.7h36.6v5.7h-84.7c1.5,17.3,11.1,25.9,28.9,25.9
		c12.2,0,21-5.4,26.4-16.3l32.1,13.8c-3.8,9.1-10.3,17.3-19.6,24.6c-9.3,7.3-22.3,11-38.9,11c-19.9-0.2-35.9-6.1-47.9-17.8
		C173.2,694.5,167.2,678.8,167.2,659.3z M254.9,641.2c0-4-1.8-7.2-5.4-9.9c-3.6-2.6-8.7-4-15.3-4c-9.1,0-16.4,2.8-22,8.4
		c-5.6,5.6-8.4,13.4-8.4,23.5h16.1c11.2,0,19.8-1.7,25.9-5.2C251.8,650.6,254.9,646.3,254.9,641.2z"/>
</g>
<g class="st1">
	<path class="st2" d="M338.2,487.4V618c0,3.8,0.7,6.5,2.2,8.3c1.5,1.7,4.1,2.6,7.9,2.6l11.6-1.7l-3,34.8c-7.4,2-15.5,3-24.2,3
		c-20.3,0-30.4-10.1-30.4-30.4v-77.8c0-1.6,0-4,0-6.9c0-4.9,0-8.5,0-10.7c0-2.2,0-5.2-0.1-9c-0.1-3.8-0.2-6.5-0.5-8.3
		c-0.2-1.7-0.6-3.9-1.1-6.5c-0.5-2.6-1.1-4.5-1.9-5.7c-0.7-1.1-1.6-2.5-2.7-4.1c-1.1-1.6-2.3-2.6-3.8-3.1c-1.5-0.5-3.2-1-5.1-1.6
		c-1.9-0.6-4-0.9-6.4-0.9c-2.4,0-5.1,0.2-8,0.7l-0.2-4.7L338.2,487.4z"/>
</g>
<g class="st1">
	<path class="st2" d="M415.1,558.5V638c0,3.8,0.7,6.5,2.1,8.3c1.4,1.7,4.1,2.6,8,2.6l11.4-1.7l-2.7,34.8c-7.6,2-15.7,3-24.5,3
		c-20.1,0-30.1-10.1-30.1-30.4v-26.9c0-22.7-0.5-36.6-1.5-41.5c-1.8-8.9-6.3-13.8-13.3-14.8c-3-0.5-6.7-0.4-11.1,0.2l-0.5-4.7
		L415.1,558.5z M414.6,521.9l0.5,5.4l-38.8,2.7l-0.2-5.7L414.6,521.9z"/>
</g>
<g class="st1">
	<path class="st2" d="M436.3,712.4c-4.6,0-8.3,1.7-11,5c-2.7,3.3-4.1,7.9-4.1,13.8s1.4,10.5,4.1,13.7c2.7,3.3,6.4,4.9,11,4.9
		c2.4,0,4.6-0.4,6.5-1.2c1.9-0.8,3.4-1.8,4.3-2.9c1-1.2,1.7-2.2,2.1-2.9c0.4-0.8,0.7-1.4,0.9-1.9l19.3,8.7
		c-2.5,5.4-6.3,10.1-11.5,14.1c-5.2,4-12.4,6-21.4,6c-10.9,0-19.7-3.6-26.5-10.7c-6.8-7.1-10.2-16.4-10.2-27.9s3.4-20.7,10.2-27.8
		c6.8-7.1,15.7-10.6,26.5-10.6c9,0,16.1,2,21.4,6c5.2,4,9.1,8.6,11.5,13.9l-19.3,8.8c-0.2-0.5-0.5-1.1-0.9-1.9
		c-0.4-0.8-1.1-1.8-2.1-3c-1-1.2-2.4-2.2-4.3-3C440.9,712.8,438.7,712.4,436.3,712.4z"/>
</g>
<g class="st1">
	<path class="st2" d="M174.7,208.2c0-24.1,7.8-43.5,23.3-58.2c15.6-14.6,35.5-22,59.9-22c21.3,0,38.4,4.1,51.3,12.3
		c12.9,8.2,19.3,18.5,19.3,31c0,19.6-16.1,30.8-48.2,33.5l0.3,3.4H326v7.1H220.7c1.8,21.5,13.8,32.2,35.9,32.2
		c15.1,0,26.1-6.8,32.8-20.3l39.9,17.2c-4.7,11.3-12.8,21.4-24.4,30.5c-11.6,9.1-27.7,13.7-48.4,13.7c-24.8-0.2-44.6-7.6-59.6-22.1
		C182.1,252,174.7,232.6,174.7,208.2z M283.7,185.8c0-4.9-2.3-9-6.8-12.3c-4.5-3.3-10.9-4.9-19-4.9c-11.3,0-20.4,3.5-27.3,10.4
		c-7,7-10.4,16.7-10.4,29.2h20c13.9,0,24.7-2.1,32.2-6.4C279.9,197.5,283.7,192.2,283.7,185.8z"/>
</g>
</svg>
