<?xml version="1.0" encoding="utf-8"?>
<!-- Generator: Adobe Illustrator 26.0.2, SVG Export Plug-In . SVG Version: 6.00 Build 0)  -->
<svg version="1.1" id="Layer_1" xmlns="http://www.w3.org/2000/svg" xmlns:xlink="http://www.w3.org/1999/xlink" x="0px" y="0px"
	 viewBox="0 0 553.5 825.7" style="enable-background:new 0 0 553.5 825.7;" xml:space="preserve">
<style type="text/css">
	.st0{fill:none;stroke:#E0007A;stroke-width:10;stroke-miterlimit:10;}
	.st1{enable-background:new    ;}
	.st2{fill:#FFFFFF;}
</style>
<path id="Path_1" class="st0" d="M128.4,15.1l150,53.2l51-26.6l61,90.1l22,124.5l18.2,35l-9.1,67.2l62.2,105.8l49,117.5l-71.1,25.9
	l24.6,137.5l-11.7,36.3h-188c0,0-144,16.9-158.2,19.5S14.9,811.4,14.9,811.4"/>
<path id="Path_2" class="st0" d="M224.5,4.6l177.7,73.9l-18.2,90.8l70,197.1l72.5,170.7l21.9,38.3v15.4c0,0-24.4,16.9-28.3,13
	s-44.1-41.5-44.1-41.5l1.3,54.4l14.3,59.7L471,734.8l5.1,13.4l-1.2,55.4l-180.7,16.9l-13.9-57.1L0.2,752.9"/>
<g class="st1">
	<path class="st2" d="M75.8,149c-9.4,0-16.2,1.7-20.6,5.1c-4.3,3.4-6.5,7.3-6.5,11.8c0,5.2,2.6,9.7,7.9,13.5
		c5.2,3.8,14.1,7,26.6,9.8c19.1,4.3,31.6,7.7,37.7,10.2c16.6,7.1,24.9,18.4,24.9,34c0,12.9-5.9,22.8-17.7,29.5
		c-11.8,6.7-26.7,10-44.7,10c-19.9,0-35-3.8-45.5-11.4c-10.5-7.6-15.7-17.4-15.7-29.2c0-10.6,4-19.1,12.1-25.5
		c8.1-6.4,18.1-10.5,30.1-12.4v-2.8c-12.3-3.1-22.1-7.2-29.2-12.5c-7.2-5.2-10.7-12.8-10.7-22.6c0-11.4,5-20.8,15-28.1
		c10-7.3,22.6-11,37.7-11c10.8,0,20.3,1.4,28.6,4c8.3,2.7,14.9,6.4,19.8,11.1c4.9,4.7,8.6,9.2,11.2,13.6c2.6,4.4,4.7,9,6.2,14
		l-32.1,10.6C105.7,156.2,94,149,75.8,149z M99.4,200c-5.1-2-10.9-3-17.3-3c-8.2,0-15.1,1.9-20.9,5.8c-5.8,3.9-8.7,9.5-8.7,17.1
		c0,6,2.3,11.1,7,15.1c4.7,4.1,12,6.1,22.1,6.1c8,0,15.1-1.8,21.1-5.5c6.1-3.7,9.1-9.4,9.1-17.1C111.9,210.2,107.7,204,99.4,200z"/>
</g>
<path id="Path_16" class="st2" d="M236.8,435.5c0,33.7-7.3,61.4-21.9,83.2c-14.6,21.8-33.2,32.7-55.8,32.7
	c-22.8,0-41.5-10.9-56.1-32.7c-14.6-21.8-21.9-49.5-21.9-83.2c0-33.7,7.3-61.4,21.9-83c14.6-21.7,33.3-32.5,56.1-32.5
	c22.6,0,41.2,10.9,55.8,32.7C229.5,374.4,236.8,402,236.8,435.5z M121.2,374.7c-9.7,16-14.5,36.3-14.5,60.8s4.9,44.9,14.6,61
	c9.8,16.2,22.3,24.2,37.7,24.2c15.2,0,27.7-8.1,37.4-24.2c9.8-16.2,14.6-36.5,14.6-61c0-24.5-4.9-44.9-14.6-61
	c-9.8-16.2-22.2-24.2-37.4-24.2C143.7,350.2,131.1,358.4,121.2,374.7z"/>
<g class="st1">
	<path class="st2" d="M169.2,300V169.5c0-18.3-0.7-34.3-2-47.9c-1.3-13.6-2.6-22.6-3.9-27l-1.6-6.9h54.9v167.8h97.8V300H169.2z"/>
</g>
<g class="st1">
	<path class="st2" d="M330.8,329.3l7.4,1.4l-9,46.2l54.6,10.6l-1.4,7.4l-54.6-10.6l-16.7,86c-1.9,9.6-1.2,16.4,2,20.4
		c3.2,4,9.1,6.8,17.7,8.4c4.9,1,10.3,1.3,16.3,1.2c5.9-0.2,10.6-0.6,14.1-1.3l4.8-0.7l-16.4,45.1c-12.3,2.9-26.8,2.8-43.2-0.4
		c-37-7.2-51.9-29.5-44.6-67l19.6-100.8l-18.3-3.6l1.4-7.4L330.8,329.3z"/>
</g>
<g class="st1">
	<path class="st2" d="M254.7,555.2v123.3l3,0.8c2-9.4,4.6-18,7.6-25.9c3-7.8,6.9-15.2,11.5-22.2c4.6-6.9,10.3-12.3,17-16.2
		c6.7-3.9,14.3-5.8,22.6-5.8c23.8,0,35.7,14.6,35.7,43.8c0,4.2-0.5,11.7-1.5,22.3c-1,10.6-1.5,18.4-1.5,23.4c0,5.2,0.8,9,2.4,11.5
		c1.6,2.5,4.5,3.7,8.7,3.7l13-1.9L370,751c-8.3,2.2-17.9,3.3-28.8,3.3c-10.5,0-18.5-3.2-24-9.6c-5.4-6.4-8.2-15.3-8.2-26.7
		c0-6.5,0.5-15,1.5-25.8c1-10.7,1.5-18.8,1.5-24.4c0-14.4-4.9-21.6-14.7-21.6c-8.7,0-16.1,4.6-22.3,13.7
		c-6.2,9.1-10.6,20.3-13.3,33.5c-2.7,13.2-4.5,24.6-5.5,34.1c-1,9.5-1.5,17.3-1.5,23.4h-40.2V633c0-1.8,0-4.4,0-7.8
		c0-5.5,0-9.6,0-12s0-5.9-0.1-10.1c-0.1-4.2-0.3-7.3-0.6-9.3c-0.3-1.9-0.7-4.4-1.2-7.3c-0.6-3-1.2-5.1-2.1-6.4
		c-0.8-1.3-1.8-2.8-3-4.6c-1.2-1.8-2.6-2.9-4.3-3.5c-1.7-0.6-3.6-1.2-5.7-1.8c-2.1-0.6-4.5-1-7.2-1c-2.7,0-5.7,0.3-9,0.8l-0.6-5.3
		L254.7,555.2z"/>
</g>
</svg>
