<?xml version="1.0" encoding="utf-8"?>
<!-- Generator: Adobe Illustrator 26.0.2, SVG Export Plug-In . SVG Version: 6.00 Build 0)  -->
<svg version="1.1" id="Layer_1" xmlns="http://www.w3.org/2000/svg" xmlns:xlink="http://www.w3.org/1999/xlink" x="0px" y="0px"
	 viewBox="0 0 601.8 857.2" style="enable-background:new 0 0 601.8 857.2;" xml:space="preserve">
<style type="text/css">
	.st0{fill:none;stroke:#E0007A;stroke-width:10;stroke-miterlimit:10;}
	.st1{enable-background:new    ;}
	.st2{fill:#FFFFFF;}
</style>
<path id="Path_1" class="st0" d="M176.8,46.6l150,53.2l51-26.6l61,90.1l22,124.5l18.2,35l-9.1,67.2l62.2,105.8l49,117.5l-71.1,25.9
	l24.6,137.5L523,813H335c0,0-144,16.9-158.2,19.5S63.2,842.9,63.2,842.9"/>
<path id="Path_2" class="st0" d="M272.9,36.1L450.5,110l-18.2,90.8l70,197.1l72.5,170.7l21.9,38.3v15.4c0,0-24.4,16.9-28.3,13
	s-44.1-41.5-44.1-41.5l1.3,54.4l14.3,59.7l-20.8,58.4l5.1,13.4l-1.2,55.4l-180.7,16.9l-13.9-57.1L48.5,784.4"/>
<g class="st1">
	<path class="st2" d="M70.8,99.1h38.8v91.5c0,9.7,2.2,17.1,6.6,22.1c4.4,5,11.7,7.5,21.8,7.5c10.2,0,17.4-2.5,21.8-7.5
		c4.4-5,6.6-12.4,6.6-22.1v-33.7c0-12.9-0.5-24.2-1.4-33.8c-0.9-9.6-1.8-16-2.8-19.1l-1.2-4.9h39v91.5c0,18.8-5.5,33.7-16.4,44.7
		c-10.9,11-26.2,16.5-45.7,16.5c-19.6,0-34.8-5.5-45.6-16.5c-10.9-11-16.3-25.9-16.3-44.7v-33.7c0-12.9-0.4-24.2-1.3-33.8
		c-0.8-9.6-1.7-16-2.7-19.1L70.8,99.1z"/>
</g>
<g class="st1">
	<path class="st2" d="M216.2,279v-71.9c0-2.4,0-6,0-10.8c0-19.4-0.4-32.9-1.1-40.4c-0.8-7.5-3.5-13.7-8.3-18.5
		c-4.8-4.8-12.5-6.3-23.2-4.6l-0.3-6.2l80.4-11.1v69.3l3.9,1.3c2-10.7,4.3-20.2,6.9-28.4c2.6-8.3,6.1-16.1,10.5-23.4
		c4.4-7.3,9.9-12.9,16.7-16.8c6.8-3.9,14.5-5.9,23.2-5.9c13.9,0,25.2,6.4,33.8,19.1c8.6,12.8,12,32.1,10.3,58l-48.1,8.8
		c2.6-29.6-3.2-44.5-17.3-44.5c-6.8,0-12.7,3.8-17.8,11.4c-5.1,7.6-9,16.7-11.8,27.1c-2.7,10.5-4.9,22.2-6.5,35.2
		c-1.6,13-2.7,23.5-3.1,31.6c-0.4,8.1-0.7,14.9-0.7,20.6H216.2z"/>
</g>
<g class="st1">
	<path class="st2" d="M229.7,436.8c2.9-15,11.4-25.9,25.3-32.7c14-6.8,31.7-8.2,53.1-4l34,6.6c4.2-21.6-1.7-34-17.8-37.1
		c-13.5-2.6-24.4,1.5-32.7,12.3l-38.4-25.1c7.5-9.9,18.1-18.2,32-24.9c13.9-6.7,30.2-8.3,49-4.6c46,8.9,64,39,54.1,90.1l-5.9,30.5
		c-1,4.9-0.7,8.7,0.6,11.3c1.4,2.6,4.6,4.4,9.8,5.4l15.5,0.7l-12.6,44.5c-10.3,0.7-21.2-0.1-32.5-2.3c-26.1-5.1-36.6-20.8-31.5-47.1
		l3.7-19.3l-3.8-1.1c-2.1,4.9-4.1,9.3-6,13c-1.9,3.7-5,8.4-9,13.9s-8.3,10-12.8,13.3c-4.4,3.4-10.1,5.9-17,7.7
		c-6.9,1.8-14.2,1.9-21.9,0.4c-13.7-2.7-23.6-8.8-29.7-18.4C229.2,460.2,227.3,449.2,229.7,436.8z M340.1,413.9l-13.2-2.6
		c-28.2-5.5-44,0.2-47.3,17.1c-1,5.4-0.2,9.8,2.4,13.5c2.6,3.6,6.6,5.9,12,7c11.1,2.2,20.5-0.5,28.2-7.8
		C329.8,433.7,335.8,424.6,340.1,413.9z"/>
</g>
<g class="st1">
	<path class="st2" d="M104.4,532.8l-18.6-69.5c-0.6-2.3-1.6-5.8-2.8-10.4c-5-18.7-8.9-31.6-11.6-38.7c-2.7-7.1-7-12.3-12.8-15.7
		c-5.9-3.4-13.7-2.9-23.6,1.6l-1.9-5.9l74.8-31.6l18,67l4.1,0.2c-0.9-10.8-1.1-20.6-0.7-29.3c0.4-8.7,1.7-17.1,4.1-25.3
		c2.3-8.2,6.2-15,11.7-20.6c5.5-5.5,12.5-9.4,20.9-11.7c13.5-3.6,26-0.4,37.6,9.7c11.6,10.1,19.9,27.9,25,53.4l-44.1,21
		c-5.2-29.3-14.6-42.1-28.3-38.5c-6.5,1.8-11.3,7-14.3,15.7c-3,8.7-4.4,18.5-4.3,29.3c0.1,10.8,1,22.7,2.8,35.7
		c1.8,13,3.5,23.4,5.2,31.3c1.7,7.9,3.2,14.6,4.7,20.1L104.4,532.8z"/>
</g>
<g class="st1">
	<path class="st2" d="M194.3,595.8c0-3,0.6-6.2,1.7-9.7c1.1-3.5,2.8-7.2,5-11.1s5.6-7.1,10.1-9.7c4.5-2.6,9.7-3.9,15.7-3.9
		c8.3,0,15,2.1,20.2,6.2c5.2,4.2,8.5,9.5,10.1,15.9c1.6,6.5,2,13.3,1.4,20.6c-0.6,7.3-2.3,14.5-4.8,21.5l-39.1,103.9
		c-2.2,6.1-3.9,10.4-5.1,13c-1.2,2.6-3.2,5.9-6,9.8c-2.8,4-6.2,6.8-10.4,8.4c-4.2,1.7-9.1,2.5-14.8,2.5c-3.3,0-6.8-0.3-10.4-0.8
		c-3.6-0.6-6.3-1-8.2-1.4l-2.8-0.8l-3.3-40.4c8.3,2.2,17.8,3.3,28.5,3.3c18.6,0,30.1-5.5,34.3-16.6l1.4-3.6h-29.1l-25.2-66.2
		c-5.9-15.3-11.7-29-17.3-41c-5.6-12-9.7-20.2-12.3-24.7l-4.2-6.6h49.3l12.2,32.1L194.3,595.8z M247.5,623.2
		c2.2-5.9,3.7-12,4.4-18.1c0.7-6.2,0.6-12.1-0.4-17.9c-1-5.7-3.6-10.4-7.9-14.1c-4.3-3.7-9.9-5.5-16.9-5.5c-7.4,0-13.3,2.2-17.7,6.5
		c-4.4,4.3-7.2,9.8-8.4,16.3c-1.2,6.6-1.6,13.2-1.1,19.9c0.5,6.7,1.7,12.9,3.7,18.4l20.8,57.1L247.5,623.2z"/>
</g>
<g class="st1">
	<path class="st2" d="M265.8,633.8c0-21.8,7-39.3,21.1-52.5c14-13.2,32-19.8,54-19.8c19.2,0,34.6,3.7,46.3,11.1
		c11.6,7.4,17.5,16.7,17.5,28c0,17.7-14.5,27.8-43.5,30.2l0.3,3h41v6.4h-95c1.7,19.4,12.5,29.1,32.4,29.1c13.7,0,23.5-6.1,29.6-18.3
		l36,15.5c-4.3,10.2-11.6,19.3-22,27.6c-10.4,8.2-25,12.3-43.6,12.3c-22.3-0.2-40.3-6.8-53.7-19.9
		C272.6,673.3,265.8,655.7,265.8,633.8z M364.2,613.5c0-4.4-2-8.1-6.1-11.1c-4.1-3-9.8-4.4-17.2-4.4c-10.2,0-18.4,3.1-24.7,9.4
		c-6.3,6.3-9.4,15.1-9.4,26.3h18c12.6,0,22.3-1.9,29.1-5.8C360.8,624.1,364.2,619.3,364.2,613.5z"/>
</g>
<g class="st1">
	<path class="st2" d="M475,507.2v146.5c0,4.2,0.8,7.3,2.5,9.3c1.7,1.9,4.6,2.9,8.9,2.9l13-1.9l-3.3,39.1c-8.3,2.2-17.4,3.3-27.1,3.3
		c-22.7,0-34.1-11.4-34.1-34.1V585c0-1.8,0-4.4,0-7.8c0-5.5,0-9.6,0-12s0-5.9-0.1-10.1c-0.1-4.2-0.3-7.3-0.6-9.3
		c-0.3-1.9-0.7-4.4-1.2-7.3c-0.6-3-1.2-5.1-2.1-6.4c-0.8-1.3-1.8-2.8-3-4.6c-1.2-1.8-2.6-2.9-4.3-3.5c-1.7-0.6-3.6-1.2-5.7-1.8
		c-2.1-0.6-4.5-1-7.2-1c-2.7,0-5.7,0.3-9,0.8l-0.3-5.3L475,507.2z"/>
</g>
</svg>
