<?xml version="1.0" encoding="utf-8"?>
<!-- Generator: Adobe Illustrator 26.0.2, SVG Export Plug-In . SVG Version: 6.00 Build 0)  -->
<svg version="1.1" id="Layer_1" xmlns="http://www.w3.org/2000/svg" xmlns:xlink="http://www.w3.org/1999/xlink" x="0px" y="0px"
	 viewBox="0 0 571.9 838" style="enable-background:new 0 0 571.9 838;" xml:space="preserve">
<style type="text/css">
	.st0{fill:none;stroke:#E0007A;stroke-width:10;stroke-miterlimit:10;}
	.st1{enable-background:new    ;}
	.st2{fill:#FFFFFF;}
</style>
<path id="Path_1" class="st0" d="M146.8,15.1l150,53.2l51-26.6l61,90.1l22,124.5l18.2,35l-9.1,67.2l62.2,105.8l49,117.5l-71.1,25.9
	l24.6,137.5l-11.7,36.3h-188c0,0-144,16.9-158.2,19.5c-14.3,2.6-113.6,10.4-113.6,10.4"/>
<path id="Path_2" class="st0" d="M242.9,4.6l177.7,73.9l-18.2,90.8l70,197.1L545,537.1l21.9,38.3v15.4c0,0-24.4,16.9-28.3,13
	s-44.1-41.5-44.1-41.5l1.3,54.4l14.3,59.7l-20.8,58.4l5.1,13.4l-1.2,55.4l-180.7,16.9l-13.9-57.1L18.6,752.9"/>
<g class="st1">
	<path class="st2" d="M206.7,129.2c0,6.2-0.6,13-1.9,20.5c-1.3,7.5-2.6,14.1-4,20c-1.4,5.8-3.8,13.4-7.2,22.7s-6.1,16.3-7.9,21
		c-1.8,4.7-5.2,12.3-10.1,22.7c-4.9,10.4-8,17-9.3,19.8c-1.3,2.8-4.7,9.6-10.3,20.6c-5.6,11-8.5,16.9-8.8,17.5h-54L41.6,156.4
		c-7.1-19-14.1-35.7-20.8-50.1C14,92,9.1,82.6,5.8,78L1,70.7h61.6l28.2,74.6l3.8-1c1.4-9.4,3.3-18.2,5.8-26.3
		c2.5-8.1,6.1-16.3,10.7-24.6c4.6-8.3,10.7-14.8,18.4-19.6c7.7-4.8,16.5-7.2,26.3-7.2c15.8,0,28.3,5.2,37.3,15.7
		C202.2,92.7,206.7,108.4,206.7,129.2z M123.8,234.1c0.9-2.3,3.3-7.6,7.2-16c3.9-8.4,6.5-14.1,7.9-17.2c1.4-3.1,3.5-8.2,6.4-15.3
		c2.9-7.1,4.9-12.7,6-16.7c1.1-4,2.2-8.7,3.3-13.9c1-5.3,1.5-10.1,1.5-14.4c0-17.9-7.1-26.8-21.3-26.8c-13.8,0-23.7,7.3-29.9,21.8
		c-6.2,14.6-6,31,0.7,49.4L123.8,234.1z"/>
</g>
<g class="st1">
	<path class="st2" d="M187.9,384.8c0-20.3,8.3-36.8,24.9-49.3c16.6-12.5,39.4-18.7,68.5-18.7h46.2c0-29.4-10.9-44-32.7-44
		c-18.3,0-31.5,8.1-39.7,24.4l-56.7-23.1c7.3-14.8,19.1-28.4,35.5-40.8c16.4-12.4,37.4-18.5,63-18.5c62.5,0,93.7,34.7,93.7,104.2
		v41.4c0,6.7,1.2,11.6,3.7,14.6c2.5,3.1,7.2,4.6,14.2,4.6l20.5-3.1l-5.2,61.5c-13.4,3.5-27.8,5.2-43.2,5.2
		c-35.5,0-53.2-17.9-53.2-53.6v-26.2l-5.2-0.4c-1.5,7-3,13.2-4.6,18.5c-1.6,5.4-4.4,12.2-8.3,20.5c-3.9,8.3-8.4,15.2-13.3,20.7
		c-4.9,5.5-11.7,10.3-20.3,14.4c-8.6,4.1-18.1,6.1-28.6,6.1c-18.6,0-33.1-5.5-43.6-16.6C193.1,415.6,187.9,401.7,187.9,384.8z
		 M326.5,326.8h-17.9c-38.4,0-57.6,11.5-57.6,34.4c0,7.3,2.2,12.9,6.5,17c4.4,4.1,10.2,6.1,17.4,6.1c15.1,0,26.7-5.8,34.9-17.4
		C318.1,355.3,323.6,341.9,326.5,326.8z"/>
</g>
<g class="st1">
	<path class="st2" d="M21,664.7c0-23.8,9.7-43.1,29.1-57.7c19.4-14.6,46.2-22,80.2-22h54.2c0-34.4-12.8-51.6-38.3-51.6
		c-21.5,0-37,9.5-46.5,28.6l-66.4-27.1c8.5-17.4,22.4-33.3,41.6-47.8c19.2-14.5,43.9-21.7,73.8-21.7c73.2,0,109.9,40.7,109.9,122.1
		V636c0,7.8,1.4,13.5,4.3,17.1c2.9,3.6,8.4,5.4,16.6,5.4l24-3.6l-6.1,72.1c-15.7,4.1-32.5,6.1-50.6,6.1c-41.6,0-62.3-21-62.3-62.9
		v-30.7l-6.1-0.5c-1.7,8.2-3.5,15.4-5.4,21.7c-1.9,6.3-5.1,14.3-9.7,24c-4.6,9.7-9.8,17.8-15.6,24.3c-5.8,6.5-13.7,12.1-23.8,16.9
		c-10.1,4.8-21.2,7.2-33.5,7.2c-21.8,0-38.8-6.5-51.1-19.4C27.1,700.8,21,684.4,21,664.7z M183.4,596.7h-21
		c-45,0-67.5,13.5-67.5,40.4c0,8.5,2.6,15.2,7.7,19.9c5.1,4.8,11.9,7.2,20.4,7.2c17.7,0,31.3-6.8,40.9-20.4
		C173.6,630.1,180,614.4,183.4,596.7z"/>
</g>
</svg>
