<?xml version="1.0" encoding="utf-8"?>
<!-- Generator: Adobe Illustrator 26.0.2, SVG Export Plug-In . SVG Version: 6.00 Build 0)  -->
<svg version="1.1" id="Layer_1" xmlns="http://www.w3.org/2000/svg" xmlns:xlink="http://www.w3.org/1999/xlink" x="0px" y="0px"
	 viewBox="0 0 589.9 844.7" style="enable-background:new 0 0 589.9 844.7;" xml:space="preserve">
<style type="text/css">
	.st0{fill:none;stroke:#E0007A;stroke-width:10;stroke-miterlimit:10;}
	.st1{enable-background:new    ;}
	.st2{fill:#FFFFFF;}
</style>
<path id="Path_1" class="st0" d="M164.8,34.1l150,53.2l51-26.6l61,90.1l22,124.5l18.2,35l-9.1,67.2l62.2,105.8l49,117.5l-71.1,25.9
	l24.6,137.5l-11.7,36.3h-188c0,0-144,16.9-158.2,19.5S51.3,830.4,51.3,830.4"/>
<path id="Path_2" class="st0" d="M260.9,23.6l177.7,73.9l-18.2,90.8l70,197.1L563,556.1l21.9,38.3v15.4c0,0-24.4,16.9-28.3,13
	s-44.1-41.5-44.1-41.5l1.3,54.4l14.3,59.7l-20.8,58.4l5.1,13.4l-1.2,55.4l-180.7,16.9l-13.9-57.1L36.6,771.9"/>
<g class="st1">
	<path class="st2" d="M190.5,118.2c0,5.7-0.6,12-1.7,18.9c-1.2,6.9-2.4,13-3.6,18.4c-1.3,5.4-3.5,12.4-6.7,20.9
		c-3.2,8.6-5.6,15-7.3,19.3c-1.7,4.3-4.8,11.3-9.4,20.9c-4.5,9.6-7.4,15.7-8.6,18.2c-1.2,2.5-4.3,8.9-9.5,19
		c-5.2,10.1-7.9,15.5-8.1,16.2H85.9L38.4,143.2c-6.6-17.5-12.9-32.9-19.2-46.1C12.9,83.9,8.3,75.2,5.4,70.9L1,64.3h56.7l26,68.8
		l3.5-1c1.3-8.7,3.1-16.7,5.4-24.3c2.3-7.5,5.6-15.1,9.8-22.7c4.2-7.6,9.9-13.6,17-18.1c7.1-4.4,15.2-6.7,24.3-6.7
		c14.6,0,26,4.8,34.4,14.4C186.3,84.5,190.5,98.9,190.5,118.2z M114.1,214.8c0.8-2.1,3.1-7,6.7-14.7c3.6-7.7,6-13,7.3-15.8
		c1.3-2.9,3.2-7.6,5.9-14.1c2.6-6.5,4.5-11.7,5.5-15.4c1.1-3.7,2.1-8,3-12.8c1-4.9,1.4-9.3,1.4-13.3c0-16.5-6.6-24.7-19.7-24.7
		c-12.7,0-21.9,6.7-27.6,20.1c-5.7,13.4-5.5,28.6,0.6,45.5L114.1,214.8z"/>
</g>
<g class="st1">
	<path class="st2" d="M303,145.1l-1.1,3.4c13.5,5.8,24.2,14.1,32,25c7.8,10.8,11.7,23.8,11.7,39.1c0,21.4-7.2,39.1-21.7,53
		c-14.5,13.9-32.6,20.9-54.4,20.9c-22,0-40.2-7-54.7-20.9c-14.5-13.9-21.7-31.6-21.7-53s7.2-39.1,21.7-53
		c14.5-13.9,32.7-20.9,54.7-20.9h60.6v6.5H303z M242.1,240.7c7.1,7.5,16.3,11.3,27.4,11.3c11.1,0,20.2-3.8,27.4-11.3
		c7.1-7.5,10.7-16.9,10.7-28.2s-3.6-20.7-10.7-28.2c-7.1-7.5-16.3-11.3-27.4-11.3c-11.1,0-20.2,3.8-27.4,11.3
		c-7.1,7.5-10.7,16.9-10.7,28.2S235,233.2,242.1,240.7z"/>
</g>
<g class="st1">
	<path class="st2" d="M167.3,388.2c0-10.6,4.3-19.2,13-25.8c8.7-6.5,20.6-9.8,35.8-9.8h24.2c0-15.4-5.7-23-17.1-23
		c-9.6,0-16.5,4.3-20.7,12.8l-29.6-12.1c3.8-7.8,10-14.9,18.6-21.3c8.6-6.5,19.6-9.7,32.9-9.7c32.7,0,49,18.2,49,54.5v21.7
		c0,3.5,0.6,6,1.9,7.6c1.3,1.6,3.8,2.4,7.4,2.4l10.7-1.6l-2.7,32.1c-7,1.8-14.5,2.7-22.6,2.7c-18.5,0-27.8-9.3-27.8-28V377l-2.7-0.2
		c-0.8,3.6-1.6,6.9-2.4,9.7c-0.8,2.8-2.3,6.4-4.3,10.7c-2.1,4.3-4.4,7.9-7,10.8c-2.6,2.9-6.1,5.4-10.6,7.5
		c-4.5,2.1-9.5,3.2-14.9,3.2c-9.7,0-17.3-2.9-22.8-8.7C170.1,404.3,167.3,397,167.3,388.2z M239.9,357.9h-9.3
		c-20.1,0-30.1,6-30.1,18c0,3.8,1.1,6.8,3.4,8.9c2.3,2.1,5.3,3.2,9.1,3.2c7.9,0,14-3,18.2-9.1C235.4,372.8,238.3,365.8,239.9,357.9z
		"/>
</g>
<g class="st1">
	<path class="st2" d="M390.1,106.3v136c0,3.9,0.8,6.8,2.3,8.6s4.3,2.7,8.2,2.7l12.1-1.8l-3.1,36.2c-7.7,2.1-16.1,3.1-25.2,3.1
		c-21.1,0-31.6-10.5-31.6-31.6v-81c0-1.7,0-4.1,0-7.2c0-5.1,0-8.9,0-11.2c0-2.3,0-5.4-0.1-9.4c-0.1-3.9-0.3-6.8-0.5-8.6
		s-0.6-4.1-1.2-6.8c-0.5-2.7-1.2-4.7-1.9-5.9c-0.8-1.2-1.7-2.6-2.8-4.2c-1.1-1.6-2.4-2.7-4-3.2c-1.5-0.5-3.3-1.1-5.3-1.7
		c-2-0.6-4.2-0.9-6.7-0.9c-2.5,0-5.3,0.3-8.4,0.8l-0.3-4.9L390.1,106.3z"/>
</g>
<g class="st1">
	<path class="st2" d="M342.8,359.5l-0.2,41.7l2.1,0.5c1.6-8,3.8-15.2,6.6-21.4c2.8-6.2,6.8-11.6,12.1-16.1
		c5.2-4.5,11.3-6.7,18.2-6.7c15.2,0,22.8,9.2,22.8,27.6c0,2.7-0.4,7.4-1,14.1c-0.7,6.7-1.1,11.6-1.1,14.8c0,3.3,0.5,5.7,1.5,7.3
		c1,1.6,2.9,2.4,5.7,2.4l8.2-1.2l-2.1,24.7c-5.2,1.4-11.4,2.1-18.4,2.1c-6.7,0-11.7-2-15.1-6.1c-3.4-4.1-5.2-9.7-5.2-16.8
		c0-4.1,0.4-9.5,1.1-16.3c0.7-6.8,1-11.9,1-15.4c0-4.8-0.8-8.3-2.3-10.4c-1.5-2.2-3.9-3.2-7.2-3.2c-4.4,0-8.4,2-11.8,6
		c-3.4,4-6.1,8.8-7.9,14.3c-1.8,5.5-3.3,11.7-4.5,18.5c-1.2,6.8-1.9,12.3-2.2,16.6c-0.3,4.3-0.4,7.9-0.4,10.7h-25.5v-38.5
		c0-1.2,0-2.8,0-4.9c0-8.2-0.1-14-0.3-17.4c-0.2-3.4-1-7-2.2-10.6c-1.2-3.6-3.3-5.8-6.2-6.6c-2.9-0.8-7-0.9-12.2-0.2l-0.2-3.3
		L342.8,359.5z"/>
</g>
<g class="st1">
	<path class="st2" d="M133.3,687.4c0-9.4,3.8-17,11.5-22.8c7.7-5.8,18.2-8.7,31.7-8.7h21.4c0-13.6-5-20.4-15.1-20.4
		c-8.5,0-14.6,3.8-18.4,11.3L138.1,636c3.4-6.9,8.9-13.2,16.5-18.9c7.6-5.7,17.3-8.6,29.2-8.6c29,0,43.4,16.1,43.4,48.3V676
		c0,3.1,0.6,5.4,1.7,6.8c1.1,1.4,3.3,2.1,6.6,2.1l9.5-1.4l-2.4,28.5c-6.2,1.6-12.9,2.4-20,2.4c-16.4,0-24.6-8.3-24.6-24.8v-12.1
		l-2.4-0.2c-0.7,3.2-1.4,6.1-2.1,8.6c-0.7,2.5-2,5.7-3.8,9.5s-3.9,7-6.2,9.6c-2.3,2.6-5.4,4.8-9.4,6.7c-4,1.9-8.4,2.8-13.2,2.8
		c-8.6,0-15.4-2.6-20.2-7.7C135.7,701.6,133.3,695.2,133.3,687.4z M197.5,660.5h-8.3c-17.8,0-26.7,5.3-26.7,16c0,3.4,1,6,3,7.9
		c2,1.9,4.7,2.8,8.1,2.8c7,0,12.4-2.7,16.2-8.1C193.6,673.7,196.2,667.5,197.5,660.5z"/>
</g>
<g class="st1">
	<path class="st2" d="M264.2,495.2V602c0,3.1,0.6,5.4,1.8,6.8c1.2,1.4,3.4,2.1,6.5,2.1l9.5-1.4l-2.4,28.5
		c-6.1,1.6-12.7,2.4-19.8,2.4c-16.6,0-24.8-8.3-24.8-24.8v-63.6c0-1.3,0-3.2,0-5.7c0-4,0-7,0-8.8s0-4.3-0.1-7.4
		c-0.1-3.1-0.2-5.4-0.4-6.8c-0.2-1.4-0.5-3.2-0.9-5.4c-0.4-2.2-0.9-3.7-1.5-4.6c-0.6-0.9-1.3-2.1-2.2-3.3c-0.9-1.3-1.9-2.1-3.1-2.5
		s-2.6-0.8-4.1-1.3c-1.5-0.5-3.3-0.7-5.3-0.7c-2,0-4.1,0.2-6.6,0.6l-0.2-3.8L264.2,495.2z"/>
</g>
<g class="st1">
	<path class="st2" d="M354.5,529.2c-8.5,0-15.3,3.1-20.4,9.2c-5.1,6.2-7.6,14.7-7.6,25.6s2.5,19.4,7.6,25.4
		c5.1,6.1,11.9,9.1,20.4,9.1c4.5,0,8.6-0.7,12.1-2.2c3.5-1.4,6.2-3.3,8-5.4c1.8-2.2,3.1-4,3.8-5.4c0.7-1.4,1.3-2.6,1.6-3.5l35.6,16
		c-4.5,10-11.7,18.7-21.4,26.1c-9.7,7.4-22.9,11.2-39.6,11.2c-4.4,0-9-0.5-13.9-1.4l-1.9,14.7c4-1.5,8.2-2.2,12.5-2.2
		c6.7,0,11.6,2,14.8,6c3.2,4,4.8,8.5,4.8,13.6c0,5.6-1.9,10.2-5.6,13.7c-3.7,3.5-8.7,5.3-14.8,5.3c-8.3,0-15.6-3.1-21.8-9.2l4.9-3.8
		c4.5,4.5,10.2,6.8,16.9,6.8c4.5,0,8-1.2,10.5-3.5c2.4-2.4,3.7-5.4,3.7-9.2c0-8.9-4.4-13.3-13.3-13.3c-1.6,0-3.3,0.1-4.9,0.4
		c-1.6,0.3-3,0.5-4.1,0.8c-1.1,0.3-2.1,0.6-3,1c-0.9,0.4-1.6,0.7-2.2,1.1l-0.8,0.3l-4.6-3.3l3-20.4c-14.7-4-26.4-12.1-35.1-24.2
		c-8.7-12.1-13.1-26.9-13.1-44.3c0-21.2,6.3-38.4,18.9-51.4c12.6-13.1,29-19.6,49.1-19.6c16.7,0,29.9,3.7,39.6,11
		c9.7,7.3,16.8,15.9,21.4,25.7L380.1,546c-0.4-0.9-0.9-2.1-1.6-3.5c-0.7-1.4-2-3.3-3.8-5.6c-1.8-2.3-4.5-4.1-8-5.6
		C363.1,529.9,359.1,529.2,354.5,529.2z"/>
</g>
<g class="st1">
	<path class="st2" d="M461.3,558.5v67.3c0,3.2,0.6,5.5,1.8,7c1.2,1.5,3.4,2.2,6.8,2.2l9.6-1.5l-2.3,29.5c-6.4,1.7-13.3,2.5-20.7,2.5
		c-17,0-25.5-8.6-25.5-25.7V617c0-19.2-0.4-30.9-1.3-35.1c-1.5-7.5-5.3-11.7-11.3-12.5c-2.5-0.4-5.6-0.3-9.4,0.2l-0.4-4L461.3,558.5
		z"/>
</g>
<g class="st1">
	<path class="st2" d="M410.4,695l-0.2,39l2,0.5c1.5-7.5,3.6-14.2,6.2-20.1c2.6-5.8,6.4-10.9,11.3-15.1c4.9-4.2,10.6-6.3,17.1-6.3
		c14.2,0,21.3,8.6,21.3,25.9c0,2.5-0.3,6.9-1,13.2c-0.7,6.3-1,10.9-1,13.9c0,3.1,0.5,5.3,1.4,6.8c0.9,1.5,2.7,2.2,5.3,2.2l7.7-1.1
		l-2,23.1c-4.9,1.3-10.7,2-17.2,2c-6.2,0-11-1.9-14.2-5.7c-3.2-3.8-4.8-9.1-4.8-15.7c0-3.8,0.3-8.9,1-15.3c0.7-6.3,1-11.2,1-14.4
		c0-4.5-0.7-7.7-2.1-9.8c-1.4-2-3.7-3-6.7-3c-4.2,0-7.8,1.9-11.1,5.7c-3.2,3.8-5.7,8.3-7.4,13.4c-1.7,5.2-3.1,11-4.2,17.3
		c-1.1,6.3-1.8,11.5-2,15.6c-0.3,4-0.4,7.4-0.4,10h-23.9v-36.1c0-1.1,0-2.6,0-4.6c0-7.7-0.1-13.1-0.3-16.3c-0.2-3.2-0.9-6.5-2.1-9.9
		c-1.1-3.4-3.1-5.5-5.8-6.2c-2.7-0.8-6.6-0.8-11.5-0.2l-0.2-3.1L410.4,695z"/>
</g>
<g class="st1">
	<path class="st2" d="M30.4,470V363.9c0-1.7,0-4,0-7c0-5,0-8.6,0-10.8c0-2.2,0-5.3-0.1-9.1c-0.1-3.8-0.2-6.6-0.5-8.3
		c-0.2-1.7-0.6-3.9-1.1-6.6c-0.5-2.7-1.1-4.6-1.9-5.7c-0.7-1.2-1.7-2.5-2.7-4.1c-1.1-1.6-2.4-2.6-3.9-3.1c-1.5-0.5-3.2-1-5.1-1.6
		c-1.9-0.6-4.1-0.9-6.5-0.9c-2.4,0-5.1,0.2-8.1,0.7l-0.2-4.7l66.2-8.7v102.3l3,1c9.6-36.4,26.9-54.5,51.8-54.5
		c9.5,0,17.4,2.8,23.9,8.3c6.5,5.6,9.7,13.1,9.7,22.5c0,11.3-3.7,19.9-11.1,25.8c-7.4,5.9-15.6,8.8-24.8,8.8l9,15.9
		c2.7,4.8,5.3,8.1,8,9.8c2.7,1.7,6.5,2.6,11.5,2.6l15.7-1.7l-3,35.1c-6.8,2-13.7,3-20.7,3c-9,0-16.1-2-21.5-6
		c-5.4-4-10.8-10.2-16.3-18.7L80.5,410v-7.2h17.2c5.6,0,10.6-1.2,14.8-3.7c4.2-2.5,6.3-6.3,6.3-11.5c0-3.5-1.2-6.2-3.6-8.2
		c-2.4-2-5.7-3-9.8-3c-5.3,0-10.1,1.3-14.4,3.9c-4.3,2.6-7.8,5.7-10.5,9.3c-2.7,3.7-4.9,8.5-6.8,14.6c-1.9,6.1-3.3,11.5-4.2,16.2
		c-0.9,4.7-1.6,10.7-2.1,17.8c-0.5,7.1-0.7,12.3-0.7,15.6s0,7.7,0,13.3c0,1.3,0,2.3,0,3H30.4z"/>
</g>
<g class="st1">
	<path class="st2" d="M86.1,554.6c0-3,0.6-6.3,1.7-9.8c1.1-3.5,2.8-7.3,5-11.2c2.2-3.9,5.6-7.2,10.2-9.8c4.6-2.6,9.8-3.9,15.8-3.9
		c8.4,0,15.2,2.1,20.4,6.3c5.2,4.2,8.6,9.6,10.2,16.1c1.6,6.5,2.1,13.5,1.4,20.9c-0.7,7.4-2.3,14.6-4.9,21.7l-39.5,105
		c-2.2,6.2-4,10.5-5.2,13.2c-1.2,2.6-3.2,5.9-6,9.9c-2.8,4-6.3,6.9-10.5,8.5c-4.2,1.7-9.2,2.5-15,2.5c-3.4,0-6.9-0.3-10.5-0.8
		c-3.6-0.6-6.4-1-8.3-1.4l-2.8-0.8l-3.4-40.9c8.4,2.2,18,3.4,28.8,3.4c18.9,0,30.4-5.6,34.7-16.8l1.4-3.6H80.5L55,596.1
		c-6-15.5-11.8-29.3-17.5-41.4c-5.7-12.1-9.8-20.4-12.5-24.9l-4.2-6.7h49.8L83,555.5L86.1,554.6z M139.8,582.4
		c2.2-6,3.7-12.1,4.5-18.3c0.7-6.3,0.6-12.3-0.4-18.1c-1-5.8-3.7-10.5-8-14.3c-4.3-3.7-10-5.6-17.1-5.6c-7.5,0-13.4,2.2-17.9,6.6
		c-4.5,4.4-7.3,9.9-8.5,16.5c-1.2,6.6-1.6,13.3-1.1,20.2c0.5,6.8,1.7,13,3.8,18.6l21,57.7L139.8,582.4z"/>
</g>
</svg>
