<?xml version="1.0" encoding="utf-8"?>
<!-- Generator: Adobe Illustrator 26.0.2, SVG Export Plug-In . SVG Version: 6.00 Build 0)  -->
<svg version="1.1" id="Layer_1" xmlns="http://www.w3.org/2000/svg" xmlns:xlink="http://www.w3.org/1999/xlink" x="0px" y="0px"
	 viewBox="0 0 647.9 825.7" style="enable-background:new 0 0 647.9 825.7;" xml:space="preserve">
<style type="text/css">
	.st0{fill:none;stroke:#E0007A;stroke-width:10;stroke-miterlimit:10;}
	.st1{enable-background:new    ;}
	.st2{fill:#FFFFFF;}
</style>
<path id="Path_1" class="st0" d="M222.8,15.1l150,53.2l51-26.6l61,90.1l22,124.5l18.2,35l-9.1,67.2l62.2,105.8l49,117.5l-71.1,25.9
	l24.6,137.5l-11.7,36.3h-188c0,0-144,16.9-158.2,19.5s-113.6,10.4-113.6,10.4"/>
<path id="Path_2" class="st0" d="M318.9,4.6l177.7,73.9l-18.2,90.8l70,197.1L621,537.1l21.9,38.3v15.4c0,0-24.4,16.9-28.3,13
	s-44.1-41.5-44.1-41.5l1.3,54.4l14.3,59.7l-20.8,58.4l5.1,13.4l-1.2,55.4l-180.7,16.9l-13.9-57.1L94.6,752.9"/>
<g class="st1">
	<path class="st2" d="M221.3,217.5l-13.2-35.1l-13.4,35.1h-35.1l-21.3-52.4c-5.1-12.6-10-24.2-14.8-34.8
		c-4.8-10.5-8.2-17.9-10.4-22.1l-3.5-6.2h40.4l42,107.4l13.2-34.4l-3.7-9.9c-4.8-12.8-9.6-24.4-14.3-35
		c-4.8-10.5-8.3-17.9-10.6-22.1l-3.5-6h40l11.8,31.2l2.5-0.2c1.7-9.5,5.2-17.6,10.4-24c5.2-6.5,12.5-9.7,21.9-9.7
		c9.1,0,16.1,3,20.9,8.9c4.9,5.9,7.3,14.4,7.3,25.5c0,7.5-1.6,16.5-4.9,26.8c-3.2,10.3-6.5,19.1-9.7,26.2
		c-3.2,7.2-8.1,17.4-14.6,30.8H221.3z M244.1,124.2c-5.7,0-9.8,3.1-12.2,9.2c-2.5,6.2-2.4,12.3,0.2,18.5l9.2,24.3
		c8.6-18.9,12.9-32,12.9-39.3C254.3,128.4,250.9,124.2,244.1,124.2z"/>
</g>
<g class="st1">
	<path class="st2" d="M413.7,134.2l-1.3,3.9c15.7,6.8,28.1,16.4,37.1,28.9c9,12.5,13.6,27.6,13.6,45.3c0,24.9-8.4,45.3-25.2,61.5
		c-16.8,16.1-37.8,24.2-63.1,24.2c-25.5,0-46.7-8.1-63.4-24.2c-16.8-16.1-25.2-36.6-25.2-61.5s8.4-45.3,25.2-61.5
		c16.8-16.1,37.9-24.2,63.4-24.2h70.3v7.5H413.7z M343.1,245c8.3,8.7,18.9,13.1,31.7,13.1c12.9,0,23.4-4.4,31.7-13.1
		c8.3-8.7,12.4-19.6,12.4-32.7s-4.1-24-12.4-32.7c-8.3-8.7-18.9-13.1-31.7-13.1c-12.9,0-23.4,4.4-31.7,13.1
		c-8.3,8.7-12.4,19.6-12.4,32.7S334.8,236.3,343.1,245z"/>
</g>
<g class="st1">
	<path class="st2" d="M217.6,423.2c0-15.3,6.2-27.6,18.6-37c12.4-9.4,29.5-14.1,51.3-14.1h34.7c0-22-8.2-33-24.5-33
		c-13.7,0-23.7,6.1-29.8,18.3l-42.5-17.3c5.4-11.1,14.3-21.3,26.7-30.6c12.3-9.3,28.1-13.9,47.3-13.9c46.9,0,70.3,26.1,70.3,78.2
		v31.1c0,5,0.9,8.7,2.8,11c1.8,2.3,5.4,3.4,10.6,3.4l15.4-2.3l-3.9,46.1c-10,2.6-20.8,3.9-32.4,3.9c-26.6,0-39.9-13.4-39.9-40.2
		v-19.6l-3.9-0.3c-1.1,5.2-2.2,9.9-3.4,13.9c-1.2,4-3.3,9.2-6.2,15.4s-6.3,11.4-10,15.5c-3.7,4.1-8.8,7.7-15.2,10.8
		c-6.4,3.1-13.6,4.6-21.4,4.6c-14,0-24.9-4.1-32.7-12.4C221.5,446.3,217.6,435.8,217.6,423.2z M321.6,379.7h-13.4
		c-28.8,0-43.2,8.6-43.2,25.8c0,5.5,1.6,9.7,4.9,12.8c3.3,3.1,7.6,4.6,13.1,4.6c11.3,0,20.1-4.4,26.2-13.1
		C315.3,401,319.4,391,321.6,379.7z"/>
</g>
<g class="st1">
	<path class="st2" d="M141.3,332.9c0-25.1-1.6-42.2-4.7-51.3c-3.2-9.2-10.8-13.7-23.1-13.7c-3.3,0-7.1,0.3-11.4,1l-0.7-6.2
		l87.3-11.4v173c0,5,0.9,8.7,2.8,11c1.8,2.3,5.4,3.4,10.6,3.4l15.4-2.3l-3.9,46.1c-12.4,2.6-24.3,3.9-35.6,3.9
		c-13.5,0-22.9-3.8-28.3-11.4c-5.3-7.6-8-16.7-8-27.1v-9.8l-3.9-1c-11.6,32.9-31.8,49.4-60.8,49.4c-20.5,0-37-8-49.5-24
		c-12.5-16-18.8-36.6-18.8-61.6c0-26.2,7.1-46.9,21.4-62.3c14.3-15.4,33.3-23.1,57.1-23.1C107.9,315.2,126,321.1,141.3,332.9z
		 M99.7,358.7c-13.3,0-23.5,3.9-30.7,11.8s-10.8,17.9-10.8,30.1c0,12.6,3.4,22.8,10.1,30.4c6.8,7.6,17.2,11.4,31.4,11.4
		c12,0,22-4,29.9-12.1c8-8.1,11.9-18,11.9-29.8s-4-21.7-11.9-29.8C121.7,362.8,111.7,358.7,99.7,358.7z"/>
</g>
<g class="st1">
	<path class="st2" d="M458.4,423.8c-7.9,0-13.7,1.3-17.3,4c-3.6,2.7-5.4,5.8-5.4,9.3c0,7.6,8.7,13.1,26,16.6
		c20.7,3.7,34.4,7.2,41.3,10.5c12.9,6.1,19.4,15.9,19.4,29.4c0,12-5.5,21.4-16.6,28.1c-11.1,6.7-25.6,10.1-43.5,10.1
		c-17.9,0-32.2-3.2-42.8-9.6c-10.6-6.4-15.9-15.5-15.9-27.3c0-9.8,3.5-17.9,10.5-24.4c7-6.5,15.3-10.8,24.9-13v-3
		c-9.4-1.7-17.3-5-23.7-10.1c-6.4-5.1-9.6-11.8-9.6-20.1c0-10.9,5.1-19.8,15.2-26.9c10.2-7,22.5-10.5,37.1-10.5
		c17.9,0,32.2,3.8,42.8,11.4c10.6,7.6,17.8,16.1,21.5,25.5l-36.6,16.1C481.2,429.2,472,423.8,458.4,423.8z M482.2,477.3
		c0-6.1-2.8-10.4-8.4-13c-5.6-2.6-12-3.9-19-3.9c-7.4,0-13.6,1.4-18.6,4.3c-5,2.9-7.5,7.1-7.5,12.6c0,5.2,2.3,9.3,6.8,12.5
		c4.5,3.1,11,4.7,19.5,4.7c7.6,0,14-1.4,19.3-4.2C479.5,487.5,482.2,483.2,482.2,477.3z"/>
</g>
<g class="st1">
	<path class="st2" d="M179.8,518.7v123.3l3,0.8c2-9.4,4.6-18,7.6-25.9c3-7.8,6.9-15.2,11.5-22.2c4.6-6.9,10.3-12.3,17-16.2
		c6.7-3.9,14.3-5.8,22.6-5.8c23.8,0,35.7,14.6,35.7,43.8c0,4.2-0.5,11.7-1.5,22.3c-1,10.6-1.5,18.4-1.5,23.4c0,5.2,0.8,9,2.4,11.5
		c1.6,2.5,4.5,3.7,8.7,3.7l13-1.9l-3.3,39.1c-8.3,2.2-17.9,3.3-28.8,3.3c-10.5,0-18.5-3.2-24-9.6c-5.4-6.4-8.2-15.3-8.2-26.7
		c0-6.5,0.5-15,1.5-25.8c1-10.7,1.5-18.8,1.5-24.4c0-14.4-4.9-21.6-14.7-21.6c-8.7,0-16.1,4.6-22.3,13.7
		c-6.2,9.1-10.6,20.3-13.3,33.5c-2.7,13.2-4.5,24.6-5.5,34.1c-1,9.5-1.5,17.3-1.5,23.4h-40.2v-118c0-1.8,0-4.4,0-7.8
		c0-5.5,0-9.6,0-12s0-5.9-0.1-10.1c-0.1-4.2-0.3-7.3-0.6-9.3c-0.3-1.9-0.7-4.4-1.2-7.3c-0.6-3-1.2-5.1-2.1-6.4
		c-0.8-1.3-1.8-2.8-3-4.6c-1.2-1.8-2.6-2.9-4.3-3.5c-1.7-0.6-3.6-1.2-5.7-1.8c-2.1-0.6-4.5-1-7.2-1c-2.7,0-5.7,0.3-9,0.8l-0.6-5.3
		L179.8,518.7z"/>
</g>
<g class="st1">
	<path class="st2" d="M366.9,562v113.3c0,5.4,1,9.3,3,11.8c2,2.5,5.8,3.7,11.4,3.7l16.2-2.5l-3.9,49.6c-10.8,2.8-22.4,4.2-34.8,4.2
		c-28.6,0-42.9-14.4-42.9-43.3v-38.4c0-32.4-0.7-52.1-2.1-59.1c-2.6-12.7-8.9-19.7-19-21.1c-4.2-0.7-9.5-0.6-15.8,0.4l-0.7-6.7
		L366.9,562z M366.2,509.9l0.7,7.7l-55.3,3.9l-0.4-8.1L366.2,509.9z"/>
</g>
<g class="st1">
	<path class="st2" d="M444.7,575l-0.3,66.2l3.3,0.8c2.6-12.8,6.1-24.1,10.6-34.1c4.4-9.9,10.8-18.4,19.2-25.6
		c8.3-7.1,18-10.7,28.9-10.7c24.1,0,36.1,14.6,36.1,43.9c0,4.3-0.6,11.7-1.7,22.4c-1.1,10.7-1.7,18.5-1.7,23.5c0,5.2,0.8,9,2.4,11.5
		c1.6,2.5,4.6,3.8,9,3.8l13.1-1.9l-3.3,39.2c-8.3,2.2-18.1,3.3-29.2,3.3c-10.6,0-18.6-3.2-24-9.7c-5.5-6.5-8.2-15.4-8.2-26.7
		c0-6.5,0.6-15.1,1.7-25.9c1.1-10.7,1.7-18.9,1.7-24.5c0-7.6-1.2-13.1-3.6-16.5c-2.4-3.4-6.2-5.1-11.4-5.1c-7,0-13.3,3.2-18.8,9.6
		c-5.5,6.4-9.6,14-12.5,22.8c-2.9,8.8-5.2,18.6-7.1,29.3c-1.9,10.8-3,19.6-3.5,26.4c-0.5,6.9-0.7,12.5-0.7,17h-40.6v-61.2
		c0-1.9,0-4.4,0-7.8c0-13-0.2-22.2-0.6-27.7c-0.4-5.5-1.5-11.1-3.5-16.8c-1.9-5.7-5.2-9.3-9.9-10.6c-4.6-1.3-11.1-1.4-19.5-0.3
		l-0.3-5.3L444.7,575z"/>
</g>
</svg>
