<?xml version="1.0" encoding="utf-8"?>
<!-- Generator: Adobe Illustrator 26.0.2, SVG Export Plug-In . SVG Version: 6.00 Build 0)  -->
<svg version="1.1" id="Layer_1" xmlns="http://www.w3.org/2000/svg" xmlns:xlink="http://www.w3.org/1999/xlink" x="0px" y="0px"
	 viewBox="0 0 559.9 825.7" style="enable-background:new 0 0 559.9 825.7;" xml:space="preserve">
<style type="text/css">
	.st0{fill:none;stroke:#E0007A;stroke-width:10;stroke-miterlimit:10;}
	.st1{enable-background:new    ;}
	.st2{fill:#FFFFFF;}
</style>
<path id="Path_1" class="st0" d="M134.8,15.1l150,53.2l51-26.6l61,90.1l22,124.5l18.2,35l-9.1,67.2l62.2,105.8l49,117.5l-71.1,25.9
	l24.6,137.5l-11.7,36.3h-188c0,0-144,16.9-158.2,19.5c-14.3,2.6-113.6,10.4-113.6,10.4"/>
<path id="Path_2" class="st0" d="M230.9,4.6l177.7,73.9l-18.2,90.8l70,197.1L533,537.1l21.9,38.3v15.4c0,0-24.4,16.9-28.3,13
	s-44.1-41.5-44.1-41.5l1.3,54.4l14.3,59.7l-20.8,58.4l5.1,13.4l-1.2,55.4l-180.7,16.9l-13.9-57.1L6.6,752.9"/>
<g class="st1">
	<path class="st2" d="M135.5,110.6c0-2.1,0.4-4.4,1.2-6.9c0.8-2.5,2-5.1,3.5-7.9c1.6-2.8,4-5.1,7.2-6.9c3.2-1.8,6.9-2.8,11.1-2.8
		c5.9,0,10.7,1.5,14.4,4.4c3.7,3,6.1,6.7,7.2,11.3c1.1,4.6,1.4,9.5,1,14.7c-0.5,5.2-1.6,10.3-3.4,15.3l-27.8,73.9
		c-1.6,4.3-2.8,7.4-3.6,9.3c-0.9,1.8-2.3,4.2-4.2,7c-2,2.8-4.4,4.8-7.4,6c-3,1.2-6.5,1.8-10.5,1.8c-2.4,0-4.8-0.2-7.4-0.6
		c-2.6-0.4-4.5-0.7-5.8-1l-2-0.6l-2.4-28.8c5.9,1.6,12.7,2.4,20.3,2.4c13.3,0,21.4-3.9,24.4-11.8l1-2.6h-20.7l-17.9-47.1
		c-4.2-10.9-8.3-20.6-12.3-29.2c-4-8.5-6.9-14.4-8.8-17.5l-3-4.7h35.1l8.7,22.9L135.5,110.6z M173.4,130.1c1.6-4.2,2.6-8.5,3.2-12.9
		c0.5-4.4,0.4-8.6-0.3-12.7c-0.7-4.1-2.6-7.4-5.6-10c-3-2.6-7-3.9-12-3.9c-5.3,0-9.5,1.5-12.6,4.6c-3.2,3.1-5.2,7-6,11.6
		c-0.9,4.7-1.1,9.4-0.8,14.2c0.3,4.8,1.2,9.2,2.7,13.1l14.8,40.6L173.4,130.1z"/>
</g>
<g class="st1">
	<path class="st2" d="M237.1,92v67c0,3.2,0.6,5.5,1.8,7c1.2,1.5,3.4,2.2,6.8,2.2l9.6-1.5l-2.3,29.3c-6.4,1.7-13.2,2.5-20.6,2.5
		c-16.9,0-25.4-8.5-25.4-25.6v-22.7c0-19.1-0.4-30.8-1.2-34.9c-1.5-7.5-5.3-11.6-11.2-12.5c-2.5-0.4-5.6-0.3-9.4,0.2l-0.4-4
		L237.1,92z M236.6,61.2l0.4,4.6l-32.7,2.3l-0.2-4.8L236.6,61.2z"/>
</g>
<g class="st1">
	<path class="st2" d="M228.2,255.6v88.5c0,4.2,0.8,7.3,2.3,9.2c1.6,1.9,4.5,2.9,8.9,2.9l12.6-1.9l-3,38.8
		c-8.4,2.2-17.5,3.3-27.2,3.3c-22.4,0-33.6-11.3-33.6-33.8v-30c0-25.3-0.5-40.7-1.6-46.2c-2-9.9-7-15.4-14.9-16.5
		c-3.3-0.5-7.4-0.5-12.4,0.3l-0.5-5.2L228.2,255.6z M227.7,214.9l0.5,6l-43.2,3l-0.3-6.3L227.7,214.9z"/>
</g>
<g class="st1">
	<path class="st2" d="M113.1,367.9c-15.9,0-30-3.5-42.3-10.4l-17.6,17.6h70.8c18.3,0,33,3.5,44.2,10.4c11.2,6.9,16.8,16.9,16.8,30
		c0,14.4-6.5,25.1-19.5,32.1c-13,7-30.5,10.5-52.5,10.5c-22,0-39.6-3.1-52.6-9.4c-13.1-6.3-19.6-15.7-19.6-28.4
		c0-5.8,1.5-11,4.6-15.7c3.1-4.7,7.1-8.3,12-10.9c4.9-2.6,9.6-4.6,14-6c4.4-1.4,8.8-2.4,13.3-2.9l-0.6-3.1h-40v-6.4l21.3-21.3
		C51.2,343.1,44,328.7,44,310.8c0-16.6,6.3-30.2,19-40.9c12.7-10.6,29.4-16,50.1-16c16.4,0,30.4,3.5,42,10.4l21.8-21.6l4.5,4.5
		L160.7,268c14.2,11,21.3,25.3,21.3,42.8c0,16.8-6.3,30.5-19,41.2C150.3,362.6,133.7,367.9,113.1,367.9z M112.9,422.5
		c8.8,0,15.6-1.7,20.4-5.2c4.9-3.5,7.3-8.4,7.3-15c0-9.1-4.9-15.3-14.6-18.5c-4.7-0.7-9.3-1.1-14-1.1c-18.3,0-27.4,6.5-27.4,19.6
		C84.6,415.8,94,422.5,112.9,422.5z M113.1,291.5c-7.3,0-13.2,1.8-17.8,5.5c-4.6,3.6-6.9,8.3-6.9,13.9c0,5.6,2.2,10.2,6.7,13.7
		l29.7-30.2C121.2,292.4,117.2,291.5,113.1,291.5z M130.8,297.4l-29.7,30.5c3.5,1.5,7.6,2.2,12,2.2c7.5,0,13.4-1.8,17.8-5.3
		c4.4-3.5,6.6-8.2,6.6-14C137.5,305.2,135.3,300.7,130.8,297.4z"/>
</g>
<g class="st1">
	<path class="st2" d="M292.2,253.6h5.4v34h40.1v5.4h-40.1v63.2c0,7.1,1.4,11.8,4.2,14.2s7.4,3.5,13.7,3.5c3.6,0,7.5-0.5,11.7-1.4
		c4.2-0.9,7.4-1.9,9.8-2.8l3.3-1.2l-5.4,34.2c-8.3,3.8-18.6,5.7-30.7,5.7c-27.2,0-40.8-13.8-40.8-41.3V293H250v-5.4L292.2,253.6z"/>
</g>
<g class="st1">
	<path class="st2" d="M48.1,553.1c0-2.2,0.4-4.6,1.2-7.1c0.8-2.6,2-5.3,3.7-8.2c1.6-2.9,4.1-5.2,7.4-7.1c3.3-1.9,7.2-2.9,11.5-2.9
		c6.1,0,11.1,1.5,14.9,4.6c3.8,3.1,6.3,7,7.4,11.7c1.2,4.8,1.5,9.8,1,15.2c-0.5,5.4-1.7,10.6-3.6,15.8L63,651.6
		c-1.6,4.5-2.9,7.7-3.8,9.6c-0.9,1.9-2.3,4.3-4.4,7.2c-2,2.9-4.6,5-7.6,6.2c-3.1,1.2-6.7,1.8-10.9,1.8c-2.4,0-5-0.2-7.6-0.6
		c-2.7-0.4-4.7-0.7-6-1l-2-0.6l-2.4-29.8c6.1,1.6,13.1,2.4,21,2.4c13.7,0,22.2-4.1,25.3-12.2l1-2.7H44.1l-18.6-48.8
		c-4.4-11.3-8.6-21.3-12.8-30.2c-4.1-8.8-7.2-14.9-9.1-18.2L0.6,530h36.3l9,23.7L48.1,553.1z M87.3,573.2c1.6-4.4,2.7-8.8,3.3-13.4
		c0.5-4.6,0.4-8.9-0.3-13.2c-0.7-4.2-2.7-7.7-5.8-10.4c-3.1-2.7-7.3-4.1-12.4-4.1c-5.4,0-9.8,1.6-13.1,4.8c-3.3,3.2-5.3,7.2-6.2,12
		c-0.9,4.8-1.2,9.7-0.8,14.7c0.3,5,1.3,9.5,2.8,13.6l15.3,42L87.3,573.2z"/>
</g>
<g class="st1">
	<path class="st2" d="M91.1,638.6c0-13.4,4.3-24.1,12.9-32.2c8.6-8.1,19.7-12.2,33.1-12.2c11.8,0,21.2,2.3,28.4,6.8
		c7.1,4.5,10.7,10.3,10.7,17.2c0,10.9-8.9,17.1-26.7,18.5l0.2,1.9h25.2v3.9h-58.3c1,11.9,7.6,17.8,19.9,17.8
		c8.4,0,14.4-3.7,18.2-11.2l22.1,9.5c-2.6,6.2-7.1,11.9-13.5,16.9c-6.4,5-15.3,7.6-26.8,7.6c-13.7-0.1-24.7-4.2-33-12.2
		C95.2,662.9,91.1,652.1,91.1,638.6z M151.4,626.2c0-2.7-1.2-5-3.7-6.8c-2.5-1.8-6-2.7-10.5-2.7c-6.2,0-11.3,1.9-15.1,5.8
		c-3.9,3.9-5.8,9.2-5.8,16.2h11c7.7,0,13.7-1.2,17.9-3.6C149.3,632.7,151.4,629.7,151.4,626.2z"/>
</g>
<g class="st1">
	<path class="st2" d="M112.4,588v-25.1c0-0.8,0-2.1,0-3.8c0-6.8-0.1-11.5-0.4-14.1c-0.3-2.6-1.2-4.8-2.9-6.4
		c-1.7-1.7-4.4-2.2-8.1-1.6l-0.1-2.2l28-3.9v24.2l1.4,0.5c0.7-3.7,1.5-7,2.4-9.9c0.9-2.9,2.1-5.6,3.6-8.2c1.5-2.5,3.5-4.5,5.8-5.9
		c2.4-1.4,5.1-2.1,8.1-2.1c4.9,0,8.8,2.2,11.8,6.7c3,4.4,4.2,11.2,3.6,20.2l-16.8,3.1c0.9-10.3-1.1-15.5-6-15.5
		c-2.4,0-4.4,1.3-6.2,4c-1.8,2.7-3.2,5.8-4.1,9.5c-1,3.6-1.7,7.7-2.3,12.3c-0.6,4.5-0.9,8.2-1.1,11c-0.2,2.8-0.2,5.2-0.2,7.2H112.4z
		"/>
</g>
<g class="st1">
	<path class="st2" d="M213.8,506.3L212,608.4c-0.1,3,0.5,5.1,1.6,6.5c1.1,1.4,3.2,2.1,6.1,2.1l9.1-1.2l-2.8,27.2
		c-5.8,1.4-12.1,2.1-19,2c-15.8-0.3-23.6-8.3-23.3-24.1l1-60.8c0-1.3,0.1-3.1,0.1-5.4c0.1-3.9,0.1-6.7,0.1-8.4c0-1.7,0-4.1,0-7
		c0-3-0.1-5.1-0.3-6.5c-0.2-1.4-0.4-3.1-0.8-5.1c-0.4-2.1-0.8-3.6-1.4-4.5c-0.6-0.9-1.3-2-2.1-3.2c-0.8-1.2-1.8-2.1-3-2.5
		c-1.2-0.4-2.5-0.8-3.9-1.3c-1.5-0.5-3.1-0.7-5-0.8c-1.9,0-4,0.1-6.3,0.5l-0.1-3.7L213.8,506.3z"/>
</g>
<g class="st1">
	<path class="st2" d="M281.2,604.7l1.4-82.2c0-1.3,0.1-3.1,0.1-5.4c0.1-3.9,0.1-6.7,0.1-8.4c0-1.7,0-4.1,0-7c0-3-0.1-5.1-0.3-6.5
		s-0.4-3.1-0.8-5.1c-0.4-2.1-0.8-3.6-1.4-4.5c-0.6-0.9-1.3-2-2.1-3.2c-0.8-1.2-1.8-2.1-2.9-2.5c-1.2-0.4-2.5-0.8-3.9-1.3
		c-1.5-0.5-3.1-0.7-5-0.8c-1.9,0-4,0.1-6.3,0.5l-0.1-3.7l51.5-5.9l-1.3,79.3l2.3,0.8c7.9-28.1,21.6-41.9,40.9-41.6
		c7.3,0.1,13.5,2.4,18.4,6.8c4.9,4.4,7.4,10.3,7.2,17.6c-0.1,8.8-3.1,15.4-8.9,19.8c-5.8,4.5-12.2,6.6-19.3,6.5l6.7,12.5
		c2,3.8,4,6.3,6,7.7c2,1.4,5,2.1,8.8,2.2l12.2-1.1l-2.8,27.2c-5.3,1.5-10.7,2.1-16.1,2c-6.9-0.1-12.5-1.8-16.6-4.9
		c-4.1-3.2-8.3-8.1-12.4-14.7l-15.9-30l0.1-5.6l13.3,0.2c4.4,0.1,8.2-0.8,11.5-2.7c3.3-1.9,5-4.8,5.1-8.8c0-2.7-0.9-4.8-2.7-6.4
		c-1.8-1.6-4.4-2.4-7.6-2.4c-4.1-0.1-7.9,0.9-11.2,2.8c-3.4,1.9-6.1,4.3-8.2,7.1c-2.1,2.8-3.9,6.5-5.5,11.2
		c-1.6,4.7-2.7,8.8-3.5,12.5c-0.8,3.7-1.4,8.2-1.9,13.8c-0.5,5.5-0.7,9.5-0.8,12.1c0,2.5-0.1,6-0.2,10.3c0,1,0,1.8,0,2.3
		L281.2,604.7z"/>
</g>
<g class="st1">
	<path class="st2" d="M388.3,560c0.1-7.1,3.1-12.8,9-17c5.8-4.3,13.8-6.3,24-6.1l16.1,0.3c0.2-10.2-3.5-15.4-11.1-15.5
		c-6.4-0.1-11,2.7-14,8.3l-19.6-8.4c2.6-5.1,6.8-9.8,12.6-14c5.8-4.2,13.2-6.2,22.1-6.1c21.8,0.4,32.5,12.7,32.1,36.9l-0.2,14.4
		c0,2.3,0.4,4,1.2,5.1c0.8,1.1,2.5,1.6,4.9,1.7l7.2-0.9l-2.2,21.4c-4.7,1.1-9.7,1.7-15.1,1.6c-12.4-0.2-18.4-6.5-18.2-19l0.2-9.1
		l-1.8-0.2c-0.6,2.4-1.1,4.6-1.7,6.4c-0.6,1.9-1.6,4.2-3,7.1c-1.4,2.9-3,5.2-4.8,7.1c-1.8,1.9-4.1,3.5-7.2,4.9c-3,1.4-6.3,2-10,2
		c-6.5-0.1-11.5-2.1-15.1-6C390,570.7,388.2,565.8,388.3,560z M437,540.6l-6.2-0.1c-13.4-0.2-20.1,3.7-20.3,11.7
		c0,2.5,0.7,4.5,2.2,6c1.5,1.4,3.5,2.2,6,2.2c5.3,0.1,9.4-1.9,12.3-5.9C433.9,550.4,435.9,545.8,437,540.6z"/>
</g>
<g class="st1">
	<path class="st2" d="M317.7,638.8c0-1.6,0.4-3.4,1-5.3c0.6-1.9,1.6-3.9,2.8-6c1.3-2.1,3.1-3.8,5.6-5.2c2.5-1.4,5.4-2,8.6-2
		c4.6,0.1,8.2,1.3,11,3.6c2.8,2.3,4.6,5.3,5.4,8.8c0.8,3.6,1,7.3,0.6,11.3c-0.4,4-1.4,7.9-2.9,11.7l-22.4,56.6
		c-1.3,3.3-2.3,5.7-2.9,7.1c-0.7,1.4-1.8,3.2-3.4,5.3c-1.6,2.2-3.5,3.7-5.8,4.5c-2.3,0.9-5,1.3-8.2,1.2c-1.8,0-3.7-0.2-5.7-0.6
		s-3.5-0.6-4.5-0.8l-1.5-0.5l-1.4-22.2c4.5,1.3,9.7,2,15.6,2.1c10.2,0.2,16.6-2.8,19-8.8l0.8-2l-16-0.3L300.4,661
		c-3.1-8.5-6.1-16-9.1-22.7c-3-6.6-5.2-11.2-6.5-13.6l-2.2-3.7l27.1,0.5l6.4,17.7L317.7,638.8z M346.6,654.3
		c1.3-3.2,2.1-6.5,2.6-9.9c0.5-3.4,0.4-6.7-0.1-9.8c-0.5-3.1-1.9-5.8-4.2-7.8c-2.3-2.1-5.4-3.1-9.2-3.2c-4.1-0.1-7.3,1.1-9.8,3.4
		c-2.5,2.3-4.1,5.3-4.8,8.9c-0.7,3.6-1,7.2-0.8,10.9c0.2,3.7,0.8,7.1,1.9,10.1l10.9,31.5L346.6,654.3z"/>
</g>
<g class="st1">
	<path class="st2" d="M357.8,702.1c0.2-9.6,4.2-17.2,12.1-23c7.9-5.7,18.7-8.5,32.3-8.3l21.7,0.4c0.2-13.8-4.8-20.8-15-21
		c-8.6-0.1-14.9,3.6-18.9,11.2l-26.5-11.3c3.5-6.9,9.2-13.2,17-18.9c7.8-5.7,17.7-8.4,29.8-8.2c29.4,0.5,43.8,17.1,43.2,49.7
		l-0.3,19.5c-0.1,3.1,0.5,5.4,1.6,6.9c1.1,1.5,3.3,2.2,6.6,2.3l9.7-1.3l-3,28.9c-6.3,1.5-13.1,2.2-20.3,2.1
		c-16.7-0.3-24.9-8.8-24.6-25.6l0.2-12.3l-2.5-0.2c-0.7,3.3-1.5,6.2-2.3,8.7c-0.8,2.5-2.1,5.7-4.1,9.6c-1.9,3.9-4.1,7.1-6.4,9.6
		c-2.4,2.6-5.6,4.8-9.6,6.6c-4.1,1.8-8.6,2.7-13.5,2.6c-8.7-0.1-15.5-2.9-20.4-8.1C360,716.6,357.7,710,357.8,702.1z M423.5,676
		l-8.4-0.1c-18-0.3-27.2,4.9-27.3,15.7c-0.1,3.4,0.9,6.1,2.9,8c2,2,4.7,3,8.2,3c7.1,0.1,12.6-2.5,16.5-7.9
		C419.3,689.3,422,683,423.5,676z"/>
</g>
<g class="st1">
	<path class="st2" d="M270.8,613.3l-1.1,62.1c-0.1,3,0.5,5.1,1.5,6.5c1.1,1.4,3.1,2.1,6.2,2.1l8.9-1.2l-2.6,27.2
		c-5.9,1.4-12.3,2.1-19.1,2c-15.7-0.3-23.4-8.3-23.1-24.1l0.4-21c0.3-17.8,0.1-28.6-0.6-32.4c-1.3-7-4.7-10.9-10.2-11.8
		c-2.3-0.4-5.2-0.4-8.7,0l-0.3-3.7L270.8,613.3z M270.9,584.7l0.3,4.3l-30.3,1.6l-0.1-4.4L270.9,584.7z"/>
</g>
</svg>
